<svg xmlns:xlink="http://www.w3.org/1999/xlink" xmlns:v="https://vecta.io/nano" xmlns="http://www.w3.org/2000/svg" width="277" height="173" fill="none"><style><![CDATA[.B{fill:#14509b}.C{fill:#95d3ff}.D{fill:#f99746}.E{fill:#ffb27d}.F{fill:#e9f2fa}]]></style><path d="M274.995 112.8l-73.363 35.03c-1.205.602-2.712.075-3.314-1.206l-20.412-42.788c-.603-1.205-.076-2.712 1.205-3.314l73.363-35.03c1.205-.603 2.71-.075 3.314 1.205l20.412 42.788c.603 1.28.075 2.712-1.205 3.315z" class="B"/><path d="M258.198 110.002c1.205 2.486.15 5.5-2.335 6.63-2.485 1.205-5.498.15-6.628-2.336-1.205-2.486-.15-5.5 2.335-6.63 2.486-1.205 5.498-.15 6.628 2.335z" class="D"/><path d="M265.203 106.613c1.205 2.485.15 5.5-2.335 6.63-2.485 1.205-5.498.15-6.628-2.336-1.205-2.485-.15-5.5 2.335-6.63s5.423-.15 6.628 2.336z" fill="#bee3fe"/><path d="M230.78 112.865l-33.14 15.82c-.528.3-1.205 0-1.507-.528s0-1.205.527-1.506l33.142-15.82c.527-.3 1.205 0 1.506.527.302.603.076 1.28-.527 1.507zm5.274 1.808l-36.682 17.552c-.527.3-1.205 0-1.506-.527s0-1.205.527-1.507l36.682-17.552c.527-.3 1.205 0 1.506.527s0 1.206-.527 1.507zm-28.32-13.86l-17.927 8.588a2.31 2.31 0 0 1-3.163-1.13 2.31 2.31 0 0 1 1.13-3.164l17.926-8.588a2.31 2.31 0 0 1 3.164 1.13c.602 1.205.075 2.637-1.13 3.164z" fill="#e3f0ff"/><path d="M269.346 172.3H188a2.51 2.51 0 0 1-2.486-2.486v-47.383a2.51 2.51 0 0 1 2.486-2.486h81.347a2.51 2.51 0 0 1 2.485 2.486v47.383c0 1.356-1.054 2.486-2.485 2.486z" class="B"/><path d="M271.907 124.54h-86.32v11.3h86.32v-11.3z" class="C"/><use xlink:href="#B" class="D"/><use xlink:href="#B" x="7.758" fill="#bee3fe"/><path d="M238.54 140.738h-46.925v7.382h46.925v-7.382z" fill="#fff"/><path d="M229.5 159.796h-36.757a1.16 1.16 0 0 1-1.13-1.13 1.16 1.16 0 0 1 1.13-1.13H229.5a1.16 1.16 0 0 1 1.13 1.13 1.16 1.16 0 0 1-1.13 1.13zm3.917 3.842h-40.673a1.16 1.16 0 0 1-1.13-1.13 1.16 1.16 0 0 1 1.13-1.13h40.673a1.16 1.16 0 0 1 1.13 1.13 1.16 1.16 0 0 1-1.13 1.13z" fill="#e3f0ff"/><path d="M196.21 41.752H54.98v115.483H196.21V41.752z" class="B"/><path d="M219.784 172.3H31.405v-6.478a1 1 0 0 1 .979-.979h186.42a1 1 0 0 1 .979.979v6.478zM64.773 46.8H45.867v107.348h18.906V46.8z" class="C"/><path d="M64.773 150.832H45.867v3.315h18.906v-3.315z" class="B"/><g class="C"><path d="M65.827 154.147H44.813c-.15 0-.226-.15-.226-.226v-2.034c0-.15.15-.226.226-.226h21.015c.15 0 .226.15.226.226v2.034c.075.15-.075.226-.226.226z"/><use xlink:href="#C"/><path d="M64.773 41.752H45.415a5.05 5.05 0 0 0-5.047 5.047 5.05 5.05 0 0 0 5.047 5.047 5.05 5.05 0 0 0 5.046-5.047h9.19a5.05 5.05 0 0 0 5.047 5.047 5.05 5.05 0 0 0 5.046-5.047c.075-2.787-2.184-5.047-4.97-5.047z"/></g><g class="B"><use xlink:href="#D"/><path d="M44.587 153.62v.302c0 .15.15.226.226.226h21.015c.15 0 .226-.15.226-.226v-.302H44.587zm-1.28 2.937v.226a.49.49 0 0 0 .452.452h23.2a.49.49 0 0 0 .452-.452v-.226H43.306z"/></g><g class="F"><path d="M47.373 150.23c-.3 0-.602-.226-.602-.602V53.73c0-.3.226-.603.602-.603.3 0 .603.226.603.603v95.972c0 .3-.3.527-.603.527zm3.013 0c-.3 0-.603-.226-.603-.602v-98.9c0-.3.226-.603.603-.603.3 0 .602.226.602.603v98.9c-.075.376-.3.602-.602.602zm2.938.075c-.3 0-.603-.226-.603-.603V48.306c0-.3.226-.603.603-.603.3 0 .602.226.602.603v101.47c0 .302-.3.528-.602.528zm3.013-.075c-.3 0-.603-.226-.603-.602V48.23c0-.3.226-.603.603-.603.3 0 .603.226.603.603V149.7c-.075.3-.3.527-.603.527zm2.937 0c-.3 0-.603-.226-.603-.602v-98.9c0-.3.226-.603.603-.603.3 0 .603.226.603.603v98.9c0 .376-.3.602-.603.602zm3.013 0c-.3 0-.603-.226-.603-.602V53.73c0-.3.226-.603.603-.603.3 0 .603.226.603.603v95.972c-.075.3-.3.527-.603.527z"/><use xlink:href="#E"/><use xlink:href="#E" x="-19.358"/></g><g class="B"><use xlink:href="#F"/><path d="M59.726 46.8s.075-2.11 1.582-3.24c0 0-2.335.603-2.486 3.24h.904z"/></g><path d="M111.773 46.8H92.868v107.348h18.905V46.8z" class="C"/><path d="M111.773 150.832H92.868v3.315h18.905v-3.315z" class="B"/><g class="C"><path d="M112.828 154.147H91.813c-.15 0-.226-.15-.226-.226v-2.034c0-.15.15-.226.226-.226h21.015c.15 0 .226.15.226.226v2.034c.075.15-.076.226-.226.226z"/><use xlink:href="#C" x="47.001"/><path d="M111.773 41.752H92.416a5.05 5.05 0 0 0-5.047 5.047 5.05 5.05 0 0 0 5.047 5.047 5.05 5.05 0 0 0 5.046-5.047h9.19a5.05 5.05 0 0 0 5.047 5.047 5.05 5.05 0 0 0 5.047-5.047c.075-2.787-2.185-5.047-4.972-5.047z"/></g><path d="M111.773 51.922v.98a5.05 5.05 0 0 1-5.046-5.047h-9.2c0 2.637-2.034 4.82-4.595 5.047v-.98c2.56-.226 4.595-2.4 4.595-5.047h9.2a5.1 5.1 0 0 0 5.046 5.047zM91.587 153.62v.302c0 .15.15.226.226.226h21.015c.15 0 .226-.15.226-.226v-.302H91.587zm-1.28 2.937v.226a.49.49 0 0 0 .452.452h23.2a.49.49 0 0 0 .452-.452v-.226H90.307z" class="B"/><g class="F"><path d="M94.374 150.23c-.3 0-.603-.226-.603-.602V53.73c0-.3.226-.603.603-.603.3 0 .603.226.603.603v95.972c0 .3-.3.527-.603.527zm3.013 0c-.3 0-.603-.226-.603-.602v-98.9c0-.3.226-.603.603-.603.3 0 .603.226.603.603v98.9c-.075.376-.3.602-.603.602zm2.937.075c-.3 0-.602-.226-.602-.603V48.306c0-.3.226-.603.602-.603.302 0 .603.226.603.603v101.47c0 .302-.3.528-.603.528zm3.013-.075c-.3 0-.602-.226-.602-.602V48.23c0-.3.226-.603.602-.603a.55.55 0 0 1 .603.603V149.7c-.075.3-.3.527-.603.527z"/><use xlink:href="#G"/><path d="M109.288 150.23c-.302 0-.603-.226-.603-.602V53.73c0-.3.226-.603.603-.603a.55.55 0 0 1 .602.603v95.972c-.075.3-.3.527-.602.527z"/><use xlink:href="#H"/><use xlink:href="#E" x="27.643"/></g><g class="B"><use xlink:href="#F" x="47"/><path d="M106.727 46.8s.075-2.11 1.58-3.24c0 0-2.334.603-2.485 3.24h.904z"/></g><path d="M158.774 46.8h-18.906v107.348h18.906V46.8z" class="C"/><path d="M158.774 150.832h-18.906v3.315h18.906v-3.315z" class="B"/><g class="C"><path d="M159.828 154.147h-21.014c-.15 0-.226-.15-.226-.226v-2.034c0-.15.15-.226.226-.226h21.014c.15 0 .226.15.226.226v2.034c.076.15-.075.226-.226.226z"/><use xlink:href="#C" x="94.001"/><path d="M158.774 41.752h-19.358a5.05 5.05 0 0 0-5.046 5.047 5.05 5.05 0 0 0 5.046 5.047 5.05 5.05 0 0 0 5.047-5.047h9.19a5.05 5.05 0 0 0 5.046 5.047 5.05 5.05 0 0 0 5.047-5.047c.075-2.787-2.184-5.047-4.97-5.047z"/></g><g class="B"><use xlink:href="#D" x="94.001"/><path d="M138.588 153.62v.302c0 .15.15.226.226.226h21.014c.15 0 .226-.15.226-.226v-.302h-21.466zm-1.28 2.937v.226a.49.49 0 0 0 .452.452h23.2a.49.49 0 0 0 .452-.452v-.226h-24.103z"/></g><g class="F"><path d="M141.375 150.23c-.302 0-.603-.226-.603-.602V53.73c0-.3.226-.603.603-.603.3 0 .602.226.602.603v95.972c0 .3-.3.527-.602.527zm3.012 0c-.3 0-.602-.226-.602-.602v-98.9c0-.3.226-.603.602-.603.302 0 .603.226.603.603v98.9c-.075.376-.3.602-.603.602zm2.938.075c-.3 0-.603-.226-.603-.603V48.306c0-.3.226-.603.603-.603.3 0 .603.226.603.603v101.47c0 .302-.302.528-.603.528zm2.938-.075c-.302 0-.603-.226-.603-.602V48.23c0-.3.226-.603.603-.603.3 0 .602.226.602.603V149.7c0 .3-.226.527-.602.527zm3.012 0c-.3 0-.602-.226-.602-.602v-98.9c0-.3.226-.603.602-.603.302 0 .603.226.603.603v98.9c0 .376-.3.602-.603.602zm2.938 0c-.3 0-.603-.226-.603-.602V53.73c0-.3.226-.603.603-.603.3 0 .602.226.602.603v95.972c0 .3-.225.527-.602.527z"/><use xlink:href="#E" x="94.001"/><use xlink:href="#H" x="27.643"/></g><g class="B"><use xlink:href="#F" x="93.926"/><path d="M153.727 46.8s.076-2.11 1.582-3.24c0 0-2.335.603-2.486 3.24h.904z"/></g><path d="M205.774 46.8H186.87v107.348h18.905V46.8z" class="C"/><path d="M205.774 150.832H186.87v3.315h18.905v-3.315z" class="B"/><g class="C"><path d="M206.83 154.147h-21.015c-.15 0-.226-.15-.226-.226v-2.034c0-.15.15-.226.226-.226h21.015c.15 0 .226.15.226.226v2.034c.075.15-.075.226-.226.226z"/><use xlink:href="#C" x="141.003"/><path d="M205.774 41.752h-19.357a5.05 5.05 0 0 0-5.047 5.047 5.05 5.05 0 0 0 5.047 5.047 5.05 5.05 0 0 0 5.046-5.047h9.265a5.05 5.05 0 0 0 5.046 5.047 5.05 5.05 0 0 0 5.047-5.047 5.05 5.05 0 0 0-5.047-5.047z"/></g><path d="M205.774 51.922v.98a5.05 5.05 0 0 1-5.046-5.047h-9.2c0 2.637-2.034 4.82-4.595 5.047v-.98c2.56-.226 4.595-2.4 4.595-5.047h9.2a5.1 5.1 0 0 0 5.046 5.047zM185.588 153.62v.302c0 .15.15.226.226.226h21.015c.15 0 .226-.15.226-.226v-.302h-21.467zm-1.28 2.937v.226a.49.49 0 0 0 .452.452h23.2a.49.49 0 0 0 .452-.452v-.226H184.31z" class="B"/><g class="F"><path d="M188.375 150.23c-.3 0-.602-.226-.602-.602V53.73c0-.3.226-.603.602-.603.302 0 .603.226.603.603v95.972c0 .3-.3.527-.603.527zm2.938 0c-.302 0-.603-.226-.603-.602v-98.9c0-.3.226-.603.603-.603.3 0 .602.226.602.603v98.9a.55.55 0 0 1-.602.602zm3.013.075c-.302 0-.603-.226-.603-.603V48.306c0-.3.226-.603.603-.603a.55.55 0 0 1 .602.603v101.47c0 .302-.3.528-.602.528zm2.937-.075c-.3 0-.602-.226-.602-.602V48.23c0-.3.225-.603.602-.603.3 0 .603.226.603.603V149.7c0 .3-.226.527-.603.527z"/><use xlink:href="#G" x="94.001"/><path d="M203.214 150.23c-.302 0-.603-.226-.603-.602V53.73c0-.3.226-.603.603-.603.3 0 .602.226.602.603v95.972c0 .3-.226.527-.602.527z"/><use xlink:href="#H" x="94.001"/><path d="M186.417 48.758a1.96 1.96 0 0 0 1.958-1.959 1.96 1.96 0 0 0-1.958-1.959 1.96 1.96 0 0 0-1.959 1.959 1.96 1.96 0 0 0 1.959 1.959z"/></g><path d="M191.463 46.8s-.075-2.1-1.58-3.24c0 0 2.335.603 2.485 3.24h-.904zm9.265 0s.075-2.1 1.582-3.24c0 0-2.335.603-2.486 3.24h.904z" class="B"/><path d="M215.867 164.768H35.322V158.3a1 1 0 0 1 .979-.98h178.512a1 1 0 0 1 .979.98v6.478h.075z" class="C"/><path d="M215.867 163.563H35.322v1.205h180.545v-1.205z" fill="#f8fbff"/><path d="M126.612.17c-.678-.226-1.356-.226-2.034 0L35.322 34.22v7.533h180.545V34.22L126.612.17z" class="B"/><path d="M125.482 2.88L49.18 31.96c-.377.15-.3.678.15.678h152.6c.377 0 .527-.527.15-.678L125.708 2.88h-.226z" class="C"/><g clip-path="url(#A)"><path d="M60.256 85.234c-.47 1.266-1.298 2.743-2.16 3.1-.985.41-1.388 1-1.388 1l-.795-.455-.95-.544.067-.278.213-.666s.29-.366.112-.833-.145-1.177.157-1.62c.302-.433.593-1.5.783-1.488.448.078-.213 1.555-.033 1.833.168.244.38.167.425.144 1.254-.544 2.753-3.465 3.425-3.065.246.156.347 2.32.145 2.865z" class="E"/><path d="M55.958 87l1.556 1.088c.112.078.258.055.336-.055l3.984-5.62c.078-.11.056-.255-.056-.333l-1.556-1.088c-.112-.078-.257-.055-.336.056l-3.984 5.62c-.078.11-.056.255.056.333z" class="B"/><g fill="#233862"><path d="M57.38 88l.907.633c.078.056.2.033.257-.044l4.05-5.72a.19.19 0 0 0-.045-.255l-.906-.633c-.078-.055-.202-.033-.258.044l-4.05 5.72c-.056.078-.034.2.045.255zm-23.716-9.064S41.577 92.63 44.442 95.14l10.52-7.785s1.522.466 2.194 1.988c0 0-6.4 12.916-12.68 13.46s-15.12-15.48-15.12-15.48l4.3-8.385zM15.758 172.05h-4.566c-.57-.3-1.086-1.022-1.253-2.077-.224-1.466-1.87-2.255-2.227-3.454s1.477-2.877 1.477-2.877l.302-.388.313-.4 3.033.7.123 1.632.01 2.088c-.1 1.588.448 3.3 1.88 3.62 1.052.222 1.007.844.906 1.155zm26.524 0H31.83c-.504-.6-.313-2.855-.246-3.588l.022-.233s3.57-2.832 4.063-.666a1.37 1.37 0 0 0 .056.2c.616 2.032 3.4 2.954 4.992 3.2 1.04.167 1.42.7 1.567 1.078z"/></g><path d="M40.3 114.154l-1.175 14.77L37.1 155.9c-.18 4.432-.895 11.506-.895 11.506s-1.7 1.677-5.08.978c0 0-3.022-10.107-3.883-20.802-.01-.178-.022-.356-.045-.533l-2.048-33.818 15.142.933z" class="D"/><path d="M40.3 114.154l-1.175 14.77-11.874 18.647-.045-.533-2.048-33.818 15.142.933z" fill="#ed7d2b"/><path d="M37.816 114.953s-9.77 24.3-16.194 35.717l-8.427 14.605s-3.682-1.455-4.007-2.454c0 0 2.45-22.046 6.76-27.42 2.43-3.032 5.282-12.15 5.417-15.338s.873-9.496.873-9.496l15.58 4.387z" class="D"/><path d="M35.388 79.525c-3.816 1.2-10.42-2.032-10.42-2.032s3.514-2.62 3.335-8.074l4.958 3.965s-.01.944-.224 2.6a40.02 40.02 0 0 1-.224 1.455c1.634.9 2.574 2.088 2.574 2.088z" class="E"/><path d="M33.25 73.395s-.01.944-.224 2.6c-2.216-.378-4.745-3.943-4.745-3.943 1.13-.322 2.127-.378 2.966-.267l2.003 1.6z" fill="#ed975d"/><path d="M34.426 73.306s-6.3 1.044-6.894-2.865-1.802-6.408 2.194-7.23c3.995-.833 5.014.544 5.53 1.8s.795 7.92-.828 8.296z" class="E"/><path d="M40.715 114.71a.59.59 0 0 1-.403.155c-1.432-.022-5.618.767-9.155.41-2.977-.288-5.618-1.155-8.45-2.42-.38-.166-1.242-.622-1.22-1.044l.112-1.954c.202-2.9.548-7.897.213-13.66a76.92 76.92 0 0 1-.101-3.187c-.034-7.808 1.533-14.67 4.667-16.992.27-.19 1.914.61 3.425 1.344 1.4.69 2.787.755 4.107.49l1.32 1.155c1.6 1.477 3.37 3.487 4.13 6.54.65 2.6 1.03 7.286 1.242 12.14.1 2.2.168 4.42.2 6.53v.078c.022.21.022.433.022.644.067 5.42-.01 9.706-.1 9.773z" class="B"/><g fill="#233862"><path d="M21.6 109.856c.2-2.9.548-7.897.213-13.66a76.91 76.91 0 0 1-.101-3.187c1.3-3.143 2.373-5.42 2.373-5.42h3.3c0 .01 2.417 16.36-5.775 22.268zM4.745 128.392l14.034 1.988c1.824.255 3.537-1 3.794-2.832l.862-6.042c.257-1.8-1.018-3.5-2.854-3.765l-14.023-1.977c-1.824-.255-3.537 1-3.794 2.82l-.862 6.042c-.27 1.8 1.007 3.5 2.843 3.765z"/></g><path d="M21.387 119.55a3.38 3.38 0 0 0-2.328-2.021l-.325-.067-2.798-.4.2-1.3c.045-.29-.034-.577-.213-.822-.18-.233-.437-.388-.728-.433l-.727-.1-2.932-.41-.526-.078c-.604-.088-1.175.334-1.253.933l-.2 1.3-4.824-.678c-1.835-.255-3.548 1.022-3.805 2.832l-.873 6.11c-.257 1.82 1.03 3.52 2.854 3.776l13.99 2a3.24 3.24 0 0 0 .727.022c.38-.033.75-.122 1.097-.278 1.03-.455 1.813-1.4 1.98-2.587l.873-6.11c.1-.588.022-1.166-.2-1.688zm-10.968-4.587c.022-.177.168-.322.347-.344.045-.01.078-.01.123 0l.627.09 2.306.322 1.253.178c.224.033.38.244.347.466l-.2 1.3-5.014-.71.2-1.3z" class="B"/><path d="M15.41 110.422s-.74.977-.76 1.366c-.2 2.643 1.018 3-2.126 4.465 0 0-1.343.51-1.365-.522s.93-1.055.76-2.5c-.202-1.666-.18-1.688.93-2.554l.727-1.2 1.835.944z" class="E"/><g class="B"><path d="M13.542 111.166c1.186.233 2.473.133 2.473.133l3.973-11.772c.448-1 10.453-12.65 10.453-12.65l-4.163-10.34S15.467 94.463 14.37 96.984c-1.813 4.165-2.44 13.494-2.44 13.494a4.33 4.33 0 0 0 1.612.688zM27.52 70.063s.65-.1.537-1-.1-2.044.627-1.82c.727.2.76.8 1.063.455s.302-1.755 2.462-1.855 3.033.644 4.03.2c1.007-.433 1.052-1.944 1.052-1.944s-.28.533-.716.7c0 0 1.668-2.266-.27-3.832s-3.906-.533-5.036-.466c-2.473.144-4.063.3-4.868 1.9-.795 1.6-.46 6.064 1.12 7.62z"/></g><path d="M14.258 111.577s.705.733.75 1.044c.146.977.47 1.4.313 1.51-.347.222-.795-.5-1.02-1.156s-.045-1.4-.045-1.4z" class="E"/></g><path d="M61.387 21.715c-8.073 0-14.616 6.808-14.616 15.193s14.616 24.896 14.616 24.896 14.616-16.51 14.616-24.896c-.02-8.385-6.563-15.193-14.616-15.193zm0 21.402c-4.067 0-7.368-3.274-7.368-7.287 0-4.033 3.302-7.287 7.348-7.287 4.067 0 7.348 3.274 7.348 7.287.02 4.013-3.28 7.287-7.328 7.287z" class="D"/><defs><clipPath id="A"><path fill="#fff" transform="translate(0 60.134)" d="M0 0h62.64v111.916H0z"/></clipPath><path id="B" d="M250.44 167.48a4.97 4.97 0 1 0 0-9.944c-2.745 0-4.97 2.226-4.97 4.972s2.226 4.972 4.97 4.972z"/><path id="C" d="M66.957 157.235h-23.2a.49.49 0 0 1-.452-.452V154.6a.49.49 0 0 1 .452-.452h23.2a.49.49 0 0 1 .452.452v2.184c0 .3-.226.452-.452.452z"/><path id="D" d="M64.773 51.922v.98a5.05 5.05 0 0 1-5.047-5.047h-9.19c0 2.637-2.034 4.82-4.595 5.047v-.98c2.56-.226 4.595-2.41 4.595-5.047h9.19c0 2.712 2.26 5.047 5.047 5.047z"/><path id="E" d="M64.773 48.758a1.96 1.96 0 0 0 1.958-1.959 1.96 1.96 0 0 0-1.958-1.959 1.96 1.96 0 0 0-1.958 1.959 1.96 1.96 0 0 0 1.958 1.959z"/><path id="F" d="M50.537 46.8s-.075-2.11-1.582-3.24c0 0 2.335.603 2.486 3.24h-.904z"/><path id="G" d="M106.275 150.23c-.3 0-.603-.226-.603-.602v-98.9c0-.3.226-.603.603-.603.3 0 .602.226.602.603v98.9c0 .376-.3.602-.602.602z"/><path id="H" d="M111.773 48.758a1.96 1.96 0 0 0 1.959-1.959 1.96 1.96 0 0 0-1.959-1.959 1.96 1.96 0 0 0-1.958 1.959 1.96 1.96 0 0 0 1.958 1.959z"/></defs></svg>