<svg width="144" height="98" fill="none" xmlns="http://www.w3.org/2000/svg">
    <path d="M130.852.414H94.219a2.109 2.109 0 100 4.219h36.633c5.007 0 8.929 4.015 8.929 9.14v9.352a2.11 2.11 0 104.219 0v-9.352c0-7.49-5.775-13.359-13.148-13.359zM2.11 51.11A2.11 2.11 0 004.218 49V13.773c0-5.04 4.132-9.14 9.21-9.14h70.946a2.11 2.11 0 100-4.219H13.43C6.025.414 0 6.407 0 13.774V49a2.11 2.11 0 002.11 2.11zM141.891 30.86a2.11 2.11 0 00-2.11 2.109v51.258c0 5.125-3.922 9.14-8.929 9.14H13.43c-5.08 0-9.211-4.1-9.211-9.14V58.844a2.109 2.109 0 10-4.219 0v25.383c0 7.366 6.025 13.359 13.43 13.359h117.422c7.373 0 13.148-5.868 13.148-13.36V32.97c0-1.166-.944-2.11-2.109-2.11z"
          fill="#000"/>
    <path d="M50.484 41.31v-8.886c0-4.666-3.796-8.461-8.461-8.461h-18.74c-4.665 0-8.46 3.795-8.46 8.461v8.886c0 4.665 3.795 8.461 8.46 8.461h4.56a2.11 2.11 0 100-4.219h-4.56a4.247 4.247 0 01-4.242-4.242v-8.886a4.247 4.247 0 014.243-4.243h18.739a4.247 4.247 0 014.242 4.243v8.886a4.247 4.247 0 01-4.242 4.242h-4.336a2.109 2.109 0 100 4.22h4.336c4.665 0 8.461-3.797 8.461-8.462zM21.15 69.346a6.335 6.335 0 00-6.328 6.328 6.336 6.336 0 006.328 6.328h12.657a6.336 6.336 0 006.328-6.328 6.336 6.336 0 00-6.328-6.328H21.15zm14.766 6.328c0 1.163-.946 2.11-2.11 2.11H21.15a2.112 2.112 0 01-2.109-2.11c0-1.163.946-2.11 2.11-2.11h12.656c1.163 0 2.109.947 2.109 2.11zM52.088 82.002h12.656a6.336 6.336 0 006.328-6.328 6.336 6.336 0 00-6.328-6.328H52.088a6.335 6.335 0 00-6.328 6.328 6.336 6.336 0 006.328 6.328zm0-8.437h12.656c1.163 0 2.11.946 2.11 2.109s-.947 2.11-2.11 2.11H52.088a2.112 2.112 0 01-2.11-2.11c0-1.163.947-2.11 2.11-2.11zM76.697 75.674a6.336 6.336 0 006.328 6.328h12.657a6.336 6.336 0 006.328-6.328c0-3.49-2.84-6.328-6.328-6.328H83.025a6.335 6.335 0 00-6.328 6.328zm21.094 0c0 1.163-.946 2.11-2.11 2.11H83.026a2.112 2.112 0 01-2.109-2.11c0-1.163.946-2.11 2.11-2.11h12.656c1.163 0 2.109.947 2.109 2.11zM107.635 75.674a6.336 6.336 0 006.328 6.328h12.656a6.336 6.336 0 006.328-6.328 6.336 6.336 0 00-6.328-6.328h-12.656a6.336 6.336 0 00-6.328 6.328zm21.094 0c0 1.163-.947 2.11-2.11 2.11h-12.656a2.111 2.111 0 01-2.109-2.11c0-1.163.946-2.11 2.109-2.11h12.656c1.163 0 2.11.947 2.11 2.11zM116.285 14.369a2.108 2.108 0 10-3.316 2.606 40.706 40.706 0 011.612 2.199c3.937 5.782 5.934 11.996 5.934 18.467 0 6.587-2.067 12.902-6.144 18.769a40.663 40.663 0 01-1.567 2.103 2.11 2.11 0 103.299 2.63 43.981 43.981 0 001.732-2.326c4.513-6.494 6.898-13.817 6.898-21.176 0-7.334-2.243-14.346-6.667-20.843a44.159 44.159 0 00-1.781-2.43z"
          fill="#000"/>
    <path d="M110.104 20.627a2.109 2.109 0 10-3.395 2.504c.225.305.447.618.66.932 2.939 4.313 4.429 8.882 4.429 13.578 0 4.785-1.545 9.432-4.591 13.814-.213.305-.433.61-.656.908a2.11 2.11 0 003.376 2.53c.252-.337.502-.684.743-1.03 3.548-5.102 5.347-10.56 5.347-16.222 0-5.56-1.736-10.927-5.161-15.954a35.22 35.22 0 00-.752-1.06z"
          fill="#000"/>
    <path d="M100.81 49.14a2.11 2.11 0 002.927-.571c2.397-3.56 3.562-7.135 3.562-10.928 0-3.697-1.109-7.187-3.389-10.67a2.11 2.11 0 10-3.53 2.31c1.817 2.775 2.7 5.51 2.7 8.36 0 2.927-.93 5.73-2.842 8.572a2.109 2.109 0 00.572 2.927zM94.695 42.936a2.111 2.111 0 002.823-.964c.952-1.94 1.062-3.401 1.062-4.331 0-.863-.094-2.218-.907-4.004a2.11 2.11 0 00-3.84 1.748c.468 1.028.528 1.746.528 2.256 0 .553-.072 1.333-.63 2.472a2.11 2.11 0 00.964 2.823z"
          fill="#000"/>
</svg>