<svg width="200" height="70" fill="none" xmlns="http://www.w3.org/2000/svg">
    <path d="M17.266 17.132h6.98l-3.49-8.883-3.49 8.883zM54.384 46.952v4.125h11.739v4.443h-11.74v4.76h13.008l6.027-6.664-5.71-6.664H54.385zM146.068 8.249l-3.807 8.883h7.297l-3.49-8.883zM88.33 62.815V44.732l-8.249 8.884 8.249 9.199zM103.876 49.809c-.318-1.904-1.588-2.857-3.493-2.857h-6.66v5.71h6.98c1.903.001 3.173-.95 3.173-2.853zM126.081 52.03c.635-.318.953-1.27.953-2.22.318-1.269-.318-1.904-.953-2.222-.633-.317-1.586-.317-2.536-.317h-6.347v5.076h6.346c.951 0 1.904 0 2.537-.317z"
          fill="#fff"/>
    <path d="M171.764 0v3.807L169.862 0h-14.91v3.807L153.048 0h-20.304c-3.49 0-6.346.635-8.883 1.904V0h-14.275V1.904C108 .636 106.096 0 103.558 0H52.481L48.99 7.931 45.5 0H29.322v3.807L27.735 0H13.776L7.43 14.91.134 31.09 0 31.408h16.517l.115-.318 1.904-4.758h4.124l1.904 5.076h18.398V27.6l1.587 3.807h9.2l1.585-3.806v3.807h44.099v-8.25h.636c.633 0 .633 0 .633.953v6.98h22.843v-1.904c1.903.953 4.756 1.903 8.564 1.903h9.518l1.904-5.075h4.44l1.904 5.075h18.399v-4.758l2.857 4.758h14.91V0h-14.277zM64.218 26.65H59.142V9.201l-.317.727V9.92l-7.38 16.73h-4.676L39.155 9.2v17.45H28.37l-2.221-4.759H15.361l-2.22 4.759H7.563l9.385-22.208h7.93l8.883 21.255V4.442h8.405l.15.318h.01l4.003 8.712 2.875 6.527.101-.33 6.345-15.227h8.567V26.65zM86.11 9.2H73.736v4.125h12.056v4.44H73.736v4.444H86.11v4.757H68.343V4.442H86.11v4.759zm22.628 8.181c.008.008.019.013.029.02.12.126.222.254.31.375.608.797 1.099 1.982 1.124 3.72l.005.09c0 .017.003.032.003.05l-.001.027c.007.174.012.353.012.546v4.441h-4.758v-2.539c0-1.268 0-3.172-.953-4.441-.3-.3-.603-.498-.934-.638-.475-.308-1.376-.313-2.872-.313H94.99v7.931h-5.392V4.443h12.057c2.853 0 4.757 0 6.344.951 1.555.934 2.494 2.482 2.529 4.933-.073 3.376-2.24 5.229-3.799 5.853 0 0 1.059.213 2.008 1.201zm10.683 9.269h-5.394V4.442h5.394V26.65zm61.864 0h-6.981L164.152 9.835v13.959l-.034-.033v2.903h-5.359v-.014h-5.394l-1.904-4.758h-11.104l-1.904 5.075h-6.027c-2.536 0-5.711-.634-7.614-2.538-1.903-1.903-2.854-4.441-2.854-8.565 0-3.172.634-6.347 2.854-8.884 1.585-1.905 4.442-2.538 7.931-2.538h5.077v4.759h-5.077c-1.904 0-2.853.316-4.125 1.27-.95.95-1.585 2.854-1.585 5.074 0 2.539.318 4.125 1.585 5.394.954.953 2.222 1.27 3.808 1.27h2.22l7.296-17.448h7.932l8.884 21.255V4.761h7.931l9.198 15.545V4.76h5.396v21.89h.001v-.001z"
          fill="#fff"/>
    <path d="M104.214 13.692c.092-.1.176-.212.248-.34.287-.455.616-1.275.439-2.393a1.73 1.73 0 00-.048-.29c-.006-.025-.005-.047-.012-.073h-.003c-.158-.543-.561-.877-.963-1.08-.636-.315-1.588-.315-2.539-.315H94.99v5.076h6.346c.951 0 1.904 0 2.539-.318.096-.048.18-.114.262-.188l.001.004s.033-.034.076-.083zM200 58.375c0-2.22-.633-4.442-1.585-6.028V38.072h-.014v-.953h-15.277c-1.978 0-4.379 1.903-4.379 1.903v-1.903h-14.593c-2.221 0-5.075.635-6.345 1.903v-1.903h-26.014v1.903c-1.902-1.586-5.395-1.904-6.98-1.904h-17.131v1.903c-1.586-1.585-5.395-1.903-7.299-1.903H81.351l-4.443 4.759-4.124-4.76H44.232v32.044H72.15l4.587-4.588 3.977 4.588H98.48V61.865h1.587c2.219 0 5.076 0 7.296-.953V69.478h14.277V61.23h.632c.953 0 .953 0 .953.952v7.297h43.145c2.857 0 5.711-.635 7.297-1.904v1.904h13.642c2.854 0 5.711-.317 7.615-1.586 2.921-1.753 4.762-4.855 5.035-8.554.013-.11.029-.22.039-.33l-.019-.017c.012-.206.02-.409.02-.616zm-99.931-1.903h-6.347V64.72H83.295l-6.07-6.98-.02.023-.297-.341-6.98 7.298H49.626V42.513h20.621l5.634 6.17 1.185 1.293.16-.167 6.663-7.296h16.814c3.263 0 6.917.806 8.302 4.126.166.657.263 1.388.263 2.218 0 6.345-4.442 7.615-9.198 7.615zm31.724-.318c.634.95.951 2.22.951 4.125v4.44h-5.392v-2.854c0-1.271 0-3.49-.953-4.443-.633-.95-1.904-.95-3.806-.95h-5.71v8.248h-5.393V42.195h12.055c2.536 0 4.757 0 6.346.951 1.585.953 2.853 2.54 2.853 5.077 0 3.49-2.219 5.393-3.806 6.028 1.587.632 2.538 1.269 2.855 1.903zm21.891-9.202h-12.375v4.125h12.056v4.442h-12.056v4.442h12.375v4.758h-17.766V42.195h17.766v4.757zm13.323 17.768h-10.152v-4.758h10.152c.95 0 1.586 0 2.222-.636.318-.318.633-.95.633-1.586 0-.636-.315-1.267-.633-1.585-.318-.317-.954-.635-1.905-.635-5.076-.318-11.104 0-11.104-6.979 0-3.172 1.904-6.663 7.614-6.663h10.469v5.393h-9.834c-.951 0-1.587 0-2.222.317-.633.318-.633.953-.633 1.587 0 .952.633 1.27 1.268 1.585.636.318 1.27.318 1.903.318h2.856c2.856 0 4.759.634 6.027 1.903.953.953 1.587 2.54 1.587 4.76 0 4.757-2.855 6.979-8.248 6.979zm27.283-2.222c-1.267 1.27-3.489 2.222-6.663 2.222h-10.149v-4.758h10.149c.952 0 1.588 0 2.222-.636.316-.318.635-.95.635-1.586 0-.636-.319-1.267-.635-1.585-.318-.317-.951-.635-1.904-.635-5.074-.318-11.103 0-11.103-6.978 0-3.016 1.725-5.74 5.979-6.548.509-.07 1.046-.116 1.635-.116h10.47v5.393h-9.835c-.953 0-1.586 0-2.22.317-.319.318-.637.953-.637 1.587 0 .952.318 1.27 1.271 1.585.633.318 1.268.318 1.903.318h2.855c1.386 0 2.435.17 3.394.508.879.318 3.788 1.619 4.438 5.016.057.356.098.727.098 1.138 0 1.904-.634 3.49-1.903 4.758z"
          fill="#fff"/>
</svg>