<svg width="200" height="53" fill="none" xmlns="http://www.w3.org/2000/svg">
    <path d="M105.703.07C96.281.07 88.7 7.44 88.7 16.437c0 9.636 7.297 16.791 17.003 16.791 9.494 0 16.933-7.297 16.933-16.649 0-9.21-7.439-16.507-16.933-16.507z"
          fill="url(#paint0_radial)"/>
    <path d="M9.14.708H0V32.59h9.068c4.818 0 8.29-1.133 11.407-3.684 3.613-3.046 5.81-7.58 5.81-12.256C26.212 7.226 19.198.709 9.138.709zm7.226 23.947c-1.984 1.77-4.464 2.55-8.502 2.55h-1.63V6.093h1.7c4.04 0 6.448.708 8.502 2.55 2.126 1.913 3.401 4.889 3.401 7.935 0 3.117-1.275 6.164-3.471 8.077zM35.353.708h-6.235V32.59h6.235V.71zm15.161 12.186c-3.755-1.417-4.818-2.267-4.818-4.038 0-1.984 1.984-3.542 4.605-3.542 1.842 0 3.4.779 5.03 2.55l3.26-4.25C55.897 1.274 52.71.07 49.237.07c-5.667 0-9.918 3.896-9.918 9.14 0 4.392 1.984 6.659 7.864 8.784 2.409.85 3.684 1.417 4.322 1.842 1.275.78 1.841 1.984 1.841 3.33 0 2.621-2.054 4.463-4.817 4.463-2.976 0-5.384-1.488-6.801-4.25l-4.039 3.896c2.834 4.18 6.306 6.093 11.053 6.093 6.447 0 10.98-4.322 10.98-10.485 0-5.102-2.125-7.369-9.21-9.99zm11.193 3.755c0 9.352 7.368 16.649 16.861 16.649 2.693 0 4.96-.496 7.794-1.842v-7.297c-2.48 2.48-4.676 3.471-7.51 3.471-6.235 0-10.698-4.534-10.698-10.981 0-6.093 4.605-10.981 10.415-10.981 2.975 0 5.242 1.062 7.793 3.613V1.984C83.67.567 81.402 0 78.71 0c-9.493 0-17.003 7.368-17.003 16.649zm75.028 5.455L128.233.708h-6.801l13.531 32.66h3.33L152.108.709h-6.73l-8.643 21.396zm18.206 10.486h17.641v-5.385h-11.406v-8.643h10.981v-5.385h-10.981V6.094h11.406V.708h-17.641V32.59zm42.296-22.459c0-5.951-4.109-9.423-11.264-9.423h-9.21V32.59h6.234V19.766h.78l8.572 12.823H200l-10.06-13.46c4.676-.921 7.297-4.11 7.297-8.998zm-12.539 5.243h-1.843V5.739h1.913c3.897 0 6.022 1.629 6.022 4.746 0 3.188-2.054 4.889-6.092 4.889z"
          fill="#081A23"/>
    <path d="M55.757 40.95l8.289 8.713v-8.289h1.204v11.123l-8.289-8.714v8.218h-1.204V40.95z" fill="#231F20"/>
    <path d="M55.614 40.95v11.264h1.417v-8.077c.354.355 8.29 8.715 8.29 8.715V41.304h-1.418v8.076c-.354-.354-8.289-8.714-8.289-8.714v.283zm.213.283c.354.354 8.36 8.714 8.36 8.714v-8.43h.992v10.768c-.355-.354-8.29-8.714-8.29-8.714v8.36h-.991c-.071-.142-.071-10.131-.071-10.698zm15.161.212h5.526v1.134h-4.321v3.188h4.25V46.9h-4.25v4.18h4.321v1.134h-5.526V41.445z"
          fill="#231F20"/>
    <path d="M76.514 41.304h-5.667v10.91h5.738v-1.346h-4.321V46.9h4.18v-1.346h-4.18V42.58h4.321v-1.346h-.07v.07zm-.07.212v.85h-4.322v3.4h4.25v.851h-4.25v4.393h4.322v.85H71.13V41.374c.213.142 5.101.142 5.314.142zm8.501 10.556h-1.204v-9.564h-2.55v-1.134h6.376v1.134h-2.622v9.564z"
          fill="#231F20"/>
    <path d="M87.567 41.304h-6.518v1.346h2.55v9.564h1.417V42.65h2.622v-1.346h-.071zm-.142.212v.85h-2.621v9.565h-.992v-9.565h-2.55v-.85h6.163zm8.077 7.934l3.471-8.572 3.472 8.573 2.834-8.006h1.275l-4.109 11.194-3.472-8.572-3.471 8.572-4.11-11.194h1.276l2.834 8.006z"
          fill="#231F20"/>
    <path d="M98.83 40.808s-3.117 7.793-3.33 8.289c-.212-.496-2.762-7.793-2.762-7.793H91.25l4.25 11.618s3.26-8.147 3.472-8.643c.213.496 3.472 8.643 3.472 8.643l4.251-11.618h-1.559s-2.551 7.297-2.763 7.793c-.213-.496-3.472-8.502-3.472-8.502l-.07.213zm-3.258 8.643s3.188-7.793 3.33-8.29c.212.497 3.471 8.573 3.471 8.573s2.834-8.076 2.905-8.218h1.062c-.071.284-3.755 10.273-3.967 10.84-.213-.496-3.472-8.573-3.472-8.573s-3.258 8.077-3.471 8.573c-.213-.496-3.826-10.556-3.968-10.84h1.063c.071.142 2.905 8.218 2.905 8.218l.142-.283zm26.284-2.692c0 3.046-2.551 5.526-5.597 5.526-3.046 0-5.597-2.409-5.597-5.526 0-3.047 2.551-5.526 5.597-5.526 3.117 0 5.597 2.48 5.597 5.526zm-9.919 0c0 2.409 1.984 4.392 4.393 4.392s4.392-1.983 4.392-4.392a4.37 4.37 0 00-4.392-4.393 4.37 4.37 0 00-4.393 4.393z"
          fill="#231F20"/>
    <path d="M110.662 46.759c0 3.117 2.551 5.597 5.668 5.597s5.668-2.55 5.668-5.597c0-3.117-2.551-5.668-5.668-5.668-3.117.07-5.668 2.55-5.668 5.668zm.213 0c0-2.976 2.479-5.385 5.455-5.385 2.975 0 5.455 2.41 5.455 5.385 0 2.975-2.48 5.384-5.455 5.384-3.047 0-5.455-2.409-5.455-5.384z"
          fill="#231F20"/>
    <path d="M111.796 46.759c0 2.48 1.984 4.534 4.463 4.534 2.48 0 4.464-2.055 4.464-4.534 0-2.48-1.984-4.534-4.464-4.534-2.409 0-4.463 2.054-4.463 4.534zm.283 0c0-2.338 1.913-4.322 4.251-4.322s4.251 1.913 4.251 4.322c0 2.338-1.913 4.321-4.251 4.321s-4.251-1.913-4.251-4.321zm16.154 5.313h-1.205V41.374h1.559c2.054 0 3.897.567 3.897 2.976 0 1.63-.992 2.834-2.693 2.975l3.401 4.818h-1.488l-3.188-4.676h-.283v4.605zm0-5.738h.354c1.346 0 2.692-.284 2.692-1.913 0-1.771-1.275-1.913-2.692-1.913h-.354v3.826z"
          fill="#231F20"/>
    <path d="M127.027 41.304h-.141v10.91h1.417v-4.676h.212c0 .07 3.117 4.605 3.117 4.605l1.559.07h.213s-3.259-4.604-3.401-4.817c1.559-.212 2.621-1.346 2.621-2.975 0-2.055-1.346-3.047-4.038-3.047l-1.559-.07zm1.559.212c2.551 0 3.826.921 3.826 2.834 0 1.559-.992 2.692-2.551 2.834h-.212s3.188 4.463 3.4 4.747h-1.275c0-.071-3.117-4.605-3.117-4.605l-.354-.071h-.213v4.676h-.992V41.445c.213.071 1.488.071 1.488.071z"
          fill="#231F20"/>
    <path d="M128.233 42.437h-.142v4.038h.496c1.346 0 2.834-.212 2.834-2.054 0-1.913-1.488-2.055-2.834-2.055h-.354v.071zm.354.213c1.346 0 2.621.141 2.621 1.842 0 1.558-1.275 1.77-2.621 1.77h-.284V42.65h.284zm15.373-1.205h1.63l-5.03 4.96 5.171 5.667h-1.629l-4.393-4.888-.283.283v4.605h-1.204V41.374h1.204v4.605l4.534-4.534z"
          fill="#231F20"/>
    <path d="M145.59 41.304h-1.629l-4.393 4.392v-4.392h-1.417v10.91h1.417v-4.676l.142-.142c.142.142 4.322 4.818 4.322 4.818l1.7.07h.283s-5.171-5.667-5.313-5.809l5.101-5.1-.213-.071zm-.283.212l-4.889 4.889s4.747 5.242 5.101 5.596h-1.417c0-.07-4.321-4.888-4.321-4.888l-.071-.07-.354.353v4.605h-.992V41.516h.992v4.747l4.676-4.747h1.275z"
          fill="#231F20"/>
    <defs>
        <radialGradient id="paint0_radial" cx="0" cy="0" r="1" gradientUnits="userSpaceOnUse"
                        gradientTransform="translate(105.676 16.7) scale(16.7995)">
            <stop offset=".006" stop-color="#FFEEE1"/>
            <stop offset=".11" stop-color="#FDE8D7"/>
            <stop offset=".279" stop-color="#FCDBC0"/>
            <stop offset=".493" stop-color="#FBC698"/>
            <stop offset=".744" stop-color="#F8A561"/>
            <stop offset="1" stop-color="#F48220"/>
        </radialGradient>
    </defs>
</svg>