<svg width="200" height="62" fill="none" xmlns="http://www.w3.org/2000/svg">
    <path d="M70.394 60.402L80.498.978h16.187L86.58 60.402H70.394zM145.354 2.499C142.094 1.304 137.097 0 130.796 0c-15.969 0-27.268 8.04-27.376 19.663-.109 8.582 8.039 13.254 14.231 16.187 6.301 2.933 8.474 4.78 8.365 7.387 0 4.02-4.997 5.758-9.668 5.758-6.519 0-9.886-.869-15.21-3.15l-2.064-.978-2.281 13.254c3.802 1.63 10.755 3.15 18.034 3.15 17.056 0 28.028-7.93 28.245-20.315.109-6.736-4.237-11.95-13.579-16.187-5.65-2.716-9.126-4.563-9.126-7.387 0-2.499 2.933-5.106 9.234-5.106 5.323-.109 9.126 1.086 12.168 2.281l1.412.652 2.173-12.71zM186.854 1.086h-12.493c-3.911 0-6.735 1.087-8.473 4.889l-24.009 54.427h17.056s2.824-7.279 3.368-8.908h20.749c.435 2.064 1.956 8.908 1.956 8.908h14.991L186.854 1.086zm-19.989 38.24c1.304-3.476 6.41-16.62 6.41-16.62-.109.108 1.304-3.477 2.173-5.65l1.086 5.106s3.15 14.231 3.802 17.165h-13.471zM56.818 1.086l-15.86 40.522-1.739-8.257c-2.933-9.45-12.167-19.771-22.38-24.877l14.45 51.928h17.164l25.53-59.316H56.818z"
          fill="#0059A0"/>
    <path d="M26.29.978H.217L0 2.173C20.315 7.06 33.786 19.01 39.327 33.243l-5.65-27.268c-1.086-3.694-3.91-4.78-7.387-4.997z"
          fill="#F9A61C"/>
</svg>