<svg width="422" height="102" viewBox="0 0 422 102" fill="none" xmlns="http://www.w3.org/2000/svg">
    <g clip-path="url(#clip0)">
        <path d="M151.987 0.0206909H105.211L70.27 59.388H116.764L151.987 0.0206909Z" fill="#1A3462"/>
        <path d="M81.7174 0.0219727H34.9412L0 59.3892H46.4944L81.7174 0.0219727Z" fill="#1A3462"/>
        <path d="M34.9412 0.0206909H81.7173L116.659 59.388H70.1642L34.9412 0.0206909Z" fill="#14509C"/>
        <path d="M105.317 0.0206909H152.093L187.034 59.388H140.54L105.317 0.0206909Z" fill="#14509C"/>
        <path d="M222.258 0H175.481L140.54 59.3673L163.625 98.3869L222.258 0Z" fill="#F78F1E"/>
        <path d="M212.296 27.5116L201.835 45.5631H248.012L258.262 27.5116H212.296Z" fill="#F78F1E"/>
        <path d="M223.096 84.6242C223.046 84.4173 222.962 83.8313 222.849 82.8866C222.751 82.0937 222.659 81.4455 222.581 80.9215C222.469 81.5421 222.307 82.1557 222.102 82.7763C221.891 83.3969 221.63 84.0243 221.32 84.6656L214.072 99.1109L206.823 84.3691C206.52 83.7623 206.259 83.1762 206.041 82.6108C205.822 82.0454 205.625 81.48 205.463 80.9284C205.449 81.4938 205.4 82.0937 205.322 82.7142C205.238 83.3348 205.118 83.9898 204.956 84.6656L201.983 98.0146H197.841L204.385 69.7582L212.557 86.8651C212.684 87.134 212.874 87.5891 213.135 88.2166C213.395 88.844 213.705 89.6232 214.072 90.5471C214.339 89.768 214.755 88.782 215.318 87.5822C215.466 87.2581 215.586 87.0168 215.657 86.8444L223.638 69.7513L230.338 98.0077H226.153L223.096 84.6242Z" fill="#14509C"/>
        <path d="M247.252 98.0146V85.6102L237.925 70.9097H242.651L248.456 80.1148C248.597 80.3492 248.766 80.6595 248.977 81.0387C249.189 81.4248 249.393 81.8317 249.612 82.2798C249.788 81.8454 249.971 81.4386 250.168 81.0594C250.365 80.6802 250.57 80.3216 250.781 80.0044L256.741 70.9097H261.242L251.704 85.6102V98.0146H247.252Z" fill="#14509C"/>
        <path d="M271.626 98.0146V70.9028H287.082V74.64H276.127V81.3972H287.082V85.2654H276.127V98.0077H271.626V98.0146Z" fill="#14509C"/>
        <path d="M299.396 98.0146V70.9028H303.897V98.0146H299.396Z" fill="#14509C"/>
        <path d="M317.733 98.0146V69.8341L335.33 86.41C335.809 86.8789 336.295 87.3823 336.789 87.9132C337.282 88.4441 337.796 89.044 338.338 89.7059V70.9098H342.502V99.0764L324.545 82.1971C324.066 81.742 323.601 81.2594 323.157 80.756C322.706 80.2527 322.284 79.7218 321.882 79.1632V98.0146H317.733Z" fill="#14509C"/>
        <path d="M360.24 101.993C363.714 101.993 366.531 99.2363 366.531 95.8357C366.531 92.4351 363.714 89.6783 360.24 89.6783C356.766 89.6783 353.949 92.4351 353.949 95.8357C353.949 99.2363 356.766 101.993 360.24 101.993Z" fill="#F78F1E"/>
        <path d="M228.217 0.0206909L217.756 18.0722H263.933L274.183 0.0206909H228.217Z" fill="#F78F1E"/>
        <path d="M395.507 70.9844V89.0381C395.507 91.9079 394.585 94.1839 392.742 95.8662C390.911 97.5361 388.468 98.3711 385.413 98.3711C382.321 98.3711 379.865 97.5485 378.047 95.9033C376.229 94.2458 375.319 91.9512 375.319 89.0195V70.9844H379.995V89.0566C379.995 90.8626 380.453 92.2419 381.368 93.1943C382.284 94.1468 383.632 94.623 385.413 94.623C389.025 94.623 390.831 92.7181 390.831 88.9082V70.9844H395.507ZM414.655 91.042C414.655 89.8545 414.235 88.9391 413.394 88.2959C412.565 87.6527 411.062 87.0033 408.885 86.3477C406.708 85.6921 404.976 84.9622 403.689 84.1582C401.228 82.612 399.997 80.5957 399.997 78.1094C399.997 75.9323 400.882 74.1387 402.65 72.7285C404.432 71.3184 406.739 70.6133 409.571 70.6133C411.451 70.6133 413.128 70.9596 414.6 71.6523C416.072 72.3451 417.228 73.3346 418.069 74.6211C418.91 75.8952 419.331 77.3115 419.331 78.8701H414.655C414.655 77.46 414.21 76.359 413.319 75.5674C412.441 74.7633 411.179 74.3613 409.534 74.3613C408 74.3613 406.807 74.6891 405.953 75.3447C405.112 76.0003 404.691 76.9157 404.691 78.0908C404.691 79.0804 405.149 79.9092 406.064 80.5771C406.98 81.2327 408.489 81.876 410.592 82.5068C412.695 83.1253 414.383 83.8366 415.657 84.6406C416.931 85.4323 417.865 86.3477 418.459 87.3867C419.053 88.4134 419.35 89.6195 419.35 91.0049C419.35 93.2562 418.484 95.0498 416.752 96.3857C415.033 97.7093 412.695 98.3711 409.738 98.3711C407.784 98.3711 405.984 98.0124 404.339 97.2949C402.706 96.5651 401.432 95.5632 400.517 94.2891C399.614 93.015 399.162 91.5306 399.162 89.8359H403.856C403.856 91.3698 404.364 92.5573 405.378 93.3984C406.392 94.2396 407.846 94.6602 409.738 94.6602C411.371 94.6602 412.596 94.3324 413.412 93.6768C414.241 93.0088 414.655 92.1305 414.655 91.042Z" fill="#14509C"/>
    </g>
    <defs>
        <clipPath id="clip0">
            <rect width="422" height="102" fill="white"/>
        </clipPath>
    </defs>
</svg>
