<svg width="422" height="102" viewBox="0 0 422 102" fill="none" xmlns="http://www.w3.org/2000/svg">
<path d="M151.987 0.0206909H105.211L70.27 59.388H116.764L151.987 0.0206909Z" fill="#1A3462"/>
<path d="M81.7174 0.0219727H34.9412L0 59.3892H46.4944L81.7174 0.0219727Z" fill="#1A3462"/>
<path d="M34.9412 0.0206909H81.7173L116.659 59.388H70.1642L34.9412 0.0206909Z" fill="#14509C"/>
<path d="M105.317 0.0206909H152.093L187.034 59.388H140.54L105.317 0.0206909Z" fill="#14509C"/>
<path d="M222.258 0H175.481L140.54 59.3673L163.625 98.3869L222.258 0Z" fill="#F78F1E"/>
<path d="M212.296 27.5116L201.835 45.5631H248.012L258.262 27.5116H212.296Z" fill="#F78F1E"/>
<path d="M223.096 84.6242C223.046 84.4173 222.962 83.8312 222.849 82.8866C222.751 82.0937 222.659 81.4455 222.581 80.9215C222.469 81.542 222.307 82.1557 222.102 82.7763C221.891 83.3968 221.63 84.0243 221.32 84.6656L214.072 99.1109L206.823 84.3691C206.52 83.7623 206.259 83.1762 206.041 82.6108C205.822 82.0454 205.625 81.48 205.463 80.9284C205.449 81.4938 205.4 82.0937 205.322 82.7142C205.238 83.3348 205.118 83.9898 204.956 84.6656L201.983 98.0146H197.841L204.385 69.7582L212.557 86.8651C212.684 87.134 212.874 87.5891 213.135 88.2166C213.395 88.844 213.705 89.6232 214.072 90.5471C214.339 89.768 214.755 88.782 215.318 87.5822C215.466 87.2581 215.586 87.0168 215.657 86.8444L223.638 69.7513L230.338 98.0077H226.153L223.096 84.6242Z" fill="#14509C"/>
<path d="M247.252 98.0146V85.6102L237.925 70.9097H242.651L248.456 80.1147C248.597 80.3492 248.766 80.6595 248.977 81.0387C249.189 81.4248 249.393 81.8316 249.612 82.2798C249.788 81.8454 249.971 81.4386 250.168 81.0594C250.365 80.6801 250.57 80.3216 250.781 80.0044L256.741 70.9097H261.242L251.704 85.6102V98.0146H247.252Z" fill="#14509C"/>
<path d="M271.626 98.0146V70.9028H287.082V74.64H276.127V81.3972H287.082V85.2654H276.127V98.0077H271.626V98.0146Z" fill="#14509C"/>
<path d="M299.396 98.0146V70.9028H303.897V98.0146H299.396Z" fill="#14509C"/>
<path d="M317.733 98.0146V69.8341L335.33 86.41C335.809 86.8789 336.295 87.3822 336.789 87.9132C337.282 88.4441 337.796 89.044 338.338 89.7059V70.9097H342.502V99.0764L324.545 82.1971C324.066 81.742 323.601 81.2593 323.157 80.756C322.706 80.2526 322.284 79.7217 321.882 79.1632V98.0146H317.733Z" fill="#14509C"/>
<path d="M360.24 101.993C363.714 101.993 366.531 99.2363 366.531 95.8357C366.531 92.4351 363.714 89.6783 360.24 89.6783C356.766 89.6783 353.949 92.4351 353.949 95.8357C353.949 99.2363 356.766 101.993 360.24 101.993Z" fill="#F78F1E"/>
<path d="M228.217 0.0206909L217.756 18.0722H263.933L274.183 0.0206909H228.217Z" fill="#F78F1E"/>
<path d="M376 98.2383V69.6445H391.971V73.5898H380.653V80.7578H391.971V84.8398H380.653V94.0781H391.971V98.2383H376Z" fill="#14509C"/>
<path d="M398.468 92.5156L402.182 90.7969C402.534 92.0729 403.179 93.0495 404.118 93.7266C405.056 94.3906 406.255 94.7227 407.715 94.7227C409.096 94.7227 410.191 94.3385 410.999 93.5703C411.82 92.8021 412.23 91.7734 412.23 90.4844C412.23 88.8047 410.836 87.3073 408.047 85.9922C407.656 85.7969 407.356 85.6536 407.148 85.5625C403.994 84.026 401.889 82.6393 400.833 81.4023C399.791 80.1523 399.27 78.6289 399.27 76.832C399.27 74.5013 400.058 72.6133 401.635 71.168C403.225 69.7227 405.304 69 407.871 69C409.982 69 411.748 69.4102 413.169 70.2305C414.589 71.0378 415.573 72.2031 416.12 73.7266L412.484 75.6016C411.911 74.7031 411.279 74.0456 410.588 73.6289C409.91 73.2122 409.129 73.0039 408.242 73.0039C406.991 73.0039 405.994 73.3294 405.251 73.9805C404.522 74.6315 404.157 75.5039 404.157 76.5977C404.157 78.3164 405.773 79.918 409.005 81.4023C409.252 81.5195 409.448 81.6107 409.591 81.6758C412.419 82.9779 414.361 84.2539 415.417 85.5039C416.472 86.7409 417 88.2904 417 90.1523C417 92.8607 416.146 95.0156 414.439 96.6172C412.732 98.2057 410.425 99 407.519 99C405.082 99 403.082 98.4401 401.518 97.3203C399.967 96.2005 398.95 94.599 398.468 92.5156Z" fill="#14509C"/>
</svg>
