<svg width="153" height="37" viewBox="0 0 153 37" fill="none" xmlns="http://www.w3.org/2000/svg">
    <path d="M55.1044 0.00756836H38.1453L25.4771 21.5428H42.334L55.1044 0.00756836Z" fill="#1A3462"/>
<path d="M29.6274 0.00805664H12.6683L0 21.5432H16.857L29.6274 0.00805664Z" fill="#1A3462"/>
<path d="M12.6685 0.00756836H29.6276L42.2959 21.5428H25.4389L12.6685 0.00756836Z" fill="#14509C"/>
<path d="M38.1836 0.00756836H55.1427L67.811 21.5428H50.954L38.1836 0.00756836Z" fill="#14509C"/>
<path d="M80.5815 0H63.6224L50.9541 21.5352L59.3238 35.6894L80.5815 0Z" fill="#F78F1E"/>
<path d="M76.9701 9.97974L73.1772 16.5278H89.9193L93.6355 9.97974H76.9701Z" fill="#F78F1E"/>
<path d="M80.8854 30.6971C80.8675 30.622 80.8369 30.4094 80.796 30.0668C80.7603 29.7791 80.7271 29.544 80.699 29.3539C80.6581 29.579 80.5993 29.8016 80.5253 30.0267C80.4487 30.2518 80.3542 30.4795 80.2418 30.7121L77.6136 35.952L74.9855 30.6045C74.8756 30.3844 74.7811 30.1718 74.702 29.9667C74.6228 29.7616 74.5513 29.5565 74.4925 29.3564C74.4874 29.5615 74.4695 29.7791 74.4414 30.0042C74.4108 30.2293 74.3674 30.4669 74.3086 30.7121L73.2308 35.5544H71.729L74.1018 25.3045L77.0645 31.5099C77.1105 31.6075 77.1794 31.7726 77.2739 32.0002C77.3684 32.2278 77.4808 32.5104 77.6136 32.8456C77.7107 32.5629 77.8614 32.2053 78.0657 31.7701C78.1193 31.6525 78.1627 31.565 78.1883 31.5024L81.0821 25.302L83.511 35.5519H81.9939L80.8854 30.6971Z" fill="#14509C"/>
<path d="M89.6433 35.5543V31.0547L86.2617 25.7222H87.9755L90.08 29.0612C90.1311 29.1463 90.1924 29.2588 90.2691 29.3964C90.3457 29.5365 90.4197 29.684 90.4989 29.8466C90.5628 29.689 90.6292 29.5415 90.7007 29.4039C90.7722 29.2663 90.8463 29.1363 90.9229 29.0212L93.0836 25.7222H94.7157L91.2575 31.0547V35.5543H89.6433Z" fill="#14509C"/>
<path d="M98.4805 35.5544V25.7197H104.084V27.0754H100.113V29.5265H104.084V30.9297H100.113V35.5519H98.4805V35.5544Z" fill="#14509C"/>
<path d="M108.549 35.5544V25.7197H110.181V35.5544H108.549Z" fill="#14509C"/>
<path d="M115.197 35.5544V25.332L121.577 31.3449C121.751 31.515 121.927 31.6975 122.106 31.8901C122.284 32.0827 122.471 32.3003 122.667 32.5404V25.7222H124.177V35.9395L117.667 29.8167C117.493 29.6516 117.324 29.4765 117.163 29.2939C117 29.1113 116.847 28.9187 116.701 28.7161V35.5544H115.197Z" fill="#14509C"/>
<path d="M136.056 35.5544V25.7197H141.66V27.0754H137.691V29.5265H141.662V30.9297H137.691V35.5519H136.056V35.5544Z" fill="#14509C"/>
<path d="M147.629 31.1524V35.5519H146.099V25.7173H148.377C149.044 25.7173 149.562 25.7598 149.93 25.8448C150.298 25.9299 150.612 26.07 150.873 26.2675C151.184 26.5052 151.424 26.8128 151.593 27.188C151.762 27.5632 151.846 27.9759 151.846 28.4236C151.846 29.2114 151.652 29.8292 151.263 30.2744C150.875 30.7197 150.301 30.9873 149.542 31.0773L153 35.5519H151.156L147.815 31.1524H147.629ZM147.734 29.9118H148.027C148.891 29.9118 149.465 29.8142 149.749 29.6166C150.032 29.419 150.175 29.0714 150.175 28.5686C150.175 28.0259 150.022 27.6457 149.718 27.4231C149.414 27.2005 148.85 27.0904 148.027 27.0904H147.734V29.9118Z" fill="#14509C"/>
<path d="M130.608 36.9974C131.868 36.9974 132.889 35.9974 132.889 34.7638C132.889 33.5303 131.868 32.5303 130.608 32.5303C129.349 32.5303 128.328 33.5303 128.328 34.7638C128.328 35.9974 129.349 36.9974 130.608 36.9974Z" fill="#F78F1E"/>
<path d="M82.742 0.00756836L78.9492 6.55566H95.6913L99.4075 0.00756836H82.742Z" fill="#F78F1E"/>
</svg>
