<svg width="422" height="102" fill="none" xmlns="http://www.w3.org/2000/svg"><g clip-path="url(#clip0)"><path d="M151.987.02h-46.776L70.27 59.389h46.494L151.987.021zM81.717.022H34.941L0 59.389h46.494L81.717.022z" fill="#1A3462"/><path d="M34.941.02h46.776l34.942 59.368H70.164L34.941.021zM105.317.02h46.776l34.941 59.368H140.54L105.317.021z" fill="#14509C"/><path d="M222.257 0h-46.776L140.54 59.367l23.085 39.02L222.257 0zM212.296 27.512l-10.461 18.051h46.177l10.25-18.051h-45.966z" fill="#F78F1E"/><path d="M223.096 84.624c-.05-.207-.134-.793-.247-1.737a83.56 83.56 0 00-.268-1.966 13.6 13.6 0 01-.479 1.855c-.211.62-.472 1.248-.782 1.89l-7.249 14.445-7.248-14.742a21.349 21.349 0 01-1.36-3.44 17.988 17.988 0 01-.141 1.785c-.084.62-.204 1.276-.366 1.952l-2.973 13.349h-4.142l6.544-28.257 8.172 17.107c.127.269.317.724.578 1.352.26.627.57 1.406.936 2.33.268-.779.684-1.765 1.247-2.965.148-.324.268-.565.339-.738l7.981-17.093 6.699 28.257h-4.184l-3.057-13.384zM247.251 98.015V85.61l-9.327-14.7h4.727l5.805 9.205c.141.234.31.544.521.924.212.386.416.793.634 1.24.176-.434.36-.84.557-1.22.197-.379.401-.737.613-1.055l5.959-9.094h4.502l-9.538 14.7v12.405h-4.453zM271.626 98.015V70.903h15.456v3.737h-10.955v6.757h10.955v3.868h-10.955v12.743h-4.501v.007zM299.396 98.015V70.903h4.501v27.112h-4.501zM317.733 98.015v-28.18L335.33 86.41c.479.469.965.972 1.458 1.503.494.531 1.008 1.131 1.55 1.793V70.91h4.164v28.166l-17.957-16.879a22.738 22.738 0 01-1.388-1.441 19.07 19.07 0 01-1.275-1.593v18.852h-4.149z" fill="#14509C"/><path d="M360.24 101.993c3.474 0 6.291-2.757 6.291-6.157s-2.817-6.158-6.291-6.158-6.291 2.757-6.291 6.158c0 3.4 2.817 6.157 6.291 6.157zM228.217.02l-10.461 18.052h46.177L274.183.021h-45.966z" fill="#F78F1E"/><path d="M395.507 70.984v18.054c0 2.87-.922 5.146-2.765 6.828-1.831 1.67-4.274 2.505-7.329 2.505-3.092 0-5.548-.822-7.366-2.468-1.818-1.657-2.728-3.952-2.728-6.884V70.984h4.676v18.073c0 1.806.458 3.185 1.373 4.137.916.953 2.264 1.429 4.045 1.429 3.612 0 5.418-1.905 5.418-5.715V70.984h4.676zm12.784 15.345l-3.062 3.247V98h-4.694V70.984h4.694v12.673l2.598-3.21 7.904-9.463h5.678l-10.038 11.968L421.984 98h-5.566l-8.127-11.67z" fill="#14509C"/></g><defs><clipPath id="clip0"><path d="M0 0h422v102H0V0z" fill="#fff"/></clipPath></defs></svg>