<svg xmlns:v="https://vecta.io/nano" xmlns="http://www.w3.org/2000/svg" width="60" height="60" fill="none"><path d="M30 58.737c14.912 0 27-12.206 27-27.263S44.912 4.21 30 4.21 3 16.417 3 31.474s12.088 27.263 27 27.263z" fill="#f4f8ff"/><path d="M34.274 52.632v-4.2s4.17-2.526 4.17-7.37V22.105L21.348 20l-6.672 5.474c-1.46 1.368-2.293 3.368-2.293 5.368v21.684h21.892v.105z" fill="#fff"/><path d="M35.317 53.684H11.34V30.947c0-2.316.938-4.632 2.606-6.21l7.09-5.79 18.452 2.316v19.895c0 4.316-2.92 7.053-4.17 7.895v4.632zM13.425 51.58h19.807V47.8l.52-.316c.104-.105 3.65-2.316 3.65-6.42v-18l-15.74-1.895-6.36 5.263c-1.25 1.158-1.98 2.842-1.98 4.632l.104 20.526z" fill="#4c739e"/><path d="M35.317 52.632h-25.02V60h25.02v-7.368z" fill="#dfeeff"/><path d="M36.36 60h-2.085v-6.316H11.34V60H9.255v-8.42H36.36V60zm-19.808-4.2h-3.127v2.105h3.127V55.8z" fill="#4c739e"/><path d="M45.74 1.053H23.85c-1.147 0-2.085.947-2.085 2.105v31.58l3.127 3.158h20.85c1.147 0 2.085-.947 2.085-2.105V3.158c0-1.158-.938-2.105-2.085-2.105z" fill="#a3d4ff"/><path d="M45.74 38.947h-20.85v-2.105h20.85c.625 0 1.042-.42 1.042-1.053V3.158c0-.632-.417-1.053-1.042-1.053H23.85c-.625 0-1.043.42-1.043 1.053v31.58h-2.085V3.158C20.722 1.368 22.077 0 23.85 0H45.74c1.772 0 3.127 1.368 3.127 3.158V35.8c0 1.79-1.355 3.158-3.127 3.158z" fill="#4c739e"/><path d="M42.614 1.053H36.36v36.842h6.255V1.053z" fill="#fff"/><path d="M43.656 38.947h-8.34V0h8.34v38.947zM37.4 36.842h4.17V2.105H37.4v34.737zM33.232 4.2h-2.085v4.2h2.085V4.2zm0 6.316h-2.085v4.2h2.085v-4.2z" fill="#4c739e"/><path d="M29.375 22.42L17.5 34.21l8.34 10.947s3.544-4.316 1.147-9.58l5.212-6.2c2.398-3.474-.417-9.474-2.815-6.947z" fill="#fff"/><path d="M26.664 45.79L25.1 44.42c.104-.105 3.023-3.895 1.043-8.526l-.313-.632.417-.526 5.212-6.105c1.25-1.8.52-4.842-.52-5.684-.313-.2-.417-.316-.834.105l-11.884 11.8-1.46-1.474 11.884-11.79c1.043-1.053 2.502-1.158 3.65-.2 1.876 1.58 2.7 5.8.834 8.526-.834 1.263-3.753 4.526-4.9 5.79 2.085 5.58-1.46 9.895-1.564 10.105z" fill="#4c739e"/></svg>