<svg xmlns:v="https://vecta.io/nano" xmlns="http://www.w3.org/2000/svg" width="60" height="60" fill="none"><path d="M28.048 54.47c12.914 0 23.383-10.47 23.383-23.383S40.962 7.706 28.048 7.706 4.666 18.175 4.666 31.09 15.135 54.47 28.048 54.47z" fill="#f4f8ff"/><path d="M17.096 4.594L15.8 5.9l5.187 5.187L22.284 9.8l-5.187-5.187zM14.502 2l-1.297 1.297 1.297 1.297L15.8 3.297 14.502 2zm9.08.006l-1.297 1.297 11.023 11.023 1.297-1.297L23.582 2.006zM10.6 7.188L9.314 8.485l11.023 11.023 1.297-1.297L10.6 7.188zm38.07 27.1h-1.834v4.585h1.834v-4.585zm3.736.936l-2.182 3.78 1.588.917 2.182-3.78-1.588-.917zm4.4 3.73l-3.78 2.182.917 1.588 3.78-2.182-.917-1.588zm1.95 5.42h-4.585v1.834h4.585v-1.834zm-15.86-9.152l-1.588.917 2.182 3.78 1.588-.917-2.182-3.78z" fill="#4c739e"/><path d="M9.58 46.11l18.156-18.156-3.888-3.888L5.693 42.22a1.84 1.84 0 0 0-2.595 0l-.65.65a1.84 1.84 0 0 0 0 2.595l3.888 3.888a1.84 1.84 0 0 0 2.595 0l.65-.65a1.84 1.84 0 0 0 0-2.595z" fill="#a3d4ff"/><path d="M7.637 50.804c-.734 0-1.42-.284-1.944-.807L1.805 46.11a2.75 2.75 0 0 1 0-3.888l.65-.65c.844-.844 2.11-1.018 3.127-.54L23.85 22.762l5.2 5.2L10.773 46.22c.486 1.027.303 2.283-.532 3.127l-.65.65c-.523.523-1.22.807-1.953.807zM4.4 42.597a.94.94 0 0 0-.651.266l-.65.65c-.358.358-.358.935 0 1.302l3.888 3.888c.348.348.954.348 1.293 0l.65-.65c.358-.358.358-.935 0-1.293l-.642-.65 18.156-18.156-2.595-2.595L5.693 43.514l-.65-.65a.92.92 0 0 0-.642-.266z" fill="#4c739e"/><path d="M15.394 23.294l1.944 1.843h2.595l6.74 6.694v2.595l1.816 1.944a1.76 1.76 0 0 0 2.531 0l7.748-7.785c.715-.715.697-1.788-.018-2.503l-1.962-1.86h-2.595L27.6 17.554V14.96l-1.88-1.944c-.715-.715-1.843-.715-2.558 0l-7.767 7.73c-.724.715-.706 1.825.01 2.55z" fill="#fff"/><g fill="#4c739e"><path d="M29.754 37.82c-.715 0-1.394-.284-1.917-.807l-2.08-2.237V32.2l-6.2-6.153H16.97l-2.228-2.1c-1.082-1.082-1.1-2.77-.018-3.842l7.767-7.73a2.7 2.7 0 0 1 3.86 0l2.155 2.228v2.586l6.08 6.116h2.577l2.228 2.1c1.1 1.1 1.1 2.76.037 3.824l-7.748 7.776c-.532.523-1.2.816-1.926.816zM27.6 34.06l1.568 1.678a.86.86 0 0 0 1.2-.018l7.748-7.776c.358-.35.35-.853-.018-1.2l-1.678-1.586h-2.613l-7.134-7.207v-2.604L25.05 13.67c-.348-.348-.9-.348-1.256.01l-7.767 7.73c-.348.348-.348.87.01 1.238l1.67 1.577h2.604l7.28 7.235v2.613zm-21.276 7.5l-1.297 1.297 1.945 1.945 1.297-1.297-1.945-1.945z"/><path d="M27.066 16.912l-2.593 2.594 1.297 1.297 2.594-2.594-1.297-1.297zm6.482 6.484L30.955 26l1.297 1.297 2.594-2.593-1.297-1.297zm-12.318-.648l-1.945 1.945L20.582 26l1.945-1.945-1.297-1.297zm6.483 6.482l-1.945 1.945 1.297 1.297L29 30.527l-1.297-1.297z"/></g><path d="M49.597 48.97h-.917v-1.834a2.75 2.75 0 0 0-2.751-2.751H30.34a2.75 2.75 0 0 0-2.751 2.751v1.834h-.917a2.75 2.75 0 0 0-2.751 2.751v4.585h28.426V51.72c0-1.513-1.23-2.75-2.75-2.75z" fill="#a3d4ff"/><g fill="#4c739e"><path d="M49.597 48.97h-1.834v-1.834a1.84 1.84 0 0 0-1.834-1.834H30.34a1.84 1.84 0 0 0-1.834 1.834v1.834h-1.834v-1.834a3.67 3.67 0 0 1 3.668-3.668h15.59a3.67 3.67 0 0 1 3.668 3.668v1.834z"/><path d="M53.265 57.222h-30.26V51.72a3.67 3.67 0 0 1 3.668-3.668H36.76v1.834H26.673a1.84 1.84 0 0 0-1.834 1.834v3.668h26.59V51.72a1.84 1.84 0 0 0-1.834-1.834h-5.502v-1.834h5.502a3.67 3.67 0 0 1 3.668 3.668v5.502zm-12.837-9.17h-1.834v1.834h1.834v-1.834z"/></g></svg>