<svg xmlns:v="https://vecta.io/nano" xmlns="http://www.w3.org/2000/svg" width="60" height="60" fill="none"><style><![CDATA[.B{fill:#4c739e}.C{fill-rule:evenodd}]]></style><path d="M30 56.636c15.364 0 27.818-12.455 27.818-27.818S45.364 1 30 1 2.182 13.455 2.182 28.818 14.636 56.636 30 56.636z" fill="#f4f8ff"/><path d="M17.455 33.727v17.455h20.727v-5.455s4.364-1.527 4.364-6.545v-5.455h-25.09z" fill="#fff"/><path d="M16.364 32.636h26.182v.5h1.09v6.056c0 2.87-1.263 4.78-2.532 5.955-.627.58-1.25.978-1.72 1.232l-.11.06v4.754H37.09v-6.23l.745-.26.1-.042.407-.2c.348-.19.814-.486 1.28-.916.913-.844 1.832-2.205 1.832-4.354v-4.364h-22.91v16.364h-2.182V32.636z" class="B C"/><path d="M40.364 51.182h-25.09v7.636h25.09v-7.636z" fill="#e9eaeb"/><path d="M14.182 50.09h27.273v8.727h-2.182v-6.545h-22.91v6.545h-2.182V50.09z" class="B C"/><path d="M58.91 7.545H1.09V35.91H58.91V7.545z" fill="#fff"/><path d="M0 6.455h60V37H0V6.455zm2.182 2.182v26.182h55.636V8.636H2.182z" class="B C"/><path d="M50.182 30.455H9.818a3.21 3.21 0 0 0-3.273-3.273v-10.91A3.21 3.21 0 0 0 9.818 13h40.364a3.21 3.21 0 0 0 3.273 3.273v10.91c-1.855 0-3.273 1.527-3.273 3.273z" fill="#a3d4ff"/><g class="C"><path d="M8.727 11.91h42.545V13a2.12 2.12 0 0 0 2.182 2.182h1.09v13.09h-1.09c-1.23 0-2.182 1.015-2.182 2.182v1.09H8.727v-1.09a2.12 2.12 0 0 0-2.182-2.182h-1.09v-13.09h1.09A2.12 2.12 0 0 0 8.727 13v-1.09zm2.05 2.182c-.384 1.56-1.58 2.758-3.142 3.142v8.99c1.56.384 2.758 1.58 3.142 3.142H49.23c.393-1.502 1.575-2.736 3.132-3.136v-8.995c-1.56-.384-2.758-1.58-3.142-3.142H10.778z" class="B"/><path d="M18.546 22.818h-2.182v-2.182h2.182v2.182z" fill="#2a5082"/><path d="M44.727 22.818h-3.273v-2.182h3.273v2.182z" class="B"/></g><path d="M30 27.182c2.71 0 4.91-2.442 4.91-5.454S32.71 16.273 30 16.273s-4.91 2.442-4.91 5.455 2.198 5.454 4.91 5.454z" fill="#fff"/><path d="M30 17.364c-2.003 0-3.818 1.843-3.818 4.364S27.997 26.09 30 26.09s3.818-1.843 3.818-4.364-1.815-4.364-3.818-4.364zm-6 4.364c0-3.504 2.58-6.545 6-6.545s6 3.04 6 6.545-2.58 6.545-6 6.545-6-3.04-6-6.545z" class="B C"/><path d="M29.455 42.455s-.327-8.727-8.727-8.727V26.09c0-5.018-7.636-7.09-7.636-3.273v15.818c0 4.145 4.364 7.09 4.364 7.09v4.364l12-7.636z" fill="#fff"/><path d="M17.27 20.1c2.188.766 4.55 2.86 4.55 5.98v6.593c1.8.16 3.25.7 4.427 1.503 1.397.943 2.336 2.2 2.964 3.402a12.48 12.48 0 0 1 1.133 3.29l.167 1.085.028.316.006.1.001.027v.014a96.05 96.05 0 0 1-1.09.042l-1.1.042v-.01l-.004-.055-.02-.237-.137-.892c-.15-.75-.425-1.736-.93-2.7s-1.222-1.905-2.248-2.598c-1.018-.687-2.397-1.177-4.297-1.177h-1.1V26.1c0-1.898-1.458-3.35-3.088-3.92-.8-.284-1.5-.28-1.887-.134a.69.69 0 0 0-.348.245c-.062.09-.132.246-.132.537v15.818c0 1.7.898 3.215 1.914 4.384a12.3 12.3 0 0 0 1.375 1.344l.447.353.117.085.027.02.003.002.001.001.48.324v4.943h-2.182v-3.816l-.3-.234a14.35 14.35 0 0 1-1.625-1.588c-1.165-1.34-2.45-3.36-2.45-5.816v-15.82c0-.664.168-1.276.525-1.786a2.87 2.87 0 0 1 1.382-1.042c1.034-.38 2.265-.263 3.363.122zm4.548 36.526h-3.273v-2.182h3.273v2.182z" class="B C"/></svg>