<svg xmlns:v="https://vecta.io/nano" xmlns="http://www.w3.org/2000/svg" width="61" height="61" fill="none"><path d="M38.263 59.433l-.5-1.912c10.818-2.918 18.83-11.972 20.434-23.14l2.003.302c-1.703 11.872-10.317 21.63-21.937 24.75zM8.713 12.448L7.2 11.14C13.822 3 24.44-1.235 34.857.374 41.568 1.38 47.88 4.6 52.486 9.63l-1.502 1.4C46.576 6.3 40.967 3.292 34.556 2.387 24.84.978 14.924 4.8 8.713 12.448zM25.24 60.036C12.22 57.722 2.303 47.36.7 34.18l2.003-.302C4.306 46.152 13.52 55.9 25.642 58.024l-.4 2.012z" fill="#dfeeff"/><path d="M37.913 12.908l-2.242 2 1.334 1.5 2.242-2-1.334-1.5zM24.2 12.864l-1.495 1.34 2 2.252 1.495-1.34-2-2.252zm8.704-2.944l-.8 2.907 1.93.54.8-2.907-1.93-.54zM29 9.918l-1.93.54.808 2.907 1.93-.54L29 9.918z" fill="#4c739e"/><path d="M9.415 31.262l17.23 19.217c.5.604 1.302.905 2.104.905h.6c.7 0 1.402-.302 2.003-.805l1.102-1.207-.8-.805c.5.503 1.202.805 2.003.805h1.102c1.002 0 2.003-.604 2.504-1.51l.2-.503-.8-.805a2.79 2.79 0 0 0 2.003.805h1.402c.9 0 1.803-.503 2.304-1.207l.7-1.006c.3-.402.2-1.006-.2-1.308l-7.412-6.54 6.41 5.634c.902.805 2.304.906 3.406.2.8-.503 1.202-1.408 1.202-2.314v-3.52l-12.02-12.073-12.02-1.006-4.007-4.024-10.017 10.06 1.002 1.006z" fill="#fff"/><path d="M29.348 52.4h-.6c-1.102 0-2.104-.503-2.805-1.207L8.713 31.966l-1.703-1.7 11.42-11.47 4.407 4.427 12.02 1.006 12.62 12.677v3.924c0 1.308-.6 2.415-1.703 3.12-.5.302-1.102.503-1.603.604 0 .402-.1.704-.3 1.006l-.7 1.006c-.7 1.207-1.903 1.81-3.205 1.81h-1.903c-.6 1.308-1.903 2.012-3.306 2.012h-1.102c-.2 0-.5 0-.7-.1l-1.002 1.006c-.7.704-1.603 1.107-2.604 1.107zM9.815 30.256l.3.302 17.23 19.217c.3.402.8.604 1.302.604h.6c.5 0 .902-.2 1.302-.503l.5-.503-3.305-3.32 1.402-1.41 3.205 3.22c.3.302.8.503 1.202.503h1.102c.6 0 1.202-.302 1.503-.805l-5.51-5.534 1.402-1.41 5.21 5.232c.3.302.8.503 1.202.503h1.402c.6 0 1.102-.302 1.503-.805l.7-1.006-.8-.704c-.1 0-.1-.1-.2-.2l-6.41-5.634 1.302-1.51 6.41 5.634c.6.503 1.502.604 2.104.1.5-.302.8-.906.8-1.51V37.6l-11.22-11.37-12.02-1.006-3.606-3.622-8.614 8.652z" fill="#4c739e"/><path d="M2.603 27.54l1.202-1.308 12.42-12.375 4.908 4.93L7.51 32.47l-4.908-4.93z" fill="#a3d4ff"/><path d="M7.5 33.878L1.1 27.44l15.025-15.092 6.4 6.44L7.5 33.878zM4.005 27.54l3.506 3.52 12.22-12.274-3.506-3.52L4.005 27.54zm11.303-9.377l-1.983 1.992 1.417 1.423 1.983-1.992-1.417-1.423z" fill="#4c739e"/><path d="M46.476 38.305s6-4.024 7.012-7.043S42.47 19.19 42.47 19.19s-1.002 3.018-2.003 3.018-7.012-3.018-8.013-3.018l-11.018 4.024s-2.003 1.006 0 3.018 5.008 1.006 5.008 1.006 3.005-1.006 5.008-1.006 3.005 1.006 4.007 2.012 9.015 10.06 10.017 10.06h1.002z" fill="#dfeeff"/><path d="M46.777 39.31h-1.302c-.8 0-2.003-.805-9.215-8.753-.7-.805-1.302-1.41-1.502-1.6-1.002-1.006-1.703-1.7-3.306-1.7-1.803 0-4.708.906-4.708.906-.1 0-3.606 1.207-6-1.207-.9-.905-1.302-1.81-1.202-2.716.2-1.207 1.302-1.81 1.402-1.912h.1l11.22-4.125h.2c.6 0 1.803.503 4.407 1.6l3.506 1.41c.3-.302.8-1.308 1.202-2.314l.4-1.308 1.102.805c3.806 2.817 12.52 9.86 11.32 13.18-1.102 3.22-6.81 7.143-7.412 7.546l-.2.2zm-1.102-2.012h.5c1.703-1.207 5.7-4.226 6.41-6.338.4-1.207-4.007-5.735-9.616-10.162-.6 1.308-1.402 2.415-2.504 2.415-.6 0-1.803-.503-4.407-1.6l-3.506-1.41-10.718 3.924c-.1.1-.3.2-.3.402 0 .1 0 .402.6 1.006 1.503 1.51 4.007.805 4.007.805.1 0 3.205-1.006 5.31-1.006 2.404 0 3.706 1.308 4.708 2.314a38.79 38.79 0 0 1 1.603 1.71c1.803 1.912 6.71 7.244 7.913 7.948z" fill="#4c739e"/><path d="M23.638 49.17l1.803-1.81c.6-.604.7-1.41.3-2.113l-.1-.1c-.2-.403-.6-.805-1.102-.906l-1.102-.604c-.6-.2-1.002-.805-1.002-1.41v-.402c0-.805-.7-1.51-1.502-1.51s-1.503-.704-1.503-1.51-.7-1.51-1.503-1.51h-.3c-.7 0-1.302-.503-1.503-1.107l-.4-1.7c-.2-.704-.8-1.107-1.502-1.107H12.42l-2.504 1.51c-.8.805-.8 2.113.1 2.918l11.22 11.47c.6.604 1.703.604 2.404-.1z" fill="#dfeeff"/><path d="M22.436 50.68a2.73 2.73 0 0 1-1.903-.805l-11.32-11.47c-.6-.503-.9-1.308-.9-2.113s.3-1.6.9-2.213l.2-.1 2.705-1.7h2.104c1.102 0 2.104.805 2.404 1.912l.4 1.7c.1.2.3.402.5.402h.3c1.402 0 2.504 1.107 2.504 2.515a.47.47 0 0 0 .501.503c1.402 0 2.504 1.107 2.504 2.515v.402c0 .2.1.402.3.503l1.202.402c.7.2 1.302.805 1.703 1.41l.1.1c.6 1.107.3 2.415-.5 3.32l-1.803 1.81c-.5.604-1.202.905-1.903.905zm-11.92-15.09c-.2.2-.2.402-.2.704s.1.503.3.704l11.22 11.47a.71.71 0 0 0 1.102-.101l1.803-1.81c.3-.302.3-.704.2-1.006l-.1-.1c-.1-.2-.3-.403-.5-.403l-1.202-.402c-1.002-.302-1.703-1.308-1.703-2.415v-.402a.47.47 0 0 0-.501-.503c-1.402 0-2.504-1.107-2.504-2.515a.47.47 0 0 0-.501-.503h-.3c-1.102 0-2.104-.805-2.404-1.912l-.4-1.7c-.1-.2-.3-.402-.5-.402H12.72l-2.204 1.308z" fill="#4c739e"/><path d="M54.29 32.47l-1.302-1.207-12.32-12.476 4.908-4.93L59.198 27.54l-4.908 4.93z" fill="#a3d4ff"/><path d="M54.3 33.878l-15.025-15.1 6.4-6.44L60.7 27.44l-6.4 6.44zm-12.22-15.1L54.3 31.06l3.506-3.52-12.22-12.275-3.506 3.52zm4.48-.605l-1.417 1.423 1.983 1.992 1.417-1.423-1.983-1.992z" fill="#4c739e"/></svg>