<svg xmlns:v="https://vecta.io/nano" xmlns="http://www.w3.org/2000/svg" width="60" height="60" fill="none"><path d="M58.065 29.7c-.194 14.7-12.3 26.7-27 26.7S4.548 44.516 4.645 29.7C4.84 14.903 16.936 3 31.742 3c14.7 0 26.516 11.903 26.323 26.7z" fill="#f4f8ff"/><path d="M56.032 10.452H7.065c-1.548 0-3.3 1.258-3.3 2.903v33.387c0 1.548 1.742 3.097 3.3 3.097h48.968c1.548 0 3-1.548 3-3.097V13.355c0-1.548-1.452-2.903-3-2.903z" fill="#fff"/><path d="M55.355 13.258H7.548v1.935h47.806v-1.935zm0 3.774H53.42v26.226h1.935V17.032zm0 28.065H7.548v1.935h47.806v-1.935zm-37.16 9.483h-8.13L8.7 53.323l1.355-1.355.774.678h6.58l.677-.678 1.355 1.355-1.258 1.258zm34.646 0H44.7l-1.355-1.258 1.355-1.355.774.678h6.58l.677-.678 1.355 1.355-1.258 1.258z" fill="#4c739e"/><path d="M31.84 40.452a10.26 10.26 0 0 0 10.258-10.258 10.26 10.26 0 0 0-10.258-10.258 10.26 10.26 0 0 0-10.258 10.258 10.26 10.26 0 0 0 10.258 10.258z" fill="#a3d4ff"/><path d="M31.84 34.84c2.565 0 4.645-2.08 4.645-4.645s-2.08-4.645-4.645-4.645-4.645 2.08-4.645 4.645 2.08 4.645 4.645 4.645z" fill="#fff"/><path d="M31.84 35.807a5.62 5.62 0 0 1-5.613-5.613 5.62 5.62 0 0 1 5.613-5.613 5.62 5.62 0 0 1 5.613 5.613c.097 3.097-2.42 5.613-5.613 5.613zm0-9.387c-2.032 0-3.677 1.645-3.677 3.677s1.645 3.677 3.677 3.677 3.677-1.645 3.677-3.677c.097-2.032-1.548-3.677-3.677-3.677zm0-7.55c-6.194 0-11.226 5.032-11.226 11.226s5.032 11.226 11.226 11.226a11.23 11.23 0 0 0 11.225-11.225 11.17 11.17 0 0 0-11.226-11.226zm9.3 12.3c-.194 1.84-.968 3.58-2.032 4.936l-1.84-1.84-1.355 1.355 1.84 1.84c-1.355 1.16-3.097 1.84-4.936 2.032v-2.7H30.87v2.7c-1.84-.194-3.58-.968-4.935-2.032l1.84-1.84-1.355-1.355-1.84 1.84c-1.16-1.355-1.84-3.097-2.032-4.936h2.7v-1.936h-2.7c.194-1.84.968-3.58 2.032-4.936l1.84 1.84 1.355-1.355-1.84-1.84c1.355-1.16 3.097-1.84 4.935-2.032v2.7h1.935v-2.7c1.84.194 3.58.968 4.936 2.032l-1.84 1.84 1.355 1.355 1.84-1.84c1.064 1.355 1.84 3.097 2.032 4.936h-2.7v1.936h2.7zM56.032 9.484H7.065c-2.032 0-4.258 1.645-4.258 3.87v5.516h-.87A1.94 1.94 0 0 0 0 20.807v4.645a1.94 1.94 0 0 0 1.935 1.936h.87v5.516h-.87A1.94 1.94 0 0 0 0 34.839v4.645a1.94 1.94 0 0 0 1.935 1.936h.87v5.322c0 2.032 2.13 4.065 4.258 4.065H56.03c2.13 0 3.968-1.935 3.968-4.065V13.355c0-2.032-1.84-3.87-3.968-3.87zm2.032 37.258c0 1.065-1.065 2.13-2.032 2.13H7.065c-1.065 0-2.323-1.16-2.323-2.13V41.42h2.7v1.84h1.935v-1.84h3.774v-4.742h-1.936v2.807h-9.3V34.84H13.16v-1.936H9.387v-3.677H7.452v3.677h-2.7v-5.516h8.42v-4.742h-1.936v2.806h-9.3v-4.645H13.16V18.87H9.387v-1.84H7.452v1.84h-2.7v-5.516c0-.968 1.258-1.935 2.323-1.935h48.968c1.065 0 2.032.87 2.032 1.935V46.74z" fill="#4c739e"/></svg>