<svg xmlns:xlink="http://www.w3.org/1999/xlink" xmlns:v="https://vecta.io/nano" xmlns="http://www.w3.org/2000/svg" width="60" height="60" fill="none"><g clip-path="url(#A)"><path d="M22.62 59.76c12.493 0 22.62-10.127 22.62-22.62S35.113 14.52 22.62 14.52 0 24.647 0 37.14s10.127 22.62 22.62 22.62z" fill="#f4f8ff"/><path d="M39.72 12.66c-.84 0-5.04-7.8-6-9-.3-.42-.36-.6-.12-.9s.78-.3 1.38-.12c1.14.3 2.52 0 4.14-.48 3.18-.84 7.74-2.16 9.6 1.14.18.3.06.3-.3.66-.96 1.02-5.04 8.7-5.82 8.7h-2.88z" fill="#a3d4ff"/><path d="M42.6 13.56h-2.82c-.84 0-1.44-.66-4.92-6.48l-1.74-2.82c-.24-.3-.9-1.14-.12-2.04.48-.6 1.26-.72 2.4-.42.9.24 2.22-.06 3.6-.48 3.12-.9 8.4-2.4 10.62 1.56.48.84-.06 1.38-.24 1.56l-.18.18c-.3.36-1.2 1.86-2.04 3.24-3.06 4.92-3.72 5.7-4.56 5.7zm-2.58-1.8h2.34c.6-.66 2.22-3.24 3.18-4.86 1.08-1.8 1.8-2.94 2.22-3.48-1.5-2.04-4.8-1.32-8.28-.36-1.68.48-3.24.84-4.62.48.36.54.84 1.38 1.56 2.58 1.02 1.74 2.88 4.92 3.6 5.64z" fill="#4c739e"/><path d="M24.42 30.84c0 9.84 7.74 12.24 17.34 12.24S59.1 40.5 59.1 30.72c0-4.86-3.84-14.76-13.32-19.86-1.92-1.02-4.98-1.86-7.98 0-9.3 5.64-13.38 15.3-13.38 19.98z" fill="#a3d4ff"/><g fill="#4c739e"><path d="M41.76 44.04c-4.5 0-18.24 0-18.24-13.2 0-5.16 4.26-15 13.8-20.82 3.78-2.28 7.5-.78 8.94 0 9.54 5.1 13.8 15.18 13.8 20.7C60 39.66 54 44.04 41.76 44.04zm-.18-33.36a6.13 6.13 0 0 0-3.36.96c-8.82 5.34-12.9 14.64-12.9 19.2 0 7.86 5.04 11.34 16.44 11.34 11.22 0 16.44-3.66 16.44-11.46 0-3.96-3.12-13.86-12.84-19.08-.9-.42-2.22-.96-3.78-.96zm14.34 19.14h-1.86c0-3-2.4-10.44-9.72-14.34l.9-1.62c7.38 3.96 10.68 11.7 10.68 15.96z"/></g><path d="M38.76 7.14H6.48V45.9H38.76V7.14Z" fill="#fff"/><path d="M38.76 46.8H6.48c-.48 0-.9-.42-.9-.9V7.14c0-.48.42-.9.9-.9h32.28c.48 0 .9.42.9.9V45.9c.06.48-.36.9-.9.9zM7.38 44.94h30.48V8.04H7.38v36.9z" fill="#4c739e"/><path d="M35.04 10.8h-24.9v31.38h24.9V10.8z" fill="#fff"/><g fill="#4c739e"><path d="M35.04 26.52h-24.9v1.86h24.9v-1.86zm-8.28 7.38H10.14v1.86h16.62V33.9z"/><path d="M19.38 20.04h-1.86v22.14h1.86V20.04zm8.34 0h-1.86v22.14h1.86V20.04z"/></g><path d="M35.04 10.8h-24.9v9.24h24.9V10.8z" fill="#a3d4ff"/><path d="M36 20.94H9.24V9.9H36v11.04zm-24.9-1.8h23.1v-7.38H11.1v7.38z" fill="#2a5082"/><g fill="#4c739e"><path d="M36 43.14H9.24V9.9H36v33.24zm-24.9-1.86h23.1V11.76H11.1v29.52z"/><path d="M35.04 19.14h-24.9V21h24.9v-1.86z"/></g><g fill="#fff"><path d="M36 25.56c3.54 0 6.48 1.26 6.48 2.76v23.1c0 1.5-2.88 2.76-6.48 2.76s-6.48-1.26-6.48-2.76v-23.1c0-1.5 2.94-2.76 6.48-2.76z"/><path d="M23.1 35.76c3.54 0 6.48 1.26 6.48 2.76v9.24c0 1.5-2.88 2.76-6.48 2.76s-6.48-1.26-6.48-2.76v-9.24c0-1.56 2.88-2.76 6.48-2.76z"/></g><g fill="#4c739e"><use xlink:href="#B"/><path d="M36 41.28c-3.66 0-7.38-1.26-7.38-3.72v-4.62h1.86v4.62c0 .66 2.1 1.86 5.52 1.86s5.52-1.2 5.52-1.86v-4.62h1.86v4.62c0 2.46-3.72 3.72-7.38 3.72z"/><path d="M36 45.9c-3.66 0-7.38-1.26-7.38-3.72v-4.62h1.86v4.62c0 .66 2.1 1.86 5.52 1.86s5.52-1.2 5.52-1.86v-4.62h1.86v4.62c0 2.46-3.72 3.72-7.38 3.72z"/><path d="M36 50.52c-3.66 0-7.38-1.26-7.38-3.72v-4.62h1.86v4.62c0 .66 2.1 1.86 5.52 1.86s5.52-1.2 5.52-1.86v-4.62h1.86v4.62c0 2.46-3.72 3.72-7.38 3.72z"/><path d="M36 55.14c-3.66 0-7.38-1.26-7.38-3.72V46.8h1.86v4.62c0 .66 2.1 1.86 5.52 1.86s5.52-1.2 5.52-1.86V46.8h1.86v4.62c0 2.4-3.72 3.72-7.38 3.72zm0-23.1c-3.66 0-7.38-1.26-7.38-3.72S32.34 24.6 36 24.6s7.38 1.26 7.38 3.72-3.72 3.72-7.38 3.72zm0-5.52c-3.42 0-5.52 1.2-5.52 1.86s2.1 1.86 5.52 1.86 5.52-1.2 5.52-1.86-2.1-1.86-5.52-1.86zM23.1 46.8c-3.66 0-7.38-1.26-7.38-3.72v-4.62h1.86v4.62c0 .66 2.1 1.86 5.52 1.86s5.52-1.2 5.52-1.86v-4.62h1.86v4.62c0 2.46-3.72 3.72-7.38 3.72z"/><path d="M23.1 51.42c-3.66 0-7.38-1.26-7.38-3.72v-4.62h1.86v4.62c0 .66 2.1 1.86 5.52 1.86s5.52-1.2 5.52-1.86v-4.62h1.86v4.62c0 2.46-3.72 3.72-7.38 3.72zm0-9.24c-3.66 0-7.38-1.26-7.38-3.72s3.66-3.66 7.38-3.66 7.38 1.26 7.38 3.72-3.72 3.66-7.38 3.66zm0-5.52c-3.42 0-5.52 1.2-5.52 1.86s2.1 1.86 5.52 1.86 5.52-1.2 5.52-1.86-2.1-1.86-5.52-1.86z"/></g></g><defs><clipPath id="A"><path fill="#fff" d="M0 0h60v60H0z"/></clipPath><path id="B" d="M36 36.66c-3.66 0-7.38-1.26-7.38-3.72v-4.62h1.86v4.62c0 .66 2.1 1.86 5.52 1.86s5.52-1.2 5.52-1.86v-4.62h1.86v4.62c0 2.46-3.72 3.72-7.38 3.72z"/></defs></svg>