<svg xmlns:xlink="http://www.w3.org/1999/xlink" xmlns:v="https://vecta.io/nano" xmlns="http://www.w3.org/2000/svg" width="60" height="60" fill="none"><style><![CDATA[.B{fill-rule:evenodd}.C{fill:#4c739e}.D{fill:#a3d4ff}.E{fill:#dfeeff}]]></style><path d="M28.882 53.244c10.64 0 19.264-8.69 19.264-19.407S39.52 14.43 28.882 14.43 9.618 23.12 9.618 33.837s8.625 19.407 19.264 19.407z" fill="#f4f8ff"/><path d="M17.217 54.368a27.37 27.37 0 0 0 27.28.002l.978 1.73a29.33 29.33 0 0 1-29.229.002l.972-1.733zm5.926-45.355c-9.726 2.978-16.5 10.756-18.8 20l-1.917-.483c2.45-9.874 9.706-18.22 20.133-21.4l.575 1.904z" class="B E"/><path d="M1.122 40.704l1.58-6.37h2.964s.988-.995 3.952-2.986 7.903-2.986 7.903-2.986h9.88s.988 0 4.94 2 4.94 3.98 4.94 3.98 5.927 0 9.88.995 6.915 3.98 6.915 3.98v6.966H5.468c-2.964 0-5.038-2.687-4.347-5.573z" class="D"/><path d="M17.423 27.37H27.4v.995l.002-.995h.068l.1.008.25.04a7.52 7.52 0 0 1 .89.249c.8.268 2.08.787 4.08 1.796 2.066 1.04 3.388 2.097 4.208 2.923a8.4 8.4 0 0 1 .828.958l.474.01 2.507.1c2 .125 4.534.378 6.6.9 2.135.538 3.976 1.604 5.266 2.514.65.458 1.17.884 1.53 1.197l.42.378.113.108.044.044a96.61 96.61 0 0 1-.698.705l.698-.704.3.3v8.374H5.468c-3.6 0-6.147-3.295-5.307-6.802l.002-.008 1.767-7.1h3.352l.63-.528 3.156-2.3c1.603-1.077 3.7-1.857 5.32-2.362l2.08-.576.62-.145.216-.047.013-.003.005-.001s.001 0 .195.976l-.195-.976.097-.02zm.2 2l-.108.024-.58.135-1.964.544c-1.58.5-3.445 1.202-4.805 2.116l-3.018 2.188-.625.527-.132.12-.03.028-.287.3h-2.6l-1.393 5.6c-.54 2.264 1.07 4.34 3.387 4.34h47.616v-5.54L52.9 39.6a17.3 17.3 0 0 0-1.372-1.073c-1.18-.83-2.796-1.756-4.612-2.214-1.886-.475-4.283-.72-6.243-.843l-2.433-.107-.712-.013-.2-.002h-.673l-.27-.54-.018-.032-.123-.186a6.27 6.27 0 0 0-.666-.777c-.662-.667-1.8-1.6-3.695-2.55-1.95-.982-3.14-1.458-3.822-1.688l-.653-.186-.065-.012H17.62zm-5.74 4.674l1.397-1.407 1.687 1.7H31.93l.698-.704 1.397 1.407-1.277 1.287h-18.6l-2.265-2.282z" class="B C"/><path d="M11.593 50.26c2.728 0 4.94-2.228 4.94-4.976s-2.212-4.976-4.94-4.976-4.94 2.228-4.94 4.976 2.21 4.976 4.94 4.976z" fill="#fff"/><use xlink:href="#B" class="B C"/><path d="M43.206 50.26c2.728 0 4.94-2.228 4.94-4.976s-2.212-4.976-4.94-4.976-4.94 2.228-4.94 4.976 2.212 4.976 4.94 4.976z" fill="#fff"/><g class="B"><use xlink:href="#B" x="31.613" class="C"/><g class="E"><path d="M56.048 20.402v-5.97h1.976v5.97h-1.976z"/><path d="M54.073 16.42H60v2h-5.927v-2z"/></g></g><use xlink:href="#C" class="D"/><use xlink:href="#D" class="B C"/><path d="M47.158 10.55c2.62 0 4.742-2.14 4.742-4.777S49.776.995 47.158.995s-4.742 2.14-4.742 4.777 2.123 4.777 4.742 4.777z" class="D"/><path d="M47.157 2c-2.073 0-3.754 1.693-3.754 3.782s1.68 3.782 3.754 3.782S50.91 7.86 50.91 5.772 49.23 2 47.157 2zm-5.73 3.782c0-3.188 2.565-5.772 5.73-5.772s5.73 2.584 5.73 5.772-2.565 5.772-5.73 5.772-5.73-2.584-5.73-5.772z" class="B C"/><use xlink:href="#C" x="13.337" y="9.356" class="D"/><g class="B"><g class="C"><use xlink:href="#D" x="13.337" y="9.355"/><path d="M31.35 14.43V6.47h1.976v7.962H31.35zm0-9.952v-2h1.976v2H31.35z"/></g><g class="E"><path d="M19.496 25.378v-5.97h1.976v5.97h-1.976z"/><path d="M17.52 21.397h5.927v2H17.52v-2z"/></g></g><defs ><path id="B" d="M11.593 41.302c-2.182 0-3.952 1.782-3.952 3.98s1.77 3.98 3.952 3.98 3.952-1.782 3.952-3.98-1.77-3.98-3.952-3.98zm-5.927 3.98c0-3.298 2.654-5.97 5.927-5.97s5.927 2.673 5.927 5.97-2.654 5.97-5.927 5.97-5.927-2.673-5.927-5.97z"/><path id="C" d="M32.043 20.6c2.62 0 4.742-2.14 4.742-4.777s-2.123-4.777-4.742-4.777-4.742 2.14-4.742 4.777 2.123 4.777 4.742 4.777z"/><path id="D" d="M32.043 12.042c-2.073 0-3.754 1.693-3.754 3.782s1.68 3.782 3.754 3.782 3.754-1.693 3.754-3.782-1.68-3.782-3.754-3.782zm-5.73 3.782c0-3.188 2.565-5.772 5.73-5.772s5.73 2.584 5.73 5.772-2.565 5.772-5.73 5.772-5.73-2.584-5.73-5.772z"/></defs></svg>