<svg xmlns:v="https://vecta.io/nano" xmlns="http://www.w3.org/2000/svg" width="60" height="60" fill="none"><g clip-path="url(#A)"><g fill-rule="evenodd" fill="#dfeeff"><path d="M13.8 8.5a25.77 25.77 0 0 0-1.943 2.165l-1.46-1.155c.642-.805 1.34-1.58 2.083-2.322L13.8 8.5zm-3.03 3.654c-.5.734-.94 1.48-1.334 2.24L7.8 13.55c.43-.83.917-1.635 1.438-2.415l1.554 1.03zm-2.052 3.718l-.84 2.246L6.1 17.56l.9-2.407 1.717.728zm-1.263 3.726c-1.46 5.917-.585 12.276 2.638 17.646l-1.602.954c-3.48-5.8-4.423-12.663-2.85-19.043l1.813.443zm4.617-1.405a17.91 17.91 0 0 0-.766 2.203l-1.8-.5a19.73 19.73 0 0 1 .845-2.43l1.722.718zM10.967 21.9a19.31 19.31 0 0 0 1.438 11.823l-1.694.78a21.15 21.15 0 0 1-1.577-12.957l1.833.354zm41.42 11.463c.362-.9.67-1.83.923-2.747l1.8.492a28.04 28.04 0 0 1-.987 2.94l-1.736-.684zm1.327-4.54a22.72 22.72 0 0 0 .333-2.564l1.862.136c-.068.918-.184 1.85-.36 2.773l-1.834-.346zm.395-4.212l-.117-2.38 1.857-.188a24.92 24.92 0 0 1 .126 2.568h-1.867zm-.323-3.908c-1.018-6.005-4.36-11.513-9.468-15.2L45.412 4a25.5 25.5 0 0 1 10.214 16.395l-1.84.3zM50.1 23.8c-.01-.78-.07-1.562-.178-2.33l1.85-.256a20.33 20.33 0 0 1 .196 2.564l-1.867.02zm-.445-4a19.44 19.44 0 0 0-6.04-10.3l1.247-1.383a21.36 21.36 0 0 1 6.618 11.294l-1.823.4z"/></g><g fill="#f4f8ff"><path d="M24.143 49.613l7.435 5.327 26.527-11.2-7.612-5.43m-13.297-1.4l-8.568-4.856L2.102 43.252l8.7 4.93"/><path d="M30.098 9.304c-9.195 0-16.657 7.35-16.657 16.425 0 4.2 1.6 8.042 4.242 10.94l10.946-4.625 8.568 4.856 4.625.49c3.053-2.973 4.944-7.11 4.944-11.67-.01-9.066-7.463-16.415-16.667-16.415z"/></g><path fill-rule="evenodd" d="M28.688 31.01l8.8 4.988 13.347 1.418L60 43.95 31.458 56l-7.66-5.49-13.29-1.425L0 43.13 28.688 31.01zM4.203 43.374l6.9 3.905 13.395 1.437 7.21 5.165 24.51-10.348-6.06-4.322-13.245-1.407-8.335-4.725L4.203 43.374z" fill="#4c739e"/><path d="M30.604 43.557c.31-8.688 8.755-10.84 8.755-17.948 0-5.43-4.803-9.75-10.45-9.048-4.822.6-8.4 4.92-8.034 9.703.496 6.592 8.427 8.882 8.727 17.302" fill="#a3d4ff"/><path fill-rule="evenodd" d="M28.793 15.64c6.2-.77 11.5 3.98 11.5 9.97 0 3.766-2.162 6.28-4.18 8.63l-.304.354c-2.14 2.5-4.13 4.997-4.27 8.996l-1.303-.046-1.564.055c-.138-3.876-2.008-6.345-4.07-8.77l-.482-.563c-1.893-2.204-3.92-4.562-4.173-7.933v-.001c-.393-5.28 3.538-10.033 8.85-10.694h0zm1.31 24.94c.812-3.054 2.617-5.242 4.285-7.19l.185-.216c2.118-2.473 3.854-4.5 3.854-7.563 0-4.867-4.308-8.758-9.4-8.126m1.077 23.095c-.78-2.928-2.47-5.06-4.077-6.95l-.42-.493c-1.965-2.3-3.592-4.202-3.798-6.94-.32-4.284 2.885-8.173 7.22-8.712" fill="#4c739e"/><path d="M32.907 25.72c0 1.533-1.255 2.77-2.81 2.77s-2.81-1.237-2.81-2.77 1.255-2.77 2.81-2.77 2.81 1.246 2.81 2.77z" fill="#fff"/><g fill-rule="evenodd" fill="#4c739e"><path d="M30.098 23.88c-1.047 0-1.876.83-1.876 1.84s.828 1.84 1.876 1.84 1.876-.83 1.876-1.84c0-1.003-.83-1.84-1.876-1.84zm-3.742 1.84c0-2.055 1.68-3.7 3.742-3.7s3.742 1.656 3.742 3.7c0 2.054-1.68 3.7-3.742 3.7s-3.742-1.645-3.742-3.7zm.557 16.492l-15.74 6.823-.745-1.704 15.74-6.823.745 1.704zm5.173 3.054l17.8-7.93.763 1.697-17.8 7.93-.763-1.697z"/></g></g><defs><clipPath id="A"><path fill="#fff" d="M0 0h60v60H0z"/></clipPath></defs></svg>