<svg xmlns:v="https://vecta.io/nano" xmlns="http://www.w3.org/2000/svg" width="60" height="60"  fill="none"><path d="M30.046 48c9.956 0 18.028-8.06 18.028-18s-8.07-18-18.028-18-18.027 8.06-18.027 18 8.07 18 18.028 18z" fill="#d9f0fb"/><path d="M30.046 48.923C19.6 48.923 11.094 40.43 11.094 30S19.6 11.077 30.046 11.077 48.998 19.57 48.998 30s-8.505 18.923-18.952 18.923zm0-36c-9.43 0-17.103 7.66-17.103 17.077s7.673 17.077 17.103 17.077S47.15 39.415 47.15 30s-7.673-17.077-17.103-17.077zM11.833 46.34C7.766 41.815 5.547 36.092 5.547 30c0-7.2 3.143-14.03 8.7-18.646l1.202 1.385C10.354 17.077 7.396 23.354 7.396 30c0 5.538 2.034 10.892 5.732 15.046l-1.294 1.292zM28.104 60C12.388 58.985 0 45.877 0 30.092c0-1.292.092-2.585.277-3.785l1.85.277c-.185 1.2-.185 2.4-.185 3.6 0 14.77 11.556 27.138 26.348 28.062L28.104 60zm13.313-2.215l-.74-1.66C51.3 51.785 58.15 41.54 58.15 30.092c0-4.8-1.202-9.508-3.513-13.66l1.572-.923c2.496 4.43 3.8 9.508 3.8 14.585.093 12.185-7.2 23.077-18.582 27.692zM6 15.23l-1.572-1.015C9.984 5.262 19.507 0 30.046 0c6.286 0 12.296 1.938 17.38 5.538l-1.1 1.477C41.5 3.6 35.87 1.846 29.953 1.846c-9.8 0-18.767 4.985-23.944 13.385z" fill="#4c739e"/><path d="M25 40v-1.857l2.7-.93v-7.43l-2.7-.93V27h6.3v10.214l2.7.93V40h-9z" fill="#a3d4ff"/><path fill-rule="evenodd" d="M24 26h8.242v10.58l1.214.413.674.237.266.095.603.218V41H24v-3.456l.674-.243.196-.07.673-.237 1.214-.413v-6.173L24 29.47V26zm1.808 2.137l2.758.94v8.864l-.638.2-1.8.602-.318.11v.298h7.384v-.298l-.318-.11-1.8-.602-.638-.2V27.848h-4.627v.29z" fill="#4c739e"/><path d="M29.5 24a2.5 2.5 0 1 0 0-5 2.5 2.5 0 1 0 0 5z" fill="#a3d4ff"/><path fill-rule="evenodd" d="M29.5 19.728c-.98 0-1.772.793-1.772 1.772s.793 1.772 1.772 1.772 1.772-.793 1.772-1.772-.793-1.772-1.772-1.772zM26 21.5a3.5 3.5 0 1 1 7 0 3.5 3.5 0 1 1-7 0z" fill="#4c739e"/></svg>