<svg xmlns:xlink="http://www.w3.org/1999/xlink" xmlns:v="https://vecta.io/nano" xmlns="http://www.w3.org/2000/svg" width="60" height="60" fill="none"><style><![CDATA[.B{fill:#4c739e}.C{fill:#fff}.D{fill-rule:evenodd}]]></style><path d="M33.742 52.6c10.56 0 19.123-8.63 19.123-19.276S44.303 14.05 33.742 14.05 14.62 22.68 14.62 33.324 23.18 52.6 33.742 52.6z" fill="#f4f8ff"/><path d="M53.388 34.587c3.235 0 5.85 1.15 5.85 2.54v8.39c0 1.4-2.616 2.54-5.85 2.54s-5.85-1.15-5.85-2.54v-8.44c0-1.39 2.616-2.493 5.85-2.493z" class="C"/><g class="B"><use xlink:href="#B"/><path d="M53.388 48.828c-3.282 0-6.612-1.15-6.612-3.3V41.3h1.57v4.22c0 .575 1.808 1.726 5.042 1.726 3.282 0 5.042-1.15 5.042-1.726V41.3H60v4.22c0 2.158-3.33 3.3-6.612 3.3zm0-8.438c-3.282 0-6.612-1.15-6.612-3.3s3.33-3.3 6.612-3.3S60 34.923 60 37.08s-3.33 3.3-6.612 3.3zm0-5.035c-3.282 0-5.042 1.15-5.042 1.726s1.808 1.726 5.042 1.726c3.282 0 5.042-1.15 5.042-1.726s-1.76-1.726-5.042-1.726z"/></g><path d="M53.388 26.196c3.235 0 5.85 1.15 5.85 2.54v8.39c0 1.4-2.616 2.54-5.85 2.54s-5.85-1.15-5.85-2.54v-8.44c0-1.4 2.616-2.493 5.85-2.493z" class="C"/><g class="B"><use xlink:href="#B" y="-8.391"/><path d="M53.388 40.4c-3.282 0-6.612-1.15-6.612-3.3v-4.22h1.57v4.22c0 .575 1.808 1.726 5.042 1.726 3.282 0 5.042-1.15 5.042-1.726v-4.22H60v4.22c0 2.206-3.33 3.3-6.612 3.3zm0-8.392c-3.282 0-6.612-1.15-6.612-3.308s3.33-3.308 6.612-3.308S60 26.532 60 28.7s-3.33 3.308-6.612 3.308zm0-5.035c-3.282 0-5.042 1.15-5.042 1.726s1.808 1.726 5.042 1.726c3.282 0 5.042-1.15 5.042-1.726s-1.76-1.726-5.042-1.726z"/></g><path d="M47.394 7.767H20.1v33.037h27.305V7.767z" class="C"/><path d="M47.394 41.572H20.1c-.428 0-.76-.336-.76-.767V7.767c0-.432.333-.767.76-.767h27.305c.428 0 .81.336.81.767v33.037c0 .432-.38.767-.81.767zM20.9 40.037h25.735V8.582H20.9v31.455z" class="B"/><path d="M44.302 10.932H23.23V37.64h21.073V10.932z" class="C"/><g class="B"><path d="M44.302 24.3H23.23v1.582h21.073V24.3zm-7.04 6.3H23.23v1.582h14.033V30.6z"/><path d="M31.03 18.796h-1.57V37.64h1.57V18.796zm7.04 0H36.5V37.64h1.57V18.796z"/></g><path d="M44.302 10.932H23.23v7.864h21.073v-7.864z" fill="#a3d4ff"/><path d="M45.063 19.563H22.468v-9.398h22.595v9.398zM23.99 18.028h19.503V11.7H23.99v6.33z" fill="#2a5082"/><g class="B"><path d="M45.063 38.455H22.468v-28.3h22.595v28.3zM23.99 36.873h19.503V11.7H23.99v25.173z"/><path d="M44.302 18.028H23.23v1.582h21.073v-1.582z"/><path d="M7.884 35.198h3.584v1.46H7.884v-1.46zM0 38.013h9.317v1.46H0v-1.46zm6.45-1.356H5.017v-1.46H6.45v1.46z" class="D"/></g><path d="M44.437 31.705H12.184v18.3h32.253v-18.3z" class="C"/><path d="M11.43 30.975H45.2v19.76H11.43V45.78h1.506v3.493h30.746v-16.84H12.938V43.67H11.43V30.975z" class="B D"/><path d="M38.703 46.485H17.918c0-1.197-.932-2.112-2.15-2.112v-7.038c1.218 0 2.15-.915 2.15-2.11h20.785c0 1.197.932 2.11 2.15 2.11v7.038c-1.218 0-2.15.985-2.15 2.112z" fill="#a3d4ff"/><path d="M17.165 34.494h22.292v.73a1.35 1.35 0 0 0 1.397 1.382h.753v8.498h-.753c-.777 0-1.397.633-1.397 1.382v.73h-22.3v-.73a1.35 1.35 0 0 0-1.397-1.382h-.753v-8.498h.753a1.35 1.35 0 0 0 1.397-1.382v-.73zm1.414 1.46a2.81 2.81 0 0 1-2.058 2.02v5.762a2.81 2.81 0 0 1 2.058 2.02h19.47A2.89 2.89 0 0 1 40.1 43.74v-5.766a2.81 2.81 0 0 1-2.058-2.02H18.58zm2.923 5.63H20.07v-1.46h1.433v1.46zm15.05 0H35.12v-1.46h1.433v1.46z" class="B D"/><path d="M28.31 44.374c1.78 0 3.225-1.576 3.225-3.52s-1.444-3.52-3.225-3.52-3.225 1.576-3.225 3.52 1.444 3.52 3.225 3.52z" class="C"/><path d="M28.3 38.065c-1.284 0-2.472 1.165-2.472 2.8s1.2 2.8 2.472 2.8 2.472-1.165 2.472-2.8-1.2-2.8-2.472-2.8zm-3.98 2.8c0-2.263 1.7-4.25 3.98-4.25s3.978 1.986 3.978 4.25-1.7 4.25-3.978 4.25-3.98-1.986-3.98-4.25zM5.017 42.94h9.318v1.46H5.017v-1.46z" class="B D"/><path d="M49.424 37.336c3.235 0 5.85 1.15 5.85 2.54v8.39c0 1.39-2.616 2.54-5.85 2.54s-5.85-1.15-5.85-2.54v-8.39c0-1.39 2.616-2.54 5.85-2.54z" class="C"/><g class="B"><path d="M49.424 47.358c-3.282 0-6.612-1.15-6.612-3.31v-4.22h1.57v4.22c0 .575 1.808 1.726 5.042 1.726 3.282 0 5.042-1.15 5.042-1.726v-4.22h1.57v4.22c0 2.206-3.33 3.31-6.612 3.31z"/><path d="M49.424 51.577c-3.282 0-6.612-1.15-6.612-3.3v-4.22h1.57v4.22c0 .575 1.808 1.726 5.042 1.726 3.282 0 5.042-1.15 5.042-1.726v-4.22h1.57v4.22c0 2.158-3.33 3.3-6.612 3.3zm0-8.39c-3.282 0-6.612-1.15-6.612-3.308s3.33-3.3 6.612-3.3 6.612 1.15 6.612 3.3-3.33 3.308-6.612 3.308zm0-5.083c-3.282 0-5.042 1.15-5.042 1.726s1.808 1.726 5.042 1.726c3.282 0 5.042-1.15 5.042-1.726s-1.808-1.726-5.042-1.726z"/></g><defs ><path id="B" d="M53.388 44.608c-3.282 0-6.612-1.15-6.612-3.31v-4.22h1.57v4.22c0 .575 1.808 1.726 5.042 1.726 3.282 0 5.042-1.15 5.042-1.726v-4.22H60v4.22c0 2.158-3.33 3.31-6.612 3.31z"/></defs></svg>