<svg xmlns:v="https://vecta.io/nano" xmlns="http://www.w3.org/2000/svg" width="60" height="60" fill="none"><path d="M28.594 58.188c15.792 0 28.594-12.802 28.594-28.594S44.386 1 28.594 1 0 13.802 0 29.594s12.802 28.594 28.594 28.594z" fill="#f4f8ff"/><path d="M59.063 8.5H5.625v39.375h53.438V8.5z" fill="#fff"/><path d="M6.563 11.313V9.438h2.813V7.563H4.688v3.75h1.875zm48.75-1.875h2.813v1.875H60v-3.75h-4.687v1.875zm-1.875-1.875H11.25v1.875h42.188V7.563zM60 13.188h-1.875v30H60v-30zm-1.875 31.875v1.875h-2.812v1.875H60v-3.75h-1.875zm-4.687 1.875H24.375v1.875h29.063v-1.875zm-43.125 0h-3.75v-33.75H4.688v35.625h5.625v-1.875zm32.812-1.875c-.656 0-1.312-.375-2.437-1.22-1.03-.656-2.344-1.594-3.187-1.594-.562 0-1.125.563-1.687 1.125-.75.75-1.687 1.688-3 1.688-1.406 0-2.906-1.03-4.22-1.97l-1.5-.937.094-1.875c.656 0 1.313.375 2.438 1.22 1.03.75 2.344 1.688 3.188 1.688.563 0 1.125-.562 1.688-1.125.75-.75 1.688-1.687 3-1.687 1.406 0 2.906 1.03 4.22 1.97l1.406.844c.188-.094.656-.562.938-.75 1.03-.844 2.25-1.97 3.75-1.97.938 0 2.344.563 3.75 1.125.844.28 2.156.844 2.813.937-.187-.47-.75-1.312-1.125-1.875-.937-1.406-1.78-2.72-1.78-3.937 0-1.312.938-2.25 1.688-3 .563-.562 1.125-1.125 1.125-1.688 0-.375-.28-.656-1.03-1.125-.656-.562-1.687-1.312-1.687-2.72 0-1.312.938-2.25 1.688-3 .563-.562 1.125-1.125 1.125-1.687s-.562-1.125-1.125-1.687c-.75-.75-1.687-1.687-1.687-3 0-1.03.563-2.062 1.125-3.094s1.22-2.25.938-2.906c-.656 0-2.625 1.03-3.656 1.594-1.687.844-3 1.594-4.03 1.594-1.406 0-2.72-1.125-3.75-1.97-.28-.28-.656-.562-.937-.75-.187.188-.375.47-.562.656-.75.938-1.687 2.156-3.28 2.156-1.406 0-2.906-1.03-4.22-1.97-.375-.375-1.03-.844-1.312-.937-.28.094-.937.563-1.406.844-1.312.938-2.812 1.97-4.22 1.97s-2.72-1.125-3.75-1.97c-.28-.28-.656-.562-.937-.75-.187.188-.375.47-.562.656-.75.938-1.687 2.156-3.28 2.156-.937 0-2.344-.562-3.75-1.125-.937-.375-2.344-.937-3-.937.094.75.844 2.437 1.22 3.375.563 1.313.844 1.97.844 2.438 0 1.313-1.125 2.438-2.156 3.47-.28.28-.094 1.313.188 1.688l-1.687.844c-.094-.28-1.22-2.53.188-3.937.75-.75 1.594-1.594 1.594-2.156 0-.187-.375-1.03-.656-1.687-1.22-2.72-1.875-4.5-.937-5.53.937-.937 2.812-.28 5.062.656 1.125.47 2.438.938 3.094.938s1.22-.75 1.78-1.406c.563-.75 1.125-1.406 1.97-1.406.75 0 1.406.563 2.156 1.313.75.656 1.78 1.5 2.53 1.5.844 0 2.156-.937 3.188-1.594 2.344-1.594 2.53-1.594 4.875 0 1.125.656 2.438 1.594 3.28 1.594.656 0 1.22-.75 1.78-1.406.563-.75 1.125-1.406 1.97-1.406.75 0 1.406.563 2.156 1.313.75.656 1.78 1.5 2.53 1.5.47 0 1.97-.844 3-1.406 2.438-1.312 4.03-2.156 5.25-1.78.47.188.844.47 1.03.844.75 1.5-.094 3.188-.937 4.687-.375.938-.844 1.78-.844 2.344s.55 1.118 1.113 1.68c.75.75 1.688 1.688 1.688 3s-.937 2.25-1.687 3c-.562.563-1.125 1.125-1.125 1.688 0 .375.28.656 1.03 1.125s1.78 1.22 1.78 2.625c0 1.313-.937 2.25-1.687 3-.562.563-1.125 1.125-1.125 1.688s.844 1.97 1.5 2.906c1.125 1.78 2.156 3.28 1.125 4.313-.937.937-2.812.28-5.062-.656-1.125-.47-2.437-.937-3.094-.937-.75 0-1.687.844-2.53 1.5-.844.75-1.5 1.313-2.25 1.313z" fill="#4c739e"/><path d="M20.813 53.688l-3-3-4.03 3.188c-.28.188-.656 0-.656-.28v-16.03h8.438v15.844c0 .375-.47.563-.75.28z" fill="#fff"/><path d="M13.5 54.906c-.187 0-.375 0-.562-.094-.47-.187-.75-.656-.75-1.22v-16.97H22.5v16.78c0 .563-.28 1.03-.844 1.22-.47.188-1.125.094-1.5-.28l-2.437-2.438-3.375 2.72c-.187.188-.47.28-.844.28zm.563-16.406v13.97l3.844-3.094 2.72 2.72V38.5h-6.562zm30-15.937h-15v1.875h15v-1.875zm0 3.75h-15v1.875h15v-1.875zm-4.688 3.937H29.063v1.594h10.313V30.25z" fill="#4c739e"/><path d="M17.344 39.438c3.883 0 7.03-3.148 7.03-7.03s-3.148-7.03-7.03-7.03-7.03 3.148-7.03 7.03 3.148 7.03 7.03 7.03z" fill="#a3d4ff"/><path d="M17.344 40.375c-4.406 0-7.97-3.562-7.97-7.97s3.563-7.97 7.97-7.97 7.97 3.563 7.97 7.97-3.562 7.97-7.97 7.97zm0-14.062a6.08 6.08 0 1 0 0 12.188 6.08 6.08 0 1 0 0-12.187z" fill="#4c739e"/></svg>