<svg xmlns:xlink="http://www.w3.org/1999/xlink" xmlns:v="https://vecta.io/nano" xmlns="http://www.w3.org/2000/svg" width="60" height="60" fill="none"><style><![CDATA[.B{fill-rule:evenodd}.C{fill:#4c739e}]]></style><path d="M31.473 50.988c11.594 0 20.992-9.398 20.992-20.992S43.066 9.004 31.473 9.004 10.48 18.403 10.48 29.996s9.398 20.992 20.992 20.992z" fill="#f4f8ff"/><path d="M18.76 52.204c9.566 5.407 20.788 5.094 29.726.002l1.066 1.87c-9.58 5.458-21.6 5.8-31.85.002l1.06-1.874zm6.46-49.06C14.62 6.366 7.24 14.78 4.743 24.767l-2.1-.522c2.67-10.68 10.577-19.707 21.94-23.16l.626 2.06z" fill="#dfeeff" class="B"/><path d="M56.448 14.387a.87.87 0 0 0 .323-.969c-.108-.43-.215-.86-.43-1.4-.215-.43-.323-.86-.538-1.292-.215-.323-.538-.538-.86-.538l-2.907.108c-.323 0-.538-.108-.754-.43-.538-.646-1.077-1.292-1.722-1.83-.215-.215-.323-.538-.323-.754l.215-2.8c0-.323-.108-.754-.43-.86l-2.584-1.184c-.323-.108-.754 0-.97.215L43.53 4.698c-.215.215-.538.323-.86.323-.86-.108-1.722-.108-2.476-.108-.323 0-.646-.108-.754-.323l-1.83-2.153a.87.87 0 0 0-.969-.323c-.43.108-.86.215-1.4.43l-1.292.538c-.323.215-.538.538-.538.86l.108 2.907c0 .323-.108.538-.43.754-.646.538-1.292 1.077-1.83 1.722-.215.215-.538.323-.754.323l-2.8-.215c-.323 0-.753.108-.86.43L25.66 12.45c-.108.323 0 .754.215.97l2.045 1.938c.215.215.323.538.323.86-.108.86-.108 1.723-.108 2.476 0 .323-.108.646-.323.754l-2.153 1.83a.87.87 0 0 0-.323.969c.108.43.215.86.43 1.4l.538 1.292c.215.323.538.538.86.538l2.907-.108c.323 0 .538.108.753.43.538.646 1.076 1.292 1.723 1.83.215.215.323.538.323.753l-.215 2.8c0 .323.108.754.43.86l2.584 1.184c.323.108.754 0 .97-.215l1.938-2.045c.215-.215.538-.323.86-.323.86.108 1.722.108 2.476.108.323 0 .646.108.754.323l1.83 2.153a.87.87 0 0 0 .969.323c.43-.108.86-.215 1.4-.43.43-.215.86-.323 1.292-.538.323-.215.538-.538.538-.86l-.108-2.907c0-.323.108-.538.43-.753.646-.538 1.292-1.077 1.83-1.722.215-.215.538-.323.753-.323l2.8.215c.323 0 .754-.108.86-.43l1.184-2.584c.108-.323 0-.754-.215-.97l-2.045-1.938c-.215-.215-.323-.538-.323-.86.108-.86.108-1.722.108-2.476 0-.323.108-.646.323-.754l2.153-1.83z" fill="#fff"/><path d="M38.46 1.778l1.75 2.06h.005l2.496.105c.025-.003.045-.008.06-.013l1.935-2.037c.284-.284.643-.443.963-.516s.72-.088 1.107.04l.02.006.02.007c.906.34 1.8.786 2.638 1.204.506.204.77.62.898.923.136.326.177.662.177.925v.04l-.21 2.737c.692.596 1.26 1.28 1.765 1.884l.058.07 2.8-.103c.797 0 1.415.504 1.757 1.018l.037.056.03.06c.133.266.23.527.308.732l.006.017.224.543.02.04.017.042c.24.598.36 1.082.468 1.508.21.7.006 1.6-.7 2.113l-2.06 1.75v.005l-.105 2.496c.003.025.008.045.013.06l2.027 1.924.01.01c.284.284.443.643.517.963s.088.72-.04 1.107l-.006.02-.007.02c-.34.906-.786 1.8-1.204 2.637-.204.506-.62.77-.924.898-.325.136-.662.177-.925.177h-.04l-2.737-.2c-.596.692-1.28 1.26-1.884 1.765l-.07.058.103 2.8c0 .797-.504 1.415-1.018 1.757l-.056.037-.06.03c-.266.133-.527.23-.732.308l-.017.006-.542.224-.04.02-.042.017c-.598.24-1.082.36-1.508.468-.7.21-1.6.006-2.113-.7l-1.75-2.06h-.005c-.717 0-1.6 0-2.496-.105-.025.003-.045.008-.06.013L37.4 33.772c-.284.284-.643.443-.963.517s-.72.088-1.107-.04l-.02-.006-.02-.007c-.906-.34-1.8-.786-2.638-1.204-.506-.204-.77-.62-.898-.924-.136-.325-.177-.662-.177-.925v-.04l.2-2.737c-.693-.596-1.26-1.28-1.765-1.884l-.058-.07-2.8.103c-.797 0-1.415-.504-1.757-1.018l-.037-.056-.03-.06c-.182-.364-.306-.684-.44-1.026l-.136-.347a10.88 10.88 0 0 1-.468-1.508c-.21-.7-.006-1.6.7-2.113l2.06-1.75v-.005l.105-2.496c-.003-.025-.008-.045-.013-.06l-2.037-1.935c-.284-.284-.443-.643-.516-.963s-.088-.72.04-1.107l.006-.02.007-.02c.34-.906.786-1.8 1.204-2.638.204-.506.62-.77.924-.898.326-.136.662-.177.925-.177h.04l2.737.21c.596-.692 1.28-1.26 1.884-1.765l.07-.058-.103-2.8c0-.797.504-1.415 1.018-1.757l.056-.037.06-.03c.364-.182.684-.306 1.026-.44l.347-.136c.598-.24 1.082-.36 1.508-.468.7-.21 1.6-.006 2.113.7zm-1.636 1.4c-.396.1-.748.192-1.185.367l-.44.173-.693.29-.016.015.104 2.828c0 .285-.048.614-.23.94-.165.296-.395.5-.627.673-.642.535-1.197 1.005-1.653 1.552l-.03.037-.035.035c-.43.43-1.033.638-1.515.638h-.04l-2.74-.21-1.015 2.207 1.964 1.86.01.01c.463.463.638 1.086.638 1.622v.067l-.008.067c-.098.784-.1 1.58-.1 2.342a2.33 2.33 0 0 1-.158.857 1.65 1.65 0 0 1-.612.774L26.4 22.06c.1.396.192.748.367 1.185l.173.44.29.693.015.016 2.828-.104a1.9 1.9 0 0 1 .94.23c.296.165.5.395.673.627.535.642 1.005 1.197 1.552 1.653l.038.03.035.035c.43.43.638 1.033.638 1.515v.04l-.21 2.74 2.208 1.015 1.87-1.974c.463-.463 1.086-.638 1.622-.638h.067l.067.008c.784.098 1.58.1 2.343.1a2.33 2.33 0 0 1 .857.158 1.65 1.65 0 0 1 .774.612l1.736 2.042c.385-.097.728-.187 1.148-.352.25-.122.494-.213.688-.286l.017-.006.468-.188-.1-2.82v-.02a1.9 1.9 0 0 1 .23-.94c.165-.296.395-.5.627-.673.642-.535 1.197-1.005 1.653-1.552l.03-.037.035-.035c.43-.43 1.033-.638 1.515-.638h.04l2.74.21L55.4 22.94l-1.974-1.87c-.463-.463-.638-1.086-.638-1.622v-.067l.008-.067c.098-.784.1-1.58.1-2.342a2.33 2.33 0 0 1 .158-.857 1.65 1.65 0 0 1 .612-.774l2.042-1.736c-.097-.385-.187-.728-.352-1.148-.122-.25-.213-.494-.286-.688l-.006-.017-.188-.468-2.84.1c-.285 0-.614-.05-.94-.23-.296-.165-.5-.395-.673-.627-.535-.642-1.005-1.197-1.552-1.653l-.038-.03-.035-.035c-.43-.43-.638-1.033-.638-1.515v-.04l.21-2.74-2.208-1.015-1.87 1.974c-.463.463-1.086.638-1.622.638H42.6l-.066-.008c-.784-.098-1.58-.1-2.342-.1a2.33 2.33 0 0 1-.857-.158 1.65 1.65 0 0 1-.774-.612l-1.736-2.042z" class="B C"/><path d="M40.838 23.645c3.15 0 5.706-2.555 5.706-5.706S44 12.234 40.838 12.234s-5.706 2.554-5.706 5.706 2.554 5.706 5.706 5.706z" fill="#fff"/><path d="M40.838 13.31a4.63 4.63 0 0 0-4.629 4.629 4.63 4.63 0 0 0 4.629 4.629 4.63 4.63 0 0 0 4.629-4.629 4.63 4.63 0 0 0-4.629-4.629zm-6.782 4.63c0-3.746 3.036-6.782 6.782-6.782s6.782 3.036 6.782 6.782-3.036 6.782-6.782 6.782-6.782-3.036-6.782-6.782z" class="B C"/><path d="M1.223 37.424l1.722-6.9h3.23s1.077-1.077 4.306-3.23 8.612-3.23 8.612-3.23h10.765s1.077 0 5.383 2.153 5.383 4.306 5.383 4.306 6.46 0 10.765 1.076 7.536 4.306 7.536 4.306v7.536H5.96c-3.23 0-5.5-2.907-4.737-6.03z" fill="#a3d4ff"/><path d="M18.986 23h10.872v1.077L29.86 23h.034l.04.002.097.008.273.044a8.26 8.26 0 0 1 .97.27c.87.3 2.265.852 4.447 1.942 2.25 1.126 3.692 2.27 4.586 3.162a9.1 9.1 0 0 1 .902 1.037l.517.01 2.73.12c2.17.136 4.94.4 7.2.972 2.327.582 4.332 1.735 5.74 2.72l1.667 1.295.456.4.123.117.048.048s.001.001-.76.762l.76-.76.315.315v9.058H5.96c-3.932 0-6.7-3.564-5.783-7.358l1.928-7.713h3.653l.687-.57c.7-.56 1.802-1.386 3.44-2.477 1.747-1.165 4.02-2 5.798-2.555l2.266-.623.677-.157.186-.04.07-.014s.001 0 .212 1.056l-.212-1.056.105-.02zm.218 2.153l-.118.026-.63.146-2.14.588c-1.72.53-3.754 1.3-5.236 2.3L7.8 30.57l-.68.57-.143.13-.343.343H3.786l-1.517 6.07a3.74 3.74 0 0 0 3.691 4.695h51.888v-6l-.2-.175a18.64 18.64 0 0 0-1.495-1.16c-1.285-.9-3.047-1.9-5.026-2.394-2.055-.514-4.667-.778-6.803-.912l-2.65-.116-.776-.015-.206-.002h-.734l-.293-.585-.02-.034-.134-.202a6.7 6.7 0 0 0-.726-.84c-.72-.72-1.97-1.73-4.026-2.76-2.124-1.062-3.42-1.578-4.165-1.826l-.712-.2-.07-.013H19.204zM12.95 30.22l1.522-1.522 1.838 1.838h18.485l.76-.76 1.523 1.523-1.392 1.392h-20.27l-2.466-2.47z" class="B C"/><path d="M12.634 47.76c2.973 0 5.383-2.4 5.383-5.383s-2.4-5.383-5.382-5.383-5.383 2.4-5.383 5.383 2.4 5.383 5.383 5.383z" fill="#fff"/><use xlink:href="#B" class="B C"/><path d="M47.082 47.76c2.973 0 5.383-2.4 5.383-5.383s-2.4-5.383-5.383-5.383-5.383 2.4-5.383 5.383 2.4 5.383 5.383 5.383z" fill="#fff"/><use xlink:href="#B" x="34.448" class="B C"/><defs ><path id="B" d="M12.634 38.07c-2.378 0-4.306 1.928-4.306 4.306s1.928 4.306 4.306 4.306 4.306-1.928 4.306-4.306-1.928-4.306-4.306-4.306zm-6.46 4.306a6.46 6.46 0 0 1 6.459-6.459 6.46 6.46 0 0 1 6.459 6.459 6.46 6.46 0 0 1-6.459 6.459 6.46 6.46 0 0 1-6.459-6.459z"/></defs></svg>