<svg xmlns:v="https://vecta.io/nano" xmlns="http://www.w3.org/2000/svg" width="60" height="60" fill="none"><path d="M29.32 57.038c13.983 0 25.318-11.336 25.318-25.32S43.302 6.4 29.32 6.4 4 17.737 4 31.72s11.336 25.32 25.32 25.32z" fill="#f4f8ff"/><g fill="#4c739e"><path d="M40.02 11.083c-.2-.382-.573-.86-.86-1.242l1.53-1.146a18.62 18.62 0 0 1 .955 1.433l-1.624.955zM38.204 8.8a11.79 11.79 0 0 0-1.147-.955l1.147-1.53c.382.287.86.764 1.242 1.146L38.204 8.8zm-2.39-1.825c-.478-.287-.955-.478-1.433-.67l.67-1.815c.573.2 1.146.478 1.72.764l-.955 1.72zM19.287 19.3c-1.815-6.4 1.9-13.185 8.312-15 1.9-.573 3.917-.573 5.828-.2l-.382 1.9c-1.624-.382-3.344-.287-4.968.2-5.446 1.53-8.6 7.26-6.974 12.612l-1.815.478z"/><path d="M19.67 20.54l-3.917-3.917 1.338-1.338 2.58 2.484 2.58-2.58 1.338 1.338-3.917 4.013zM23.108 2.4L22.535.573c.67-.2 1.53-.478 2.293-.573l.382 1.9c-.67.096-1.433.287-2.102.478zM19.67 4.204L18.62 2.58c.573-.382 1.433-.86 2.006-1.146l.86 1.72c-.573.2-1.338.67-1.815 1.05zm-3.25 2.962L14.9 5.924 16.6 4.11l1.242 1.433c-.478.478-.955 1.05-1.433 1.624zM15.847 28.1a16.67 16.67 0 0 1-4.681-12.612c.2-2.77.955-5.446 2.4-7.74l1.624.955c-1.242 2.102-2.006 4.395-2.102 6.88-.2 4.108 1.242 8.217 4.108 11.178l-1.338 1.338zm6.975 26.942c-.287-.382-.764-.955-.955-1.433l1.624-.955c.2.382.573.86.86 1.242l-1.53 1.146zm2.484 2.484a16.62 16.62 0 0 1-1.338-1.147l1.338-1.338c.287.287.86.764 1.242 1.05l-1.242 1.433zm3.248 1.72c-.573-.2-1.147-.478-1.72-.764l.955-1.72c.478.287.955.478 1.433.67l-.67 1.815zm4.108.764c-.86 0-1.72-.096-2.484-.287l.382-1.9c1.624.382 3.344.287 4.968-.2a10.35 10.35 0 0 0 6.115-4.873c1.338-2.4 1.624-5.16.86-7.74l1.815-.478c.86 3.153.478 6.4-1.05 9.267s-4.108 4.873-7.26 5.733c-1.146.287-2.293.478-3.344.478z"/><path d="M41.26 48.535l-1.338-1.337 3.917-3.917 3.917 3.917-1.337 1.337-2.58-2.58-2.58 2.58z"/></g><path d="M23.586 50.35a12.9 12.9 0 0 0 12.898-12.898 12.9 12.9 0 0 0-12.898-12.898 12.9 12.9 0 0 0-12.898 12.898A12.9 12.9 0 0 0 23.586 50.35z" fill="#a3d4ff"/><path d="M23.586 51.306c-7.643 0-13.854-6.2-13.854-13.854S15.943 23.6 23.586 23.6s13.854 6.2 13.854 13.853-6.2 13.854-13.854 13.854zm0-25.796a11.95 11.95 0 0 0-11.943 11.943 11.95 11.95 0 0 0 11.943 11.943 11.95 11.95 0 0 0 11.943-11.943A11.95 11.95 0 0 0 23.586 25.51z" fill="#4c739e"/><path d="M41.26 38.885c6.86 0 12.42-5.56 12.42-12.42s-5.56-12.42-12.42-12.42-12.42 5.56-12.42 12.42 5.56 12.42 12.42 12.42z" fill="#fff"/><path d="M41.26 39.84a13.42 13.42 0 0 1-13.376-13.376 13.42 13.42 0 0 1 13.376-13.376 13.42 13.42 0 0 1 13.376 13.376 13.42 13.42 0 0 1-13.376 13.376zm0-24.84c-6.306 0-11.465 5.16-11.465 11.465S34.955 37.93 41.26 37.93s11.465-5.16 11.465-11.465S47.567 15 41.26 15z" fill="#4c739e"/><g fill="#dfeeff"><path d="M8.777 50.35h-1.91v5.733h1.91V50.35z"/><path d="M10.688 52.26H4.955v1.9h5.732v-1.9zM53.682 4.5h-1.9v5.732h1.9V4.5z"/><path d="M55.592 6.4H49.86v1.91h5.732V6.4z"/></g><g fill="#4c739e"><path d="M42.217 32.197h-1.91c-1.624 0-2.866-1.242-2.866-2.866h1.91a.9.9 0 0 0 .955.955h1.91a.9.9 0 0 0 .955-.955v-.573a.92.92 0 0 0-.669-.86l-3.153-1.05c-1.146-.382-2.006-1.53-2.006-2.675V23.6c0-1.624 1.242-2.866 2.866-2.866h1.91c1.624 0 2.866 1.242 2.866 2.866h-1.91a.9.9 0 0 0-.955-.955H40.2a.9.9 0 0 0-.955.955v.573a.92.92 0 0 0 .669.86l3.153 1.05c1.147.382 2.006 1.53 2.006 2.675v.573c0 1.624-1.242 2.866-2.866 2.866z"/><path d="M42.217 18.822h-1.9v2.866h1.9v-2.866zm0 12.42h-1.9v2.866h1.9v-2.866zM26.93 43.662h-2.866a4.73 4.73 0 0 1-4.777-4.777V36.02a4.73 4.73 0 0 1 4.777-4.777h2.866v1.9h-2.866a2.81 2.81 0 0 0-2.866 2.866v2.866a2.81 2.81 0 0 0 2.866 2.866h2.866v1.9z"/><path d="M24.064 35.064h-6.688v1.9h6.688v-1.9zm0 2.866h-6.688v1.9h6.688v-1.9z"/></g></svg>