<svg xmlns:v="https://vecta.io/nano" xmlns="http://www.w3.org/2000/svg" width="60" height="60" fill="none"><path d="M30.21 50.745c11.336 0 20.526-9.24 20.526-20.64s-9.2-20.64-20.526-20.64-20.526 9.24-20.526 20.64 9.2 20.64 20.526 20.64z" fill="#f4f8ff"/><path d="M53.053 17.934H7.263v24.343h45.79V17.934z" fill="#fff"/><path fill-rule="evenodd" d="M6.21 16.876h47.895v26.46H6.21v-26.46zm2.105 2.117V41.22H52V18.993H8.316z" fill="#4c739e"/><path d="M46.21 37.938h-32c0-1.482-1.158-2.646-2.632-2.646V24.814c1.474 0 2.632-1.164 2.632-2.646h32c0 1.482 1.158 2.646 2.632 2.646v10.478c-1.474 0-2.632 1.27-2.632 2.646z" fill="#a3d4ff"/><path d="M13.158 21.1h34.105v1.058c0 .897.687 1.588 1.58 1.588h1.053V36.35h-1.053a1.63 1.63 0 0 0-1.579 1.588v1.058H13.158v-1.058c0-.897-.687-1.588-1.58-1.588h-1.053V23.756h1.053c.892 0 1.58-.7 1.58-1.588V21.1zm1.956 2.117c-.35 1.206-1.283 2.145-2.483 2.496v8.66a3.65 3.65 0 0 1 2.483 2.496H45.32c.357-1.155 1.276-2.123 2.47-2.5V25.72a3.65 3.65 0 0 1-2.483-2.496H15.114zM22 31.164h-2.632v-2.117H22v2.117zm18.947 0H38.42v-2.117h2.526v2.117z" fill-rule="evenodd" fill="#4c739e"/><path d="M25.37 30.106c0-2.434 2.105-5.186 4.737-5.186s4.737 2.858 4.737 5.186-2.105 5.186-4.737 5.186c-2.526 0-4.737-2.752-4.737-5.186z" fill="#fff"/><path d="M27.546 27.293c-.713.827-1.125 1.884-1.125 2.813 0 .915.427 1.97 1.16 2.807s1.648 1.32 2.526 1.32c.924 0 1.838-.506 2.555-1.35s1.13-1.908 1.13-2.778-.407-1.93-1.13-2.778-1.632-1.35-2.555-1.35c-.937 0-1.85.493-2.56 1.315zm-1.6-1.386c1.002-1.162 2.456-2.045 4.15-2.045 1.708 0 3.162.923 4.155 2.1s1.634 2.696 1.634 4.154-.645 2.992-1.634 4.154-2.447 2.1-4.155 2.1c-1.65 0-3.1-.9-4.106-2.04s-1.683-2.686-1.683-4.205c0-1.505.64-3.04 1.64-4.2zM52.196 8.4H40V6.292h13.068L60 13.262v35.895c0 4.395-3.524 7.938-7.895 7.938H32.632v.953c0 .88-.523 1.556-1.236 1.825-.68.256-1.47.125-2.07-.376l-.037-.03-6.568-6.604 6.534-6.57c.598-.6 1.44-.68 2.088-.446.68.246 1.288.892 1.288 1.83v.952h5.263v2.117h-7.368V48.01L25.7 52.862l4.827 4.854V54.98h21.58c3.208 0 5.8-2.596 5.8-5.82V14.14l-5.7-5.73zm-21.5 49.475h0zm11.41-7.14H40v-2.117h2.105v2.117zm4.21 0H44.2v-2.117h2.105v2.117zM29.304 2.116h0zm.17.168L34.3 7.138l-4.827 4.854V9.255h-7.368v2.117h5.263v.953c0 .937.608 1.583 1.288 1.83.647.234 1.5.155 2.088-.446l6.534-6.57L30.7.535l-.037-.03c-.6-.502-1.4-.633-2.07-.376-.713.27-1.236.945-1.236 1.825v.953H7.895C3.524 2.905 0 6.448 0 10.843v35.895l6.932 6.97H20V51.6H7.804l-5.7-5.73V10.843c0-3.226 2.58-5.82 5.8-5.82h21.58V2.285zm-11.58 6.97H20v2.117h-2.105V9.255zm-4.21 0H15.8v2.117h-2.105V9.255z" fill-rule="evenodd" fill="#4c739e"/></svg>