<svg xmlns:v="https://vecta.io/nano" xmlns="http://www.w3.org/2000/svg" width="60" height="60" fill="none"><path d="M26.118 59.118c14.132 0 25.588-11.456 25.588-25.588S40.25 7.94 26.118 7.94.53 19.397.53 33.53s11.456 25.588 25.588 25.588z" fill="#f4f8ff"/><path d="M41.47 10.588H10.588a3.54 3.54 0 0 0-3.529 3.529v16.765a3.54 3.54 0 0 0 3.529 3.529H41.47A3.54 3.54 0 0 0 45 30.882V14.118a3.54 3.54 0 0 0-3.529-3.529z" fill="#fff"/><g fill="#4c739e"><path d="M13.235 35.294h-2.647c-2.47 0-4.412-1.94-4.412-4.412V14.118c0-2.47 1.94-4.412 4.412-4.412H41.47c2.47 0 4.412 1.94 4.412 4.412V26.47h-1.765V14.118c0-1.5-1.147-2.647-2.647-2.647H10.588c-1.5 0-2.647 1.147-2.647 2.647v16.765c0 1.5 1.147 2.647 2.647 2.647h2.647v1.765z"/><path d="M45 14.118H7.06v1.765H45v-1.765zm0 5.294H7.06v1.765H45v-1.765zM17.647 22.94h-7.94v1.765h7.94V22.94zm9.706 0h-7.94v1.765h7.94V22.94z"/></g><path d="M18.53 28.235A3.54 3.54 0 0 0 15 31.765v18.53a3.54 3.54 0 0 0 3.529 3.529h30.882a3.54 3.54 0 0 0 3.529-3.529v-18.53a3.54 3.54 0 0 0-3.529-3.529H18.53z" fill="#a3d4ff"/><path d="M49.412 54.706H18.53c-2.47 0-4.412-1.94-4.412-4.412v-18.53c0-2.47 1.94-4.412 4.412-4.412h30.882c2.47 0 4.412 1.94 4.412 4.412v18.53c0 2.47-1.94 4.412-4.412 4.412zM18.53 29.118c-1.5 0-2.647 1.147-2.647 2.647v18.53c0 1.5 1.147 2.647 2.647 2.647h30.882c1.5 0 2.647-1.147 2.647-2.647v-18.53c0-1.5-1.147-2.647-2.647-2.647H18.53zm7.058 17.647h-5.294v1.765h5.294v-1.765zm7.06 0h-4.412v1.765h4.412v-1.765zm7.94 0h-5.294v1.765h5.294v-1.765zm7.942 0h-5.294v1.765h5.294v-1.765z" fill="#4c739e"/><path d="M48.53 36.618a3.13 3.13 0 0 1-3.088 3.088h-.882a3.13 3.13 0 0 1-3.088-3.088 3.13 3.13 0 0 1 3.088-3.088h.882a3.13 3.13 0 0 1 3.088 3.088z" fill="#fff"/><g fill="#4c739e"><path d="M45.44 40.588h-.882c-2.206 0-3.97-1.765-3.97-3.97s1.765-3.97 3.97-3.97h.882c2.206 0 3.97 1.765 3.97 3.97s-1.765 3.97-3.97 3.97zm-.882-6.176c-1.235 0-2.206.97-2.206 2.206s.97 2.206 2.206 2.206h.882c1.235 0 2.206-.97 2.206-2.206s-.97-2.206-2.206-2.206h-.882zM60 30h-1.765v1.765H60V30zm0 3.53h-1.765v1.765H60V33.53zm0 3.53h-1.765v1.765H60V37.06zm-3.53 0h-1.765v1.765h1.765V37.06zM60 29.118h-1.765v-8.823a1.77 1.77 0 0 0-1.765-1.765H49.4v-1.765h7.06A3.54 3.54 0 0 1 60 20.294v8.824z"/><path d="M52.5 21.088l-4.412-2.647c-.265-.176-.44-.44-.44-.794s.177-.618.44-.794l4.412-2.647.882 1.5-3.176 1.94 3.176 1.853-.882 1.588zM1.765 31.765H0v1.765h1.765v-1.765zm0-3.53H0V30h1.765v-1.765zm0-3.53H0v1.765h1.765v-1.765zm3.53 0H3.53v1.765h1.765v-1.765zm5.294 22.06H3.53A3.54 3.54 0 0 1 0 43.235V34.41h1.765v8.824A1.77 1.77 0 0 0 3.529 45h7.06v1.765z"/><path d="M7.5 49.324l-.882-1.5 3.176-1.853-3.176-1.853.882-1.5 4.412 2.647c.265.177.44.44.44.794s-.176.618-.44.794L7.5 49.324z"/></g></svg>