<svg width="200" height="120" fill="none" xmlns="http://www.w3.org/2000/svg">
    <path d="M59.849 119.697c33.053 0 59.848-26.795 59.848-59.849C119.697 26.796 92.902 0 59.848 0 26.796 0 0 26.795 0 59.849c0 33.053 26.795 59.848 59.849 59.848z"
          fill="#EC2130"/>
    <path d="M140.151 0C124.663 0 110.606 5.892 100 15.488a53.705 53.705 0 00-6.061 6.313h12.121a54.317 54.317 0 014.546 6.314H89.394c-1.263 2.02-2.442 4.124-3.452 6.313h28.115a70.267 70.267 0 012.525 6.313H83.417a88.43 88.43 0 00-1.768 6.313h36.617c.841 4.124 1.346 8.333 1.346 12.71 0 6.65-1.094 13.047-3.114 19.024H83.333a70.447 70.447 0 002.525 6.313h28.115c-1.01 2.189-2.189 4.293-3.452 6.313H89.309c1.347 2.189 2.947 4.293 4.546 6.313h12.205a53.733 53.733 0 01-6.06 6.313c10.606 9.596 24.663 15.489 40.151 15.489 33.081 0 59.849-26.768 59.849-59.849C200 26.768 173.232 0 140.151 0z"
          fill="#FCB131"/>
    <path d="M45.875 66.33c-.674-.084-1.01-.084-1.431-.084-3.704 0-5.556 1.262-5.556 3.788 0 1.515.926 2.525 2.357 2.525 2.61 0 4.546-2.525 4.63-6.229zm4.714 11.027h-5.387l.084-2.525c-1.684 2.02-3.872 2.946-6.819 2.946-3.535 0-5.892-2.778-5.892-6.734 0-5.977 4.209-9.512 11.364-9.512.757 0 1.683.084 2.61.168.168-.841.252-1.178.252-1.599 0-1.6-1.095-2.273-4.125-2.273-3.198 0-5.808.758-6.902 1.095.084-.421.926-5.556.926-5.556 3.198-.926 5.387-1.347 7.744-1.347 5.555 0 8.502 2.525 8.502 7.24 0 1.262-.169 2.861-.505 4.881-.506 3.704-1.684 11.364-1.852 13.216zM29.881 77.357H23.4l3.704-23.317-8.334 23.317h-4.377l-.59-23.232-3.871 23.232H3.787L8.922 46.97h9.343l.505 17.003 5.724-17.003h10.438l-5.05 30.387zM148.231 66.33c-.673-.084-1.01-.084-1.43-.084-3.704 0-5.556 1.262-5.556 3.788 0 1.515.926 2.525 2.357 2.525 2.609 0 4.461-2.525 4.629-6.229zm4.714 11.027h-5.387l.084-2.525c-1.599 2.02-3.872 2.946-6.818 2.946-3.535 0-5.976-2.778-5.976-6.734 0-5.977 4.208-9.512 11.363-9.512.758 0 1.684.084 2.61.168.168-.841.252-1.178.252-1.599 0-1.6-1.094-2.273-4.124-2.273-3.199 0-5.808.758-6.903 1.095.084-.421.926-5.556.926-5.556 3.199-.926 5.387-1.347 7.744-1.347 5.556 0 8.502 2.525 8.502 7.24 0 1.262-.168 2.861-.505 4.881-.421 3.704-1.599 11.364-1.768 13.216zM79.46 77.02c-1.768.59-3.199.842-4.63.842-3.282 0-5.134-1.936-5.134-5.387-.085-1.094.505-3.956.926-6.566.336-2.273 2.777-16.835 2.777-16.835h6.482l-.758 3.704h3.872l-.842 5.892h-3.956c-.757 4.714-1.852 10.522-1.852 11.28 0 1.262.674 1.851 2.189 1.851.758 0 1.347-.084 1.768-.252l-.842 5.471z"
          fill="#203A70"/>
    <path d="M99.242 76.768a22.356 22.356 0 01-6.65 1.01c-7.239 0-11.027-3.788-11.027-11.027 0-8.418 4.798-14.647 11.28-14.647 5.303 0 8.754 3.452 8.754 8.923 0 1.852-.252 3.62-.758 6.06H87.963c-.421 3.62 1.852 5.051 5.64 5.051 2.272 0 4.377-.505 6.733-1.515l-1.094 6.145zm-3.62-14.647c0-.505.674-4.377-3.03-4.377-2.02 0-3.535 1.6-4.124 4.377h7.155zM54.46 60.522c0 3.114 1.516 5.303 4.967 6.902 2.61 1.263 3.03 1.6 3.03 2.694 0 1.515-1.178 2.273-3.703 2.273-1.936 0-3.704-.337-5.808-1.01 0 0-.842 5.47-.926 5.723 1.515.337 2.777.59 6.733.758 6.819 0 10.017-2.61 10.017-8.25 0-3.366-1.346-5.386-4.545-6.901-2.694-1.263-3.03-1.516-3.03-2.694 0-1.347 1.094-2.02 3.198-2.02 1.263 0 3.03.168 4.63.336l.926-5.724c-1.684-.252-4.209-.505-5.724-.505-7.24 0-9.764 3.788-9.764 8.418zM130.807 52.778c1.767 0 3.451.505 5.808 1.6l1.094-6.566c-.926-.337-4.293-2.61-7.155-2.61-4.377 0-7.997 2.189-10.606 5.724-3.788-1.263-5.303 1.263-7.239 3.788l-1.684.42c.169-.841.253-1.683.169-2.44h-5.977c-.841 7.66-2.272 15.404-3.367 23.064l-.336 1.683h6.481c1.094-7.07 1.684-11.532 2.02-14.646l2.441-1.347c.337-1.347 1.516-1.852 3.788-1.768-.336 1.6-.421 3.283-.421 5.05 0 8.081 4.378 13.132 11.364 13.132 1.768 0 3.367-.253 5.724-.926l1.178-6.902c-2.188 1.094-3.956 1.515-5.555 1.515-3.788 0-6.061-2.778-6.061-7.408.084-6.65 3.536-11.363 8.334-11.363zM185.857 46.97l-1.431 8.754c-1.768-2.357-3.704-4.04-6.229-4.04-3.283 0-6.229 2.525-8.249 6.144-2.694-.589-5.556-1.515-5.556-1.515.253-2.02.337-3.283.253-3.704h-5.976c-.842 7.66-2.273 15.404-3.367 23.064l-.337 1.684h6.481a1406.6 1406.6 0 002.021-14.142c2.188-2.02 3.367-3.787 5.555-3.619a20.854 20.854 0 00-1.599 7.997c0 6.144 3.114 10.269 7.828 10.269 2.357 0 4.209-.842 5.976-2.694l-.336 2.273h6.145l4.966-30.387-6.145-.084zm-8.165 24.663c-2.188 0-3.367-1.6-3.367-4.882 0-4.882 2.104-8.25 5.051-8.25 2.272 0 3.451 1.684 3.451 4.799 0 4.966-2.105 8.333-5.135 8.333z"
          fill="#203A70"/>
    <path d="M31.734 75.59h-6.482l3.704-23.401-8.333 23.4h-4.378l-.589-23.232-3.872 23.232h-6.06l5.05-30.387h9.344l.252 18.771 6.313-18.771h10.101l-5.05 30.387zM47.726 64.562c-.673-.084-1.01-.084-1.43-.084-3.704 0-5.556 1.263-5.556 3.788 0 1.515.926 2.525 2.357 2.525 2.61-.084 4.545-2.61 4.63-6.229zM52.44 75.59h-5.387l.084-2.525c-1.6 2.02-3.872 2.946-6.818 2.946-3.535 0-5.892-2.778-5.892-6.734 0-5.976 4.209-9.512 11.363-9.512.758 0 1.684.084 2.61.169.168-.842.252-1.179.252-1.6 0-1.599-1.094-2.272-4.124-2.272-3.199 0-5.808.757-6.903 1.094.085-.421.926-5.556.926-5.556 3.199-.926 5.387-1.346 7.744-1.346 5.556 0 8.502 2.525 8.502 7.239 0 1.262-.168 2.861-.505 4.882-.42 3.62-1.683 11.28-1.852 13.215zM139.562 46.044l-1.094 6.565c-2.357-1.178-4.041-1.599-5.808-1.599-4.882 0-8.249 4.714-8.249 11.364 0 4.63 2.272 7.407 6.06 7.407 1.599 0 3.367-.505 5.556-1.515l-1.179 6.902c-2.357.674-3.956.926-5.724.926-6.986 0-11.363-5.05-11.363-13.131 0-10.859 6.06-18.434 14.646-18.434 2.862-.085 6.229 1.094 7.155 1.515zM150.084 64.562c-.674-.084-1.01-.084-1.431-.084-3.704 0-5.556 1.263-5.556 3.788 0 1.515.926 2.525 2.357 2.525 2.61-.084 4.461-2.61 4.63-6.229zm4.714 11.027h-5.388l.085-2.525c-1.6 2.02-3.872 2.946-6.819 2.946-3.535 0-5.892-2.778-5.892-6.734 0-5.976 4.209-9.512 11.364-9.512.757 0 1.683.084 2.609.169.169-.842.253-1.179.253-1.6 0-1.599-1.095-2.272-4.125-2.272-3.198 0-5.808.757-6.902 1.094.084-.421.926-5.556.926-5.556 3.198-.926 5.387-1.346 7.744-1.346 5.555 0 8.502 2.525 8.502 7.239 0 1.262-.169 2.861-.506 4.882-.505 3.62-1.683 11.28-1.851 13.215zM81.312 75.168c-1.767.59-3.198.842-4.63.842-3.282 0-5.134-1.936-5.134-5.387-.084-1.094.505-3.956.926-6.566.337-2.273 2.778-16.835 2.778-16.835h6.481l-.757 3.704h3.283l-.842 5.892H80.05c-.758 4.714-1.852 10.522-1.852 11.28 0 1.262.673 1.852 2.189 1.852.757 0 1.346-.085 1.767-.253l-.842 5.471zM101.094 75a22.358 22.358 0 01-6.65 1.01c-7.24 0-11.027-3.788-11.027-11.027 0-8.417 4.798-14.646 11.28-14.646 5.302 0 8.754 3.45 8.754 8.922 0 1.768-.253 3.536-.758 6.06H89.814c-.42 3.62 1.852 5.051 5.64 5.051 2.273 0 4.377-.505 6.734-1.515L101.094 75zm-3.62-14.647c0-.505.674-4.377-3.03-4.377-2.02 0-3.535 1.6-4.125 4.377h7.155zM56.313 58.67c0 3.114 1.515 5.303 4.966 6.902 2.61 1.263 3.03 1.6 3.03 2.694 0 1.515-1.178 2.273-3.703 2.273-1.936 0-3.704-.337-5.808-1.01 0 0-.842 5.471-.926 5.724 1.515.336 2.778.589 6.734.757 6.818 0 10.017-2.61 10.017-8.249 0-3.367-1.347-5.387-4.546-6.902-2.693-1.263-3.03-1.516-3.03-2.694 0-1.347 1.094-2.02 3.199-2.02 1.262 0 3.03.168 4.63.336l.925-5.723c-1.683-.253-4.208-.506-5.724-.506-7.239.085-9.764 3.873-9.764 8.418zM189.141 75.59h-6.145l.337-2.273c-1.768 1.936-3.62 2.693-5.976 2.693-4.714 0-7.829-4.04-7.829-10.27 0-8.248 4.882-15.15 10.606-15.15 2.526 0 4.462 1.01 6.229 3.366l1.431-8.754h6.398l-5.051 30.387zm-9.596-5.725c3.03 0 5.135-3.45 5.135-8.333 0-3.114-1.179-4.798-3.451-4.798-2.947 0-5.051 3.451-5.051 8.333.084 3.115 1.179 4.798 3.367 4.798zM160.605 50.842c-.842 7.66-2.273 15.404-3.367 22.98l-.337 1.683h6.482c2.357-15.067 2.862-18.013 6.566-17.677.589-3.114 1.683-5.808 2.441-7.155-2.694-.589-4.209 1.01-6.229 3.872.168-1.262.421-2.525.421-3.703h-5.977zM107.154 50.842c-.842 7.66-2.273 15.404-3.367 22.98l-.337 1.683h6.482c2.357-15.067 2.862-18.013 6.565-17.677.59-3.114 1.684-5.808 2.441-7.155-2.693-.589-4.208 1.01-6.229 3.872.169-1.262.421-2.525.421-3.703h-5.976z"
          fill="#fff"/>
</svg>