<svg xmlns:v="https://vecta.io/nano" xmlns="http://www.w3.org/2000/svg" width="60" height="60" fill="none"><path d="M29.032 51.98c12.293 0 22.258-9.965 22.258-22.258S41.325 7.465 29.032 7.465 6.774 17.43 6.774 29.723 16.74 51.98 29.032 51.98z" fill="#f4f8ff"/><path d="M19.547 5.16C29.73.77 41.227 3.104 48.9 10.207l1.316-1.42C42 1.18 29.7-1.323 18.778 3.383h0l-.006.003c-4.096 1.798-7.6 4.4-10.3 7.5l1.46 1.27c2.517-2.9 5.786-5.32 9.624-7.006zM5.488 43.28c2.892 5.13 7.558 9.333 13.54 11.67h.003c9.25 3.644 19.25 1.87 26.54-3.738l1.18 1.534c-7.806 6.005-18.517 7.908-28.427 4.005C11.92 54.25 6.9 49.744 3.802 44.23l1.686-.95z" fill-rule="evenodd" fill="#dfeeff"/><path d="M45.484 39.4s-1.935 5.807-14.516 5.807S15.484 39.4 15.484 39.4V27.787h30V39.4z" fill="#a3d4ff"/><path fill-rule="evenodd" d="M14.516 26.82h31.935v12.738l-.05.15-.918-.306.917.308v.002.004l-.004.01-.01.027-.03.078-.1.245a6.01 6.01 0 0 1-.466.785c-.44.632-1.153 1.44-2.278 2.235-2.256 1.593-6.094 3.08-12.534 3.08s-10.5-1.49-12.976-3.053c-1.235-.78-2.063-1.57-2.59-2.183-.264-.306-.45-.567-.577-.76-.063-.096-.1-.175-.144-.234l-.04-.073-.013-.024-.005-.01-.002-.004v-.002a54.52 54.52 0 0 1 .865-.434l-.866.433-.102-.204V26.82zm1.935 12.313a5.44 5.44 0 0 0 .416.543c.4.476 1.094 1.137 2.157 1.81 2.12 1.34 5.806 2.754 11.943 2.754s9.56-1.416 11.418-2.726c.93-.657 1.487-1.3 1.804-1.757a4.09 4.09 0 0 0 .317-.53l.01-.02v-10.45H16.452v10.378z" fill="#4c739e"/><path d="M49.355 26.82L30 33.594.968 23.916v-2.903l30-7.742 28.065 7.742v2.903l-4.84 1.936" fill="#fff"/><g fill-rule="evenodd" fill="#4c739e"><path d="M30.976 12.27L60 20.276v4.295l-5.447 2.18-.72-1.797 4.23-1.692v-1.51L30.96 14.273l-29.024 7.5v1.456l28.057 9.352 19.043-6.665.64 1.827-19.667 6.883L0 24.614v-4.35l30.976-7.994z"/><path d="M51.85 26.664a1.9 1.9 0 0 1 1.375 1.8v5.13H51.3v-5.077l-20.617-6.582.6-1.844 20.6 6.573zm-1.67 14.27a2.18 2.18 0 0 1 4.159 0l.004.01 2.243 7.318c.336 1.345-.656 2.75-2.1 2.75h-4.452c-1.444 0-2.436-1.406-2.1-2.75l.006-.025 2.24-7.305zm1.84.604l-2.212 7.2c-.015.08.005.164.057.233s.118.097.17.097h4.452c.05 0 .115-.024.17-.097s.072-.153.057-.233l-2.2-7.2c-.033-.094-.078-.138-.1-.16-.037-.026-.082-.04-.13-.04s-.095.015-.13.04a.31.31 0 0 0-.109.16z"/></g><path d="M52.258 41.336a3.87 3.87 0 1 0 0-7.742 3.87 3.87 0 1 0 0 7.742z" fill="#a3d4ff"/><path d="M52.258 34.562c-1.603 0-2.903 1.3-2.903 2.903s1.3 2.903 2.903 2.903 2.903-1.3 2.903-2.903-1.3-2.903-2.903-2.903zm-4.84 2.903a4.84 4.84 0 0 1 4.839-4.839 4.84 4.84 0 0 1 4.839 4.839 4.84 4.84 0 0 1-4.839 4.839 4.84 4.84 0 0 1-4.839-4.839zm-29.03-.968V30.7h1.936v5.807h-1.936z" fill-rule="evenodd" fill="#4c739e"/></svg>