<svg xmlns:xlink="http://www.w3.org/1999/xlink" xmlns:v="https://vecta.io/nano" xmlns="http://www.w3.org/2000/svg" width="60" height="60" fill="none"><path d="M50.35 6.432L51.973 4m1.54 5.514l2.432-1.622m-.81 5.676h3.243" stroke="#4c739e" stroke-width="2" stroke-miterlimit="10"/><path d="M27.568 50.054c11.643 0 21.08-9.438 21.08-21.08S39.2 7.892 27.568 7.892s-21.08 9.438-21.08 21.08 9.438 21.08 21.08 21.08z" fill="#f4f8ff"/><path d="M49.46 11.135H30c-1.378 0-2.432 1.054-2.432 2.433v15.405c0 1.378 1.054 2.432 2.432 2.432h8.108L42.405 37c.568.81 2.19.405 2.19-.73v-4.865h4.865c1.378 0 2.432-1.054 2.432-2.432V13.568a2.44 2.44 0 0 0-2.432-2.433z" fill="#fff"/><path d="M43.297 38.216c-.65 0-1.216-.243-1.54-.73l-4.054-5.27H30c-1.784 0-3.243-1.46-3.243-3.243 0-.486.324-.81.81-.81s.81.324.81.81c0 .892.73 1.622 1.622 1.622h8.514l4.54 5.92c.08.08.243.162.486.08.08 0 .243-.08.243-.324v-5.676h5.676c.892 0 1.622-.73 1.622-1.622V13.568c0-.892-.73-1.622-1.622-1.622h-6.486c-.486 0-.81-.324-.81-.81s.324-.81.81-.81h6.486c1.784 0 3.243 1.46 3.243 3.243v15.405c0 1.784-1.46 3.243-3.243 3.243h-4.054v4.054c0 .81-.568 1.54-1.378 1.865-.243.08-.486.08-.73.08z" fill="#4c739e"/><path d="M42.973 48.432c1.946 0 3.243-1.54 3.243-3.486V43.81c0-1.946-1.297-3.486-3.243-3.486s-3.243 1.54-3.243 3.486v1.135c0 1.946 1.297 3.486 3.243 3.486z" fill="#fff"/><use xlink:href="#B" fill="#4c739e"/><path d="M25.946 51.27v1.622c0 1.054-3.162 2.838-5.676 2.838s-5.676-1.784-5.676-2.838V51.27c0-1.054 3.162-2.838 5.676-2.838s5.676 1.784 5.676 2.838z" fill="#a3d4ff"/><use xlink:href="#C" fill="#4c739e"/><path d="M42.973 48.432c-2.514 0-5.676 1.784-5.676 2.838v1.622c0 1.054 3.162 2.838 5.676 2.838s5.676-1.784 5.676-2.838V51.27c0-1.054-3.162-2.838-5.676-2.838z" fill="#a3d4ff"/><use xlink:href="#C" x="22.704" fill="#4c739e"/><path d="M31.622 46.81c-2.514 0-5.676 1.784-5.676 2.838v3.243c0 1.054 3.162 2.838 5.676 2.838s5.676-1.784 5.676-2.838V49.65c0-1.054-3.162-2.838-5.676-2.838z" fill="#a3d4ff"/><path d="M37.297 54.108c-.486 0-.81-.324-.81-.81v-3.65c-.162-.568-2.676-2.027-4.865-2.027s-4.703 1.46-4.865 2.108v3.568c0 .486-.324.81-.81.81s-.81-.324-.81-.81v-3.65c0-1.784 3.81-3.65 6.486-3.65s6.486 1.865 6.486 3.65v3.65c0 .486-.324.81-.81.81z" fill="#4c739e"/><path d="M17.027 44.946V43.81c0-1.946 1.297-3.486 3.243-3.486s3.243 1.54 3.243 3.486v1.135c0 1.946-1.297 3.486-3.243 3.486s-3.243-1.54-3.243-3.486z" fill="#fff"/><use xlink:href="#B" x="-22.703" fill="#4c739e"/><path d="M28.378 43.324V42.19c0-1.946 1.297-3.486 3.243-3.486s3.243 1.54 3.243 3.486v1.135c0 1.946-1.297 3.486-3.243 3.486s-3.243-1.54-3.243-3.486z" fill="#fff"/><path d="M31.622 47.622c-2.35 0-4.054-1.865-4.054-4.297V42.19c0-2.432 1.703-4.297 4.054-4.297s4.054 1.865 4.054 4.297v1.135c0 2.514-1.703 4.297-4.054 4.297zm0-8.108c-1.46 0-2.433 1.135-2.433 2.676v1.135c0 1.54.973 2.676 2.433 2.676s2.432-1.135 2.432-2.676V42.19c0-1.54-.973-2.676-2.432-2.676z" fill="#4c739e"/><path d="M12.162 5.46h25.135c1.378 0 2.432 1.054 2.432 2.432v16.216c0 1.378-1.054 2.433-2.432 2.433H23.514l-4.297 5.595c-.568.81-2.19.405-2.19-.73V26.54h-4.865c-1.378 0-2.432-1.054-2.432-2.433V7.892a2.44 2.44 0 0 1 2.432-2.432z" fill="#fff"/><path d="M18.324 33.35c-.243 0-.486 0-.73-.08a1.92 1.92 0 0 1-1.378-1.865V27.35h-4.054c-1.784 0-3.243-1.46-3.243-3.243V7.892c0-1.784 1.46-3.243 3.243-3.243h25.135c1.784 0 3.243 1.46 3.243 3.243v16.216c0 1.784-1.46 3.243-3.243 3.243H23.92l-4.054 5.27c-.324.486-.973.73-1.54.73zM12.162 6.27c-.892 0-1.622.73-1.622 1.622v16.216c0 .892.73 1.622 1.622 1.622h5.676v5.676c0 .162.162.243.243.324a.5.5 0 0 0 .486-.081l4.54-5.92h14.19c.892 0 1.622-.73 1.622-1.622V7.892c0-.892-.73-1.622-1.622-1.622H12.162z" fill="#4c739e"/><g fill="#dfeeff"><path d="M3.243 19.243H1.622v4.865h1.622v-4.865z"/><path d="M4.865 20.865H0v1.622h4.865v-1.622zM58.38 26.54h-1.622v4.865h1.622V26.54z"/><path d="M60 28.162h-4.865v1.622H60v-1.622zm-48.65 9.73H9.73v4.865h1.622v-4.865z"/><path d="M12.973 39.514H8.108v1.622h4.865v-1.622z"/></g><path d="M22.946 15.27h-1.378v1.378h1.378V15.27zm5.676 0h-1.378v1.378h1.378V15.27zm-2.838 0h-1.378v1.378h1.378V15.27z" fill="#4c739e"/><defs ><path id="B" d="M42.973 49.243c-2.35 0-4.054-1.865-4.054-4.297V43.81c0-2.432 1.703-4.297 4.054-4.297s4.054 1.865 4.054 4.297v1.135c0 2.514-1.703 4.297-4.054 4.297zm0-8.108c-1.46 0-2.432 1.135-2.432 2.676v1.135c0 1.54.973 2.676 2.432 2.676s2.432-1.135 2.432-2.676V43.81c0-1.54-.973-2.676-2.432-2.676z"/><path id="C" d="M25.946 54.108c-.486 0-.81-.324-.81-.81V51.27c-.162-.568-2.676-2.027-4.865-2.027s-4.703 1.46-4.865 2.108v1.946c0 .486-.324.81-.81.81s-.81-.324-.81-.81V51.27c0-1.784 3.81-3.65 6.486-3.65s6.486 1.865 6.486 3.65v2.027c0 .486-.324.81-.81.81z"/></defs></svg>