<svg xmlns:v="https://vecta.io/nano" xmlns="http://www.w3.org/2000/svg" width="60" height="60" fill="none"><style><![CDATA[.B{fill-rule:evenodd}.C{fill:#4c739e}]]></style><g clip-path="url(#A)"><path d="M30.408 59c15.69 0 28.408-12.984 28.408-29S46.098 1 30.408 1 2 13.984 2 30s12.72 29 28.408 29z" fill="#f4f8ff"/><path d="M56.19 46.78H34.286l-1.905 2.034h-7.62l-1.905-2.034H.952v-36.6H56.19v36.6z" fill="#a3d4ff"/><path d="M-.048 9.17H57.19v38.6H34.72l-1.905 2.034h-8.486l-1.905-2.034H-.048V9.17zm2 2v34.6H23.29l1.905 2.034h6.752l1.905-2.034H55.19v-34.6H1.952z" class="B C"/><path d="M30.476 44.746H28.57V13.22c0-3.254 1.905-6.102 5.714-6.102H51.43v35.593H34.286c-1.81 0-3.048.508-3.81 2.034z" fill="#fff"/><path d="M30.76 9.597c-.767.902-1.2 2.18-1.2 3.623v30.526h.327c.428-.65.97-1.145 1.64-1.482.824-.415 1.76-.552 2.747-.552H50.43V8.12H34.286c-1.633 0-2.775.6-3.524 1.48zM29.24 8.3c1.156-1.357 2.87-2.182 5.047-2.182H52.43v37.593H34.286c-.822 0-1.4.117-1.848.338-.415.21-.77.548-1.067 1.143l-.276.553H27.57V13.22c0-1.812.53-3.584 1.667-4.92z" class="B C"/><path d="M26.667 44.746h1.905V13.22c0-3.254-1.905-6.102-5.714-6.102H5.714v35.593h17.143c1.8 0 3.143.508 3.8 2.034z" fill="#fff"/><path d="M4.714 6.12h18.143c2.177 0 3.892.825 5.047 2.182 1.137 1.336 1.667 3.107 1.667 4.92v32.526h-3.56l-.262-.6c-.242-.555-.58-.883-1.003-1.093-.452-.223-1.066-.34-1.9-.34H4.714V6.12zm2 2v33.593h16.143c.986 0 1.943.136 2.777.548.672.332 1.224.825 1.635 1.486h.303V13.22c0-1.442-.422-2.72-1.2-3.623-.75-.88-1.892-1.48-3.524-1.48H6.714z" class="B C"/><path d="M58.857 44.644l-16.952-13.12v22.27c0 .712.476.915 1.048.407l4.762-4.88 4.57 8.644c.38.712 1.333.814 2 .305l1.905-1.322c.762-.508.952-1.424.667-2.034L52.38 46.78h5.714c.762-.102 1.238-1.73.762-2.136z" fill="#fff"/><g class="B"><path d="M40.905 29.487l18.602 14.397c.426.364.522.88.538 1.202.018.358-.047.727-.154 1.053a2.96 2.96 0 0 1-.52.962c-.235.282-.614.6-1.143.67l-.066.01h-4.09l3.7 6.712c.502 1.072.142 2.5-1.01 3.284l-1.882 1.306c-1.03.767-2.73.737-3.468-.644l-.002-.004-3.93-7.43-3.855 3.948c-.378.337-1.045.727-1.775.436-.764-.306-.938-1.084-.938-1.59v-24.31zm2 4.077V52.82l5.052-5.18 5.21 9.853c.025.045.063.08.148.09.097.014.236-.012.364-.11l.018-.014 1.938-1.345c.352-.235.382-.602.324-.76l-5.27-9.578h7.175a1.09 1.09 0 0 0 .126-.266c.03-.1.046-.17.053-.235L42.905 33.564z" class="C"/><g fill="#dfeeff"><path d="M41.952 22.373v4.068h-2v-4.068h2zm-4.407.743l1.714 3.153-1.757.955-1.714-3.153 1.757-.955zM34.05 26.1l2.952 1.83-1.054 1.7-2.952-1.83 1.054-1.7zm-1.67 4.425h3.8v2h-3.8v-2zm13.737-6.455l-1.714 3.153-1.757-.955 1.714-3.153 1.757.955zm-13.12 11.182l2.952-1.83 1.054 1.7-2.952 1.83-1.054-1.7z"/></g></g><path d="M26.667 44.746h1.905V13.22c0-3.254-1.333-6.6-4.38-7.73L10.476 1.12v35.593l13.714 4.373c1.714.712 2.095 1.932 2.476 3.66z" fill="#fff"/><path d="M9.886.31a1 1 0 0 1 .894-.145l13.755 4.387c3.625 1.33 5.036 5.23 5.036 8.668v31.525a1 1 0 0 1-1 1h-1.905a1 1 0 0 1-.977-.785c-.192-.872-.357-1.464-.625-1.922-.235-.402-.576-.74-1.22-1.015l-13.672-4.36a1 1 0 0 1-.696-.953V1.12a1 1 0 0 1 .41-.807zm1.6 2.176V35.98l13.018 4.15a1.04 1.04 0 0 1 .08.029c1.044.434 1.743 1.057 2.218 1.868.31.53.5 1.12.666 1.717h.114V13.22c0-3.064-1.25-5.87-3.706-6.783l-12.39-3.95z" class="B C"/></g><defs><clipPath id="A"><path fill="#fff" d="M0 0h60v60H0z"/></clipPath></defs></svg>