<svg width="57" height="72" fill="none" xmlns="http://www.w3.org/2000/svg">
    <path d="M41.416 1.2C40.106-.164 37.694-.4 36.03.67c-1.666 1.071-1.955 3.045-.646 4.408a62.667 62.667 0 012.931 3.273c7.163 8.607 10.794 17.854 10.794 27.486 0 9.804-3.76 19.203-11.174 27.935a62.602 62.602 0 01-2.852 3.13c-1.32 1.357-1.048 3.332.61 4.413 1.644 1.075 4.064.864 5.39-.498 1.101-1.13 2.162-2.294 3.153-3.461 8.207-9.667 12.546-20.566 12.546-31.52 0-10.915-4.08-21.351-12.126-31.022a69.178 69.178 0 00-3.24-3.615z"
          fill="#000"/>
    <path d="M30.174 10.515c-1.258-1.395-3.66-1.693-5.365-.663-1.705 1.029-2.068 2.994-.81 4.39.408.453.813.92 1.2 1.386 5.345 6.42 8.056 13.22 8.056 20.21 0 7.122-2.81 14.04-8.351 20.56-.387.455-.788.91-1.192 1.352-1.27 1.387-.927 3.355.77 4.395 1.68 1.033 4.093.766 5.37-.63.459-.501.913-1.017 1.351-1.531 6.453-7.594 9.725-15.718 9.725-24.146 0-8.274-3.158-16.264-9.387-23.745-.442-.53-.902-1.061-1.367-1.578z"
          fill="#000"/>
    <path d="M13.268 52.954c1.735.96 4.134.597 5.325-.851 4.359-5.299 6.477-10.619 6.477-16.265 0-5.502-2.016-10.697-6.163-15.881-1.161-1.451-3.54-1.857-5.312-.908-1.773.95-2.27 2.896-1.109 4.347 3.305 4.13 4.911 8.2 4.911 12.442 0 4.356-1.691 8.53-5.17 12.758-1.183 1.438-.717 3.39 1.04 4.358zM2.147 43.719c1.86.758 4.198.137 5.134-1.435 1.732-2.887 1.932-5.062 1.932-6.446 0-1.285-.17-3.3-1.65-5.96-.879-1.578-3.153-2.274-5.082-1.556-1.929.718-2.78 2.58-1.902 4.158.851 1.53.96 2.6.96 3.358 0 .823-.13 1.984-1.146 3.68-.933 1.556-.147 3.437 1.754 4.2z"
          fill="#000"/>
</svg>