<svg xmlns:v="https://vecta.io/nano" xmlns="http://www.w3.org/2000/svg" width="60" height="60" fill="none"><path d="M22.5 49C34.926 49 45 38.926 45 26.5S34.926 4 22.5 4 0 14.074 0 26.5 10.074 49 22.5 49z" fill="#f4f8ff"/><path d="M39.23 16.346c-3.462 0-6.577 1.385-8.885 3.692-2.308-2.308-5.423-3.692-8.885-3.692-7.04 0-12.692 5.654-12.692 12.692v.808c.577 10.73 12.808 19.27 21.577 25.27 8.654-6 21-14.538 21.577-25.27v-.808c0-7.038-5.77-12.692-12.692-12.692z" fill="#a3d4ff"/><path d="M7.615 29.038a13.81 13.81 0 0 1 13.846-13.846 13.59 13.59 0 0 1 8.885 3.276 13.59 13.59 0 0 1 8.885-3.276c7.554 0 13.846 6.164 13.846 13.846v.84l-.002.03c-.3 5.792-3.785 10.866-8.097 15.164-4.296 4.28-9.6 7.95-13.885 10.93l-.742.514-.656-.45c-4.375-2.993-9.712-6.684-14.025-10.997-4.3-4.3-7.74-9.374-8.053-15.163l-.002-.03v-.84zM21.462 17.5A11.5 11.5 0 0 0 9.923 29.038v.776c.276 4.93 3.235 9.48 7.378 13.625 3.935 3.935 8.795 7.363 13.04 10.275 4.2-2.915 9.058-6.34 13.007-10.276 4.16-4.146 7.144-8.696 7.42-13.623v-.776c0-6.394-5.246-11.538-11.538-11.538a11.32 11.32 0 0 0-8.07 3.354l-.816.816-.816-.816c-2.1-2.1-4.926-3.354-8.07-3.354zm30.383-5.82l-2.308 3.462-1.92-1.28 2.308-3.46 1.92 1.28zm5.333 5.972l-3.462 2.308-1.28-1.92 3.462-2.308 1.28 1.92zM60 25.923h-4.615v-2.308H60v2.308z" fill-rule="evenodd" fill="#4c739e"/></svg>