<svg xmlns:xlink="http://www.w3.org/1999/xlink" xmlns:v="https://vecta.io/nano" xmlns="http://www.w3.org/2000/svg" width="60" height="60" fill="none"><path d="M30.046 48c9.956 0 18.028-8.06 18.028-18s-8.07-18-18.028-18-18.027 8.06-18.027 18 8.07 18 18.028 18z" fill="#d9f0fb"/><path d="M30.046 48.923C19.6 48.923 11.094 40.43 11.094 30S19.6 11.077 30.046 11.077 48.998 19.57 48.998 30s-8.505 18.923-18.952 18.923zm0-36c-9.43 0-17.103 7.66-17.103 17.077s7.673 17.077 17.103 17.077S47.15 39.415 47.15 30s-7.673-17.077-17.103-17.077zM11.833 46.34C7.766 41.815 5.547 36.092 5.547 30c0-7.2 3.143-14.03 8.7-18.646l1.202 1.385C10.354 17.077 7.396 23.354 7.396 30c0 5.538 2.034 10.892 5.732 15.046l-1.294 1.292zM28.104 60C12.388 58.985 0 45.877 0 30.092c0-1.292.092-2.585.277-3.785l1.85.277c-.185 1.2-.185 2.4-.185 3.6 0 14.77 11.556 27.138 26.348 28.062L28.104 60zm13.313-2.215l-.74-1.66C51.3 51.785 58.15 41.54 58.15 30.092c0-4.8-1.202-9.508-3.513-13.66l1.572-.923c2.496 4.43 3.8 9.508 3.8 14.585.093 12.185-7.2 23.077-18.582 27.692zM6 15.23l-1.572-1.015C9.984 5.262 19.507 0 30.046 0c6.286 0 12.296 1.938 17.38 5.538l-1.1 1.477C41.5 3.6 35.87 1.846 29.953 1.846c-9.8 0-18.767 4.985-23.944 13.385z" fill="#4c739e"/><g fill="#a3d4ff"><path d="M32.188 30.313l2.5 1.563.313 3.75h-1.562l-1.25-5.312z"/><use xlink:href="#B"/></g><path d="M35.313 23.008c2.585 0 4.688 2.103 4.688 4.688a4.66 4.66 0 0 1-4.482 4.683l-.01.317c0 .575.437 2.33.713 3.302l.282.994h-3.42l-.23-.37c-.09-.147-2.227-3.648-2.227-8.928 0-2.585 2.103-4.687 4.688-4.687zM33.977 35.43h.474c-.224-.882-.505-2.11-.505-2.734 0-.495.037-.892.216-1.224.16-.296.494-.647 1.18-.65h.034a3.14 3.14 0 0 0 3.063-3.124 3.13 3.13 0 0 0-3.125-3.125 3.13 3.13 0 0 0-3.125 3.125c0 3.88 1.283 6.75 1.79 7.734z" fill="#4c739e"/><g fill="#a3d4ff"><path d="M21.563 30.313l2.5 1.563.313 3.75h-1.562l-1.25-5.312z"/><use xlink:href="#B" x="-10.625"/></g><path d="M24.688 23.008c2.585 0 4.688 2.103 4.688 4.688a4.66 4.66 0 0 1-4.482 4.683l-.01.317c0 .575.437 2.33.713 3.302l.282.994h-3.42l-.23-.37c-.09-.147-2.227-3.648-2.227-8.928 0-2.585 2.103-4.687 4.688-4.687zM23.352 35.43h.474c-.225-.882-.506-2.11-.506-2.734 0-.495.037-.892.216-1.224.16-.296.494-.647 1.18-.65h.034a3.14 3.14 0 0 0 3.063-3.124 3.13 3.13 0 0 0-3.125-3.125 3.13 3.13 0 0 0-3.125 3.125c0 3.88 1.283 6.75 1.8 7.734z" fill="#4c739e"/><defs ><path id="B" d="M31.563 28.438a3.42 3.42 0 0 0 .434 1.674c.588 1.052 1.712 1.764 3.003 1.764 1.898 0 3.75-2.164 3.75-4.062a3.44 3.44 0 0 0-3.437-3.437c-1.898 0-3.75 2.164-3.75 4.063z"/></defs></svg>