<svg xmlns:v="https://vecta.io/nano" xmlns="http://www.w3.org/2000/svg" width="60" height="60" fill="none"><path d="M23.28 51c12.128 0 21.96-9.832 21.96-21.96S35.408 7.08 23.28 7.08 1.32 16.912 1.32 29.04 11.152 51 23.28 51z" fill="#f4f8ff"/><path d="M45.3 32.7s-3.66-5.34-3.66-6.12c0-.9 1.2-2.82 1.2-6.84s-.72-5.52-2.46-7.74-4.86-1.62-4.86.54v1.86c0 4.86-1.8 8.1-4.98 11.7l-4.8 5.4h-2.46v20.76l4.86 3.66H47.7l2.46-23.22H45.3z" fill="#fff"/><path d="M40.38 57.12h-9.72c-2.58 0-4.02-1.32-5.16-2.4-.9-.84-1.44-1.26-2.16-1.26H14.7V51h8.58c1.74 0 2.82 1.02 3.84 1.92 1.02.96 1.86 1.74 3.54 1.74h9.72v2.46z" fill="#4c739e"/><path d="M55.02 36.36H48.9c-1.32 0-2.46 1.08-2.46 2.46v2.46c0 1.32 1.08 2.46 2.46 2.46h6.12c1.32 0 2.46-1.08 2.46-2.46v-2.46a2.43 2.43 0 0 0-2.46-2.46z" fill="#fcfcfc"/><path d="M55.02 44.94h-6.06c-2.04 0-3.66-1.62-3.66-3.66v-2.46c0-2.04 1.62-3.66 3.66-3.66h6.12c2.04 0 3.66 1.62 3.66 3.66v2.46c-.06 1.98-1.68 3.66-3.72 3.66zm-6.06-7.32c-.66 0-1.2.54-1.2 1.2v2.46c0 .66.54 1.2 1.2 1.2h6.12c.66 0 1.2-.54 1.2-1.2v-2.46c0-.66-.54-1.2-1.2-1.2h-6.12z" fill="#4c739e"/><path d="M53.82 29.04H47.7c-1.32 0-2.46 1.08-2.46 2.46v2.46c0 1.32 1.08 2.46 2.46 2.46h6.12c1.32 0 2.46-1.08 2.46-2.46V31.5a2.43 2.43 0 0 0-2.46-2.46z" fill="#fcfcfc"/><path d="M53.82 37.62H47.7c-2.04 0-3.66-1.62-3.66-3.66V31.5c0-2.04 1.62-3.66 3.66-3.66h6.12c2.04 0 3.66 1.62 3.66 3.66v2.46c0 1.98-1.62 3.66-3.66 3.66zm-6.12-7.38c-.66 0-1.2.54-1.2 1.2v2.46c0 .66.54 1.2 1.2 1.2h6.12c.66 0 1.2-.54 1.2-1.2v-2.46c0-.66-.54-1.2-1.2-1.2H47.7z" fill="#4c739e"/><path d="M53.82 43.68H47.7c-1.32 0-2.46 1.08-2.46 2.46v2.46c0 1.32 1.08 2.46 2.46 2.46h6.12c1.32 0 2.46-1.08 2.46-2.46v-2.46c0-1.32-1.14-2.46-2.46-2.46z" fill="#fcfcfc"/><path d="M53.82 52.26H47.7c-2.04 0-3.66-1.62-3.66-3.66v-2.46c0-2.04 1.62-3.66 3.66-3.66h6.12c2.04 0 3.66 1.62 3.66 3.66v2.46c0 1.98-1.62 3.66-3.66 3.66zm-6.12-7.32c-.66 0-1.2.54-1.2 1.2v2.46c0 .66.54 1.2 1.2 1.2h6.12c.66 0 1.2-.54 1.2-1.2v-2.46c0-.66-.54-1.2-1.2-1.2H47.7z" fill="#4c739e"/><path d="M51.36 51.06h-6.12c-1.32 0-2.46 1.08-2.46 2.46v1.2c0 1.32 1.08 2.46 2.46 2.46h6.12c1.32 0 2.46-1.08 2.46-2.46v-1.2a2.43 2.43 0 0 0-2.46-2.46z" fill="#fcfcfc"/><path d="M51.36 58.38h-6.12c-2.04 0-3.66-1.62-3.66-3.66v-1.2c0-2.04 1.62-3.66 3.66-3.66h6.12c2.04 0 3.66 1.62 3.66 3.66v1.2c0 1.98-1.62 3.66-3.66 3.66zm-6.12-6.12c-.66 0-1.2.54-1.2 1.2v1.2c0 .66.54 1.2 1.2 1.2h6.12c.66 0 1.2-.54 1.2-1.2v-1.2c0-.66-.54-1.2-1.2-1.2h-6.12z" fill="#4c739e"/><path d="M22.08 29.04H9.84v26.88h12.24V29.04z" fill="#a3d4ff"/><path d="M23.28 57.12H8.64V27.84h14.64v29.28zm-12.24-2.4h9.78V30.24h-9.78v24.48zm21.48-7.44L31.68 45c5.22-1.92 8.64-6.78 8.76-12.3v-6.12c0-.48.12-.96.36-1.56.36-1.08.84-2.7.84-5.22 0-3.78-.66-4.98-2.16-6.96-.66-.84-1.62-1.02-2.16-.84s-.54.54-.54.66v1.74c0 5.76-2.52 9.42-5.28 12.54l-5.16 5.82h-3V30.3h1.86l4.44-4.98c2.88-3.24 4.68-6.18 4.68-10.92v-1.8c0-1.38.84-2.52 2.16-3 1.44-.48 3.48-.18 4.92 1.68 1.92 2.46 2.7 4.2 2.7 8.46 0 2.88-.6 4.8-.96 6-.12.3-.24.72-.24.84v6.12c-.18 6.6-4.26 12.3-10.38 14.58zM17.16 32.7H14.7v4.86h2.46V32.7zM44.403 1.664l-2.43 3.645 2.047 1.365 2.43-3.645-2.047-1.365zm6.28 5.614l-3.645 2.43 1.364 2.047 3.645-2.43-1.364-2.047zM55.02 15.6h-4.86v2.46h4.86V15.6z" fill="#4c739e"/></svg>