<svg xmlns:v="https://vecta.io/nano" xmlns="http://www.w3.org/2000/svg" width="60" height="60"  fill="none"><path d="M30.046 48c9.956 0 18.028-8.06 18.028-18s-8.07-18-18.028-18-18.027 8.06-18.027 18 8.07 18 18.028 18z" fill="#d9f0fb"/><path d="M30.046 48.923C19.6 48.923 11.094 40.43 11.094 30S19.6 11.077 30.046 11.077 48.998 19.57 48.998 30s-8.505 18.923-18.952 18.923zm0-36c-9.43 0-17.103 7.66-17.103 17.077s7.673 17.077 17.103 17.077S47.15 39.415 47.15 30s-7.673-17.077-17.103-17.077zM11.833 46.34C7.766 41.815 5.547 36.092 5.547 30c0-7.2 3.143-14.03 8.7-18.646l1.202 1.385C10.354 17.077 7.396 23.354 7.396 30c0 5.538 2.034 10.892 5.732 15.046l-1.294 1.292zM28.104 60C12.388 58.985 0 45.877 0 30.092c0-1.292.092-2.585.277-3.785l1.85.277c-.185 1.2-.185 2.4-.185 3.6 0 14.77 11.556 27.138 26.348 28.062L28.104 60zm13.313-2.215l-.74-1.66C51.3 51.785 58.15 41.54 58.15 30.092c0-4.8-1.202-9.508-3.513-13.66l1.572-.923c2.496 4.43 3.8 9.508 3.8 14.585.093 12.185-7.2 23.077-18.582 27.692zM6 15.23l-1.572-1.015C9.984 5.262 19.507 0 30.046 0c6.286 0 12.296 1.938 17.38 5.538l-1.1 1.477C41.5 3.6 35.87 1.846 29.953 1.846c-9.8 0-18.767 4.985-23.944 13.385z" fill="#4c739e"/><path d="M34 38.5c0 1.952-1.778 3.5-4 3.5s-4-1.548-4-3.5 1.778-3.5 4-3.5 4 1.548 4 3.5z" fill="#fff"/><path d="M28.375 19.52a1.12 1.12 0 0 0 1.125 1.104c.64 0 1.125-.518 1.125-1.125 0-.673-.485-1.125-1.06-1.125-.642 0-1.137.46-1.2 1.146zM27 19.457C27.086 18.083 28.14 17 29.563 17 30.932 17 32 18.1 32 19.5c0 1.335-1.07 2.5-2.5 2.5-1.335 0-2.5-1.07-2.5-2.5v-.04zm2.5 16.73c-1.904 0-3.202 1.122-3.202 2.313s1.298 2.313 3.202 2.313 3.202-1.122 3.202-2.313-1.298-2.313-3.202-2.313zM25 38.5c0-2.05 2.125-3.5 4.5-3.5s4.5 1.45 4.5 3.5-2.125 3.5-4.5 3.5-4.5-1.45-4.5-3.5z" fill="#4c739e" fill-rule="evenodd"/><path d="M38.3 33.11c-.688-.776-2.18-2.326-2.524-5.786C35.5 23.804 32.908 21 29.524 21s-5.966 2.803-6.253 6.323c-.287 3.46-1.78 5.01-2.524 5.786-.574.954-.746 2.565-.746 3.22 2.295 1.193 5.508 1.67 9.638 1.67s7.056-.477 9.35-1.67c.057-.656-.115-2.207-.69-3.22z" fill="#a3d4ff"/><path d="M22.4 27.8c.322-3.746 3.237-6.8 7.125-6.8s6.8 3.052 7.125 6.796c.324 3.073 1.657 4.488 2.37 5.245l.086.092.046.05.034.058c.35.585.56 1.295.68 1.92s.157 1.228.12 1.626l-.032.346-.315.155C37.125 38.53 33.968 39 29.644 39c-4.316 0-7.775-.47-10.294-1.712l-.35-.172v-.386c0-.367.05-.966.176-1.598.125-.624.337-1.342.695-1.907l.038-.06.062-.06c.73-.72 2.15-2.12 2.428-5.303zm7.125-5.553c-3.143 0-5.6 2.47-5.865 5.66v.001c-.3 3.54-1.9 5.206-2.75 6.035-.22.373-.384.892-.492 1.43-.07.357-.114.697-.135.97 2.226.986 5.323 1.408 9.36 1.408 4.045 0 6.884-.424 9.1-1.42a7.31 7.31 0 0 0-.1-.943c-.1-.525-.265-1.055-.495-1.462l-.033-.035c-.777-.826-2.34-2.487-2.705-5.975v-.012c-.274-3.2-2.72-5.66-5.865-5.66zM27.9 23.665c.576-.322 1.233-.584 1.85-.665l.26 1.23c-.283.037-.712.185-1.186.45-.462.258-.903.593-1.22.94-.33.362-.614.793-.794 1.204-.187.426-.236.766-.192.97l-1.57.205c-.106-.5.032-1.068.257-1.58a5.76 5.76 0 0 1 1.005-1.524c.432-.473 1.003-.902 1.6-1.23z" fill="#4c739e" fill-rule="evenodd"/></svg>