<svg xmlns:v="https://vecta.io/nano" xmlns="http://www.w3.org/2000/svg" width="60" height="60" fill="none"><style><![CDATA[.B{fill-rule:evenodd}.C{fill:#4c739e}]]></style><path d="M21.687 44.374a21.69 21.69 0 0 0 21.687-21.687A21.69 21.69 0 0 0 21.687 1 21.69 21.69 0 0 0 0 22.687a21.69 21.69 0 0 0 21.687 21.687z" fill="#f4f8ff"/><path d="M49.57 32.91c0 3.51-1.24 6.816-3.2 9.398l6.713 6.712c3.718-4.337 5.886-10.017 5.886-16.213 0-13.115-10.017-23.855-22.823-25.095v9.604c7.642 1.24 13.425 7.745 13.425 15.594z" fill="#a3d4ff"/><path d="M35.112 6.575l1.132.1C49.57 7.974 60 19.15 60 32.807c0 6.44-2.255 12.36-6.135 16.886l-.726.847L45 42.4l.546-.718c1.836-2.415 2.99-5.504 2.99-8.773 0-7.323-5.397-13.413-12.558-14.574l-.867-.14V6.575zm2.065 2.302v7.584c7.69 1.653 13.425 8.377 13.425 16.45 0 3.426-1.103 6.66-2.884 9.287l5.285 5.285c3.123-4.026 4.93-9.13 4.93-14.675 0-12.186-9.02-22.238-20.757-23.93z" class="B C"/><path d="M42.96 45.613c-2.582 1.86-5.68 2.995-9.19 2.995-7.85 0-14.355-5.783-15.5-13.322H8.675C9.81 48.09 20.654 58.108 33.77 58.108c6 0 11.566-2.17 15.904-5.68l-6.712-6.816z" fill="#fff"/><path d="M7.546 34.253h11.62l.132.88c1.06 7.042 7.14 12.443 14.47 12.443 3.277 0 6.167-1.057 8.588-2.8l.718-.517 8.132 8.258-.885.716c-4.5 3.65-10.313 5.9-16.553 5.9-13.65 0-24.94-10.424-26.123-23.764l-.1-1.124zm2.284 2.065c1.603 11.73 11.744 20.757 23.94 20.757 5.332 0 10.328-1.794 14.35-4.752l-5.3-5.37c-2.592 1.677-5.644 2.688-9.06 2.688-8.06 0-14.79-5.72-16.355-13.322H9.83z" class="B C"/><path d="M14.355 17.007c-3.098 3.82-5.06 8.468-5.577 13.528h9.604c.413-2.478 1.342-4.854 2.788-6.816l-6.816-6.712z" fill="#fff"/><path d="M14.27 15.473l8.264 8.14-.53.72c-1.337 1.814-2.21 4.032-2.6 6.373l-.144.863H7.635l.116-1.138a26.53 26.53 0 0 1 5.802-14.074l.716-.883zm.2 3.086a24.43 24.43 0 0 0-4.511 10.943h7.58c.432-2.01 1.196-3.948 2.3-5.656l-5.37-5.288z" class="B C"/><path d="M17.66 13.6l6.816 6.816c2.065-1.55 4.44-2.582 7.126-2.995V7.816c-5.37.516-10.12 2.582-13.942 5.783z" fill="#fff"/><path d="M32.633 6.68v11.627l-.876.135c-2.513.387-4.73 1.35-6.663 2.8l-.717.537-8.247-8.247.864-.724c3.98-3.335 8.927-5.483 14.506-6.02l1.132-.11zm-13.428 7.006l5.383 5.383c1.788-1.203 3.783-2.058 5.98-2.51v-7.58c-4.296.604-8.142 2.255-11.362 4.707z" class="B C"/><path d="M33.873 44.27c6.274 0 11.36-5.086 11.36-11.36s-5.086-11.36-11.36-11.36-11.36 5.086-11.36 11.36 5.086 11.36 11.36 11.36z" fill="#fff"/><g class="C"><path d="M33.873 22.584a10.33 10.33 0 0 0-10.327 10.327 10.33 10.33 0 0 0 10.327 10.327A10.33 10.33 0 0 0 44.2 32.911a10.33 10.33 0 0 0-10.327-10.327zM21.48 32.91c0-6.844 5.548-12.392 12.392-12.392s12.392 5.548 12.392 12.392-5.548 12.392-12.392 12.392S21.48 39.755 21.48 32.91z" class="B"/><path d="M30.775 35.39c-1.446-1.652-.723-4.44 1.446-5.783l13.322-8.365c1.24-.826 2.478.62 1.446 1.756l-10.224 11.98c-1.652 1.86-4.544 2.17-6 .413z"/></g></svg>