<svg xmlns:v="https://vecta.io/nano" xmlns="http://www.w3.org/2000/svg" width="60" height="60" fill="none"><path d="M22.25 55.112C12.957 50.37 3 41.836 3 34.345v-22.76h1.897v22.76c0 5.7 7.68 13.655 18.207 19.06l-.854 1.707zm16.5 0l-.853-1.707C48.422 48 56.103 40.035 56.103 34.345v-22.76H58v22.76c0 7.5-9.957 16.026-19.25 20.767z" fill="#dfeeff"/><path d="M30.5 51.414c-3.224 0-21.8-9.293-21.8-19.914V13.293c0-.853.57-1.707 1.422-1.897 2.94-.664 5.3-2.94 5.974-5.974.2-.853.948-1.422 1.897-1.422h25.13c.853 0 1.707.57 1.897 1.422.664 2.94 2.94 5.3 5.974 5.974.853.2 1.422.948 1.422 1.897V31.5C52.3 42.12 33.724 51.414 30.5 51.414zM17.983 5.897C17.13 9.5 14.2 12.44 10.586 13.198V31.5c0 9.483 17.828 18.017 19.914 18.017S50.414 40.983 50.414 31.5V13.293c-3.603-.853-6.543-3.698-7.302-7.397h-25.13z" fill="#4c739e"/><path d="M30.5 26.76V12.535h8.535c.474 1.896 2.465 4.267 4.74 4.74v9.483H30.5z" fill="#a3d4ff"/><path d="M44.724 27.707H29.552v-16.12h10.24l.2.76c.38 1.612 2.18 3.698 3.983 3.983l.76.2v11.2zM31.448 25.8h11.38v-7.776c-2.086-.76-3.793-2.655-4.457-4.552h-6.922V25.8z" fill="#4c739e"/><path d="M17.224 26.76v3.793c0 5.595 11.474 12.328 13.276 12.328V26.76H17.224z" fill="#a3d4ff"/><g fill="#4c739e"><path d="M31.448 43.828H30.5c-2.086 0-14.224-7.017-14.224-13.276V25.8H31.45v18.017zm-13.276-16.12v2.845c0 4.172 8.25 9.767 11.38 11.095v-13.94h-11.38zM25.76 7.793h-1.896V9.7h1.896V7.793zm-11.38 8.535h-1.897v1.896h1.897v-1.896zm0 9.472h-1.897v1.897h1.897V25.8zm3.792 11.4h-1.897v1.896h1.897V37.2zm8.535 6.628H24.8v1.897h1.897v-1.897zm10.43-36.035H35.24V9.7h1.897V7.793zm11.38 8.535H46.62v1.896h1.897v-1.896z"/><path d="M48.517 25.8H46.62v1.897h1.897V25.8zm-3.793 11.4h-1.897v1.896h1.897V37.2zM36.2 43.828h-1.896v1.897H36.2v-1.897zm-5.7 0c-2.086 0-14.224-7.017-14.224-13.276V18.035c0-.76.474-1.517 1.233-1.802 1.612-.57 2.845-2.18 3.32-3.414a1.85 1.85 0 0 1 1.802-1.233h15.646c.76 0 1.517.474 1.802 1.233.474 1.328 1.802 2.845 3.414 3.414a1.85 1.85 0 0 1 1.233 1.802v12.517c0 6.26-12.138 13.276-14.224 13.276zm-7.87-30.345c-.57 1.612-2.276 3.793-4.552 4.552l.095 12.517c0 4.74 10.62 11.284 12.328 11.38 1.707-.095 12.328-6.638 12.328-11.38V18.035c-2.18-.76-3.888-2.845-4.457-4.552H22.63z"/><path d="M43.776 25.8H17.224v1.897h26.552V25.8z"/><path d="M31.448 12.535h-1.897V42.88h1.897V12.535z"/></g></svg>