<svg xmlns:v="https://vecta.io/nano" xmlns="http://www.w3.org/2000/svg" width="60" height="60" fill="none"><path d="M41.294 55.118a17.74 17.74 0 0 0 17.735-17.735 17.74 17.74 0 0 0-17.735-17.735 17.74 17.74 0 0 0-17.735 17.735 17.74 17.74 0 0 0 17.735 17.735z" fill="#f4f8ff"/><path d="M8.824 34.382L30.53 12.765l11.824.97 6.882 5.912-3 14.735L25.59 53.088 8.824 34.382zM23.382 14.97l4.853-4.853a2.41 2.41 0 0 1 1.677-.706l14.382.353c.618 0 1.147.265 1.588.706l.794.794" fill="#fff"/><path d="M24 15.588l-1.235-1.235L27.618 9.5A3.41 3.41 0 0 1 30 8.529l14.382.353c.794 0 1.588.353 2.206.97l.794.794-1.235 1.235-.794-.794c-.265-.265-.618-.44-.97-.44L30 10.294a1.46 1.46 0 0 0-1.059.441L24 15.588z" fill="#4c739e"/><path d="M18.706 51.06L5.294 37.647c-1.324-1.324-1.324-3.353 0-4.677l14.824-14.823" fill="#fff"/><path d="M18.088 51.677L4.676 38.265c-1.588-1.588-1.588-4.235 0-5.912L19.5 17.53l1.235 1.235L5.912 33.588c-.97.97-.97 2.47 0 3.44L19.324 50.44l-1.235 1.235z" fill="#4c739e"/><path d="M50.56 15.06l.97.97c.44.44.706.97.706 1.588l.265 14.47a2.41 2.41 0 0 1-.706 1.676L28.94 56.618c-1.324 1.324-3.353 1.324-4.676 0L21 53.353" fill="#fff"/><g fill="#4c739e"><path d="M26.56 58.47c-1.06 0-2.118-.44-2.912-1.235l-3.265-3.265 1.235-1.235L24.882 56c.97.97 2.47.97 3.44 0l22.853-22.853a1.63 1.63 0 0 0 .441-1.059l-.265-14.47c0-.353-.177-.706-.44-.97l-.97-.97 1.235-1.235.97.97c.618.618.97 1.412.97 2.206l.265 14.47a3.41 3.41 0 0 1-.971 2.382L29.56 57.324c-.794.794-1.94 1.147-3 1.147z"/><path d="M51.706 27.412v-1.765c3.618 0 6.53-2.912 6.53-6.53s-2.912-6.53-6.53-6.53-6.53 2.912-6.53 6.53h-1.765c0-4.588 3.706-8.294 8.294-8.294S60 14.53 60 19.118s-3.794 8.294-8.294 8.294z"/></g><path d="M43.06 22.294l-3.882-3.882c-.618-.618-.618-1.677 0-2.382l1.06-1.06c.618-.618 1.676-.618 2.382 0l3.882 3.882c.618.618.618 1.676 0 2.382l-1.06 1.06c-.706.706-1.765.706-2.382 0z" fill="#fff"/><path d="M44.206 23.706c-.706 0-1.324-.265-1.765-.706l-3.882-3.882c-.97-.97-.97-2.647 0-3.618l1.06-1.06c.97-.97 2.647-.97 3.618 0l3.882 3.882c.44.44.706 1.147.706 1.765s-.265 1.323-.706 1.765l-1.06 1.06c-.53.53-1.147.794-1.853.794zm-2.824-8.382c-.176 0-.44.088-.53.265l-1.06 1.06c-.265.265-.265.794 0 1.147l3.882 3.882c.265.265.794.265 1.147 0l1.06-1.06c.265-.265.265-.794 0-1.147L42 15.588a.8.8 0 0 0-.618-.265z" fill="#4c739e"/><path d="M22.853 22.56l3 1.06c.353.088.706.088 1.06-.088l2.823-1.412c.618-.265 1.412-.088 1.765.53l1.677 2.735c.176.265.44.53.794.618l3.088.794c.706.177 1.147.794.97 1.5l-.53 3.177c-.088.353 0 .706.265.97L39.618 35c.44.53.353 1.324-.177 1.765l-2.382 2.118c-.265.265-.44.53-.44.882l-.265 3.177c-.088.706-.618 1.235-1.324 1.235l-3.176.088c-.353 0-.706.177-.97.44L28.677 47c-.44.53-1.235.53-1.765.088l-2.47-2.03c-.265-.265-.618-.353-.97-.265l-3.177.353c-.706.088-1.323-.44-1.412-1.06L18.265 41c-.088-.353-.265-.618-.53-.882l-2.647-1.765c-.53-.353-.794-1.147-.44-1.765l1.5-2.824c.177-.353.177-.706.088-.97l-.882-3.088c-.176-.706.176-1.412.794-1.588l3-1.147c.353-.088.618-.353.706-.706l1.324-2.912c.353-.706 1.06-.97 1.677-.794z" fill="#a3d4ff"/><path d="M27.794 48.235c-.53 0-.97-.176-1.412-.53l-2.47-2.03c-.088-.088-.176-.088-.353-.088l-3.177.353c-1.147.088-2.206-.618-2.382-1.765l-.618-3.088c0-.088-.088-.265-.177-.265L14.56 39.06c-.97-.618-1.235-1.94-.706-2.912l1.5-2.824a.27.27 0 0 0 0-.353l-.882-3.088c-.353-1.147.265-2.294 1.323-2.647l3-1.147c.088-.088.176-.088.265-.265l1.323-2.912c.44-1.06 1.677-1.588 2.735-1.147l3 1.06h.353l2.824-1.412c1.06-.53 2.294-.088 2.912.882l1.676 2.735c.088.088.177.177.265.177l3.088.794c1.147.265 1.853 1.324 1.676 2.47l-.53 3.176c0 .088 0 .265.088.353l1.853 2.56c.706.97.53 2.206-.353 3l-2.382 2.118c-.088.088-.176.177-.176.353l-.265 3.176c-.088 1.147-1.06 2.03-2.206 2.03l-3.176.088a.67.67 0 0 0-.353.176l-2.206 2.294c-.265.265-.882.44-1.412.44zM23.56 43.91c.53 0 .97.176 1.412.53l2.47 2.03c.177.177.44.177.618 0l2.206-2.294c.44-.44.97-.618 1.588-.706l3.176-.088c.265 0 .44-.176.44-.44l.265-3.177c.088-.618.353-1.147.794-1.5l2.382-2.118c.176-.177.176-.44.088-.618l-1.853-2.56c-.353-.44-.44-1.06-.353-1.676l.53-3.176c0-.265-.088-.44-.353-.53l-3.088-.794c-.53-.176-1.06-.53-1.323-.97L30.88 23.09c-.088-.177-.353-.265-.618-.177l-2.824 1.412c-.53.265-1.147.265-1.676.088l-3-1.06c-.265-.088-.44 0-.53.265L20.91 26.53c-.265.53-.706.97-1.235 1.147l-3 1.147c-.265.088-.353.353-.265.53l.882 3.088c.177.53.088 1.147-.176 1.676l-1.5 2.824c-.088.176-.088.44.177.618l2.647 1.765c.44.353.794.794.97 1.412l.618 3.088c.088.265.265.353.53.353l3.176-.353c-.265.088-.176.088-.176.088zm7.804-16.25l-9.843 12.8 1.4 1.076 9.843-12.8-1.4-1.076zM13.765 13.824h-1.94v1.765h1.94v-1.765zm-3.97 0h-1.94v1.765h1.94v-1.765zm20.736 0H16.765v1.765H30.53v-1.765zM5.912 50.265H3.97v1.765H5.9v-1.765zm-3.972 0H0v1.765h1.94v-1.765zm20.648 0H8.824v1.765H22.59v-1.765z" fill="#4c739e"/><path d="M24.706 32.44H23.47c-.44 0-.882-.353-.882-.882v-2.206c0-.44.353-.882.882-.882h1.235c.44 0 .882.353.882.882v2.206c0 .44-.353.882-.882.882z" fill="#fff"/><path d="M24.706 33.324H23.47a1.77 1.77 0 0 1-1.765-1.765v-2.206a1.77 1.77 0 0 1 1.765-1.765h1.235a1.77 1.77 0 0 1 1.765 1.765v2.206a1.77 1.77 0 0 1-1.765 1.765zm0-3.97H23.47v2.206h1.147v-2.206h.088z" fill="#4c739e"/><path d="M30.706 40.382H29.47c-.44 0-.882-.353-.882-.882v-2.206c0-.44.353-.882.882-.882h1.235c.44 0 .882.353.882.882V39.5a.83.83 0 0 1-.882.882z" fill="#fff"/><path d="M30.706 41.265H29.47a1.77 1.77 0 0 1-1.765-1.765v-2.206a1.77 1.77 0 0 1 1.765-1.765h1.235a1.77 1.77 0 0 1 1.765 1.765V39.5a1.77 1.77 0 0 1-1.765 1.765zm0-3.97H29.47V39.5h1.147v-2.206h.088z" fill="#4c739e"/><path d="M39.353 2H18.706v1.765h20.647V2zM16.676 2h-1.94v1.765h1.94V2zM7.853 23.706H0v1.765h7.853v-1.765z" fill="#dfeeff"/></svg>