<svg xmlns:v="https://vecta.io/nano" xmlns="http://www.w3.org/2000/svg" width="60" height="60" fill="none"><path d="M29.3 57a25.27 25.27 0 0 0 25.3-25.3A25.27 25.27 0 0 0 29.3 6.4 25.27 25.27 0 0 0 4 31.7 25.27 25.27 0 0 0 29.3 57z" fill="#f4f8ff"/><g fill="#dfeeff"><path d="M8.8 50.4H6.9v5.7h1.9v-5.7z"/><path d="M10.7 52.3H5v1.9h5.7v-1.9zm43-47.8h-1.9v5.7h1.9V4.5z"/><path d="M55.6 6.4h-5.7v1.9h5.7V6.4z"/></g><path d="M21.3 31.8c6.9 0 12.4-5.6 12.4-12.4C33.7 12.5 28.1 7 21.3 7S8.8 12.5 8.8 19.4c0 6.8 5.6 12.4 12.5 12.4z" fill="#f4f8ff"/><path d="M17.1 23.6v-1.4h1.2v-1.8h-1.2v-1.8h1.2V12h3.8c.7 0 1.4.1 2 .2s1.2.4 1.7.7.9.7 1.1 1.3c.3.5.4 1.2.4 1.9 0 .8-.1 1.4-.4 2-.3.5-.7 1-1.1 1.3-.5.3-1 .6-1.7.8-.6.2-1.3.2-2 .2h-1.9v1.8h5.1v1.4h-5.1v3.1h-1.9v-3.1h-1.2zm5.1-4.9c1.1 0 1.8-.2 2.4-.6s.8-1.1.8-1.9c0-1.7-1.1-2.5-3.2-2.5h-2v5.1h2v-.1zm-.9 14.1c-7.4 0-13.4-6-13.4-13.4S13.9 6 21.3 6s13.4 6 13.4 13.4c-.1 7.3-6.1 13.4-13.4 13.4zm0-24.9C15 7.9 9.8 13.1 9.8 19.4S15 30.9 21.3 30.9s11.5-5.2 11.5-11.5c-.1-6.3-5.2-11.5-11.5-11.5z" fill="#4c739e"/><path d="M22.6 54.4c7.1 0 12.9-5.8 12.9-12.9s-5.8-12.9-12.9-12.9S9.7 34.3 9.7 41.5s5.8 12.9 12.9 12.9z" fill="#a3d4ff"/><g fill="#4c739e"><path d="M22.6 55.3c-7.6 0-13.9-6.2-13.9-13.9a13.87 13.87 0 0 1 13.9-13.9 13.87 13.87 0 0 1 13.9 13.9c0 7.7-6.3 13.9-13.9 13.9zm0-25.8c-6.6 0-11.9 5.4-11.9 11.9 0 6.6 5.4 11.9 11.9 11.9 6.6 0 11.9-5.4 11.9-11.9s-5.3-11.9-11.9-11.9zm3.3 18.2H23c-2.7 0-4.8-2.1-4.8-4.8V40c0-2.7 2.1-4.8 4.8-4.8h2.9v1.9H23c-1.6 0-2.9 1.2-2.9 2.9v2.9c0 1.6 1.2 2.9 2.9 2.9h2.9v1.9z"/><path d="M23.1 39.1h-6.7V41h6.7v-1.9zm0 2.8h-6.7v1.9h6.7v-1.9z"/></g><path d="M41.3 41.9c6.9 0 12.4-5.6 12.4-12.4 0-6.9-5.6-12.4-12.4-12.4s-12.4 5.6-12.4 12.4c-.1 6.8 5.5 12.4 12.4 12.4z" fill="#fff"/><g fill="#4c739e"><path d="M41.3 42.8c-7.4 0-13.4-6-13.4-13.4S33.9 16 41.3 16s13.4 6 13.4 13.4c-.1 7.4-6.1 13.4-13.4 13.4zm0-24.8c-6.3 0-11.5 5.2-11.5 11.5S35 41 41.3 41s11.5-5.2 11.5-11.5C52.7 23.2 47.6 18 41.3 18zm.9 17.2h-1.9c-1.6 0-2.9-1.2-2.9-2.9h1.9a.94.94 0 0 0 1 1h1.9a.94.94 0 0 0 1-1v-.6c0-.4-.3-.8-.7-.9l-3.2-1.1c-1.1-.4-2-1.5-2-2.7v-.6c0-1.6 1.2-2.9 2.9-2.9h1.9c1.6 0 2.9 1.2 2.9 2.9h-1.9a.94.94 0 0 0-1-1h-1.9a.94.94 0 0 0-1 1v.6c0 .4.3.8.7.9l3.2 1.1c1.1.4 2 1.5 2 2.7v.6c0 1.7-1.3 2.9-2.9 2.9z"/><path d="M42.2 21.8h-1.9v2.9h1.9v-2.9zm0 12.4h-1.9v2.9h1.9v-2.9z"/></g></svg>