<svg xmlns:v="https://vecta.io/nano" xmlns="http://www.w3.org/2000/svg" width="60" height="60" fill="none"><path d="M30.968 46.452a23.23 23.23 0 0 0 23.226-23.226A23.23 23.23 0 0 0 30.968 0 23.23 23.23 0 0 0 7.742 23.226a23.23 23.23 0 0 0 23.226 23.226z" fill="#f4f8ff"/><path d="M31.452 13.548c.58 0 3.677-5.516 4.355-6.387.194-.3.3-.387.097-.58s-.58-.194-1.064 0c-.87.194-1.84 0-3-.3-2.323-.677-5.613-1.548-6.968.774-.097.194 0 0 .194.3.677.774 3.677 6.097 4.258 6.097h2.13v.097z" fill="#a3d4ff"/><path d="M31.452 14.516H29.42c-.774 0-1.258-.58-3.58-4.258-.484-.87-1.16-1.84-1.355-2.13l-.3-.194L24 7.452c-.194-.387 0-.774.097-.87 1.742-3.097 5.7-1.935 8.032-1.258.87.3 1.84.484 2.42.3.387-.097 1.452-.387 2.032.387.678.774.194 1.548 0 1.84l-1.16 1.935c-2.613 4.065-3.193 4.742-3.968 4.742zM29.7 12.58h1.452c.58-.58 1.84-2.7 2.516-3.87.3-.387.484-.774.677-1.065-.87.097-1.84-.194-2.7-.484C29.42 6.484 27.3 6 26.13 7.065c.3.387.774 1.16 1.355 2.13.677 1.16 1.742 2.806 2.226 3.387z" fill="#4c739e"/><path d="M32.903 12.58c-2.226-1.355-4.452-.774-5.806 0-6.87 3.677-9.677 10.935-9.677 14.42 0 7.16 5.613 9.774 12.58 9.774s12.58-2.516 12.58-9.677c0-3.387-3-10.452-9.677-14.516z" fill="#a3d4ff"/><g fill="#4c739e"><path d="M30 37.742c-8.613 0-13.548-3.87-13.548-10.742 0-4.064 3.194-11.516 10.16-15.3 1.064-.58 3.87-1.742 6.774 0 6.968 4.258 10.16 11.613 10.16 15.387 0 6.87-4.84 10.645-13.548 10.645zm.097-24.968c-1.065 0-1.936.387-2.516.677-6.28 3.39-9.194 10.065-9.194 13.55 0 7.258 6.3 8.807 11.613 8.807s11.613-1.548 11.613-8.7c0-3.3-2.903-9.87-9.194-13.645a4.52 4.52 0 0 0-2.322-.677zM30.968 30h-1.935a2.85 2.85 0 0 1-2.903-2.903h1.935a.91.91 0 0 0 .968.968h1.935a.91.91 0 0 0 .968-.968v-.58a.93.93 0 0 0-.677-.871l-3.194-1.065c-1.16-.387-1.935-1.452-1.935-2.7v-.58a2.85 2.85 0 0 1 2.903-2.903h1.935a2.85 2.85 0 0 1 2.903 2.903h-1.936a.91.91 0 0 0-.968-.968h-1.935a.91.91 0 0 0-.968.968v.58a.93.93 0 0 0 .677.871l3.194 1.065c1.16.387 2.032 1.548 2.032 2.7v.58c-.097 1.645-1.355 2.903-3 2.903z"/><path d="M30.968 16.452h-1.936v2.903h1.936v-2.903zm0 12.58h-1.936v2.903h1.936v-2.903z"/></g><path d="M54.194 28.065l-2.516 5.13c-.678 0-1.452.3-1.935.87l-3.097 3.097c-.968.968-3.774.968-4.84 2.13l-4.064 4.064c-1.742 1.548-1.936 4.355-1.936 6v7.742h12.58c0-2.032-.097-3.968.968-5.032L57 44.516c1.258-1.258 2.032-3 2.032-4.84V21.3c-1.936 0-5.516 1.645-4.84 6.774z" fill="#fff"/><g fill="#4c739e"><path d="M49.355 57.097H47.42v-.3c0-2.13 0-4.065 1.258-5.42l4.258-4.16 3.387-3.3c1.065-1.064 1.742-2.613 1.742-4.16V22.452c-.678.194-1.355.58-1.936 1.16-.87 1.064-1.258 2.516-.968 4.355v.3L53.13 33.3l-1.84-.677 1.84-4.645c-.3-2.903.677-4.645 1.452-5.613 1.258-1.452 3.097-2.032 4.355-2.032h.968v19.452c0 2.032-.87 4.065-2.323 5.516l-3.387 3.3-4.258 4.16c-.58.774-.58 2.323-.58 4.065v.3z"/><path d="M36.774 57.097H34.84v-7.742c0-3.097.677-5.322 2.13-6.774l4.065-4.064c.774-.774 1.935-1.065 3.097-1.452.677-.194 1.548-.484 1.84-.677l3.097-3.097c1.452-1.452 3.968-1.452 5.516 0 .774.774 1.16 1.742 1.16 2.7 0 1.065-.387 2.032-1.16 2.7l-5.903 5.903-1.355-1.355 5.903-5.903A1.91 1.91 0 0 0 53.806 36a1.91 1.91 0 0 0-.581-1.355c-.774-.774-2.032-.774-2.7 0l-3.097 3.097c-.58.58-1.645.87-2.613 1.16-.87.3-1.84.484-2.226.968l-4.064 4.064c-1.065 1.065-1.548 2.903-1.548 5.42v7.742h-.194z"/></g><path d="M51.194 55.16H33.87V60h17.323v-4.84z" fill="#a3d4ff"/><path d="M50.226 60v-3.87H34.84V60h-1.936v-5.806H52.16V60h-1.935zm-10.55-1.935h-2.903V60h2.903v-1.935z" fill="#4c739e"/><path d="M5.806 28.065l2.516 5.13c.677 0 1.452.3 1.935.87l3.097 3.097c.968.968 3.774.968 4.84 2.13l4.064 4.064c1.645 1.645 1.84 4.452 1.84 6.097v7.742H11.613c0-2.032.097-3.968-.968-5.032L3 44.613c-1.258-1.258-2.032-3-2.032-4.84V21.3c1.935 0 5.516 1.645 4.84 6.774z" fill="#fff"/><g fill="#4c739e"><path d="M12.58 57.097h-1.935v-.3c0-1.742 0-3.3-.677-4.065L5.7 48.58l-3.387-3.3C.87 43.84 0 41.807 0 39.774V20.323h.968c1.258 0 3 .484 4.355 2.032.87.968 1.84 2.7 1.452 5.613l1.84 4.645-1.84.677-1.935-5.13v-.3c.194-1.84-.097-3.3-.968-4.355-.58-.677-1.258-1.065-1.935-1.16v17.323c0 1.548.677 3.097 1.742 4.16l3.387 3.3 4.258 4.16c1.258 1.258 1.258 3.3 1.258 5.42v.387z"/><path d="M25.16 57.097h-1.936v-7.742c0-2.516-.58-4.355-1.548-5.42l-4.064-4.064c-.387-.387-1.355-.678-2.226-.968-1.065-.3-2.032-.58-2.613-1.16l-3.097-3.097c-.774-.774-2.032-.774-2.7 0A1.91 1.91 0 0 0 6.387 36a1.91 1.91 0 0 0 .581 1.355l5.903 5.903-1.355 1.355L5.613 38.7c-.774-.774-1.16-1.742-1.16-2.7 0-1.065.387-2.032 1.16-2.7 1.452-1.452 3.968-1.452 5.516 0l3.097 3.097c.3.3 1.065.484 1.84.677 1.16.3 2.323.677 3.097 1.452l4.064 4.064c1.452 1.452 2.13 3.678 2.13 6.774v7.742h-.194z"/></g><path d="M26.13 55.16H8.7V60h17.42v-4.84z" fill="#a3d4ff"/><path d="M27.097 60H25.16v-3.87H9.677V60H7.742v-5.806h19.355V60zm-3.87-1.935h-2.903V60h2.903v-1.935z" fill="#4c739e"/></svg>