<svg xmlns="http://www.w3.org/2000/svg" width="60" height="60" fill="none" xmlns:v="https://vecta.io/nano"><path d="M30.046 48c9.956 0 18.028-8.06 18.028-18s-8.07-18-18.028-18-18.027 8.06-18.027 18 8.07 18 18.028 18z" fill="#fff"/><path d="M29.952 48.846C19.505 48.846 11 40.354 11 29.923S19.505 11 29.952 11s18.952 8.492 18.952 18.923S40.4 48.846 29.952 48.846zm0-36c-9.43 0-17.103 7.662-17.103 17.077S20.522 47 29.952 47s17.103-7.66 17.103-17.077-7.673-17.077-17.103-17.077z" fill="#4c739e"/><path d="M11.833 46.34C7.766 41.815 5.547 36.092 5.547 30c0-7.2 3.143-14.03 8.7-18.646l1.202 1.385C10.354 17.077 7.396 23.354 7.396 30c0 5.538 2.034 10.892 5.732 15.046l-1.294 1.292zM28.104 60C12.388 58.985 0 45.877 0 30.092c0-1.292.092-2.585.277-3.785l1.85.277c-.185 1.2-.185 2.4-.185 3.6 0 14.77 11.556 27.138 26.348 28.062L28.104 60zm13.313-2.215l-.74-1.66C51.3 51.785 58.15 41.54 58.15 30.092c0-4.8-1.202-9.508-3.513-13.66l1.572-.923c2.496 4.43 3.8 9.508 3.8 14.585.093 12.185-7.2 23.077-18.582 27.692zM6 15.23l-1.572-1.015C9.984 5.262 19.507 0 30.046 0c6.286 0 12.296 1.938 17.38 5.538l-1.1 1.477C41.5 3.6 35.87 1.846 29.953 1.846c-9.8 0-18.767 4.985-23.944 13.385z" fill="#dfeeff"/><g fill-rule="evenodd"><path d="M37.92 24.286L35.645 22 30 27.674 24.355 22l-2.274 2.286 5.645 5.674L22 35.714 24.274 38 30 32.245 35.726 38 38 35.714l-5.726-5.755 5.645-5.674z" fill="#a3d4ff"/><path d="M35.645 19.6l4.672 4.696-5.645 5.674 5.726 5.755-4.672 4.696L30 34.655 24.274 40.4l-4.672-4.696 5.726-5.755-5.645-5.674 4.672-4.696L30 25.263l5.645-5.674zM30 27.674L24.355 22l-2.274 2.286 5.645 5.674L22 35.714 24.274 38 30 32.245 35.726 38 38 35.714l-5.726-5.755 5.645-5.674L35.645 22 30 27.674z" fill="#4c739e"/></g></svg>