<svg xmlns:v="https://vecta.io/nano" xmlns="http://www.w3.org/2000/svg" width="60" height="60" fill="none"><style><![CDATA[.B{fill:#4c739e}.C{fill:#fff}]]></style><path d="M31.08 56.58c14.58 0 26.4-11.82 26.4-26.4s-11.82-26.4-26.4-26.4-26.4 11.82-26.4 26.4 11.82 26.4 26.4 26.4z" fill="#f4f8ff"/><path d="M42.06 22.62l-.18-.24c-1.08-1.14-1.2-2.76-.24-3.6l3.9-3.72c1.44-1.32 3.42-1.56 4.5-.42l.18.24c1.08 1.14.78 3.12-.66 4.5l-3.9 3.72c-.9.84-2.52.6-3.6-.48z" class="C"/><path d="M44.22 24.54h-.42a3.93 3.93 0 0 1-2.4-1.26l-.18-.24c-.66-.72-1.08-1.56-1.14-2.46-.06-.96.24-1.86.9-2.46l3.9-3.72c1.8-1.68 4.44-1.86 5.82-.36l.18.24c1.44 1.5 1.14 4.08-.66 5.82l-3.9 3.72c-.54.42-1.32.72-2.1.72zm3.96-9.66c-.66 0-1.44.3-2.04.9l-3.9 3.72c-.3.3-.36.72-.3.96.06.48.24.96.6 1.32l.18.24c.36.36.84.6 1.26.66.24 0 .66.06.96-.3l3.9-3.72c1.02-.96 1.32-2.4.6-3.12l-.18-.24c-.18-.3-.6-.42-1.08-.42z" class="B"/><path d="M22.2 27.48l-5.1-1.86-6.72 21.48c.42.3.78.6 1.14.96 1.26 1.14 2.52 2.46 3.54 3.84l6.54.96 3.78-3.78c9.66.72 14.1-6.42 15.06-7.56S22.2 27.48 22.2 27.48z" class="C"/><path d="M21.96 53.82l-7.44-1.08-.24-.3c-.96-1.32-2.1-2.52-3.36-3.72l-1.08-.9-.6-.42 7.26-23.04 6.18 2.34c.12.06 4.62 3.06 9.12 6.3 9.42 6.72 9.54 7.62 9.6 8.22.06.3-.06.66-.24.9-.06.12-.18.24-.3.42-1.5 1.98-6.12 7.98-15.12 7.5-1.14 1.08-2.16 2.04-3.42 3.42l-.36.36zM15.54 51l5.7.84c1.26-1.32 2.22-2.28 3.36-3.36l.42-.42.42.06c8.28.6 12.54-4.92 13.92-6.72-1.5-1.74-9.84-7.8-17.58-13.02l-4.02-1.5-6.3 19.86c.24.18.48.36.66.6 1.32 1.14 2.46 2.4 3.42 3.66z" class="B"/><path d="M42.36 42.48H23.52c-1.56 0-2.82-1.26-2.82-2.82V3.84c0-1.56 1.26-2.82 2.82-2.82h18.84c1.56 0 2.82 1.26 2.82 2.82v35.82a2.86 2.86 0 0 1-2.82 2.82z" fill="#dfeeff"/><path d="M42.36 43.38H23.52c-2.1 0-3.78-1.68-3.78-3.78V3.78c0-2.1 1.68-3.78 3.78-3.78h18.84c2.1 0 3.78 1.68 3.78 3.78V39.6c0 2.1-1.68 3.78-3.78 3.78zM23.52 1.86a1.87 1.87 0 0 0-1.86 1.86V39.6a1.87 1.87 0 0 0 1.86 1.86h18.84a1.87 1.87 0 0 0 1.86-1.86V3.78a1.87 1.87 0 0 0-1.86-1.86H23.52v-.06z" class="B"/><path d="M45.24 5.64H20.7v29.22h24.54V5.64z" class="C"/><path d="M46.14 35.88h-26.4V4.74h26.4v31.14zM21.6 33.96h22.62V6.6H21.6v27.36z" class="B"/><path d="M44.64 41.64l-.18-.18c-1.08-.9-1.44-2.22-.9-2.88l2.46-2.82c.9-1.02 2.52-1.14 3.54-.24l.18.18c1.08.9 1.2 2.52.3 3.54l-2.46 2.82c-.48.66-1.86.48-2.94-.42z" class="C"/><path d="M46.68 43.38c-.84 0-1.8-.36-2.58-1.08l-.18-.18c-.66-.54-1.14-1.26-1.32-1.98-.24-.84-.12-1.68.36-2.22l2.46-2.82c.6-.72 1.44-1.08 2.34-1.14s1.8.24 2.52.84l.18.18c1.44 1.26 1.62 3.42.42 4.86l-2.46 2.82a2.4 2.4 0 0 1-1.74.72zm1.26-7.56h-.12c-.42 0-.78.18-1.08.54l-2.46 2.82c-.06.06-.06.18 0 .48.12.36.42.78.78 1.08l.18.18c.78.66 1.56.66 1.68.54l2.46-2.82c.54-.66.48-1.62-.24-2.22l-.18-.18c-.3-.3-.66-.42-1.02-.42z" class="B"/><path d="M21.18 27.3c.96-2.94 1.38-5.04 1.68-8.46.18-1.98-.66-3.66-1.56-4.92s-3.06-.96-3.54.42c-1.92 6.18-2.28 7.86-3.48 10.98-1.32 3.48-.6 8.34-1.26 9.78-.12.3-4.62 6.06-5.88 7.86 1.32.66 4.08 1.92 5.22 2.88 1.32 1.2 2.58 2.52 3.66 4.02l1.02.06 6-6.18c2.64-7.32.48-13.5-1.86-16.44z" class="C"/><path d="M17.04 50.88l-1.44-.12-.3-.36a23.36 23.36 0 0 0-3.54-3.84c-.78-.66-2.7-1.62-4.02-2.22l-1.92-.96.66-.9 3.48-4.62 2.34-3.12c.18-.42.18-1.62.24-2.82.06-2.1.12-4.68.96-6.9.78-1.98 1.2-3.36 1.92-5.82l1.56-5.16c.3-.96 1.2-1.68 2.28-1.86 1.14-.18 2.28.24 2.94 1.14 1.32 1.8 1.86 3.72 1.68 5.58-.3 3.42-.72 5.52-1.62 8.22 2.46 3.42 4.26 9.66 1.74 16.92l-1.8-.6c2.4-6.84.54-12.66-1.74-15.54l-.3-.42.18-.48c.9-2.82 1.32-4.8 1.68-8.28.12-1.38-.3-2.82-1.38-4.26-.24-.36-.78-.42-1.08-.36s-.66.24-.78.54l-1.56 5.1c-.72 2.4-1.14 3.9-1.98 5.94-.78 1.92-.84 4.32-.84 6.3-.06 1.56-.06 2.82-.42 3.6-.06.18-.3.48-2.52 3.42L8.7 42.66c1.56.72 3.42 1.68 4.38 2.52 1.32 1.2 2.52 2.46 3.54 3.78l.6.06-.18 1.86z" class="B"/><path d="M9.014 39l-5.136 5.13L18.382 58.65l5.136-5.13L9.014 39z" fill="#a3d4ff"/><path d="M18.36 60L2.52 44.16 9 37.68l15.84 15.84L18.36 60zM5.22 44.16l13.2 13.2 3.78-3.78L9 40.38l-3.78 3.78z" class="B"/><path d="M44.7 34.98l-.24-.18c-1.08-.96-1.5-2.28-.9-2.94l2.52-2.88c.9-1.08 2.52-1.14 3.6-.24l.24.18c1.08.96 1.2 2.58.3 3.6L47.7 35.4c-.54.72-1.92.54-3-.42z" class="C"/><path d="M46.74 36.78c-.84 0-1.8-.36-2.64-1.08l-.24-.18c-1.5-1.32-1.92-3.18-1.02-4.26l2.52-2.88c.6-.72 1.44-1.14 2.4-1.2.9-.06 1.86.24 2.52.84l.24.18c.72.6 1.14 1.44 1.2 2.4s-.18 1.86-.84 2.52L48.36 36c-.36.54-.96.78-1.62.78zM48 29.04h-.12a1.46 1.46 0 0 0-1.08.54l-2.52 2.88c-.12.18 0 .96.78 1.62l.24.18c.78.66 1.56.72 1.68.54l2.52-2.88c.24-.3.42-.72.36-1.14s-.24-.84-.6-1.14l-.24-.18a1.45 1.45 0 0 0-1.02-.42z" class="B"/><path d="M44.7 28.56l-.24-.18c-1.08-.96-1.5-2.28-.9-2.94l2.52-2.88c.9-1.08 2.52-1.14 3.6-.24l.24.18c1.08.96 1.2 2.58.3 3.6l-2.52 2.88c-.54.72-1.92.54-3-.42z" class="C"/><path d="M46.74 30.36c-.84 0-1.8-.36-2.64-1.08l-.24-.18c-1.5-1.32-1.92-3.18-1.02-4.26l2.52-2.88c1.26-1.44 3.48-1.56 4.92-.3l.24.18c.72.6 1.14 1.44 1.2 2.4s-.18 1.86-.84 2.52l-2.52 2.88c-.36.48-.96.72-1.62.72zM48 22.62a1.6 1.6 0 0 0-1.2.54l-2.52 2.88c-.12.18 0 .96.78 1.62l.24.18c.78.66 1.56.72 1.68.54l2.52-2.88c.24-.3.42-.72.36-1.14s-.24-.84-.6-1.14l-.24-.18c-.24-.24-.66-.42-1.02-.42zM35.76 37.74h-5.64v1.86h5.64v-1.86zm-8.94-16.08l2.4-2.34 2.1 2.04 6.48-6.54 2.7 2.7-8.94 8.88-4.74-4.74z" class="B"/></svg>