<svg xmlns="http://www.w3.org/2000/svg" width="50" height="50" fill="none">
    <style><![CDATA[.B{fill-rule:evenodd}.C{fill:#4c739e}.D{fill:#a3d4ff}]]></style>
    <g clip-path="url(#A)">
        <path d="M25 39.766c6.904 0 12.5-5.596 12.5-12.5s-5.596-12.5-12.5-12.5-12.5 5.597-12.5 12.5 5.596 12.5 12.5 12.5z"
              fill="#f4f8ff"/>
        <path d="M36.82 12.627c.318-.333.846-.344 1.178-.026 3.752 3.589 6.039 8.569 6.039 14.118 0 8.166-5.063 15.18-12.237 18.115-.426.174-.913-.03-1.087-.456s.03-.913.456-1.087c6.576-2.69 11.201-9.114 11.201-16.572 0-5.076-2.088-9.627-5.524-12.913-.333-.318-.344-.846-.026-1.178z"
              class="B C"/>
        <path d="M41.328 36.484c2.969.469 6.406-.234 7.266-6.016-3.672-.469-6.562 1.719-7.266 6.016z" class="D"/>
        <path d="M43.324 31.041c1.468-1.185 3.343-1.658 5.375-1.399.222.028.424.145.559.324s.193.404.16.626c-.453 3.044-1.614 4.925-3.223 5.935-1.582.993-3.421 1.03-4.997.781-.219-.035-.415-.155-.545-.335s-.183-.404-.147-.623c.377-2.305 1.357-4.128 2.818-5.309zm-.993 4.716c1.082.063 2.115-.101 2.978-.643.944-.593 1.825-1.726 2.297-3.875-1.264.005-2.361.392-3.235 1.098-.915.739-1.642 1.874-2.041 3.42z"
              class="B C"/>
        <path d="M35.391 42.5c2.422 1.797 5.781 2.813 9.297-1.875-2.969-2.266-6.641-1.641-9.297 1.875z" class="D"/>
        <path d="M39.764 38.576c1.877-.362 3.775.124 5.429 1.386.364.278.436.797.161 1.163-1.851 2.468-3.77 3.572-5.669 3.7-1.867.127-3.51-.705-4.791-1.656-.178-.132-.297-.331-.328-.551s.026-.444.16-.621c1.423-1.884 3.173-3.062 5.038-3.421zm-3.147 3.746c.935.565 1.93.91 2.955.84 1.124-.076 2.448-.663 3.896-2.349-1.107-.63-2.267-.817-3.389-.601-1.172.226-2.371.906-3.462 2.11z"
              class="B C"/>
        <path d="M43.594 27.891c2.969-.312 6.172-1.875 5.547-7.656-3.672.391-6.016 3.281-5.547 7.656z" class="D"/>
        <path d="M49.053 19.406c.457-.049.867.282.917.739.33 3.051-.338 5.16-1.65 6.542-1.289 1.358-3.062 1.866-4.638 2.032-.457.048-.867-.283-.916-.74-.252-2.353.245-4.391 1.382-5.91s2.865-2.446 4.905-2.663zm-4.684 7.525c1.063-.218 2.032-.642 2.742-1.391.776-.817 1.352-2.139 1.268-4.33-1.23.299-2.215.946-2.897 1.858-.712.952-1.137 2.25-1.113 3.863z"
              class="B C"/>
        <path d="M42.266 20.156c2.578-1.562 4.766-4.297 1.641-9.297-3.125 1.953-3.984 5.547-1.641 9.297z" class="D"/>
        <path d="M43.465 10.153c.39-.244.904-.125 1.148.265 1.644 2.63 1.982 4.82 1.406 6.632-.567 1.782-1.956 2.992-3.321 3.819-.39.236-.897.116-1.139-.271-1.259-2.015-1.703-4.063-1.342-5.923.362-1.865 1.513-3.439 3.247-4.523zm-.916 8.813c-.736-1.452-.921-2.807-.695-3.973.216-1.112.819-2.118 1.793-2.923 1.057 1.97 1.122 3.412.784 4.475-.31.975-1.002 1.768-1.882 2.421z"
              class="B C"/>
        <path d="M38.047 13.594c.703-2.891.391-6.328-5.312-7.813-.937 3.594 1.016 6.719 5.313 7.813z" class="D"/>
        <g class="B C">
            <path d="M31.928 5.571c.116-.445.571-.712 1.016-.596 2.997.78 4.749 2.122 5.594 3.813.832 1.663.689 3.478.318 5.003a.84.84 0 0 1-.38.517c-.19.115-.419.148-.635.094-2.3-.586-4.06-1.739-5.108-3.315-1.054-1.586-1.328-3.514-.806-5.515zm1.45 1.268c-.151 1.254.119 2.384.744 3.325.655.986 1.743 1.827 3.286 2.368.156-1.064.093-2.094-.36-2.999-.498-.997-1.545-1.991-3.669-2.694zm-20.204 5.782c.322.329.316.857-.013 1.178-3.37 3.295-5.53 7.851-5.53 12.92 0 7.459 4.625 13.882 11.201 16.572.426.174.63.661.456 1.087s-.661.63-1.087.456c-7.174-2.935-12.237-9.949-12.237-18.115 0-5.556 2.37-10.531 6.032-14.111.329-.322.857-.316 1.178.013z"/>
        </g>
        <path d="M8.672 36.484c-2.969.469-6.406-.234-7.266-6.016 3.672-.469 6.563 1.719 7.266 6.016z" class="D"/>
        <path d="M2.394 31.24c.472 2.149 1.353 3.282 2.297 3.875.864.542 1.896.706 2.978.643-.398-1.546-1.126-2.681-2.041-3.42-.874-.706-1.971-1.093-3.235-1.098zm4.282-.198c1.462 1.181 2.441 3.004 2.818 5.309.036.219-.017.443-.147.623s-.326.3-.545.335c-1.576.249-3.415.212-4.997-.781-1.609-1.01-2.77-2.891-3.223-5.935-.033-.221.025-.447.16-.626s.337-.295.559-.324c2.032-.259 3.908.214 5.375 1.399z"
              class="B C"/>
        <path d="M14.609 42.5c-2.422 1.797-5.781 2.813-9.297-1.875 2.969-2.266 6.641-1.641 9.297 1.875z" class="D"/>
        <path d="M6.531 40.814c1.449 1.686 2.773 2.273 3.896 2.349 1.025.07 2.02-.275 2.955-.84-1.091-1.204-2.291-1.884-3.463-2.11-1.122-.216-2.282-.029-3.389.601zm3.705-2.238c1.866.36 3.615 1.537 5.038 3.421.134.177.191.401.16.621s-.15.418-.328.551c-1.282.951-2.924 1.783-4.791 1.656-1.899-.129-3.818-1.232-5.669-3.7-.275-.366-.203-.885.161-1.163 1.654-1.262 3.552-1.748 5.429-1.386z"
              class="B C"/>
        <path d="M6.406 27.891C3.438 27.578.234 26.016.859 20.234c3.672.391 6.016 3.281 5.547 7.656z" class="D"/>
        <path d="M.031 20.145c.049-.457.46-.788.917-.739 2.04.217 3.765 1.139 4.905 2.663s1.634 3.557 1.382 5.91c-.049.457-.459.788-.916.74-1.576-.166-3.349-.674-4.638-2.032-1.312-1.382-1.98-3.491-1.65-6.542zm1.591 1.065c-.085 2.191.492 3.512 1.268 4.33.71.749 1.679 1.173 2.742 1.391.023-1.613-.401-2.911-1.113-3.863-.682-.911-1.666-1.558-2.896-1.858z"
              class="B C"/>
        <path d="M7.734 20.156c-2.578-1.562-4.766-4.297-1.641-9.297 3.125 1.953 3.984 5.547 1.641 9.297z" class="D"/>
        <path d="M5.906 10.048c.215-.05.442-.012.629.105 1.734 1.084 2.886 2.658 3.248 4.523.361 1.859-.082 3.908-1.342 5.923-.242.387-.749.507-1.139.271-1.365-.827-2.754-2.038-3.321-3.819-.577-1.812-.238-4.002 1.406-6.632.117-.187.304-.321.519-.37zm.447 2.022c-1.057 1.97-1.122 3.412-.784 4.474.31.975 1.002 1.768 1.882 2.421.736-1.452.921-2.808.695-3.973-.216-1.112-.818-2.118-1.793-2.923z"
              class="B C"/>
        <path d="M11.953 13.594c-.703-2.891-.391-6.328 5.313-7.813.938 3.594-1.016 6.719-5.312 7.813z" class="D"/>
        <g class="B">
            <path d="M17.056 4.975c.445-.116.9.151 1.016.596.522 2.001.248 3.929-.806 5.515-1.047 1.577-2.808 2.73-5.108 3.315-.216.055-.444.021-.635-.094s-.328-.301-.38-.517c-.371-1.526-.513-3.34.318-5.003.845-1.69 2.597-3.033 5.594-3.813zm-4.463 7.557c1.543-.541 2.63-1.382 3.286-2.368.625-.941.895-2.071.744-3.325-2.124.703-3.171 1.697-3.669 2.694-.453.905-.516 1.935-.36 2.999z"
                  class="C"/>
            <g fill="#dfeeff">
                <path d="M18.946 13.685c.208.41.045.912-.365 1.12-4.493 2.284-7.591 7.001-7.591 12.46 0 4.05 1.767 7.738 4.575 10.325.338.312.36.839.048 1.177s-.839.36-1.178.048c-3.129-2.882-5.112-7.007-5.112-11.55 0-6.103 3.465-11.386 8.503-13.946.41-.208.912-.045 1.12.365zm11.791-.147c.203-.413.703-.583 1.116-.38 5.192 2.555 8.825 7.914 8.825 14.107 0 4.544-1.983 8.668-5.113 11.551-.339.312-.866.29-1.178-.048s-.29-.866.048-1.177c2.808-2.586 4.575-6.275 4.575-10.325 0-5.526-3.242-10.323-7.894-12.612-.413-.203-.583-.703-.38-1.116z"/>
            </g>
        </g>
        <path d="M25 18.672l2.656 5.625 5.938.625-4.297 4.453 1.016 5.703-5.312-2.5-5.312 2.5 1.016-5.703-4.297-4.453 5.938-.625L25 18.672z"
              class="D"/>
        <path d="M25 17.839c.322 0 .616.186.753.477l2.456 5.201 5.471.576c.317.033.587.244.696.544s.038.635-.183.864l-4.001 4.147.941 5.284c.055.307-.066.618-.314.808s-.58.225-.861.092L25 33.499l-4.958 2.333c-.282.133-.614.097-.861-.092s-.368-.501-.314-.808l.941-5.284-4.001-4.147c-.221-.229-.292-.564-.183-.864s.379-.51.696-.544l5.471-.576 2.456-5.201c.138-.291.431-.477.753-.477zm0 2.785l-1.903 4.029c-.124.263-.377.442-.666.473l-4.239.446 3.111 3.224c.185.192.268.462.221.725l-.733 4.117 3.855-1.814c.225-.106.485-.106.71 0l3.855 1.814-.733-4.117c-.047-.263.035-.532.221-.725l3.111-3.224-4.239-.446c-.289-.03-.542-.21-.666-.473L25 20.624z"
              class="B C"/>
    </g>
    <defs>
        <clipPath id="A">
            <path fill="#fff" transform="translate(0 5)" d="M0 0h50v39.922H0z"/>
        </clipPath>
    </defs>
</svg>