<svg xmlns:v="https://vecta.io/nano" xmlns="http://www.w3.org/2000/svg" width="60" height="60" fill="none"><g clip-path="url(#A)"><path d="M14.33 14.3l4.675-10.278L20.02 2.2h17.073l5.69 12.11h8.13L56.2 26.623l-.508 28.595L54.27 60H3.455L.6 56.845 0 26.623 5.386 14.3h8.943z" fill="#a3d4ff"/><g fill="#fff"><path d="M42.5 14.4l-4.1-7.5-.9 28.5 5 10v-31zM1.2 25.72l3.772-7.52.828 28.574L1.2 56.8V25.72zm54.4-.62l-4.1-7.5-.9 28.5 5 10v-31zM24 7.8h8.8v8H24v-8z"/></g><g fill="#4c739e"><path d="M56.973 25.195l-4.918-11.803c-.152-.366-.5-.605-.908-.605H43.04c-.055 0-.104-.033-.125-.083L38.285 1.6c-.152-.366-.5-.605-.908-.605H19.672c-.396 0-.755.24-.908.605l-4.632 11.115c-.02.05-.07.083-.125.083H5.902c-.396 0-.755.24-.908.605L.076 25.195a.98.98 0 0 0-.076.379v33.44c.007.198.057.386.165.55a1 1 0 0 0 .818.438h55.082c.328 0 .635-.164.818-.438a.96.96 0 0 0 .158-.543l.007-33.446a.98.98 0 0 0-.076-.379zM43.28 14.9c0-.075.06-.135.135-.135h6.615c.075 0 .135.06.135.135v31.205c0 .075-.06.135-.135.135h-6.615c-.075 0-.135-.06-.135-.135V14.9zm-4.92-7.33c0-.148.203-.188.26-.052l2.68 6.433a.13.13 0 0 1 .01.052V41.62c0 .148-.203.188-.26.052l-2.68-6.433c-.007-.017-.01-.034-.01-.052V7.56zM20.656 3.086c0-.075.06-.135.135-.135h15.467c.075 0 .135.06.135.135V34.3c0 .075-.06.135-.135.135H20.8c-.075 0-.135-.06-.135-.135V3.086zm-.362 33.4c.02-.05.07-.083.125-.083h16.21c.055 0 .104.033.125.083l3.986 9.566c.037.1-.028.187-.125.187H16.432c-.096 0-.162-.098-.125-.187l3.986-9.566zm-4.556-22.482c0-.018.003-.035.01-.052L18.43 7.5c.057-.136.26-.096.26.052v27.625c0 .018-.004.035-.01.052L16 41.66c-.057.136-.26.096-.26-.052V13.994zm-8.852.895c0-.075.06-.135.135-.135h6.615c.075 0 .135.06.135.135v31.205c0 .075-.06.135-.135.135H7.02c-.075 0-.135-.06-.135-.135V14.9zm-4.92 10.91c0-.018.004-.035.01-.052l2.68-6.432c.057-.136.26-.096.26.052V47a.15.15 0 0 1-.01.052l-2.68 6.433c-.057.136-.26.096-.26-.052V25.798zm.695 32.235c-.096 0-.162-.098-.125-.187l3.986-9.566c.02-.05.07-.083.125-.083H22.86c.055 0 .104.033.125.083l3.986 9.566c.037.1-.028.187-.125.187H2.662zm22.498-9.65c-.037-.1.028-.187.125-.187h6.48c.096 0 .162.098.125.187l-3.24 7.776c-.046.1-.203.1-.25 0l-3.24-7.776zm5.043 9.65c-.096 0-.162-.098-.125-.187l3.986-9.566c.02-.05.07-.083.125-.083H50.4c.054 0 .104.033.125.083l3.986 9.566c.037.1-.028.187-.125.187H30.203zm24.88-4.6c0 .148-.203.188-.26.052l-2.68-6.433a.13.13 0 0 1-.01-.052V19.364c0-.148.203-.188.26-.052l2.68 6.433c.007.017.01.034.01.052v27.625zM32.46 6.885H24.6c-.544 0-.984.44-.984.984v7.87c0 .544.44.984.984.984h7.87c.544 0 .984-.44.984-.984V7.87c0-.544-.44-.984-.984-.984zm-.984 7.87h-5.902V8.852h5.902v5.902zm1.967 5.9H24.6v1.967h8.852v-1.967zm0 7.87H24.6v1.967h8.852v-1.967zM26.557 24.6H24.6v1.967h1.967V24.6zm3.935 0h-1.967v1.967h1.967V24.6z"/></g></g><defs><clipPath id="A"><path fill="#fff" d="M0 0h60v60H0z"/></clipPath></defs></svg>