<svg xmlns="http://www.w3.org/2000/svg" width="50" height="50" fill="none">
    <style><![CDATA[.B{fill-rule:evenodd}.C{fill:#4c739e}.D{fill:#a3d4ff}]]></style>
    <path d="M47.004 32.021c2.36-10.325-3.935-20.558-14.062-22.951l.383-1.622c11.032 2.607 17.853 13.731 15.31 24.92-.086.51-.249 1.006-.39 1.436l-.009.027-1.584-.519c.153-.467.28-.859.342-1.239l.004-.026.006-.025zM24.075 48.024c-4.13-.951-7.626-3.168-10.334-6.079l1.22-1.135c2.509 2.696 5.72 4.723 9.49 5.591l.004.001c6.77 1.594 13.549-.794 17.98-5.59l1.224 1.131c-4.811 5.208-12.193 7.821-19.584 6.081z"
          fill="#dfeeff" class="B"/>
    <path d="M18.152 34.329c8.644 0 15.652-7.125 15.652-15.915S26.797 2.5 18.152 2.5 2.5 9.625 2.5 18.415s7.008 15.915 15.652 15.915z"
          fill="#f4f8ff"/>
    <path d="M28.96 43.574c8.439 0 15.28-6.956 15.28-15.536s-6.841-15.536-15.28-15.536S13.68 19.459 13.68 28.039s6.841 15.536 15.279 15.536z"
          fill="#fff"/>
    <path d="M38.768 16.06h-3.727l-2.236 2.274v1.516h-2.236l-2.236 1.516v1.516h3.727l.745.758h1.491l1.491 1.516h2.981l1.491 1.516 1.491-1.516h2.981"
          class="D"/>
    <g class="B C">
        <path d="M34.867 15.643h3.901v.833h-3.552l-1.994 2.027v1.762h-2.525l-1.947 1.32v.878h3.485l.745.758h1.491l1.491 1.516h2.981l1.316 1.338 1.316-1.338h3.156v.833h-2.807l-1.665 1.693-1.665-1.693h-2.981l-1.491-1.516h-1.491l-.745-.758h-3.969v-2.153l2.525-1.711h1.947v-1.27l2.478-2.52z"/>
        <path d="M43.406 28.039c0-7.752-5.928-14.056-13.392-14.629l.128-1.662c8.338.64 14.931 7.673 14.931 16.291 0 9.011-7.217 16.369-16.113 16.369s-16.113-7.358-16.113-16.369c0-2.072.391-4.144 1.099-5.983l1.555.599a15.18 15.18 0 0 0-.988 5.384c0 8.117 6.497 14.702 14.446 14.702s14.446-6.586 14.446-14.702z"/>
    </g>
    <path d="M33.059 29.175h-1.491l-2.236-2.273h-2.981l-2.236 2.273 1.491 3.789h2.236l1.491 1.516v3.789l.745.758h1.491l2.236-2.273V34.48l2.236-2.274-2.981-3.031z"
          class="D"/>
    <path d="M26.176 26.485h3.331l2.236 2.274h1.491l3.391 3.448-2.404 2.444v2.274l-2.478 2.52h-1.84l-.987-1.004v-3.789l-1.249-1.27h-2.345l-1.694-4.305 2.548-2.591zm.349.833l-1.924 1.956 1.288 3.273h2.127l1.733 1.762v3.789l.503.512h1.141l1.994-2.027V34.31l2.068-2.103-2.572-2.615h-1.491l-2.236-2.274h-2.632z"
          class="B C"/>
    <path d="M20.833 6.06c-3.67 0-6.667 3.063-6.667 6.812 0 5.875 5.688 6.688 6.177 12.688 0 .25.245.5.489.5s.489-.187.489-.5c.489-6 6.177-6.75 6.177-12.687 0-3.75-2.997-6.812-6.667-6.812z"
          class="D"/>
    <path d="M13.333 12.872c0-4.193 3.353-7.646 7.5-7.646s7.5 3.453 7.5 7.646c0 3.303-1.62 5.181-3.114 6.872l-.062.07c-1.462 1.655-2.779 3.146-3.002 5.787a1.32 1.32 0 0 1-1.322 1.292c-.4 0-.725-.195-.932-.407-.2-.204-.377-.513-.39-.883-.223-2.651-1.549-4.159-3.016-5.828l-.05-.056c-1.49-1.696-3.113-3.574-3.113-6.847zm7.5-5.979C17.641 6.893 15 9.565 15 12.872c0 2.602 1.222 4.067 2.698 5.747l.113.128c1.141 1.297 2.408 2.736 3.023 4.861.614-2.114 1.876-3.541 3.014-4.828l.123-.139c1.473-1.668 2.697-3.134 2.697-5.769 0-3.307-2.641-5.979-5.833-5.979z"
          class="B C"/>
    <path d="M20.833 15.226a2.5 2.5 0 1 0 0-5 2.5 2.5 0 1 0 0 5z" fill="#fff"/>
    <path d="M20.833 11.06c-.92 0-1.667.746-1.667 1.667s.746 1.667 1.667 1.667 1.667-.746 1.667-1.667-.746-1.667-1.667-1.667zM17.5 12.726c0-1.841 1.492-3.333 3.333-3.333s3.333 1.492 3.333 3.333-1.492 3.333-3.333 3.333-3.333-1.492-3.333-3.333z"
          class="B C"/>
</svg>