<svg xmlns:v="https://vecta.io/nano" xmlns="http://www.w3.org/2000/svg" width="60" height="60" fill="none"><path d="M36.31 18.59l-1.56-3.78-1.075-.494-1.855.616-.954-.303c-.685-.867-1.456-1.64-2.306-2.306l-.303-.954.616-1.855-.494-1.075-3.78-1.56-1.1.416-.876 1.75-.893.468a13.23 13.23 0 0 0-3.26 0l-.893-.468-.876-1.75-1.1-.416-3.78 1.57-.494 1.075.616 1.855-.303.954c-.867.685-1.64 1.457-2.306 2.306l-.954.303-1.855-.615-1.075.486-1.56 3.78.416 1.1 1.75.876.468.893a13.23 13.23 0 0 0 0 3.26l-.468.893-1.75.876-.416 1.1 1.57 3.78 1.075.494 1.855-.616.954.303a13.82 13.82 0 0 0 2.306 2.306l.303.954-.616 1.855.494 1.075 3.78 1.56 1.1-.416.876-1.75.893-.468c1.075.13 2.167.14 3.26 0l.893.468.876 1.75 1.1.416 3.78-1.57.494-1.075-.616-1.855.303-.954c.867-.685 1.64-1.456 2.306-2.306l.954-.303 1.855.616 1.075-.494 1.57-3.78-.416-1.1-1.75-.876-.468-.893c.13-1.075.14-2.167 0-3.26l.468-.893 1.75-.876.4-1.092z" fill="#a3d4ff"/><path d="M24.598 40.178a.89.89 0 0 1-.303-.052l-1.1-.416c-.208-.078-.373-.225-.468-.425l-.746-1.5-.407-.217c-.97.095-1.95.095-2.93 0l-.408.217-.754 1.5c-.095.2-.27.347-.468.425l-1.1.416c-.208.078-.434.07-.633-.01l-3.78-1.56c-.2-.087-.364-.243-.46-.442l-.494-1.075c-.087-.2-.104-.425-.035-.633l.53-1.587-.14-.433a13.77 13.77 0 0 1-2.072-2.072l-.442-.14-1.587.53c-.208.07-.433.052-.633-.035l-1.075-.494a.85.85 0 0 1-.442-.459l-1.56-3.78a.84.84 0 0 1-.009-.633l.416-1.1c.078-.208.225-.373.425-.468l1.5-.746.208-.425c-.095-.97-.095-1.95 0-2.93l-.217-.407-1.5-.746c-.2-.095-.347-.27-.425-.468l-.416-1.1c-.078-.208-.07-.433.01-.633l1.56-3.78c.087-.2.243-.364.442-.46l1.075-.494c.2-.095.425-.104.633-.035l1.613.538.433-.14c.616-.763 1.31-1.456 2.072-2.072l.14-.442-.53-1.587c-.07-.208-.06-.433.035-.633l.494-1.075a.88.88 0 0 1 .459-.442l3.78-1.57a.84.84 0 0 1 .633-.009l1.1.416c.208.078.373.225.468.425l.746 1.5.4.208c.97-.095 1.95-.095 2.93 0l.408-.217.754-1.5c.095-.2.27-.347.468-.425l1.1-.416c.208-.078.434-.07.633.01l3.78 1.57c.2.087.364.243.46.442l.494 1.075c.087.2.104.425.035.633l-.538 1.604.14.433c.763.616 1.456 1.31 2.072 2.072l.442.14 1.586-.53c.208-.07.434-.06.633.035l1.075.494a.85.85 0 0 1 .442.459l1.56 3.78a.84.84 0 0 1 .009.633l-.416 1.1c-.078.208-.225.373-.425.468l-1.5.746-.217.408c.095.97.095 1.95 0 2.93l.217.407 1.5.754c.2.095.347.27.425.468l.416 1.1c.078.208.07.433-.01.633l-1.56 3.78c-.087.2-.243.364-.442.46l-1.075.494c-.2.087-.425.104-.633.035l-1.586-.53-.433.14a13.77 13.77 0 0 1-2.072 2.072l-.14.442.53 1.587c.07.208.06.433-.035.633l-.494 1.075a.88.88 0 0 1-.46.442l-3.78 1.57c-.104.017-.217.043-.33.043zm-.485-1.977l.468.173 3.147-1.3.208-.45-.512-1.534c-.06-.173-.06-.364 0-.538l.303-.954c.052-.165.156-.312.295-.425.798-.633 1.526-1.36 2.16-2.16.113-.14.25-.243.425-.295l.962-.303c.173-.052.364-.052.53.01l1.535.512.45-.208 1.3-3.147-.173-.468-1.448-.72c-.165-.078-.295-.208-.38-.373l-.468-.893a.92.92 0 0 1-.095-.503 12.83 12.83 0 0 0 0-3.052c-.017-.173.01-.347.095-.503l.425-.815c.087-.165.25-.364.416-.442l1.44-.72.173-.468-1.3-3.147-.45-.208-1.535.51a.85.85 0 0 1-.529.009l-.954-.303c-.165-.052-.312-.156-.425-.295-.633-.798-1.36-1.526-2.16-2.16-.14-.104-.243-.252-.295-.425l-.303-.954c-.052-.173-.052-.364 0-.537l.51-1.535-.208-.45-3.147-1.3-.468.173-.72 1.422a.88.88 0 0 1-.373.381l-.893.468a.92.92 0 0 1-.503.095 12.83 12.83 0 0 0-3.052 0c-.173.026-.347-.01-.503-.095l-.893-.468c-.165-.087-.295-.217-.373-.38l-.72-1.44-.468-.173-3.147 1.3-.208.45.51 1.534c.06.173.06.364 0 .538l-.303.954c-.052.165-.156.312-.295.425a12.36 12.36 0 0 0-2.15 2.159c-.113.14-.25.243-.425.295l-.954.303c-.173.052-.364.052-.53-.01l-1.543-.51-.45.208-1.3 3.147.173.468 1.448.72a.88.88 0 0 1 .381.373l.468.884a.92.92 0 0 1 .095.503c-.12 1.014-.12 2.046 0 3.052.017.173-.01.347-.095.503l-.468.884c-.087.165-.217.295-.38.373l-1.44.72-.173.468 1.3 3.147.45.208L8.11 30.4c.173-.06.355-.06.538-.01l.954.303c.165.052.312.156.425.295a13.38 13.38 0 0 0 2.159 2.159c.14.104.243.25.295.425l.303.962c.052.173.052.364 0 .538l-.51 1.535.208.45 3.147 1.3.468-.173.72-1.448a.88.88 0 0 1 .373-.381l.893-.468a.92.92 0 0 1 .503-.095 12.83 12.83 0 0 0 3.052 0c.173-.026.347.01.503.095l.893.468c.165.087.295.217.373.38l.71 1.465z" fill="#4c739e"/><path d="M47.078 27.356l-.867-1.5c.564-.32.997-.815 1.24-1.413.304-.72.304-1.517 0-2.245-.303-.72-.867-1.292-1.586-1.586-1.5-.616-3.216.095-3.832 1.586l-1.604-.668a4.68 4.68 0 0 1 6.103-2.523c1.153.477 2.046 1.378 2.53 2.523a4.64 4.64 0 0 1 0 3.572 4.62 4.62 0 0 1-1.985 2.254zM55.1 37.68l-.84-2.03-1.136-.468-1.396.58-1.014-.27a8.67 8.67 0 0 0-1.092-1.092l-.27-1.014.58-1.396-.468-1.136-2.03-.84-1.136.468-.58 1.396-.9.53c-.5-.043-1.023-.043-1.543 0l-.9-.53-.58-1.396-1.136-.468-2.03.84L38.15 32l.58 1.396-.27 1.014c-.4.32-.754.685-1.084 1.084l-1.014.27-1.396-.58-1.136.468-.84 2.03.468 1.136 1.396.58.53.9a9.16 9.16 0 0 0 0 1.543l-.53.9-1.396.58-.468 1.136.84 2.03 1.136.468 1.396-.58 1.014.27a8.67 8.67 0 0 0 1.092 1.092l.27 1.014-.58 1.396.468 1.136 2.03.84 1.136-.468.58-1.396.9-.53a9.18 9.18 0 0 0 1.543 0l.9.53.58 1.396 1.136.468 2.03-.84.468-1.136-.58-1.396.27-1.014a8.67 8.67 0 0 0 1.092-1.092l1.014-.27 1.396.58 1.136-.468.84-2.03-.468-1.136-1.396-.58-.53-.9c.043-.5.043-1.023 0-1.543l.53-.9 1.396-.58.46-1.127z" fill="#dfeeff"/><path d="M47.425 53a.86.86 0 0 1-.329-.069l-1.136-.468c-.217-.087-.382-.26-.468-.468l-.468-1.127-.425-.243a8.25 8.25 0 0 1-1.136 0l-.425.243-.468 1.127c-.087.217-.26.38-.468.468l-1.136.468a.89.89 0 0 1-.667 0l-2.03-.84c-.217-.087-.382-.26-.468-.468l-.46-1.136a.89.89 0 0 1 0-.667l.468-1.127-.13-.468a8.84 8.84 0 0 1-.806-.806l-.468-.13-1.127.468a.89.89 0 0 1-.668 0l-1.136-.468c-.217-.087-.38-.26-.468-.468l-.84-2.03c-.087-.217-.087-.45 0-.66l.468-1.136c.087-.217.26-.38.468-.468l1.127-.468.243-.425a8.28 8.28 0 0 1 0-1.136l-.243-.425-1.127-.468c-.217-.087-.38-.26-.468-.468l-.468-1.136c-.087-.208-.087-.45 0-.66l.84-2.03c.087-.217.26-.382.468-.468l1.136-.468a.89.89 0 0 1 .668 0l1.127.468.468-.13c.25-.286.52-.555.806-.806l.12-.468-.468-1.127a.89.89 0 0 1 0-.668l.468-1.136c.087-.208.26-.38.468-.468l2.03-.84a.89.89 0 0 1 .667 0l1.136.468c.217.087.382.26.468.468l.468 1.127.425.243H44.6l.425-.243.468-1.127c.087-.217.26-.38.468-.468l1.136-.468a.89.89 0 0 1 .667 0l2.03.84c.217.087.382.26.468.468l.468 1.127a.89.89 0 0 1 0 .668l-.468 1.127.13.468a8.84 8.84 0 0 1 .806.806l.468.13 1.127-.468a.89.89 0 0 1 .667 0l1.136.468c.217.087.38.26.468.468l.832 2.037a.89.89 0 0 1 0 .668l-.468 1.136c-.087.208-.26.38-.468.468l-1.127.468-.243.425c.026.38.026.763 0 1.136l.243.425 1.127.468c.217.087.38.26.468.468l.468 1.127a.89.89 0 0 1 0 .667l-.84 2.03c-.087.217-.26.38-.468.468l-1.136.468a.89.89 0 0 1-.668 0l-1.127-.468-.468.13a8.85 8.85 0 0 1-.806.806l-.12.468.468 1.127a.89.89 0 0 1 0 .668l-.468 1.136c-.087.217-.26.38-.468.468l-2.03.84c-.113.035-.225.06-.338.06zm-.468-2.003l.468.19 1.37-.564.19-.468-.442-1.066a.87.87 0 0 1-.035-.555l.27-1.014a.88.88 0 0 1 .277-.442 7.47 7.47 0 0 0 .98-.98c.113-.14.27-.234.442-.286l1.014-.27a.87.87 0 0 1 .555.035l1.066.442.468-.19.563-1.37-.19-.468-1.066-.442a.85.85 0 0 1-.416-.364l-.53-.9c-.087-.156-.13-.338-.113-.51.043-.46.043-.928 0-1.387-.017-.182.026-.355.113-.51l.53-.9a.85.85 0 0 1 .416-.364l1.066-.442.19-.468-.598-1.38-.433-.182-1.066.442a.87.87 0 0 1-.555.035l-1.014-.27a.84.84 0 0 1-.442-.286 7.47 7.47 0 0 0-.98-.98c-.14-.113-.234-.27-.286-.442l-.27-1.014a.87.87 0 0 1 .035-.555l.442-1.066-.19-.468-1.37-.564-.468.19-.442 1.066a.85.85 0 0 1-.364.416l-.9.53c-.156.087-.338.13-.51.113-.46-.043-.928-.043-1.387 0a.89.89 0 0 1-.512-.113l-.9-.53a.85.85 0 0 1-.364-.416l-.442-1.066-.468-.19-1.37.564-.19.468.442 1.066a.87.87 0 0 1 .035.555l-.27 1.014a.84.84 0 0 1-.286.442 7.47 7.47 0 0 0-.98.98c-.113.14-.27.234-.442.277l-.98.26a.98.98 0 0 1-.59-.026l-1.066-.442-.468.19-.563 1.37.19.468 1.066.442a.85.85 0 0 1 .416.364l.53.9c.087.156.13.33.113.51-.043.46-.043.928 0 1.387.017.182-.026.355-.113.51l-.53.9a.85.85 0 0 1-.416.364l-1.066.442-.19.468.563 1.37.468.19 1.066-.442a.87.87 0 0 1 .555-.035l1.014.27a.88.88 0 0 1 .442.277 7.47 7.47 0 0 0 .98.98c.14.113.234.27.277.442l.27 1.014a.87.87 0 0 1-.035.555l-.442 1.066.19.468 1.37.563.468-.19.442-1.066a.85.85 0 0 1 .364-.416l.9-.53c.156-.087.338-.13.51-.113.468.043.928.043 1.387 0 .182-.017.355.026.512.113l.9.53a.85.85 0 0 1 .364.416l.46 1.084z" fill="#4c739e"/><path d="M53.294 30.407c-.13 0-.26-.026-.38-.087l-1.907-.928.763-1.56 1.587.772.477-.165.616-1.274-.165-.477-.988-.485a.87.87 0 0 1-.399-.39l-.468-.936c-.078-.156-.113-.338-.087-.52a6.96 6.96 0 0 0 .078-1.344c0-.182.043-.355.147-.503l.563-.85c.104-.156.277-.303.45-.364l1.04-.364.225-.46-.46-1.335-.46-.225-1.04.364a.87.87 0 0 1-.555 0l-.997-.33a.84.84 0 0 1-.425-.303 8.14 8.14 0 0 0-.893-1.006c-.13-.12-.217-.286-.25-.46l-.2-1.023c-.035-.19-.017-.38.07-.555l.486-.988-.165-.477-1.274-.615-.477.165-.485.988a.87.87 0 0 1-.39.399l-.936.468a.91.91 0 0 1-.52.087c-.442-.07-.902-.095-1.335-.078a.8.8 0 0 1-.503-.147l-.876-.58a.86.86 0 0 1-.338-.442l-.364-1.04-.46-.225-1.335.46-.225.46.58 1.665-1.64.564-.694-2.003c-.078-.217-.06-.46.043-.668l.538-1.1c.104-.208.277-.364.494-.442l2.02-.694a.83.83 0 0 1 .659.043l1.1.537c.208.104.364.277.442.494l.382 1.1.407.27a8.99 8.99 0 0 1 1.084.069l.433-.217.503-1.05c.104-.208.277-.364.494-.442l1.162-.4a.83.83 0 0 1 .659.043l1.916.936c.208.104.364.277.442.494l.4 1.162a.83.83 0 0 1-.043.659l-.51 1.05.095.477a7.94 7.94 0 0 1 .72.815l.468.156 1.1-.38a.83.83 0 0 1 .659.043l1.1.538c.208.104.364.277.442.494l.694 2.02a.83.83 0 0 1-.043.659l-.537 1.1c-.104.208-.277.364-.494.442l-1.1.38-.25.4a8.97 8.97 0 0 1-.069 1.084l.217.434 1.05.51c.208.104.364.277.442.494l.4 1.162a.83.83 0 0 1-.043.659l-.936 1.916c-.104.208-.277.364-.494.442l-1.162.4c-.07.043-.165.06-.27.06z" fill="#dfeeff"/><path d="M47.564 39.606a3.83 3.83 0 0 1-2.063 4.994 3.83 3.83 0 0 1-4.994-2.063 3.83 3.83 0 0 1 2.063-4.994 3.82 3.82 0 0 1 4.994 2.063z" fill="#fff"/><path d="M44.035 45.752c-1.838 0-3.59-1.092-4.335-2.896a4.69 4.69 0 0 1 2.54-6.121 4.69 4.69 0 0 1 6.121 2.54 4.69 4.69 0 0 1-2.54 6.121 4.62 4.62 0 0 1-1.786.355zm-.01-7.638c-.373 0-.754.07-1.127.225a2.95 2.95 0 0 0-1.595 3.858 2.96 2.96 0 0 0 3.858 1.595c1.51-.624 2.22-2.358 1.595-3.858a2.95 2.95 0 0 0-2.731-1.821z" fill="#4c739e"/><path d="M20.08 32.514a9.53 9.53 0 0 0 9.537-9.519 9.53 9.53 0 1 0-19.073 0 9.53 9.53 0 0 0 9.536 9.519z" fill="#fff"/><g fill="#4c739e"><path d="M20.08 33.4A10.41 10.41 0 0 1 9.677 23.014c0-5.73 4.664-10.386 10.404-10.386a10.41 10.41 0 0 1 10.403 10.386c0 5.722-4.664 10.386-10.404 10.386zm0-19.047c-4.777 0-8.67 3.884-8.67 8.652s3.893 8.652 8.67 8.652 8.67-3.884 8.67-8.652-3.893-8.652-8.67-8.652zm1.094 12.967h-1.96a2.61 2.61 0 0 1-2.601-2.601h1.734a.87.87 0 0 0 .867.867h1.96a.64.64 0 0 0 .642-.642c0-.286-.173-.53-.442-.616l-3.138-1.05a2.37 2.37 0 0 1-1.621-2.254 2.38 2.38 0 0 1 2.375-2.384h1.96a2.61 2.61 0 0 1 2.601 2.601h-1.734a.87.87 0 0 0-.867-.867H19a.64.64 0 0 0-.642.642c0 .277.173.53.442.616l3.138 1.05a2.37 2.37 0 0 1 1.621 2.254 2.38 2.38 0 0 1-2.375 2.384z"/><path d="M20.948 16.917h-1.734v2.6h1.734v-2.6zm0 9.537h-1.734v2.6h1.734v-2.6z"/></g></svg>