<svg xmlns:v="https://vecta.io/nano" xmlns="http://www.w3.org/2000/svg" width="60" height="60" fill="none"><path d="M30.9 59.1C46.972 59.1 60 46.072 60 30S46.972.9 30.9.9 1.8 13.93 1.8 30s13.03 29.1 29.1 29.1z" fill="#f4f8ff"/><path d="M30.5 3.4H4.6A3.8 3.8 0 0 0 .8 7.2v14.7a3.8 3.8 0 0 0 3.8 3.8h16.6l6.2 8.3c.3.4.8.2.8-.3v-8h2.2a3.8 3.8 0 0 0 3.8-3.8V7.2c.1-2.1-1.6-3.8-3.7-3.8z" fill="#fff"/><path d="M27.8 35.1c-.4 0-.8-.2-1.1-.5l-6-8H4.6C2 26.6 0 24.5 0 22V7.2c0-2.6 2.1-4.6 4.6-4.6h25.9c2.6 0 4.6 2.1 4.6 4.6v14.7c0 2.6-2.1 4.6-4.6 4.6h-1.4v7.2c0 .6-.4 1.1-.9 1.3-.1 0-.2.1-.4.1zM4.6 4.3C3 4.3 1.7 5.6 1.7 7.2v14.7c0 1.6 1.3 2.9 2.9 2.9h17l5.8 7.7v-7.7h3.1c1.6 0 2.9-1.3 2.9-2.9V7.2c0-1.6-1.3-2.9-2.9-2.9H4.6zM15 13.7h-1.7v1.7H15v-1.7zm6.8 0h-1.7v1.7h1.7v-1.7zm-3.4 0h-1.7v1.7h1.7v-1.7zm36.5 42.9H16.3v1.7h38.6v-1.7zm3.4 0h-1.7v1.7h1.7v-1.7zm-43.7 0h-1.7v1.7h1.7v-1.7zm-4.3 0H8.6v1.7h1.7v-1.7z" fill="#4c739e"/><path d="M37.7 39.4c2.375 0 4.3-2.283 4.3-5.1s-1.925-5.1-4.3-5.1-4.3 2.283-4.3 5.1 1.925 5.1 4.3 5.1z" fill="#fff"/><path d="M37.7 40.4c-2.9 0-5.2-2.7-5.2-6.1s2.3-6.1 5.2-6.1 5.2 2.7 5.2 6.1c0 3.3-2.3 6.1-5.2 6.1zm0-10.3c-1.8 0-3.3 1.9-3.3 4.2s1.5 4.2 3.3 4.2 3.3-1.9 3.3-4.2-1.4-4.2-3.3-4.2z" fill="#4c739e"/><path d="M27.5 57.4v-7.3c0-4 3.2-7.3 7.2-7.3h6.5l6-5.1v-10c0-.4.5-.7.9-.4l1.6 1.3c1.7 1.4 2.7 3.6 2.7 5.8v6.7l-7 6.9v9.4H27.5z" fill="#a3d4ff"/><path d="M46.3 58.3H26.6v-8.2c0-2.2.8-4.2 2.4-5.7 1.5-1.5 3.6-2.4 5.7-2.4h6.1l5.5-4.7v-9.6a1.3 1.3 0 0 1 .8-1.2c.5-.2 1.1-.2 1.5.2l1.6 1.3c1.9 1.6 3 4 3 6.5v7.1l-6.9 6.9v9.8zm-17.9-1.7h16.2v-8.9l6.9-6.9v-6.4c0-2-.9-3.9-2.4-5.2l-1-.8v9.7l-6.5 5.6h-6.8c-1.7 0-3.3.7-4.5 1.9s-1.9 2.8-1.9 4.5v6.5z" fill="#4c739e"/></svg>