<svg xmlns:v="https://vecta.io/nano" xmlns="http://www.w3.org/2000/svg" width="60" height="60" fill="none"><style><![CDATA[.B{fill-rule:evenodd}.C{fill:#4c739e}]]></style><path d="M30.632 58.686A23.98 23.98 0 0 0 54.608 34.71a23.98 23.98 0 0 0-23.976-23.976A23.98 23.98 0 0 0 6.655 34.71a23.98 23.98 0 0 0 23.976 23.976z" fill="#f4f8ff"/><path d="M26.462 3.436H21.25v12.51h5.212V3.436z" fill="#fff"/><path d="M20.294 2.48h7.123V16.9h-7.123V2.48zm1.91 1.91V15h3.3V4.392h-3.3z" class="B C"/><path d="M47.832 21.158L34.28 7.606 19.686 21.158v16.68h28.146v-16.68z" fill="#fff"/><g class="B C"><path d="M34.305 6.28l14.483 14.483v18.03H18.73V20.74L34.305 6.28zM20.64 21.575V36.88h26.235V21.554l-12.62-12.62-13.615 12.64zm11.764-1.025a.8.8 0 0 0-.817.817c0 .456.283.775.558.853l.02.006 3.837 1.286c1.033.443 1.83 1.5 1.83 2.65 0 1.43-1.12 2.728-2.728 2.728h-2.398a3.05 3.05 0 0 1-3.04-3.04h1.9a1.13 1.13 0 0 0 1.13 1.13h2.398a.8.8 0 0 0 .817-.817c0-.3-.234-.7-.64-.88l-3.692-1.23c-1.172-.346-1.922-1.48-1.922-2.684 0-1.607 1.3-2.728 2.728-2.728H34.8a3.05 3.05 0 0 1 3.041 3.04h-1.9a1.13 1.13 0 0 0-1.13-1.13h-2.398z"/><path d="M34.714 16.467v3.127h-1.9v-3.127h1.9zm-1.91 14.593v-3.127h1.9v3.127h-1.9z"/></g><path d="M48.353 22.2L33.76 7.606 19.165 22.2l-3.127-3.127L33.55 1.35l17.93 17.72-3.127 3.127z" fill="#a3d4ff"/><path d="M33.542 0l19.293 19.07-4.483 4.483L33.76 8.957 19.165 23.552 14.7 19.077 33.542 0zm.016 2.703L17.385 19.07l1.78 1.78L33.76 6.255 48.353 20.85l1.772-1.772L33.558 2.703z" class="B C"/><path d="M42.098 36.795l5.212-3.127s3.127-4.17 6.255-4.17 4.17 1.042 4.17 1.042l-7.297 10.424-8.86 7.818c-.313.313-.834.52-1.25.52H23.334l-3.127 2.085-9.382-10.425 5.838-5.838c.938-.938 2.19-1.46 3.44-1.46h7.193a5.2 5.2 0 0 1 2.189.521l3.127 1.564h6.255a3.07 3.07 0 0 1 3.127 3.127 3.07 3.07 0 0 1-3.127 3.127h-9.382" fill="#fff"/><path d="M48.075 34.24l-.112.15-5.23 3.14c.142.42.218.875.218 1.35 0 2.3-1.783 4.083-4.083 4.083h-9.382v-1.91h9.382c1.244 0 2.172-.927 2.172-2.172s-.927-2.172-2.172-2.172h-6.48l-3.33-1.665c-.5-.25-1.187-.42-1.762-.42h-7.193c-.988 0-2 .414-2.764 1.18L12.142 41l8.223 9.136 2.68-1.787h17.28a.99.99 0 0 0 .575-.241l.02-.02 8.798-7.763 6.625-9.464c-.542-.198-1.43-.406-2.78-.406-1.186 0-2.517.823-3.665 1.844-.55.488-1.01.978-1.333 1.348l-.37.442-.094.12-.022.03-.005.006zm9.66-3.7l.676-.676.567.567-7.822 11.174-8.927 7.877a2.88 2.88 0 0 1-1.903.777H23.624l-3.574 2.383L9.508 40.93l6.48-6.48c1.11-1.11 2.602-1.74 4.116-1.74h7.193c.884 0 1.864.246 2.616.622l2.926 1.463h6.03c1.118 0 2.113.42 2.84 1.118l4.958-2.975.04-.05.423-.503c.36-.412.877-.964 1.5-1.518 1.198-1.064 2.994-2.326 4.935-2.326 1.67 0 2.836.28 3.613.6.387.155.674.316.876.45l.238.176.074.064.026.024.01.01.005.005.003.003c.001.001.001.001-.675.677z" class="B C"/><path d="M9.617 38.673L3.35 44.938l13.7 13.7 6.266-6.265-13.7-13.7z" fill="#a3d4ff"/><path d="M2 44.938l7.617-7.617L24.68 52.383 17.062 60 2 44.938zm2.703 0l12.36 12.36 4.914-4.914-12.36-12.36-4.914 4.914zm6.49 2.957l-3.127-3.127 1.35-1.35 3.127 3.127-1.35 1.35z" class="B C"/></svg>