<svg xmlns="http://www.w3.org/2000/svg" width="50" height="50" fill="none">
    <path d="M23.008 45.707c7.371 1.928 14.819-.293 19.875-5.324l1.05 1.069a22.12 22.12 0 0 1-21.295 5.707l.37-1.452zm21.141-32.73c-4.365-6.245-11.476-9.38-18.587-8.825l-.107-1.495c7.622-.595 15.244 2.766 19.917 9.453l-1.223.866zM7.626 19.15c-1.928 7.371.293 14.819 5.324 19.875l-1.069 1.05c-5.392-5.42-7.771-13.403-5.707-21.296l1.452.37z"
          fill-rule="evenodd" fill="#dfeeff"/>
    <path d="M27.271 43.591c9.998 0 18.103-8.274 18.103-18.48s-8.105-18.48-18.103-18.48-18.103 8.274-18.103 18.48 8.105 18.48 18.103 18.48z"
          fill="#f4f8ff"/>
    <path d="M23.122 34.286c4.147 0 7.509-4.054 7.509-9.054s-3.362-9.054-7.509-9.054-7.509 4.054-7.509 9.054 3.362 9.054 7.509 9.054z"
          fill="#a3d4ff"/>
    <path d="M23.122 34.781c-4.37 0-7.92-4.309-7.92-9.549 0-2.562.821-4.949 2.318-6.754s3.477-2.795 5.602-2.795c4.371 0 7.92 4.28 7.92 9.549 0 5.24-3.55 9.549-7.92 9.549zm0-18.138c-1.907 0-3.694.902-5.046 2.504-1.352 1.63-2.077 3.785-2.077 6.085 0 4.746 3.187 8.588 7.123 8.588s7.123-3.843 7.123-8.588-3.187-8.588-7.123-8.588z"
          fill="#4c739e"/>
    <path d="M23.205 30.118c2.194 0 3.973-2.145 3.973-4.79s-1.779-4.79-3.973-4.79-3.973 2.145-3.973 4.79 1.779 4.79 3.973 4.79z"
          fill="#fff"/>
    <path d="M23.205 30.43c-2.341 0-4.231-2.297-4.231-5.101-.016-2.823 1.889-5.121 4.231-5.121 2.325 0 4.231 2.297 4.231 5.121s-1.905 5.101-4.231 5.101zm0-9.579c-2.051 0-3.714 2.005-3.714 4.478s1.663 4.478 3.714 4.478 3.714-2.005 3.714-4.478c-.016-2.473-1.68-4.478-3.714-4.478z"
          fill="#4c739e"/>
    <path d="M23.205 29.931c2.108 0 3.818-2.061 3.818-4.603s-1.709-4.603-3.818-4.603-3.818 2.061-3.818 4.603 1.709 4.603 3.818 4.603z"
          fill="#fff"/>
    <path d="M23.205 30.231c-2.25 0-4.066-2.208-4.066-4.903-.015-2.713 1.816-4.921 4.066-4.921 2.235 0 4.066 2.208 4.066 4.921s-1.831 4.903-4.066 4.903zm0-9.206c-1.971 0-3.569 1.927-3.569 4.304s1.598 4.304 3.569 4.304 3.57-1.927 3.57-4.304c-.015-2.376-1.614-4.304-3.57-4.304z"
          fill="#4c739e"/>
    <ellipse cx="28.308" cy="27.939" rx=".849" ry="2.121" fill="#fff"/>
    <path d="M31.262 27.541c0 1.026-.258 1.881-.687 2.48-.516.599-1.203.855-2.062.855s-1.461-.342-1.976-.941-.773-1.454-.773-2.48.258-1.881.688-2.48c.515-.599 1.117-.855 1.976-.855s1.547.256 2.062.855c.516.77.773 1.539.773 2.565zm-3.351.085c0 .599.086.941.172 1.197s.258.342.43.342.344-.085.43-.342.172-.684.172-1.197c0-.599-.086-.941-.172-1.197s-.258-.342-.43-.342-.344.086-.43.342-.172.599-.172 1.197zm8.679-3.25L30.66 34.981h-2.148l5.929-10.604h2.148zm2.75 7.44c0 1.026-.258 1.881-.687 2.48-.516.599-1.203.855-2.062.855s-1.461-.342-1.976-.941-.773-1.454-.773-2.48.258-1.881.688-2.48c.516-.599 1.117-.855 1.976-.855s1.547.257 2.062.855c.516.684.773 1.539.773 2.565zm-3.265 0c0 .599.086.941.172 1.197s.258.342.43.342.344-.171.43-.428.086-.684.086-1.112c0-.513 0-.855-.086-1.112s-.258-.428-.43-.428-.344.085-.43.342c-.172.257-.172.684-.172 1.197z"
          fill="#4c739e"/>
    <g fill="#dfeeff">
        <path d="M14.986 15.249a3.54 3.54 0 0 1-3.555-3.555 3.54 3.54 0 0 1 3.555-3.555 3.54 3.54 0 0 1 3.555 3.555 3.54 3.54 0 0 1-3.555 3.555zm0-5.53c-1.106 0-1.975.869-1.975 1.975s.869 1.975 1.975 1.975 1.975-.869 1.975-1.975-.869-1.975-1.975-1.975zm20.725 3.7h-1.58v4.74h1.58v-4.74z"/>
        <path d="M37.291 14.999h-4.74v1.58h4.74v-1.58zM20.625 38.311h-1.58v4.74h1.58v-4.74z"/>
        <path d="M22.205 39.891h-4.74v1.58h4.74v-1.58z"/>
    </g>
</svg>