<svg xmlns:v="https://vecta.io/nano" xmlns="http://www.w3.org/2000/svg" width="60" height="60" fill="none"><style><![CDATA[.B{fill:#4c739e}.C{fill:#fff}]]></style><path d="M23.26 60c12.294 0 22.26-9.966 22.26-22.26s-9.966-22.26-22.26-22.26S1 25.446 1 37.74 10.966 60 23.26 60z" fill="#f4f8ff"/><path d="M18.22 41.82h-1.8v1.8h1.8v-1.8z" class="B"/><path d="M32.8 19.08H22.78V42.72H32.8V19.08Z" class="C"/><path d="M33.7 43.62H21.88V18.18H33.7v25.44zm-9.96-1.8h8.16V19.98h-8.16v21.84z" class="B"/><path d="M32.8 13.62h-7.26v5.46h7.26v-5.46z" class="C"/><path d="M33.7 19.98h-9.06v-7.26h9.12v7.26h-.06zm-7.26-1.8h5.46v-3.66h-5.46v3.66z" class="B"/><path d="M57.34 5.46H32.8V42.72H57.34V5.46Z" class="C"/><path d="M58.24 43.62H31.9V4.56H58.24V43.62ZM33.7 41.82H56.44V6.36H33.7V41.82Z" class="B"/><path d="M48.28 35.46h-6.36v7.26h6.36v-7.26z" class="C"/><path d="M49.18 43.62h-8.22v-9.06h8.16v9.06h.06zm-6.36-1.8h4.56v-5.46h-4.56v5.46z" class="B"/><path d="M54.58.9H35.5v4.56h19.08V.9z" class="C"/><path d="M55.54 6.36H34.6V0h20.88v6.36h.06zm-19.08-1.8h17.28V1.8H36.46v2.76z" class="B"/><path d="M42.82 18.18v-4.56h-5.46v4.56" class="C"/><path d="M43.72 18.18h-1.8v-3.66h-3.66v3.66h-1.8v-5.46h7.26v5.46z" class="B"/><path d="M42.82 26.34v-4.5h-5.46v4.5" class="C"/><path d="M43.72 26.34h-1.8v-3.6h-3.66v3.6h-1.8v-5.46h7.26v5.46z" class="B"/><path d="M53.74 18.18v-4.56h-5.46v4.56" class="C"/><path d="M54.64 18.18h-1.86v-3.66h-3.6v3.66h-1.86v-5.46h7.32v5.46z" class="B"/><path d="M53.74 26.34v-4.5h-5.46v4.5" class="C"/><path d="M54.64 26.34h-1.86v-3.6h-3.6v3.6h-1.86v-5.46h7.32v5.46z" class="B"/><path d="M39.16 8.16H7.36v38.16h31.8V8.16z" class="C"/><path d="M39.16 47.28H7.36c-.48 0-.9-.42-.9-.9V8.16c0-.48.42-.9.9-.9h31.8c.48 0 .9.42.9.9v38.16c0 .54-.42.96-.9.96zm-30.9-1.8h30V9.12h-30v36.36z" class="B"/><path d="M35.5 11.82H10.96v30.9H35.5v-30.9z" class="C"/><g class="B"><path d="M35.5 27.3H10.96v1.8H35.5v-1.8zm-8.16 7.26H10.96v1.8h16.38v-1.8z"/><path d="M20.08 20.88h-1.8v21.84h1.8V20.88zm8.16 0h-1.8v21.84h1.8V20.88z"/></g><path d="M35.5 11.82H10.96v9.12H35.5v-9.12z" fill="#a3d4ff"/><path d="M36.46 21.84h-26.4V10.92H36.4v10.92h.06zm-24.54-1.86h22.74v-7.26H11.92v7.26z" fill="#2a5082"/><g class="B"><path d="M36.46 43.62h-26.4v-32.7H36.4v32.7h.06zm-24.54-1.8h22.74v-29.1H11.92v29.1z"/><path d="M35.5 19.98H10.96v1.8H35.5v-1.8z"/></g><path d="M41 56.11c7.793 0 14.11-6.318 14.11-14.11S48.793 27.89 41 27.89 26.89 34.207 26.89 42 33.207 56.11 41 56.11z" class="C"/><path d="M41 57c-8.278 0-15-6.722-15-15s6.722-15 15-15 15 6.722 15 15-6.722 15-15 15zm0-28.222a13.222 13.222 0 1 0 0 26.444c7.278 0 13.167-5.944 13.167-13.222S48.278 28.778 41 28.778zm-1.4 10.944c0 1.1-.278 2-.778 2.6s-1.222.944-2.167.944c-.9 0-1.6-.333-2.1-.944-.5-.667-.778-1.5-.778-2.6s.278-2 .778-2.6 1.222-.944 2.1-.944 1.6.333 2.167.944c.5.667.778 1.5.778 2.6zm-3.5 0c0 .6.056 1 .167 1.278s.222.4.444.4.333-.1.444-.4.167-.667.167-1.278-.056-1-.167-1.278-.222-.4-.444-.4-.333.1-.444.4-.167.722-.167 1.278zm9.1-3.4l-6.278 11.333h-2.278l6.278-11.333h2.278zm3 7.9c0 1.1-.278 2-.778 2.6s-1.222.944-2.167.944c-.9 0-1.6-.333-2.1-.944-.5-.667-.778-1.5-.778-2.6s.278-2 .778-2.6 1.222-.944 2.1-.944 1.6.333 2.167.944c.5.667.778 1.5.778 2.6zm-3.5 0c0 .6.056 1 .167 1.278s.222.4.444.4.4-.167.444-.444c.1-.278.1-.722.1-1.222s-.056-.944-.1-1.222-.278-.444-.5-.444-.333.1-.444.4-.1.722-.1 1.278z" class="B"/></svg>