<svg xmlns:v="https://vecta.io/nano" xmlns="http://www.w3.org/2000/svg" width="60" height="60" fill="none"><path d="M29 55c13.807 0 25-11.193 25-25S42.807 5 29 5 4 16.193 4 30s11.193 25 25 25z" fill="#f4f8ff"/><path d="M56.68 54.107H12.036V18.393H56.68v35.714zM13.82 52.32h41.072V20.18H13.82V52.32z" fill="#dfeeff"/><path d="M53.107 21.964h-37.5v1.786h37.5v-1.786z" fill="#4c739e"/><path d="M48.643 28.214H44.18V48.75h4.464V28.214z" fill="#a3d4ff"/><path d="M49.536 49.643h-6.25V27.32h6.25v22.32zm-4.464-1.786h2.68v-18.75h-2.68v18.75z" fill="#4c739e"/><path d="M40.607 32.68h-4.464v16.07h4.464V32.68z" fill="#a3d4ff"/><path d="M41.5 49.643h-6.25V31.786h6.25v17.857zm-4.464-1.786h2.68V33.57h-2.68v14.286z" fill="#4c739e"/><path d="M32.57 38.036h-4.464V48.75h4.464V38.036z" fill="#a3d4ff"/><path d="M33.464 49.643h-6.25v-12.5h6.25v12.5zM29 47.857h2.68V38.93H29v8.93z" fill="#4c739e"/><path d="M24.536 41.607H20.07v7.143h4.464v-7.143z" fill="#a3d4ff"/><g fill="#4c739e"><path d="M25.43 49.643h-6.25v-8.93h6.25v8.93zm-4.464-1.786h2.68V42.5h-2.68v5.357z"/><path d="M53.107 47.857h-37.5v1.786h37.5v-1.786z"/></g></svg>