<svg width="40" height="37" fill="none" xmlns="http://www.w3.org/2000/svg"><path d="M1.741 16.682h33.237v-3.367H28.16v-1.534l-9.8-7.925-9.801 7.925v1.534H1.74v3.367z" fill="#A3D4FF"/><path d="M35.404 17.108H1.314v-2.685h.853v1.833h32.385v-1.45h.852v2.302z" fill="#4C739E"/><path d="M18.36 13.273a2.642 2.642 0 100-5.284 2.642 2.642 0 000 5.284z" fill="#fff"/><path d="M18.36 13.742a3.055 3.055 0 01-3.069-3.069 3.055 3.055 0 013.068-3.068 3.055 3.055 0 013.068 3.069c0 1.661-1.363 3.068-3.068 3.068zm0-5.327a2.2 2.2 0 00-2.216 2.216 2.2 2.2 0 002.215 2.216 2.2 2.2 0 002.216-2.216 2.2 2.2 0 00-2.216-2.216z" fill="#4C739E"/><path d="M35.404 13.742h-7.67v-1.748L18.359 4.41l-9.374 7.584v1.748h-7.67v-1.407l-.767-.767V7.563h11.036v.852H1.4v2.812l.767.767v.895h5.966v-1.32l10.226-8.267 10.227 8.266v1.321h5.965v-.895l.767-.767V8.415H25.136v-.852H36.17v4.005l-.767.767v1.406zM2.465 18.173v15.51h.853v-3.707h1.448v-.852H3.318v-2.557h1.448v-.852H3.318v-2.94h1.448v-.852H3.318v-2.898h4.815v9.758h.852v-10.61h-6.52zM14.993 28.783h-.852v-8.139c0-.894-.725-1.661-1.662-1.661-.938 0-1.662.724-1.662 1.661v8.14h-.852v-8.14a2.519 2.519 0 012.514-2.514 2.519 2.519 0 012.514 2.514v8.14zM27.095 28.783h-.853v-8.139c0-.894-.724-1.661-1.662-1.661-.937 0-1.661.724-1.661 1.661v8.14h-.852v-8.14a2.519 2.519 0 012.514-2.514 2.519 2.519 0 012.514 2.514v8.14zM21.044 28.783h-.852v-8.139c0-.894-.725-1.661-1.662-1.661-.895 0-1.662.724-1.662 1.661v8.14h-.852v-8.14a2.519 2.519 0 012.514-2.514 2.519 2.519 0 012.514 2.514v8.14zM29.694 30.616H7.024v.852h22.67v-.852zM31.569 32.874H5.149v.852h26.42v-.852z" fill="#4C739E"/><path d="M38.88 23.348c0 2.952-2.817 4.769-4.089 7.04-.863 1.544.045 2.726-1.136 2.726-1.18 0-.272-1.181-1.135-2.726-1.272-2.271-4.088-3.634-4.088-7.04a5.196 5.196 0 015.223-5.224 5.196 5.196 0 015.224 5.224z" fill="#A3D4FF"/><path d="M33.655 33.568c-1.09 0-1.135-.818-1.135-1.363 0-.454-.046-1-.409-1.59-.409-.727-.954-1.317-1.59-1.999-1.18-1.317-2.544-2.816-2.544-5.269a5.68 5.68 0 015.678-5.678 5.68 5.68 0 015.678 5.678c0 2.135-1.317 3.68-2.543 5.179-.59.726-1.181 1.408-1.59 2.09-.364.59-.364 1.135-.409 1.589-.045.545-.045 1.363-1.136 1.363zm-.181-.909h.181c.137 0 .182-.045.182-.045.045-.046.045-.318.045-.5.046-.5.046-1.226.5-1.999.454-.772 1.09-1.544 1.68-2.225 1.227-1.408 2.363-2.771 2.363-4.588 0-2.59-2.135-4.724-4.77-4.724a4.769 4.769 0 00-4.769 4.77c0 2.089 1.136 3.36 2.362 4.678.59.681 1.226 1.363 1.68 2.135.455.772.5 1.499.5 1.998 0 .182 0 .41.046.5z" fill="#4C739E"/><path d="M33.655 25.391a2.044 2.044 0 100-4.088 2.044 2.044 0 000 4.088z" fill="#fff"/><path d="M33.656 25.891a2.54 2.54 0 01-2.544-2.544 2.54 2.54 0 012.544-2.543 2.54 2.54 0 012.543 2.543 2.54 2.54 0 01-2.543 2.544zm0-4.088c-.864 0-1.545.681-1.545 1.544s.681 1.545 1.545 1.545c.863 0 1.544-.681 1.544-1.545 0-.863-.681-1.544-1.544-1.544z" fill="#4C739E"/></svg>