<svg xmlns:v="https://vecta.io/nano" xmlns="http://www.w3.org/2000/svg" width="60" height="60" fill="none"><style><![CDATA[.B{fill:#4c739e}.C{fill:#fff}]]></style><g class="B"><path d="M55.86 53.86H3.634v1.7H55.86v-1.7zm-54.16 0H0v1.7h1.7v-1.7z"/><path d="M56.62 53.86h-1.7v1.7h1.7v-1.7zm-3.38 0h-3.38v1.7h3.38v-1.7z"/></g><path d="M15.21 32.732H5.915v21.972h9.296V32.732z" class="C"/><path d="M16.056 55.55H5.07V31.887h10.986V55.55zm-9.296-1.7h7.606V33.578H6.76V53.86z" class="B"/><path d="M15.21 27.662H8.45v5.07h6.76v-5.07z" class="C"/><path d="M16.056 33.578h-8.45v-6.76h8.45v6.76zm-6.76-1.7h5.07v-3.38h-5.07v3.38z" class="B"/><path d="M38.028 20.056H15.21v34.648h22.817V20.056z" class="C"/><path d="M38.873 55.55H14.366V19.21h24.507V55.55zm-22.817-1.7h21.127V20.9H16.056V53.86z" class="B"/><path d="M29.578 47.944h-5.916v6.76h5.916v-6.76z" class="C"/><path d="M30.423 55.55h-7.606V47.1h7.606v8.45zm-5.915-1.7h4.225v-5.07h-4.225v5.07z" class="B"/><path d="M35.493 15.83H17.747v4.225h17.747V15.83z" class="C"/><path d="M36.338 20.9H16.9v-5.915h19.437V20.9zm-17.746-1.7h16.056v-2.535H18.592v2.535z" class="B"/><path d="M24.507 31.887v-4.225h-5.07v4.225" class="C"/><path d="M25.352 31.887h-1.7v-3.38h-3.38v3.38h-1.7v-5.07h6.76v5.07z" class="B"/><path d="M24.507 39.493v-4.225h-5.07v4.225" class="C"/><path d="M25.352 39.493h-1.7v-3.38h-3.38v3.38h-1.7v-5.07h6.76v5.07z" class="B"/><path d="M48.17 36.535c0 5.493-5.24 8.873-7.606 13.1-1.606 2.873.084 5.07-2.113 5.07s-.507-2.197-2.113-5.07c-2.366-4.225-7.606-6.76-7.606-13.1 0-5.408 4.3-9.718 9.718-9.718s9.718 4.3 9.718 9.718z" fill="#a3d4ff"/><path d="M38.45 55.55c-2.028 0-2.113-1.52-2.113-2.535 0-.845-.084-1.86-.76-2.958-.76-1.352-1.775-2.45-2.958-3.718-2.197-2.45-4.732-5.24-4.732-9.803a10.57 10.57 0 0 1 10.563-10.563 10.57 10.57 0 0 1 10.563 10.563c0 3.972-2.45 6.845-4.732 9.634-1.1 1.352-2.197 2.62-2.958 3.887-.676 1.1-.676 2.113-.76 2.958-.084 1.014-.084 2.535-2.113 2.535zm-.338-1.7h.338c.254 0 .338-.084.338-.084.084-.085.084-.592.084-.93.085-.93.085-2.282.93-3.718s2.028-2.873 3.127-4.14c2.282-2.62 4.394-5.155 4.394-8.535 0-4.817-3.972-8.79-8.873-8.79s-8.873 3.972-8.873 8.873c0 3.887 2.113 6.253 4.394 8.704 1.1 1.268 2.282 2.535 3.127 3.972s.93 2.79.93 3.718c0 .338 0 .76.084.93z" class="B"/><path d="M38.45 40.338c2.1 0 3.803-1.703 3.803-3.803s-1.703-3.803-3.803-3.803-3.803 1.703-3.803 3.803 1.703 3.803 3.803 3.803z" class="C"/><path d="M38.45 41.268c-2.62 0-4.732-2.113-4.732-4.732s2.113-4.732 4.732-4.732 4.732 2.113 4.732 4.732-2.113 4.732-4.732 4.732zm0-7.606a2.85 2.85 0 0 0-2.873 2.873 2.85 2.85 0 0 0 2.873 2.873 2.85 2.85 0 0 0 2.873-2.873 2.85 2.85 0 0 0-2.873-2.873z" class="B"/><path d="M10.14 15.83H4.225v1.7h5.915v-1.7zm3.38 0h-1.7v1.7h1.7v-1.7zm26.198-6.76h-1.7v1.7h1.7v-1.7zm-4.225 0h-1.7v1.7h1.7v-1.7zm-3.38 1.7H25.1l-.17-.507S24.676 9.577 24 8.9c-.253-.254-1.183-.085-1.52.17l-.93.507-.422-1.183c0-.085-.76-2.704-4.225-2.704s-4.14 4.14-4.14 4.3l-.085.76H5.07v-1.7h6.17C11.747 6.958 13.437 4 16.9 4c3.127 0 4.817 1.775 5.578 3.127.76-.17 1.86-.338 2.62.507.507.507.845 1.1 1.1 1.437h5.915v1.7zM60 14.9h-5.83l-.17-.507s-.254-.76-.845-1.437c-.17-.254-.845.085-1.1.17l-.93.6-.254-1.014c0-.085-.6-2.8-3.38-2.8-2.704 0-3.296 4.394-3.296 4.394l-.085.676h-6.25v-1.52h4.9c.338-1.52 1.437-5.07 4.648-5.07 2.62 0 3.972 1.7 4.563 3.127.76-.17 1.606-.17 2.197.507.423.507.676 1.014.845 1.437H60V14.9z" fill="#dfeeff"/></svg>