<svg xmlns="http://www.w3.org/2000/svg" width="60" height="60" fill="none" xmlns:v="https://vecta.io/nano"><path d="M18.28 40.563c10.097 0 18.28-8.185 18.28-18.28S28.378 4 18.28 4 0 12.185 0 22.28s8.185 18.28 18.28 18.28z" fill="#f4f8ff"/><path d="M51.563 30.25h-45v24.375h45V30.25z" fill="#fff"/><path fill-rule="evenodd" d="M5.625 29.313H52.5v26.25H5.625v-26.25zM7.5 31.188v22.5h43.125v-22.5H7.5z" fill="#4c739e"/><path d="M44.906 38.688H13.22a7.56 7.56 0 0 1-7.594-7.594V19.938H52.5v11.156a7.56 7.56 0 0 1-7.594 7.594z" fill="#a3d4ff"/><path fill-rule="evenodd" d="M4.688 19h48.75v12.094a8.5 8.5 0 0 1-8.531 8.531H13.22a8.5 8.5 0 0 1-8.531-8.531V19zm1.875 1.875v10.22c0 3.7 2.955 6.656 6.656 6.656h31.687c3.7 0 6.656-2.955 6.656-6.656v-10.22h-45z" fill="#4c739e"/><path d="M21.563 35.875h-4.687V41.5h4.688v-5.625z" fill="#fff"/><path fill-rule="evenodd" d="M15.938 34.938H22.5v7.5h-6.562v-7.5zm1.875 1.875v3.75h2.813v-3.75h-2.812z" fill="#4c739e"/><path d="M40.313 35.875h-4.687V41.5h4.688v-5.625z" fill="#fff"/><path d="M34.688 34.938h6.563v7.5H34.69v-7.5zm1.875 1.875v3.75h2.813v-3.75h-2.812zM9.375 43.375h1.875v6.563h8.438v1.875H9.375v-8.437zm37.5 6.563v-6.562h1.875v8.438H38.438V49.94h8.438zM22.125 16.75c0-1.807 1.428-3.375 3.375-3.375h7.22c1.807 0 3.375 1.428 3.375 3.375v1.313H34.22V16.75a1.48 1.48 0 0 0-1.5-1.5H25.5a1.48 1.48 0 0 0-1.5 1.5v1.313h-1.875V16.75zm27.563-3.375v2.813h-1.875v-2.812h1.875zm5.467 1.458l-1.875 2.813-1.56-1.04 1.875-2.812 1.56 1.04zm3.5 4l-2.812 1.875-1.04-1.56 2.813-1.875 1.04 1.56zM60 25.563h-2.812v-1.875H60v1.875z" fill-rule="evenodd" fill="#4c739e"/></svg>