<svg xmlns:v="https://vecta.io/nano" xmlns="http://www.w3.org/2000/svg" width="60" height="60" fill="none"><path d="M36.478 52.75c11.525 0 20.868-9.343 20.868-20.868s-9.343-20.868-20.868-20.868S15.6 20.358 15.6 31.883 24.953 52.75 36.478 52.75z" fill="#f4f8ff"/><path d="M36.744 57.902c-14.386 0-26.018-11.633-26.018-26.018h1.776a24.22 24.22 0 0 0 24.243 24.242c8.17 0 15.718-4.085 20.246-10.922l1.5.977c-4.884 7.37-13.054 11.722-21.756 11.722z" fill="#dfeeff"/><path d="M43.848 37.744c0-1.5-1.154-2.664-2.664-2.664h-5.328c-1.5 0-2.664 1.154-2.664 2.664v6.216c0 1.5 1.154 2.664 2.664 2.664h5.328c1.5 0 2.664-1.154 2.664-2.664v-6.216z" fill="#fff"/><g fill="#4c739e"><path d="M41.184 47.512h-5.328c-1.954 0-3.552-1.598-3.552-3.552v-6.216c0-1.954 1.598-3.552 3.552-3.552h5.328c1.954 0 3.552 1.598 3.552 3.552v6.216c0 1.954-1.598 3.552-3.552 3.552zm-5.328-11.544a1.78 1.78 0 0 0-1.776 1.776v6.216a1.78 1.78 0 0 0 1.776 1.776h5.328a1.78 1.78 0 0 0 1.776-1.776v-6.216a1.78 1.78 0 0 0-1.776-1.776h-5.328z"/><path d="M39.408 41.296H28.486c-3.73 0-6.838-3.02-6.838-6.75v-11.01h1.776v11.01c0 2.753 2.22 4.973 5.062 4.973h10.922v1.776z"/></g><path d="M18.984 25.312v3.552c0 .533.533.888 1.154.888h4.795c.622 0 1.154-.444 1.154-.888v-3.552h-7.104z" fill="#dfeeff"/><path d="M24.934 30.64H20.14c-1.154 0-2.042-.8-2.042-1.776v-4.44h8.88v4.44c0 .977-.888 1.776-2.042 1.776zm-5.062-1.776h5.062c.178 0 .266-.09.266-.09V26.2h-5.328v2.664z" fill="#4c739e"/><path d="M51.662 12.347c-1.066-4.262-4.706-7.46-9.324-7.46H16.23c-8.347 0-12.432 5.594-12.343 14.208h3.286c1.243 4.35 4.53 7.104 8.17 7.104h24.242c2.22 0 4.35-.888 5.86-2.842 1.243-1.598 1.954-3.64 2.13-5.772 2.664-.178 4.618-2.664 4.085-5.24z" fill="#fff"/><path d="M39.586 27.088H15.343c-3.996 0-7.46-2.753-8.88-7.104H3v-.888c0-5.062 1.332-9.058 3.907-11.633C9.127 5.154 12.324 4 16.23 4H42.34c4.795 0 8.97 3.374 10.123 8.17.355 1.42 0 2.93-.888 4.085-.8 1.066-1.865 1.776-3.197 2.042-.266 2.13-1.066 3.996-2.22 5.506-1.598 2.13-3.907 3.286-6.57 3.286zm-31.17-7.104c1.332 3.286 3.907 5.328 7.015 5.328h24.243c2.13 0 3.907-.888 5.15-2.486 1.066-1.42 1.776-3.197 1.954-5.24l.09-.7.7-.09c1.066-.09 1.954-.622 2.575-1.42s.8-1.776.622-2.664c-.977-3.996-4.44-6.838-8.436-6.838H16.23c-3.463-.09-6.127.888-8.08 2.842-2.13 2.13-3.286 5.417-3.374 9.502h25.752c3.64-.355 5.15-3.02 5.772-4.618.977-2.753 3.73-6.75 7.193-6.75v1.776c-2.13 0-4.53 2.93-5.506 5.594-1.243 3.374-3.907 5.506-7.37 5.772h-22.2z" fill="#4c739e"/><path d="M39.586 10.305h-.444c-.888 1.154-1.598 2.398-1.954 3.552-.533 1.42-1.243 2.664-2.31 3.552.355 3.02 2.31 5.328 4.706 5.328 2.664 0 4.706-2.842 4.706-6.216s-2.13-6.216-4.706-6.216z" fill="#a3d4ff"/><path d="M39.586 23.714c-2.842 0-5.15-2.575-5.594-6.127l-.1-.444.355-.266c.888-.7 1.5-1.776 2.042-3.197.444-1.332 1.243-2.664 2.13-3.818l.266-.266h.888c3.108 0 5.594 3.197 5.594 7.104 0 3.818-2.486 7.015-5.594 7.015zm-3.73-5.95c.444 2.398 1.954 4.085 3.73 4.085 2.13 0 3.818-2.398 3.818-5.328s-1.687-5.328-3.818-5.328c-.7.888-1.243 1.954-1.598 3.02-.533 1.5-1.243 2.664-2.13 3.552zM18.984 21.76h-1.776v1.776h1.776V21.76zm4.44 0h-1.776v1.776h1.776V21.76zm4.44 0h-1.776v1.776h1.776V21.76zm20.69-4.173H46.78v-.178c0-.8 0-1.954-.266-3.286l1.776-.355c.266 1.5.266 2.753.266 3.64v.178z" fill="#4c739e"/></svg>