<svg xmlns:v="https://vecta.io/nano" xmlns="http://www.w3.org/2000/svg" width="60" height="60" fill="none"><style><![CDATA[.B{fill-rule:evenodd}.C{fill:#4c739e}.D{fill:#a3d4ff}]]></style><g class="B C"><path d="M10.156 18.89H2v-2.222h9.622l12.616 29.436c.497 1.065 1.446 1.675 2.54 1.675h21.89V50h-21.89c-2.012 0-3.726-1.163-4.564-2.98l-.006-.014-12.05-28.118z"/><path d="M55.667 23.333h-38.11V21.11h38.11c1.63 0 2.867 1.624 2.27 3.257l-4.772 14.316c-.933 2.8-3.59 4.65-6.498 4.65h-24.89V41.11h24.89c1.98 0 3.768-1.262 4.4-3.13L55.85 23.6c.018-.048.018-.082.015-.107s-.015-.056-.034-.083c-.04-.057-.1-.087-.163-.087z"/></g><path d="M47.556 58.89c1.84 0 3.333-1.492 3.333-3.333s-1.492-3.333-3.333-3.333-3.333 1.492-3.333 3.333 1.492 3.333 3.333 3.333z" class="D"/><path d="M47.556 53.333c-1.227 0-2.222.995-2.222 2.222s.995 2.222 2.222 2.222 2.222-.995 2.222-2.222-.995-2.222-2.222-2.222zm-4.444 2.222c0-2.455 2-4.444 4.444-4.444S52 53.1 52 55.556 50 60 47.556 60s-4.444-2-4.444-4.444z" class="B C"/><path d="M25.333 58.89c1.84 0 3.333-1.492 3.333-3.333s-1.492-3.333-3.333-3.333S22 53.715 22 55.556s1.492 3.333 3.333 3.333z" class="D"/><path d="M25.333 53.333c-1.227 0-2.222.995-2.222 2.222s.995 2.222 2.222 2.222 2.222-.995 2.222-2.222-.995-2.222-2.222-2.222zm-4.445 2.222a4.45 4.45 0 0 1 4.445-4.444 4.46 4.46 0 0 1 4.444 4.444 4.46 4.46 0 0 1-4.444 4.444 4.46 4.46 0 0 1-4.445-4.444zm.002-18.888H6.444v-2.222H20.9v2.222zM4.222 30H2v-2.222h2.222V30zm8.888 0H6.444v-2.222h6.667V30z" class="B C"/><path d="M52 18.89V6.667H32V18.89" class="D"/><path d="M30.89 5.556H53.11V18.89H50.89V7.778H33.11v11.11H30.89V5.556z" class="B C"/><path d="M22 18.89v-6.667h18.89v6.667" fill="#dfeeff"/><g class="B"><path d="M20.9 11.1H42v7.778h-2.222v-5.556H23.1v5.556H20.9V11.1zM24.222 0h23.333v3.333h-2.222v-1.1h-18.9V8.9H24.22V0z" class="C"/><g fill="#dfeeff"><path d="M13.1 42.222h-8.9V40h8.9v2.222zM26.445 38.9V25.556h2.222V38.9h-2.222zm7.777 0V25.556h2.222V38.9h-2.222zm7.778 0V25.556h2.222V38.9H42z"/><path d="M49.778 30H22v-2.222h27.778V30zm-2.222 5.556H24.222v-2.222h23.333v2.222z"/></g></g></svg>