<svg xmlns="http://www.w3.org/2000/svg" width="50" height="50" fill="none">
    <g clip-path="url(#A)">
        <path d="M32.813 42.943a16.41 16.41 0 0 0 16.406-16.406A16.41 16.41 0 0 0 32.813 10.13a16.41 16.41 0 0 0-16.406 16.406 16.41 16.41 0 0 0 16.406 16.406z"
              fill="#f4f8ff"/>
        <g stroke="#4c739e" stroke-width="2" stroke-miterlimit="10">
            <path d="M42.969 38.255h-9.375v7.813h9.375v-7.812z" fill="#a3d4ff"/>
            <path d="M33.594 27.318h-9.375v18.75h9.375v-18.75z" fill="#dfeeff"/>
            <path d="M24.219 32.786h-9.375v13.281h9.375V32.786z" fill="#a3d4ff"/>
            <path d="M14.844 23.411H5.469v22.656h9.375V23.411z" fill="#fff"/>
            <path d="M48.438 46.068H50m-50 0h1.563m45.312 0H3.125m32.813-16.407h7.031V22.63"/>
            <path d="M42.969 29.661L28.125 14.818l-7.812 7.812-7.031-7.031m-1.563-1.563l-2.344-2.344M7.813 10.13L6.25 8.568M4.688 7.005L3.125 5.443"/>
        </g>
        <g stroke="#dfeeff">
            <path d="M21.875 14.818l-4.687-4.687m-1.563-1.563l-1.562-1.562M12.5 5.443L10.938 3.88" stroke-width="2"
                  stroke-miterlimit="10"/>
        </g>
    </g>
    <defs>
        <clipPath id="A">
            <path fill="#fff" transform="translate(0 3.333)" d="M0 0h50v43.516H0z"/>
        </clipPath>
    </defs>
</svg>