<svg xmlns:v="https://vecta.io/nano" xmlns="http://www.w3.org/2000/svg" width="60" height="60" fill="none"><path d="M11.53 21.906H48.47C46.22 12.72 37.875 5.78 27.938 5.78a20.97 20.97 0 0 0-21 21c0 4.875 1.687 9.47 4.5 13.03V21.906h.094z" fill="#f4f8ff"/><path d="M15.938 27.438h-1.875a2.76 2.76 0 0 1-2.812-2.812V52.75a2.76 2.76 0 0 0 2.813 2.813h1.875V27.438z" fill="#dfeeff"/><path d="M48.75 9.625h-1.875v5.625h1.875V9.625zm4.27 1.515l-2.437 4.222 1.624.937 2.437-4.222-1.624-.937zm4.892 4.22L53.7 17.797l.937 1.624 4.222-2.437-.937-1.624zM60 21.813h-4.687v1.875H60v-1.875z" fill="#4c739e"/><g fill="#dfeeff"><path d="M8.906 12.438a4.2 4.2 0 0 1-4.219-4.219A4.2 4.2 0 0 1 8.906 4a4.2 4.2 0 0 1 4.219 4.219 4.2 4.2 0 0 1-4.219 4.219zm0-6.562A2.32 2.32 0 0 0 6.562 8.22a2.32 2.32 0 0 0 2.344 2.344A2.32 2.32 0 0 0 11.25 8.22a2.32 2.32 0 0 0-2.344-2.344zM22.5 10.563h-1.875v5.625H22.5v-5.625z"/><path d="M24.375 12.438H18.75v1.875h5.625v-1.875z"/></g><g fill="#bcc0c4"><path d="M3.75 23.688H1.875v5.625H3.75v-5.625z"/><path d="M5.625 25.563H0v1.875h5.625v-1.875z"/></g><g fill="#dfeeff"><path d="M3.75 23.688H1.875v5.625H3.75v-5.625z"/><path d="M5.625 25.563H0v1.875h5.625v-1.875zm5.625-.938a2.76 2.76 0 0 0 2.813 2.813h35.625v-5.625H14.063a2.76 2.76 0 0 0-2.812 2.813z"/></g><path d="M50.625 27.438H48.75V22.75H14.063a1.88 1.88 0 0 0-1.875 1.875h-1.875c0-2.062 1.688-3.75 3.75-3.75h36.563v6.563z" fill="#4c739e"/><path d="M45.094 27.438l-13.22-13.22-13.22 13.22" fill="#a3d4ff"/><path d="M19.313 28.094L18 26.78l13.875-13.875L45.75 26.78l-1.312 1.313L31.875 15.53 19.313 28.094z" fill="#4c739e"/><path d="M38.438 27.438l-4.594-4.594c-1.312 1.312-2.625 1.312-3.937 0l-4.594 4.594" fill="#dfeeff"/><g fill="#4c739e"><path d="M25.97 28.094l-1.312-1.313 5.25-5.25.656.656c.938.938 1.688.938 2.625 0l.656-.656 5.25 5.25-1.312 1.313-3.937-3.938a3.23 3.23 0 0 1-3.844 0l-4.03 3.938z"/><path d="M55.313 56.5h-41.25c-2.062 0-3.75-1.687-3.75-3.75V24.625h1.875a1.88 1.88 0 0 0 1.875 1.875h41.25v30zM12.188 27.906V52.75a1.88 1.88 0 0 0 1.875 1.875h39.375v-26.25H14.063c-.656 0-1.312-.187-1.875-.47z"/></g><path d="M55.313 46.188H41.72c-2.813 0-5.156-2.344-5.156-5.156s2.344-5.156 5.156-5.156h13.594a1.88 1.88 0 0 1 1.875 1.875v6.563a1.88 1.88 0 0 1-1.875 1.875z" fill="#a3d4ff"/><path d="M55.313 47.125H41.72a6.08 6.08 0 1 1 0-12.187h13.594a2.76 2.76 0 0 1 2.813 2.813v6.563a2.76 2.76 0 0 1-2.812 2.813zM41.72 36.813a4.2 4.2 0 1 0 0 8.438h13.594c.563 0 .938-.375.938-.937V37.75c0-.562-.375-.937-.937-.937H41.72z" fill="#4c739e"/><path d="M42.656 43.375c1.294 0 2.344-1.05 2.344-2.344s-1.05-2.344-2.344-2.344-2.344 1.05-2.344 2.344 1.05 2.344 2.344 2.344z" fill="#fff"/><path d="M42.656 44.313c-1.78 0-3.28-1.5-3.28-3.28s1.5-3.28 3.28-3.28 3.28 1.5 3.28 3.28-1.5 3.28-3.28 3.28zm0-4.687c-.75 0-1.406.656-1.406 1.406s.656 1.406 1.406 1.406 1.406-.656 1.406-1.406-.656-1.406-1.406-1.406z" fill="#4c739e"/></svg>