<svg xmlns:v="https://vecta.io/nano" xmlns="http://www.w3.org/2000/svg" width="60" height="60" fill="none"><path d="M20.5 43C31.822 43 41 33.822 41 22.5S31.822 2 20.5 2 0 11.178 0 22.5 9.178 43 20.5 43z" fill="#f4f8ff"/><path d="M51.23 25.23H6v30.462h45.23V25.23z" fill="#fff"/><path d="M52.154 56.615H5.077V24.308h47.077v32.308zM6.923 54.77h43.385V26.154H6.923V54.77zm29.262-31.662h-15.14v-5.815c0-2.4 1.846-4.246 4.246-4.246h6.646c2.4 0 4.246 1.846 4.246 4.246v5.815zm-12.923-2.215h10.615v-3.6c0-1.108-.83-2.03-2.03-2.03H25.2c-1.108 0-2.03.83-2.03 2.03v3.6h.092z" fill="#4c739e"/><path d="M44.4 39.077H12.83c-4.523 0-8.215-3.692-8.215-8.215V20.615h48v10.246c0 4.523-3.692 8.215-8.215 8.215z" fill="#a3d4ff"/><path d="M44.4 40H12.83a9.1 9.1 0 0 1-9.138-9.138v-11.17H53.54v11.17A9.1 9.1 0 0 1 44.4 40zM5.538 21.54v9.323c0 4.062 3.23 7.292 7.292 7.292H44.4c4.062 0 7.292-3.23 7.292-7.292V21.54H5.538zm12.924 31.383H8.308v-9.23h1.846v7.385h8.308v1.846zm30.46 0H38.77v-1.846h8.308v-7.385h1.846v9.23z" fill="#4c739e"/><path d="M21.23 36.308h-5.538v6.462h5.538v-6.462z" fill="#fff"/><path d="M22.154 43.692H14.77v-8.308h7.385v8.308zm-5.538-1.846h3.692V37.23h-3.692v4.615z" fill="#4c739e"/><path d="M40.615 36.308h-5.538v6.462h5.538v-6.462z" fill="#fff"/><path d="M41.54 43.692h-7.385v-8.308h7.385v8.308zM36 41.846h3.692V37.23H36v4.615zM49.846 13.23H48V16h1.846v-2.77zm4.94.677l-2.023 2.023 1.305 1.305 2.023-2.023-1.305-1.305zm4.618 4.23l-2.745.365.243 1.83 2.745-.365-.243-1.83zM60 23.385h-2.77v1.846H60v-1.846z" fill="#4c739e"/></svg>