<svg xmlns:v="https://vecta.io/nano" xmlns="http://www.w3.org/2000/svg" width="60" height="60" fill="none"><path d="M29.23 58.956c14.7 0 26.598-11.908 26.598-26.598S43.92 5.76 29.23 5.76 2.632 17.668 2.632 32.358 14.54 58.956 29.23 58.956z" fill="#f4f8ff"/><path d="M37.237 41.29L18.37 22.424 7.887 32.906l18.867 18.867L37.237 41.29z" fill="#a3d4ff"/><path fill-rule="evenodd" d="M18.37 21.226L38.435 41.29l-11.68 11.68L6.69 32.906l11.68-11.68zm0 2.396l-9.284 9.284 17.67 17.67 9.284-9.284-17.67-17.67z" fill="#4c739e"/><path d="M38.548 42.777L16.863 21.092l9.826-9.826c.593-.593 1.61-.762 2.372-.34 2.456 1.44 7.793 4.405 10.08 3.642 2.965-1.017 6.946-9.826 8.894-11.86 1.948-1.948 5.93-2.965 8.894 0s2.965 7.878 0 9.826-10.843 3.98-11.86 7.878c-.762 2.965 2.033 7.793 3.558 10.08.508.762.423 1.78-.254 2.456l-9.826 9.826z" fill="#fff"/><path d="M48.64 3.303c-.413.433-.98 1.28-1.68 2.42l-.918 1.518-1.356 2.23-2.526 3.642c-.828 1-1.762 1.922-2.747 2.26l-.007.002c-.794.265-1.742.18-2.648-.022-.93-.2-1.942-.575-2.93-.998-1.973-.845-3.953-1.965-5.188-2.7a1.21 1.21 0 0 0-1.354.201l-9.227 9.227 20.49 20.487 9.227-9.227c.4-.4.434-.96.148-1.388-.778-1.166-1.9-2.994-2.7-4.924-.802-1.882-1.42-4.06-.962-5.837V20.2c.317-1.216 1.148-2.214 2.144-3.04s2.24-1.543 3.494-2.174l3.036-1.408.697-.3 2.842-1.44c1.2-.783 1.842-2.197 1.842-3.824S57.65 4.628 56.33 3.3c-2.545-2.545-5.978-1.712-7.7-.006zm-1.204-1.2c2.187-2.187 6.7-3.38 10.092 0C59.174 3.757 60 5.944 60 8.005s-.832 4.074-2.605 5.24c-.807.53-1.917 1.05-3.08 1.57l-.718.32c-.97.432-1.977.88-2.947 1.367-1.212.6-2.32 1.255-3.174 1.964s-1.394 1.43-1.585 2.16c-.305 1.2.094 2.905.88 4.75.766 1.797 1.815 3.528 2.562 4.648a2.78 2.78 0 0 1-.36 3.525L38.548 43.975 15.665 21.092 26.1 10.667a2.9 2.9 0 0 1 3.382-.48l.01.005.008.005c1.222.716 3.133 1.795 5 2.6.94.402 1.844.725 2.634.902.812.182 1.388.184 1.738.07.497-.172 1.17-.74 1.983-1.73.785-.957 1.598-2.18 2.398-3.463l2.27-3.74c.684-1.112 1.344-2.125 1.905-2.7l.006-.007.006-.006zm-19.14 13.155L44.288 31.26l-5.2 5.2-15.993-16 5.2-5.2zm0 2.396L25.48 20.48l13.596 13.597 2.815-2.815-13.596-13.597z" fill-rule="evenodd" fill="#4c739e"/><path d="M52.863 9.656a1.95 1.95 0 0 0 1.948-1.948 1.95 1.95 0 0 0-1.948-1.948 1.95 1.95 0 0 0-1.948 1.948 1.95 1.95 0 0 0 1.948 1.948z" fill="#fff"/><path d="M52.863 6.607a1.101 1.101 0 1 0 0 2.202 1.101 1.101 0 1 0 0-2.202zm-2.795 1.1c0-1.544 1.252-2.795 2.795-2.795s2.795 1.252 2.795 2.795-1.25 2.795-2.795 2.795-2.795-1.252-2.795-2.795zM7.133 36.848L2.22 41.846 1 40.658l4.913-4.998 1.208 1.188zm3.89 5.002l-9.826 9.826L0 50.48l9.826-9.826 1.198 1.198zm4.998 3.898l-3.98 3.98-1.198-1.198 3.98-3.98 1.198 1.198zm4.916 4.9L13.06 58.62l-1.204-1.2 7.878-7.963 1.204 1.192zm3.892 3.984l-4.913 4.913-1.198-1.198 4.913-4.913 1.198 1.198zm3.983-11.86L23.9 47.696l-1.198-1.198 4.913-4.913 1.198 1.198zm-7.878-3.897L17.97 41.85l-1.198-1.198 2.965-2.965 1.198 1.198zm-2.965-5.93l-4.913 4.913-1.198-1.198 4.913-4.913 1.198 1.198z" fill-rule="evenodd" fill="#4c739e"/></svg>