<svg xmlns="http://www.w3.org/2000/svg" xmlns:xlink="http://www.w3.org/1999/xlink" width="60" height="61" fill="none" xmlns:v="https://vecta.io/nano"><path d="M17.217 55.26a27.37 27.37 0 0 0 27.28.002l.978 1.73a29.33 29.33 0 0 1-29.229.002l.972-1.733zM55.52 20.6A27.37 27.37 0 0 0 34.745 2.92L35.12.97a29.33 29.33 0 0 1 22.262 18.94l-1.863.7zM6.632 15.972c-5 8.778-4.71 19.078-.002 27.278l-1.73.978A29.33 29.33 0 0 1 4.899 15l1.733.972z" fill-rule="evenodd" fill="#dfeeff"/><path d="M30 55c13.255 0 24-10.97 24-24.5S43.255 6 30 6 6 16.97 6 30.5 16.745 55 30 55z" fill="#f4f8ff"/><use xlink:href="#B" fill="#a3d4ff"/><path fill-rule="evenodd" d="M16.73 27c-2.073 0-3.754 1.693-3.754 3.782s1.68 3.782 3.754 3.782 3.754-1.693 3.754-3.782S18.803 27 16.73 27zM11 30.772C11 27.584 13.565 25 16.73 25s5.73 2.584 5.73 5.772-2.565 5.772-5.73 5.772S11 33.96 11 30.772z" fill="#4c739e"/><use xlink:href="#B" x="26.92" fill="#a3d4ff"/><path fill-rule="evenodd" d="M43.65 27c-2.073 0-3.754 1.693-3.754 3.782s1.68 3.782 3.754 3.782 3.754-1.693 3.754-3.782S45.722 27 43.65 27zm-5.73 3.782c0-3.188 2.565-5.772 5.73-5.772s5.73 2.584 5.73 5.772-2.565 5.772-5.73 5.772-5.73-2.584-5.73-5.772z" fill="#4c739e"/><use xlink:href="#B" x="13.46" fill="#a3d4ff"/><path fill-rule="evenodd" d="M30.19 27c-2.073 0-3.754 1.693-3.754 3.782s1.68 3.782 3.754 3.782 3.754-1.693 3.754-3.782S32.263 27 30.19 27zm-5.73 3.782c0-3.188 2.565-5.772 5.73-5.772s5.73 2.584 5.73 5.772-2.565 5.772-5.73 5.772-5.73-2.584-5.73-5.772z" fill="#4c739e"/><defs ><path id="B" d="M16.73 35.55c2.62 0 4.742-2.14 4.742-4.777s-2.123-4.777-4.742-4.777-4.742 2.14-4.742 4.777 2.123 4.777 4.742 4.777z"/></defs></svg>