<svg xmlns:v="https://vecta.io/nano" xmlns="http://www.w3.org/2000/svg" width="60" height="60" fill="none"><style><![CDATA[.B{fill-rule:evenodd}.C{fill:#4c739e}.D{fill:#fff}]]></style><path d="M31.363 53.98c13.802 0 25-11.188 25-25s-11.188-25-25-25-25 11.188-25 25 11.188 25 25 25z" fill="#f4f8ff"/><path d="M16.37 5.817c-4.998 0-9.087 2-9.087 4.544V33.08l18.174-9.996V10.36c0-2.454-4.09-4.544-9.087-4.544z" class="D"/><path d="M9.536 6.3c1.802-.895 4.222-1.415 6.833-1.415 2.617 0 5.038.545 6.837 1.45 1.737.874 3.183 2.25 3.183 4.025v13.274L6.35 34.657V10.36c0-1.816 1.438-3.193 3.187-4.062zm.83 1.67c-1.545.767-2.15 1.662-2.15 2.4V31.5l16.31-8.97V10.36c0-.678-.598-1.574-2.156-2.36C20.873 7.25 18.75 6.75 16.37 6.75c-2.388 0-4.51.48-6.003 1.22z" class="B C"/><path d="M7.282 19.448v4.544c0 1.272 1 2.453 2.726 3.27" class="D"/><path d="M6.35 23.992v-4.544h1.866v4.544c0 .738.598 1.673 2.193 2.428l-.8 1.686c-1.858-.88-3.26-2.308-3.26-4.114z" class="B C"/><path d="M7.282 14.905v4.544c0 2 2.635 3.726 6.36 4.362" class="D"/><path d="M6.35 19.448v-4.544h1.866v4.544c0 .557.37 1.24 1.373 1.92.984.666 2.44 1.22 4.212 1.523l-.314 1.84c-1.953-.333-3.68-.96-4.944-1.817-1.246-.843-2.193-2.022-2.193-3.465z" class="B C"/><path d="M7.282 10.36v4.544c0 2.544 4.09 4.544 9.087 4.544s9.087-2 9.087-4.544V10.36" class="D"/><path d="M6.35 14.905V10.36h1.866v4.544c0 .73.606 1.623 2.15 2.4 1.492.74 3.615 1.22 6.003 1.22s4.51-.48 6.003-1.22c1.545-.767 2.15-1.662 2.15-2.4V10.36h1.866v4.544c0 1.816-1.438 3.193-3.187 4.062-1.802.895-4.222 1.415-6.833 1.415s-5.03-.52-6.833-1.415c-1.75-.87-3.187-2.246-3.187-4.062z" class="B C"/><path d="M16.37 14.905c5.02 0 9.087-2.034 9.087-4.544s-4.068-4.544-9.087-4.544-9.087 2.034-9.087 4.544 4.068 4.544 9.087 4.544z" class="D"/><path d="M10.36 7.983c-1.545.773-2.146 1.667-2.146 2.378s.6 1.606 2.146 2.378c1.5.745 3.613 1.232 6 1.232s4.52-.488 6.008-1.232c1.545-.773 2.146-1.667 2.146-2.378s-.6-1.606-2.146-2.378c-1.5-.745-3.613-1.232-6.008-1.232s-4.52.488-6.008 1.232zm-.834-1.67c1.8-.9 4.22-1.43 6.843-1.43s5.043.53 6.843 1.43c1.744.872 3.177 2.25 3.177 4.047s-1.434 3.175-3.177 4.047c-1.8.9-4.22 1.43-6.843 1.43s-5.043-.53-6.843-1.43c-1.744-.872-3.177-2.25-3.177-4.047s1.434-3.175 3.177-4.047zM26.4 14.905v4.544h-1.866v-4.544H26.4zM6.35 29.444v-9.996h1.866v9.996H6.35z" class="B C"/><path d="M57.99 34.897L21.367 54.07 2.01 43.984" class="D"/><path d="M21.366 53.018l36.2-18.948.866 1.653-37.053 19.4L1.58 44.81l.862-1.655 18.924 9.862z" class="B C"/><path d="M57.99 30.444l-36.62 19.174L2.01 39.53" class="D"/><path d="M21.366 48.565l36.2-18.948.866 1.653-37.053 19.4L1.58 40.358l.862-1.655 18.924 9.862z" class="B C"/><path d="M57.99 25.9l-36.62 19.265L2.01 35.078l36.622-19.265L57.99 25.9z" class="D"/><path d="M38.63 14.76L60 25.896 21.37 46.218 0 35.082 38.63 14.76zm.004 2.106L4.023 35.074l17.342 9.038 34.612-18.208-17.342-9.038z" class="B C"/><path d="M47.63 25.264l-7.724-4.09c-1.272.636-2.817.545-3.817 0l-23.81 12.45c1.272.636 1.09 1.454 0 2l7.724 4.09a4.33 4.33 0 0 1 3.817 0l23.81-12.45c-1-.545-1.272-1.363 0-2z" class="D"/><path d="M36.098 20.117l.438.24c.73.398 1.952.485 2.953-.015l.43-.215 9.75 5.162-1.62.8c-.118.06-.2.1-.257.153a1.64 1.64 0 0 0 .287.192l1.533.836-25.78 13.48-.427-.213c-1-.494-2.133-.425-2.982 0l-.43.215-9.75-5.162 1.622-.8a1.6 1.6 0 0 0 .275-.167 1.9 1.9 0 0 0-.275-.164l-1.632-.816L36.1 20.117zm.017 2.097l-22.22 11.618c.143.257.223.55.2.886a1.62 1.62 0 0 1-.21.7l6.156 3.26c1.126-.428 2.48-.484 3.74.001l22.27-11.643c-.105-.194-.178-.4-.2-.65-.033-.345.04-.65.182-.914L39.866 22.2c-1.255.476-2.653.434-3.75.004zm2.04 4.504V24.9h1.866v1.817h-1.866zM19.98 35.805v-1.817h1.866v1.817H19.98z" class="B C"/><path d="M34.544 38.077l-19.992-11.36 9.087-4.544 20.9 10.905v10.996l-9.996 5.36v-11.36z" fill="#a3d4ff"/><path d="M23.648 21.127l21.824 11.387v12.12L33.61 50.995V38.62L12.57 26.666l11.077-5.54zm-7.115 5.644l18.944 10.764v10.343l8.13-4.36v-9.872L23.63 23.222l-7.097 3.55z" class="B C"/><path d="M33.544 28.626c2.1 1.1 2.272 2.817.273 3.908s-5.27.91-7.36-.182-2.272-2.817-.273-3.907 5.18-.91 7.36.182z" class="D"/><path d="M29.764 28.65c-1.207-.042-2.323.17-3.133.614-.836.456-.93.875-.914 1.06.02.24.252.722 1.17 1.202.9.47 2.1.762 3.315.803 1.22.042 2.36-.173 3.168-.614.836-.456.93-.875.914-1.06-.02-.24-.25-.72-1.164-1.198-.956-.476-2.16-.766-3.356-.807zm.064-1.865c1.435.05 2.91.395 4.134 1.007l.007.004.007.004c1.17.61 2.074 1.537 2.168 2.706.1 1.224-.717 2.213-1.88 2.848-1.19.65-2.688.9-4.125.84-1.443-.05-2.924-.393-4.114-1.014-1.17-.61-2.074-1.537-2.168-2.706-.1-1.224.717-2.213 1.88-2.848 1.19-.648 2.662-.9 4.09-.84z" class="B C"/></svg>