<svg xmlns:xlink="http://www.w3.org/1999/xlink" xmlns:v="https://vecta.io/nano" xmlns="http://www.w3.org/2000/svg" width="60" height="60" fill="none"><path d="M29.336 57.713c16.202 0 29.336-12.92 29.336-28.857S45.538 0 29.336 0 0 12.92 0 28.857s13.134 28.857 29.336 28.857z" fill="#f4f8ff"/><path d="M50.6 22.214c4.54 0 8.303 1.525 8.303 3.485V37.35c0 1.96-3.764 3.485-8.303 3.485s-8.303-1.525-8.303-3.485V25.7c0-1.96 3.764-3.485 8.303-3.485z" fill="#fff"/><g fill="#4c739e"><path d="M50.6 36.044c-4.65 0-9.4-1.524-9.4-4.573V25.7h2.214v5.77c0 .762 2.546 2.396 7.196 2.396s7.196-1.633 7.196-2.396V25.7H60v5.77c0 3.05-4.76 4.573-9.4 4.573z"/><use xlink:href="#B"/><path d="M50.6 30.272c-4.65 0-9.4-1.525-9.4-4.574s4.76-4.573 9.4-4.573S60 22.65 60 25.7s-4.76 4.574-9.4 4.574zm0-6.97c-4.65 0-7.196 1.633-7.196 2.396s2.546 2.396 7.196 2.396 7.196-1.633 7.196-2.396-2.546-2.396-7.196-2.396z"/></g><path d="M50.6 10.563c4.54 0 8.303 1.524 8.303 3.485V25.7c0 1.96-3.764 3.485-8.303 3.485s-8.303-1.524-8.303-3.485v-11.65c0-1.96 3.764-3.485 8.303-3.485z" fill="#fff"/><g fill="#4c739e"><path d="M50.6 24.392c-4.65 0-9.4-1.524-9.4-4.573v-5.77h2.214v5.77c0 .762 2.546 2.396 7.196 2.396s7.196-1.633 7.196-2.396v-5.77H60v5.77c0 3.05-4.76 4.573-9.4 4.573z"/><use xlink:href="#B" y="-11.652"/><path d="M50.6 18.62c-4.65 0-9.4-1.524-9.4-4.573s4.76-4.574 9.4-4.574 9.4 1.525 9.4 4.574-4.76 4.573-9.4 4.573zm0-6.97c-4.65 0-7.196 1.633-7.196 2.396s2.546 2.396 7.196 2.396 7.196-1.633 7.196-2.396-2.546-2.396-7.196-2.396z"/></g><path d="M32.878 1.198c4.54 0 8.303 1.525 8.303 3.485v34.955c0 1.96-3.764 3.485-8.303 3.485s-8.303-1.525-8.303-3.485V4.682c0-1.85 3.764-3.485 8.303-3.485z" fill="#fff"/><g fill="#4c739e"><path d="M32.878 15.136c-4.65 0-9.4-1.525-9.4-4.574V4.79h2.214v5.77c0 .762 2.546 2.396 7.195 2.396s7.196-1.633 7.196-2.396V4.79h2.214v5.77c0 2.94-4.76 4.574-9.4 4.574z"/><use xlink:href="#C"/><use xlink:href="#D"/><use xlink:href="#C" y="11.653"/><use xlink:href="#D" y="11.652"/><path d="M32.878 44.2c-4.65 0-9.4-1.525-9.4-4.574v-11.65h2.214v11.652c0 .762 2.546 2.396 7.195 2.396s7.196-1.633 7.196-2.396V27.986h2.214v11.652c0 3.05-4.76 4.574-9.4 4.574zm0-34.954c-4.65 0-9.4-1.525-9.4-4.574S28.23.1 32.878.1s9.4 1.525 9.4 4.574-4.76 4.574-9.4 4.574zm0-6.97c-4.65 0-7.196 1.633-7.196 2.396s2.546 2.396 7.196 2.396 7.196-1.633 7.196-2.396-2.546-2.396-7.196-2.396z"/></g><path d="M45.83 33.866c4.54 0 8.303 1.525 8.303 3.485v11.652c0 1.96-3.764 3.485-8.303 3.485s-8.303-1.525-8.303-3.485V37.35c.11-1.96 3.764-3.485 8.303-3.485z" fill="#fff"/><g fill="#4c739e"><path d="M45.83 47.695c-4.65 0-9.4-1.524-9.4-4.573v-5.77h2.214v5.77c0 .762 2.546 2.396 7.196 2.396s7.196-1.633 7.196-2.396v-5.77h2.214v5.77c0 3.05-4.65 4.573-9.4 4.573z"/><path d="M45.83 53.575c-4.65 0-9.4-1.524-9.4-4.573v-5.77h2.214v5.77c0 .762 2.546 2.396 7.196 2.396s7.196-1.633 7.196-2.396v-5.77h2.214v5.77c0 2.94-4.65 4.573-9.4 4.573zm0-11.65c-4.65 0-9.4-1.525-9.4-4.574s4.76-4.573 9.4-4.573 9.4 1.524 9.4 4.573-4.65 4.574-9.4 4.574zm0-6.97c-4.65 0-7.196 1.633-7.196 2.396s2.546 2.396 7.196 2.396 7.196-1.633 7.196-2.396-2.546-2.396-7.196-2.396z"/></g><path d="M20.7 58.91c9.476 0 17.16-7.557 17.16-16.878S30.178 25.154 20.7 25.154 3.542 32.71 3.542 42.033 11.225 58.91 20.7 58.91z" fill="#fff"/><path d="M20.7 60C10.627 60 2.435 51.942 2.435 42.033S10.627 24.065 20.7 24.065s18.266 8.058 18.266 17.967S30.775 60 20.7 60zm0-33.757c-8.856 0-16.052 7.078-16.052 15.8s7.196 15.8 16.052 15.8 16.052-7.078 16.052-15.8-7.196-15.8-16.052-15.8zM19.04 39.3c0 1.307-.332 2.396-.886 3.158-.664.762-1.55 1.1-2.657 1.1s-1.882-.436-2.546-1.198-.996-1.85-.996-3.158.332-2.396.886-3.158c.664-.762 1.44-1.1 2.546-1.1s1.993.327 2.657 1.1c.664.98.996 1.96.996 3.267zm-4.317.1c0 .762.1 1.198.22 1.525s.332.436.554.436.443-.1.553-.436.22-.87.22-1.525c0-.762-.1-1.198-.22-1.524s-.332-.435-.553-.435-.443.1-.554.435-.22.762-.22 1.524zm11.18-4.138l-7.638 13.503h-2.767l7.638-13.503h2.767zm3.542 9.474c0 1.307-.332 2.396-.886 3.158-.664.762-1.55 1.1-2.657 1.1s-1.882-.436-2.546-1.198-.996-1.85-.996-3.158.332-2.396.886-3.158c.664-.762 1.44-1.1 2.546-1.1s1.993.327 2.657 1.1c.664.87.996 1.96.996 3.267zm-4.207 0c0 .762.1 1.198.22 1.524s.332.436.553.436.443-.218.553-.544.1-.87.1-1.416c0-.653 0-1.1-.1-1.416s-.332-.544-.553-.544-.443.1-.553.436c-.22.327-.22.87-.22 1.525z" fill="#4c739e"/><defs ><path id="B" d="M50.6 41.924c-4.65 0-9.4-1.525-9.4-4.574v-5.77h2.214v5.77c0 .762 2.546 2.396 7.196 2.396s7.196-1.633 7.196-2.396v-5.77H60v5.77c0 2.94-4.76 4.574-9.4 4.574z"/><path id="C" d="M32.878 20.907c-4.65 0-9.4-1.524-9.4-4.573v-5.77h2.214v5.77c0 .762 2.546 2.396 7.195 2.396s7.196-1.633 7.196-2.396v-5.77h2.214v5.77c0 3.05-4.76 4.573-9.4 4.573z"/><path id="D" d="M32.878 26.788c-4.65 0-9.4-1.524-9.4-4.574v-5.77h2.214v5.77c0 .762 2.546 2.396 7.195 2.396s7.196-1.633 7.196-2.396v-5.77h2.214v5.77c0 2.94-4.76 4.574-9.4 4.574z"/></defs></svg>