<svg xmlns:v="https://vecta.io/nano" xmlns="http://www.w3.org/2000/svg" width="60" height="60"  fill="none"><path d="M30.046 48c9.956 0 18.028-8.06 18.028-18s-8.07-18-18.028-18-18.027 8.06-18.027 18 8.07 18 18.028 18z" fill="#d9f0fb"/><path d="M30.046 48.923C19.6 48.923 11.094 40.43 11.094 30S19.6 11.077 30.046 11.077 48.998 19.57 48.998 30s-8.505 18.923-18.952 18.923zm0-36c-9.43 0-17.103 7.66-17.103 17.077s7.673 17.077 17.103 17.077S47.15 39.415 47.15 30s-7.673-17.077-17.103-17.077zM11.833 46.34C7.766 41.815 5.547 36.092 5.547 30c0-7.2 3.143-14.03 8.7-18.646l1.202 1.385C10.354 17.077 7.396 23.354 7.396 30c0 5.538 2.034 10.892 5.732 15.046l-1.294 1.292zM28.104 60C12.388 58.985 0 45.877 0 30.092c0-1.292.092-2.585.277-3.785l1.85.277c-.185 1.2-.185 2.4-.185 3.6 0 14.77 11.556 27.138 26.348 28.062L28.104 60zm13.313-2.215l-.74-1.66C51.3 51.785 58.15 41.54 58.15 30.092c0-4.8-1.202-9.508-3.513-13.66l1.572-.923c2.496 4.43 3.8 9.508 3.8 14.585.093 12.185-7.2 23.077-18.582 27.692zM6 15.23l-1.572-1.015C9.984 5.262 19.507 0 30.046 0c6.286 0 12.296 1.938 17.38 5.538l-1.1 1.477C41.5 3.6 35.87 1.846 29.953 1.846c-9.8 0-18.767 4.985-23.944 13.385z" fill="#4c739e"/><g fill="#a3d4ff"><path d="M31.66 30.4l7.88 7.88-1.16 1.16-7.88-7.88"/><path d="M38.38 39.9l-8.12-8.12.46-.46 7.66 7.66.7-.7-7.66-7.64.46-.48L40 38.28l-1.62 1.62z"/><path d="M32.812 31.098l-1.626 1.626 6.025 6.025 1.626-1.626-6.025-6.025z"/></g><g fill="#4c739e"><path d="M37.22 39.2l-6.5-6.48 2.08-2.08 6.5 6.5-2.08 2.06zm-5.56-6.48l5.56 5.56 1.16-1.16-5.56-5.56-1.16 1.16z"/><path d="M33.507 31.783L31.88 33.4l.467.467 1.626-1.626-.467-.467zm3.94 3.942L35.82 37.35l.467.467 1.626-1.626-.467-.467z"/></g><path d="M26.56 32.88a6.22 6.22 0 1 0 0-12.44 6.22 6.22 0 0 0 0 12.44z" fill="#a3d4ff"/><path d="M26.56 33.22A6.58 6.58 0 0 1 20 26.66c0-1.76.68-3.4 1.92-4.64s2.88-1.92 4.64-1.92c3.62 0 6.56 2.94 6.56 6.56a6.58 6.58 0 0 1-6.56 6.56zm0-12.46c-1.58 0-3.06.62-4.18 1.72a5.85 5.85 0 0 0-1.72 4.18 5.9 5.9 0 1 0 11.8 0 5.9 5.9 0 0 0-5.9-5.9z" fill="#4c739e"/><path d="M26.56 31.58a4.92 4.92 0 1 0 0-9.84 4.92 4.92 0 1 0 0 9.84z" fill="#fff"/><path d="M26.56 31.9c-2.9 0-5.24-2.36-5.24-5.24-.02-2.9 2.34-5.26 5.24-5.26 2.88 0 5.24 2.36 5.24 5.26s-2.36 5.24-5.24 5.24zm0-9.84a4.6 4.6 0 1 0 4.6 4.6c-.02-2.54-2.08-4.6-4.6-4.6zm-3.24 4l-.64-.12c.34-1.86 1.98-3.22 3.88-3.22v.66c-1.6 0-2.96 1.12-3.24 2.68zm5.02 4.12l-.28-.58c.92-.46 1.6-1.34 1.78-2.34l.64.12a3.92 3.92 0 0 1-2.14 2.8z" fill="#4c739e"/><path d="M23.08 27.64c-.08-.32-.14-.64-.14-.98l.14.98z" fill="#fff"/><path d="M22.76 27.72c-.1-.34-.14-.7-.14-1.08h.66a3.48 3.48 0 0 0 .12.9l-.64.18z" fill="#4c739e"/></svg>