<svg xmlns:v="https://vecta.io/nano" xmlns="http://www.w3.org/2000/svg" width="61" height="60" fill="none"><path d="M2.8 27.336H58.8v-5.67H47.307v-2.584L30.8 5.733l-16.507 13.35v2.584H2.8v5.67z" fill="#a3d4ff"/><path d="M59.508 28.054H2.092v-4.52h1.435v3.086h54.545v-2.44h1.435v3.876z" fill="#4c739e"/><path d="M30.8 21.594a4.45 4.45 0 0 0 0-8.9 4.45 4.45 0 0 0 0 8.9z" fill="#fff"/><path d="M30.8 22.384c-2.87 0-5.167-2.297-5.167-5.167S27.93 12.05 30.8 12.05s5.167 2.297 5.167 5.167c0 2.8-2.297 5.168-5.167 5.168zm0-8.97c-2.08 0-3.732 1.65-3.732 3.732s1.65 3.732 3.732 3.732 3.732-1.65 3.732-3.732-1.65-3.732-3.732-3.732zm28.708 8.97H46.6V19.44L30.8 6.666 15 19.44v2.943H2.092v-2.368L.8 18.723v-6.746h18.6v1.435H2.235v4.737l1.292 1.292v1.507h10.048v-2.225L30.8 4.8l17.225 13.923v2.225h10.048V19.44l1.292-1.292V13.41H42.212v-1.435H60.8v6.746l-1.292 1.292v2.368zM4.03 29.848v26.124h1.435v-6.244h2.44v-1.435h-2.44v-4.306h2.44V42.55h-2.44V37.6h2.44v-1.435h-2.44v-4.88h8.1V47.72H15V29.85H4.03zm21.1 17.872h-1.435V34c0-1.507-1.22-2.8-2.8-2.8s-2.8 1.22-2.8 2.8v13.7H16.66V34c0-2.297 1.866-4.234 4.234-4.234 2.297 0 4.234 1.866 4.234 4.234v13.7zm22.105-17.872v17.87h1.435V31.283h8.1v4.88h-2.44V37.6h2.44v4.952h-2.44v1.435h2.44v4.306h-2.44v1.435h2.44v6.244h1.435V29.848h-10.98zM45.513 47.72h-1.435V34c0-1.507-1.22-2.8-2.8-2.8s-2.8 1.22-2.8 2.8v13.7h-1.435V34c0-2.297 1.866-4.234 4.234-4.234 2.297 0 4.235 1.866 4.235 4.234v13.7zm-10.19 0h-1.435V34c0-1.507-1.22-2.8-2.8-2.8-1.507 0-2.8 1.22-2.8 2.8v13.7h-1.435V34c0-2.297 1.866-4.234 4.235-4.234 2.297 0 4.234 1.866 4.234 4.234v13.7zM49.9 50.805H11.7v1.435H49.9v-1.435zm3.16 3.805H8.55v1.435h44.5V54.6z" fill="#4c739e"/></svg>