<svg xmlns:v="https://vecta.io/nano" xmlns="http://www.w3.org/2000/svg" width="60" height="60" fill="none"><path d="M51.39 31.514c1.923-11.89-6.123-23.09-17.972-25.02S10.405 12.638 8.482 24.527s6.123 23.09 17.972 25.02 23.012-6.144 24.935-18.033z" fill="#f4f8ff"/><path d="M21.74 28.02l3.678-5.72c.2-.26.234-.428.084-.612-.16-.193-.493-.193-.87-.084-.694.2-1.555-.017-2.533-.294-1.948-.562-4.756-1.367-5.885.696-.11.2-.033.252.184.495.593.663 3.085 4.69 3.594 5.528h1.747v-.008z" fill="#fff"/><path d="M22.21 28.857h-2.683l-.242-.403-3.502-5.402c-.242-.26-.686-.747-.293-1.46 1.463-2.66 4.832-1.686 6.855-1.1.853.243 1.588.436 2.065.302 1.028-.302 1.538.1 1.747.36.276.344.493.906-.075 1.644-.552.73-3.135 4.823-3.62 5.637l-.25.42zm-1.747-1.677h.803l2.976-4.664c-.744.042-1.52-.16-2.374-.403-1.98-.57-3.837-.998-4.706-.008.744.948 2.625 3.976 3.302 5.075z" fill="#4c739e"/><path d="M32.608 43.804c-.577-1.493-.828-3.062-1.012-5.083l-.376-3.045c-.602-2.533-1.964-5.3-7.716-8.623-2.265-1.308-4.163-.62-5.342 0-5.86 3.078-7.114 6.1-7.715 8.623-.16.67-.25 1.72-.376 3.045-.184 2.02-.435 3.6-1.01 5.083a1.28 1.28 0 0 0 0 .931c.117.294.334.528.602.646 3.427 1.485 7.532 2.223 11.527 2.223 4.02 0 7.916-.755 10.875-2.256.535-.268.777-.956.543-1.543z" fill="#fff"/><path d="M21.19 48.443c-4.23 0-8.443-.814-11.853-2.298a2 2 0 0 1-1.053-1.115c-.192-.495-.184-1.04 0-1.527.56-1.45.786-2.994.96-4.857.125-1.36.217-2.432.393-3.162.694-2.91 2.157-6.03 8.142-9.168 2.157-1.132 4.163-1.124 6.144.017 6.044 3.49 7.473 6.46 8.117 9.15.175.73.267 1.803.393 3.154.167 1.87.393 3.414.96 4.865.385.998-.033 2.14-.944 2.6-2.984 1.5-6.98 2.34-11.26 2.34zm-.31-21.296c-.936 0-1.73.327-2.324.646-5.392 2.827-6.687 5.553-7.29 8.077-.142.612-.242 1.627-.35 2.92-.184 2.013-.435 3.682-1.062 5.318-.042.1-.042.218 0 .327.033.084.092.15.16.176 3.2 1.392 7.18 2.156 11.193 2.156 4.02 0 7.75-.772 10.5-2.164.134-.067.226-.285.142-.495-.635-1.636-.878-3.305-1.062-5.31-.117-1.3-.21-2.315-.35-2.927-.552-2.323-1.822-4.915-7.323-8.094-.82-.46-1.563-.63-2.232-.63z" fill="#4c739e"/><g fill="#dfeeff"><path d="M21.574 12.082h-1.672v5.033h1.672v-5.033z"/><path d="M23.246 13.76H18.23v1.678h5.016V13.76zm9.194-5.872h-1.67v5.033h1.672V7.888z"/><path d="M34.113 9.566h-5.015v1.678h5.015V9.566z"/></g><path d="M38.552 28.02c.72-.84 4.422-7.03 5.24-8.103.284-.37.343-.587.125-.847-.226-.277-.702-.268-1.237-.11-.995.294-2.224-.017-3.61-.42-2.775-.805-6.78-1.946-8.393.998-.16.285-.05.3.26.654.844.93 4.405 6.987 5.124 7.826h2.49z" fill="#a3d4ff"/><path d="M38.936 28.857h-3.252l-.25-.285c-.368-.42-1.145-1.67-2.4-3.657l-2.725-4.16-.117-.126c-.217-.235-.677-.713-.25-1.493 1.948-3.548 6.587-2.198 9.362-1.4 1.262.37 2.366.646 3.143.42 1.212-.352 1.822.017 2.123.386.677.847.084 1.627-.11 1.887-.36.47-1.388 2.122-2.382 3.707l-2.884 4.437-.26.285zm-2.458-1.677h1.655l2.525-3.942 2.207-3.464c-1.187.335-2.533 0-4.03-.436-3.085-.89-5.96-1.535-7.256.3.476.545 1.446 2.09 2.876 4.362l2.023 3.17z" fill="#4c739e"/><path d="M54.05 50.615c-.828-2.13-1.18-4.37-1.438-7.247l-.535-4.345c-.86-3.607-2.8-7.566-11.01-12.296-3.227-1.862-5.935-.88-7.615 0-8.36 4.387-10.148 8.7-11.01 12.296-.226.956-.36 2.45-.535 4.336-.26 2.877-.62 5.125-1.438 7.256-.167.42-.167.897 0 1.325a1.64 1.64 0 0 0 .861.923c4.882 2.114 10.742 3.18 16.434 3.18 5.726 0 11.285-1.074 15.506-3.212.76-.386 1.112-1.367.777-2.214z" fill="#a3d4ff"/><path d="M37.766 56.88c-5.985 0-11.945-1.15-16.77-3.246-.593-.26-1.07-.763-1.312-1.392a2.74 2.74 0 0 1 0-1.929c.82-2.105 1.145-4.337 1.388-7.03.176-1.938.318-3.447.552-4.462.97-4.06 3.026-8.43 11.435-12.842 2.96-1.552 5.7-1.552 8.418.017 8.5 4.907 10.508 9.067 11.402 12.825.242 1.015.385 2.533.552 4.462.242 2.692.568 4.915 1.388 7.02.485 1.25-.033 2.684-1.18 3.263-4.188 2.14-9.83 3.313-15.874 3.313zm-.443-30.38c-1.404 0-2.583.495-3.486.965-7.816 4.102-9.705 8.07-10.583 11.75-.2.9-.343 2.35-.5 4.185-.26 2.87-.6 5.226-1.496 7.515a.98.98 0 0 0 0 .721c.084.2.234.377.4.453 4.623 2.005 10.34 3.103 16.1 3.103 5.785 0 11.16-1.107 15.13-3.12.376-.193.552-.713.376-1.157-.886-2.3-1.237-4.647-1.496-7.482-.167-1.854-.3-3.322-.518-4.22-.8-3.397-2.658-7.172-10.608-11.768-1.195-.688-2.307-.948-3.32-.948zM27.258 40.063l-1.63-.394c.844-3.53 2.633-7.33 9.93-11.164L36.336 30c-6.704 3.523-8.326 6.928-9.078 10.074zm-12.43-3.07l-1.63-.394c.527-2.223 1.647-4.613 6.203-7.004l.777 1.485c-4.155 2.2-4.94 4.202-5.35 5.913z" fill="#4c739e"/><g fill="#dfeeff"><path d="M52.503 23.825H50.83v5.033h1.672v-5.033z"/><path d="M54.175 25.502H49.16v1.677h5.016v-1.677z"/></g><g fill="#4c739e"><path d="M38.24 18.245l-.585 4.677 1.66.2.585-4.677-1.66-.2zm.052 29.055H36.62a2.52 2.52 0 0 1-2.508-2.516h1.672a.84.84 0 0 0 .836.839h1.672a.84.84 0 0 0 .836-.839v-.47a.84.84 0 0 0-.569-.797l-2.725-.914c-1.028-.344-1.714-1.3-1.714-2.4v-.46a2.52 2.52 0 0 1 2.508-2.516H38.3a2.52 2.52 0 0 1 2.508 2.516h-1.672a.84.84 0 0 0-.836-.839h-1.67a.84.84 0 0 0-.836.839v.47a.85.85 0 0 0 .569.797l2.725.914a2.51 2.51 0 0 1 1.714 2.4v.46c0 1.384-1.12 2.516-2.508 2.516z"/><path d="M38.292 34.73H36.62v3.355h1.672V34.73zm0 11.742H36.62v3.355h1.672v-3.355z"/></g></svg>