<svg width="40" height="38" fill="none" xmlns="http://www.w3.org/2000/svg"><path d="M1.777 17.563h34.359v-3.48h-7.048v-1.586L18.957 4.304 8.825 12.497v1.586H1.777v3.48z" fill="#A3D4FF"/><path d="M36.576 18.003H1.336v-2.775h.882v1.894h33.477v-1.498h.881v2.38z" fill="#4C739E"/><path d="M18.957 14.039a2.731 2.731 0 100-5.462 2.731 2.731 0 000 5.462z" fill="#fff"/><path d="M18.957 14.523a3.158 3.158 0 01-3.172-3.171 3.158 3.158 0 013.172-3.172 3.158 3.158 0 013.171 3.172c0 1.718-1.41 3.171-3.171 3.171zm0-5.506a2.275 2.275 0 00-2.291 2.29 2.275 2.275 0 002.29 2.291 2.275 2.275 0 002.291-2.29 2.275 2.275 0 00-2.29-2.29z" fill="#4C739E"/><path d="M36.576 14.523h-7.928v-1.806l-9.691-7.84-9.691 7.84v1.806h-7.93V13.07l-.792-.793v-4.14h11.409v.88H1.425v2.907l.793.793v.925h6.167v-1.365L18.957 3.73l10.572 8.546v1.365h6.166v-.925l.793-.793V9.017H25.961v-.88h11.408v4.14l-.793.793v1.453zM2.526 19.105v16.034h.881v-3.833h1.498v-.88H3.407v-2.644h1.498v-.88H3.407v-3.04h1.498v-.881H3.407v-2.996h4.978v10.088h.88V19.105H2.527zM15.477 30.073h-.881V21.66a1.72 1.72 0 00-1.718-1.718c-.97 0-1.718.748-1.718 1.718v8.413h-.881V21.66a2.604 2.604 0 012.599-2.6 2.604 2.604 0 012.599 2.6v8.413zM27.987 28.785h-.654l-.227-7.125a1.72 1.72 0 00-1.718-1.718c-.97 0-1.718.748-1.718 1.718v8.413h-.881V21.66a2.604 2.604 0 012.599-2.6 2.604 2.604 0 012.599 2.6v7.125zM21.732 30.073h-.881V21.66a1.72 1.72 0 00-1.718-1.718 1.72 1.72 0 00-1.718 1.718v8.413h-.881V21.66a2.604 2.604 0 012.599-2.6 2.604 2.604 0 012.599 2.6v8.413zM26.99 31.967H7.24v.881h19.75v-.881zM28.317 34.301H5.301v.881h23.016v-.88z" fill="#4C739E"/><path d="M34.755 28.695c-.273.04-.545 0-.817-.08a.628.628 0 00-.777.278c-.7 1.11-2.333 1.11-3.071 0-.155-.277-.505-.357-.777-.277-.156.079-.35.079-.506.118 0 0-.738 3.963-3.887 7.846 1.438-.079 2.293-.475 3.265-1.03.35.476.739 1.308 1.05 2.22.816-.793 2.216-3.567 2.682-4.756.583 1.744 1.438 3.765 2.488 4.755.31-.911.7-1.743 1.05-2.219.971.515 1.826.912 3.265 1.03-3.15-3.883-3.965-7.885-3.965-7.885z" fill="#A3D4FF"/><path fill-rule="evenodd" clip-rule="evenodd" d="M25.378 35.726a19.746 19.746 0 002.765-4.555 16.63 16.63 0 00.654-1.768 10.907 10.907 0 00.173-.639l.008-.036.002-.01v-.003l.001-.001-.408-.073a75.86 75.86 0 01-.409-.071l-.001.007a3.034 3.034 0 01-.036.15c-.027.107-.07.266-.13.47-.124.406-.323.99-.626 1.69a19.017 19.017 0 01-3.276 5.104.36.36 0 00-.048.422.424.424 0 00.402.205c1.448-.109 2.378-.448 3.32-.884.289.436.602 1.072.868 1.778a.405.405 0 00.295.246.44.44 0 00.385-.095c.254-.223.53-.565.801-.948.276-.389.562-.842.835-1.302a32.12 32.12 0 001.327-2.477l-.763-.305a31.346 31.346 0 01-1.293 2.413c-.267.45-.542.885-.802 1.251a9.055 9.055 0 01-.253.342c-.288-.656-.614-1.242-.929-1.63a.439.439 0 00-.524-.11c-.762.366-1.434.659-2.338.829z" fill="#4C739E"/><path fill-rule="evenodd" clip-rule="evenodd" d="M35.611 30.888a20.18 20.18 0 003.022 5.104.387.387 0 01.044.422.378.378 0 01-.367.204c-1.318-.108-2.165-.447-3.022-.882-.263.435-.548 1.07-.79 1.776a.375.375 0 01-.617.152c-.569-.543-1.06-1.332-1.478-2.181a21.556 21.556 0 01-1.067-2.67 34.435 34.435 0 01-.881-3.171l-.011-.052-.003-.013-.001-.005.37-.08.37-.08v.003l.003.012.01.048.043.187a33.61 33.61 0 00.817 2.908c.283.852.628 1.759 1.028 2.571.287.585.596 1.107.922 1.523.264-.665.566-1.262.856-1.654a.376.376 0 01.478-.11c.693.365 1.305.657 2.127.827a21.05 21.05 0 01-2.552-4.547 18.456 18.456 0 01-.622-1.765 12.292 12.292 0 01-.176-.673l-.003-.01v-.004l.37-.08.37-.078.002.007a2.38 2.38 0 00.035.15c.027.108.068.267.128.47.119.407.31.99.595 1.69z" fill="#4C739E"/><path d="M37.412 22.62c.759-1.067.265-2.748-.91-3.158a.667.667 0 01-.456-.697c.038-1.353-1.252-2.419-2.429-1.927-.265.123-.607 0-.758-.287-.683-1.148-2.277-1.148-2.998 0-.152.287-.493.369-.759.287-1.176-.451-2.466.574-2.428 1.927 0 .328-.19.615-.456.697-1.214.37-1.707 2.05-.91 3.157.19.246.19.615 0 .861-.759 1.066-.266 2.747.91 3.157a.667.667 0 01.456.697c-.038 1.354 1.252 2.42 2.428 1.928.266-.123.607 0 .759.287.683 1.148 2.277 1.148 2.998 0 .151-.287.493-.37.758-.287 1.177.45 2.467-.575 2.429-1.928 0-.328.19-.615.455-.697 1.214-.369 1.708-2.05.91-3.157-.189-.287-.189-.615 0-.86z" fill="#fff"/><path fill-rule="evenodd" clip-rule="evenodd" d="M29.403 16.676c.936-1.308 3.016-1.324 3.919.008l.006.008.005.01a.267.267 0 00.302.107l.007-.003.007-.002c1.565-.575 3.227.662 3.178 2.199v.018l-.003.018a.18.18 0 00.044.137c.04.05.098.087.154.102l.006.002.007.002c1.537.47 2.175 2.372 1.182 3.597l-.005.006-.005.006c-.069.078-.093.19.014.335 1.022 1.256.4 3.168-1.2 3.596-.09.024-.192.128-.194.282.044 1.543-1.615 2.707-3.152 2.2a.425.425 0 00-.213.006.212.212 0 00-.129.088l-.008.013-.009.013c-.936 1.308-3.016 1.323-3.918-.008l-.006-.009-.005-.009a.267.267 0 00-.303-.107l-.006.002-.007.003c-1.565.574-3.228-.663-3.178-2.2v-.018l.003-.018a.18.18 0 00-.044-.136.305.305 0 00-.154-.102l-.007-.002-.006-.002c-1.537-.47-2.175-2.373-1.182-3.597l.005-.006.005-.006a.245.245 0 000-.318l-.004-.005-.005-.006c-1.03-1.255-.408-3.174 1.194-3.602.091-.025.192-.128.194-.282-.044-1.543 1.615-2.707 3.153-2.201a.426.426 0 00.212-.005.212.212 0 00.13-.089l.007-.013.01-.012zm.685.426c-.288.46-.874.546-1.277.437l-.013-.003-.012-.004c-.995-.335-2.107.436-2.075 1.447v.012c0 .465-.306.903-.788 1.034h-.002c-1.015.271-1.459 1.533-.774 2.374a.991.991 0 01.001 1.3c-.638.794-.213 2.069.783 2.378.43.12.837.532.78 1.058-.022 1.017 1.09 1.79 2.059 1.438.478-.19 1.056.001 1.321.43.572.833 1.919.849 2.54-.005.289-.46.875-.547 1.278-.438l.012.004.013.004c.994.334 2.107-.436 2.074-1.448v-.012c0-.464.307-.903.789-1.033h.001c1.018-.272 1.46-1.538.77-2.379l-.004-.006-.005-.007c-.296-.393-.321-.897.012-1.283.638-.794.214-2.069-.782-2.377-.43-.12-.837-.532-.78-1.059.021-1.017-1.091-1.789-2.06-1.438-.477.19-1.055 0-1.32-.429-.573-.833-1.919-.85-2.54.005z" fill="#4C739E"/><path d="M31.36 26.73a3.68 3.68 0 100-7.36 3.68 3.68 0 000 7.36z" fill="#A3D4FF"/><path fill-rule="evenodd" clip-rule="evenodd" d="M31.36 20.106a2.944 2.944 0 100 5.888 2.944 2.944 0 000-5.888zm-3.68 2.944a3.68 3.68 0 117.36 0 3.68 3.68 0 01-7.36 0z" fill="#4C739E"/></svg>