<svg xmlns="http://www.w3.org/2000/svg" width="60" height="60" fill="none" xmlns:v="https://vecta.io/nano"><path d="M28.56 50.46c11.4 0 20.64-9.24 20.64-20.64S39.96 9.18 28.56 9.18 7.92 18.42 7.92 29.82s9.24 20.64 20.64 20.64z" fill="#f4f8ff"/><path d="M28.56 58.32c-13.32 0-25.02-9.42-27.9-22.44l1.92-.42C5.22 47.58 16.14 56.34 28.5 56.34c4.32 0 8.58-1.02 12.36-3l.9 1.74a28.81 28.81 0 0 1-13.2 3.24zM54.3 42l-1.8-.84a26.43 26.43 0 0 0 2.58-11.4c0-11.4-7.26-21.48-18-25.14l.66-1.86c11.58 3.9 19.38 14.76 19.38 27-.06 4.32-.96 8.4-2.82 12.24z" fill="#dfeeff"/><path d="M34.98 31.2l23.64 23.64-3.48 3.48L31.5 34.68" fill="#a3d4ff"/><path d="M55.14 59.7L30.78 35.34l1.38-1.38 22.98 22.98 2.1-2.1-22.98-22.92 1.38-1.44L60 54.84l-4.86 4.86z" fill="#4c739e"/><path d="M38.437 33.293l-4.88 4.88 18.073 18.073 4.88-4.88-18.074-18.074z" fill="#a3d4ff"/><g fill="#4c739e"><path d="M51.66 57.6l-19.5-19.44 6.24-6.24 19.5 19.5-6.24 6.18zM34.98 38.16l16.68 16.68 3.48-3.48-16.68-16.68-3.48 3.48z"/><path d="M40.52 35.35l-4.88 4.88 1.4 1.4 4.88-4.88-1.4-1.4zm11.82 11.824l-4.88 4.88 1.4 1.4 4.88-4.88-1.4-1.4z"/></g><path d="M19.68 38.64c10.306 0 18.66-8.354 18.66-18.66S29.986 1.32 19.68 1.32 1.02 9.674 1.02 19.98s8.354 18.66 18.66 18.66z" fill="#f4f8ff"/><path d="M19.68 39.66C8.82 39.66 0 30.78 0 19.98 0 14.7 2.04 9.78 5.76 6.06S14.4.3 19.68.3c10.86 0 19.68 8.82 19.68 19.68 0 10.8-8.82 19.68-19.68 19.68zm0-37.38c-4.74 0-9.18 1.86-12.54 5.16-3.36 3.36-5.16 7.8-5.16 12.54 0 9.78 7.92 17.7 17.7 17.7s17.7-7.92 17.7-17.7-7.92-17.7-17.7-17.7z" fill="#4c739e"/><path d="M19.68 34.74c8.152 0 14.76-6.608 14.76-14.76S27.832 5.22 19.68 5.22 4.92 11.828 4.92 19.98s6.608 14.76 14.76 14.76z" fill="#fff"/><path d="M19.68 35.7A15.74 15.74 0 0 1 3.96 19.98C3.9 11.28 10.98 4.2 19.68 4.2c8.64 0 15.72 7.08 15.72 15.78A15.74 15.74 0 0 1 19.68 35.7zm0-29.52c-7.62 0-13.8 6.18-13.8 13.8s6.18 13.8 13.8 13.8 13.8-6.18 13.8-13.8c-.06-7.62-6.24-13.8-13.8-13.8zm-9.72 12l-1.92-.36c1.02-5.58 5.94-9.66 11.64-9.66v1.98c-4.8 0-8.88 3.36-9.72 8.04zm15.06 12.36l-.84-1.74c2.76-1.38 4.8-4.02 5.34-7.02l1.92.36a11.76 11.76 0 0 1-6.42 8.4z" fill="#4c739e"/><path d="M9.24 22.92c-.24-.96-.42-1.92-.42-2.94l.42 2.94z" fill="#fff"/><path d="M8.28 23.16c-.3-1.02-.42-2.1-.42-3.24h1.98a10.44 10.44 0 0 0 .36 2.7l-1.92.54z" fill="#4c739e"/></svg>