<svg xmlns:v="https://vecta.io/nano" xmlns="http://www.w3.org/2000/svg" width="60" height="60" fill="none"><path d="M30 53c12.703 0 23-10.297 23-23S42.703 7 30 7 7 17.297 7 30s10.298 23 23 23z" fill="#f4f8ff"/><path d="M18.893 4.32C8.952 8.566 2 18.5 2 30c0 4.247.965 8.3 2.704 11.972l-1.807.856C1.035 38.9 0 34.553 0 30 0 17.7 7.448 7.033 18.107 2.48l.786 1.84zM30 58c10.236 0 19.116-5.404 24.043-13.614l1.715 1.03C50.484 54.204 40.964 60 30 60c-7.038 0-13.552-2.484-18.715-6.5l1.23-1.577C17.352 55.684 23.438 58 30 58zm28-28C58 14.842 45.93 2.482 30.868 2l.064-2C47.07.517 60 13.757 60 30v.025c0 .685 0 1.346-.1 2.116l-1.98-.283c.1-.62.1-1.153.1-1.86z" fill-rule="evenodd" fill="#dfeeff"/><path d="M28.5 7C22.1 7 17 12.1 17 18.5v17c0 4.4 2.4 8.2 6 10.1V18.5c0-3 2.5-5.5 5.5-5.5s5.5 2.5 5.5 5.5v27.1c3.6-2 6-5.7 6-10.1v-17C40 12.2 34.9 7 28.5 7z" fill="#fff"/><path fill-rule="evenodd" d="M16 18.5C16 11.547 21.548 6 28.5 6 35.458 6 41 11.653 41 18.5v17c0 4.786-2.617 8.81-6.514 10.974L33 47.3V18.5c0-2.448-2.052-4.5-4.5-4.5S24 16.052 24 18.5v28.76l-1.467-.774C18.607 44.412 16 40.272 16 35.5v-17zM28.5 8C22.652 8 18 12.652 18 18.5v17c0 3.39 1.555 6.38 4 8.27V18.5c0-3.552 2.948-6.5 6.5-6.5s6.5 2.948 6.5 6.5v25.238c2.456-1.936 4-4.862 4-8.238v-17C39 12.746 34.342 8 28.5 8z" fill="#4c739e"/><path d="M40.6 48H16.5a3.37 3.37 0 0 1-3.4-3.4V29.5a3.37 3.37 0 0 1 3.4-3.4h24.1a3.37 3.37 0 0 1 3.4 3.4v15.1a3.37 3.37 0 0 1-3.4 3.4z" fill="#a3d4ff"/><path d="M16.5 27.1a2.37 2.37 0 0 0-2.4 2.4v15.1a2.37 2.37 0 0 0 2.4 2.4h24.1a2.37 2.37 0 0 0 2.4-2.4V29.5a2.37 2.37 0 0 0-2.4-2.4H16.5zm-4.4 2.4a4.37 4.37 0 0 1 4.4-4.4h24.1a4.37 4.37 0 0 1 4.4 4.4v15.1a4.37 4.37 0 0 1-4.4 4.4H16.5a4.37 4.37 0 0 1-4.4-4.4V29.5zM17 40V30h2v10h-2zm0 5v-2h2v2h-2z" fill-rule="evenodd" fill="#4c739e"/><path d="M33 34c0-2.2-1.8-4-4-4s-4 1.8-4 4c0 1.5.8 2.8 2 3.4V42c0 1.1.9 2 2 2s2-.9 2-2v-4.6c1.2-.6 2-1.9 2-3.4z" fill="#fff"/><path fill-rule="evenodd" d="M24 34c0-2.752 2.248-5 5-5s5 2.248 5 5c0 1.624-.76 3.1-2 3.965V42c0 1.652-1.348 3-3 3s-3-1.348-3-3v-4.035c-1.24-.866-2-2.342-2-3.965zm5-3c-1.648 0-3 1.352-3 3 0 1.147.608 2.086 1.447 2.506l.553.276V42c0 .548.452 1 1 1s1-.452 1-1V36.78l.553-.276C31.392 36.086 32 35.147 32 34c0-1.648-1.352-3-3-3z" fill="#4c739e"/></svg>