<svg xmlns:v="https://vecta.io/nano" xmlns="http://www.w3.org/2000/svg" width="60" height="60"  fill="none"><path d="M30.046 48c9.956 0 18.028-8.06 18.028-18s-8.07-18-18.028-18-18.027 8.06-18.027 18 8.07 18 18.028 18z" fill="#d9f0fb"/><path d="M30.046 48.923C19.6 48.923 11.094 40.43 11.094 30S19.6 11.077 30.046 11.077 48.998 19.57 48.998 30s-8.505 18.923-18.952 18.923zm0-36c-9.43 0-17.103 7.66-17.103 17.077s7.673 17.077 17.103 17.077S47.15 39.415 47.15 30s-7.673-17.077-17.103-17.077zM11.833 46.34C7.766 41.815 5.547 36.092 5.547 30c0-7.2 3.143-14.03 8.7-18.646l1.202 1.385C10.354 17.077 7.396 23.354 7.396 30c0 5.538 2.034 10.892 5.732 15.046l-1.294 1.292zM28.104 60C12.388 58.985 0 45.877 0 30.092c0-1.292.092-2.585.277-3.785l1.85.277c-.185 1.2-.185 2.4-.185 3.6 0 14.77 11.556 27.138 26.348 28.062L28.104 60zm13.313-2.215l-.74-1.66C51.3 51.785 58.15 41.54 58.15 30.092c0-4.8-1.202-9.508-3.513-13.66l1.572-.923c2.496 4.43 3.8 9.508 3.8 14.585.093 12.185-7.2 23.077-18.582 27.692zM6 15.23l-1.572-1.015C9.984 5.262 19.507 0 30.046 0c6.286 0 12.296 1.938 17.38 5.538l-1.1 1.477C41.5 3.6 35.87 1.846 29.953 1.846c-9.8 0-18.767 4.985-23.944 13.385z" fill="#4c739e"/><path d="M29.5 43a2.5 2.5 0 1 0 0-5 2.5 2.5 0 1 0 0 5zm-2.45-10.598c0-2.338 3.472-4.763 4.794-6.15 1.157-1.213.992-3.205-.413-4.244-.827-.606-1.984-.606-2.8-.087-.744.52-1.157 1.212-1.24 2.08 0 1.04-.165 1.472-1.157 1.472H24.57c-1 0-1.57-.433-1.57-1.473.083-2.08.992-4.07 2.728-5.456 2.315-1.905 5.62-2.08 8.1-.346 3.803 2.685 4.216 8.14 1.075 11.26-.992.953-3.472 2.598-3.72 3.8v.866c0 .52-.33.866-.827.866h-2.48c-.496 0-.827-.346-.827-.866v-1.732z" fill="#a3d4ff" stroke="#4c739e" stroke-width="2" stroke-miterlimit="10"/></svg>