<svg xmlns:v="https://vecta.io/nano" xmlns="http://www.w3.org/2000/svg" width="60" height="60" fill="none"><path d="M27.445 58C42.602 58 54.9 45.688 54.9 30.5S42.602 3 27.445 3 0 15.312 0 30.5 12.287 58 27.445 58z" fill="#f4f8ff"/><g fill="#dfeeff"><path d="M58.107 12.483h-1.893v5.7h1.893v-5.7z"/><path d="M60 14.38h-5.678v1.897H60V14.38zM7.95 37.138H6.057v5.7H7.95v-5.7z"/><path d="M9.842 39.035H4.164v1.896h5.678v-1.896z"/></g><path d="M43.912 5.845H10.79c-2.082 0-3.786 1.707-3.786 3.793v18.017c0 2.086 1.703 3.793 3.786 3.793h33.123c2.082 0 3.785-1.707 3.785-3.793V9.638c0-2.086-1.704-3.793-3.785-3.793z" fill="#fff"/><g fill="#4c739e"><path d="M13.628 32.397h-2.84c-2.65 0-4.732-2.086-4.732-4.74V9.638c0-2.655 2.082-4.74 4.732-4.74h33.123c2.65 0 4.732 2.086 4.732 4.74v13.276H46.75V9.638c0-1.612-1.23-2.845-2.84-2.845H10.79c-1.61 0-2.84 1.233-2.84 2.845v18.017c0 1.612 1.23 2.845 2.84 2.845h2.84v1.897z"/><path d="M47.697 9.638H7.003v1.897h40.694V9.638zm0 5.7H7.003v1.896h40.694v-1.896z"/></g><path d="M19.306 24.8c-2.082 0-3.786 1.707-3.786 3.793v19.914c0 2.086 1.704 3.793 3.786 3.793H52.43c2.082 0 3.785-1.707 3.785-3.793V28.604c0-2.086-1.703-3.793-3.785-3.793H19.306z" fill="#a3d4ff"/><path d="M52.43 53.26H19.306c-2.65 0-4.732-2.086-4.732-4.74V28.603c0-2.655 2.082-4.74 4.732-4.74H52.43c2.65 0 4.732 2.086 4.732 4.74v19.914c0 2.655-2.082 4.74-4.732 4.74zm-33.123-27.5c-1.6 0-2.84 1.233-2.84 2.845V48.52c0 1.612 1.23 2.845 2.84 2.845H52.43c1.6 0 2.84-1.233 2.84-2.845V28.603c0-1.612-1.23-2.845-2.84-2.845H19.306zm7.57 18.964H21.2v1.897h5.678v-1.897zm7.57 0h-4.732v1.897h4.732v-1.897zm8.517 0h-5.678v1.897h5.678v-1.897zm8.518 0h-5.678v1.897h5.678v-1.897z" fill="#4c739e"/><path d="M51.483 33.82a3.36 3.36 0 0 1-3.312 3.319h-.946a3.36 3.36 0 0 1-3.312-3.319 3.36 3.36 0 0 1 3.312-3.319h.946a3.36 3.36 0 0 1 3.312 3.319z" fill="#fff"/><path d="M48.17 38.086h-.946c-2.366 0-4.26-1.896-4.26-4.267s1.893-4.267 4.26-4.267h.946c2.366 0 4.26 1.897 4.26 4.267s-1.893 4.267-4.26 4.267zm-.946-6.638c-1.325 0-2.366 1.043-2.366 2.37s1.04 2.37 2.366 2.37h.946c1.325 0 2.366-1.043 2.366-2.37s-1.04-2.37-2.366-2.37h-.946zM18.36 19.12H9.842v1.896h8.517V19.12zm10.4 0h-8.517v1.896h8.517V19.12z" fill="#4c739e"/></svg>