<svg xmlns:v="https://vecta.io/nano" xmlns="http://www.w3.org/2000/svg" width="60" height="60" fill="none"><path d="M35.238 51.524C48.914 51.524 60 40.438 60 26.762S48.914 2 35.238 2 10.476 13.086 10.476 26.762s11.086 24.762 24.762 24.762z" fill="#f4f8ff"/><path d="M43.8 20.095H10.476v37.143H43.8V20.095z" fill="#fff"/><g fill-rule="evenodd" fill="#4c739e"><path d="M9.476 19.095H44.8v39.143H9.476V19.095zm2 2v35.143H42.8V21.095H11.476zm10.43 4.762h-3.8v-2h3.8v2zm16.2 0h-3.8v-2h3.8v2z"/><path d="M19 16.762a9.09 9.09 0 0 1 18.191 0v8.095h-2v-8.095a7.09 7.09 0 1 0-14.19 0v8.095h-2v-8.095z"/></g><path d="M57.143 33.43H34.286v23.8h22.857V33.43z" fill="#a3d4ff"/><g fill-rule="evenodd" fill="#4c739e"><path d="M33.286 32.43h24.857v25.8H33.286v-25.8zm2 2v21.8h20.857v-21.8H35.286zm15.2 1.808h2.667v2h-2.667v-2zm-11.428 0h2.667v2h-2.667v-2z"/><path d="M39.38 42.952v-5.714h2v5.714c0 2.59 2.124 4.714 4.714 4.714s4.714-2.124 4.714-4.714v-5.714h2v5.714c0 3.695-3.02 6.714-6.714 6.714s-6.714-3.02-6.714-6.714z"/></g><g fill="#dfeeff"><path d="M53.333 22H51.43v5.714h1.905V22z"/><path d="M55.238 23.905h-5.714V25.8h5.714v-1.905zM44.762 8.667h-1.905v5.714h1.905V8.667z"/><path d="M46.667 10.57h-5.714v1.905h5.714V10.57zM3.8 30.57H1.905v5.714H3.8V30.57z"/><path d="M5.714 32.476H0v1.905h5.714v-1.905z"/></g><path d="M5.62 40.095c-1.333 0-2.38 1.048-2.38 2.38v12.38c0 1.333 1.048 2.38 2.38 2.38h20.667c1.333 0 2.38-1.048 2.38-2.38v-12.38c0-1.333-1.048-2.38-2.38-2.38H5.62z" fill="#f4f8ff"/><g fill="#4c739e"><path fill-rule="evenodd" d="M2.238 42.476c0-1.886 1.495-3.38 3.38-3.38h20.667c1.886 0 3.38 1.495 3.38 3.38v12.38c0 1.886-1.495 3.38-3.38 3.38H5.62c-1.886 0-3.38-1.495-3.38-3.38v-12.38zm3.38-1.38c-.78 0-1.38.6-1.38 1.38v12.38c0 .78.6 1.38 1.38 1.38h20.667c.78 0 1.38-.6 1.38-1.38v-12.38c0-.78-.6-1.38-1.38-1.38H5.62z"/><path d="M10.286 52.57H6.762v1.143h3.524V52.57zm4.762 0h-2.952v1.143h2.952V52.57zm5.332 0h-3.524v1.143h3.524V52.57zm5.24 0h-3.524v1.143h3.524V52.57z"/></g><path d="M25.714 45.714c0 1.143-.952 2.095-2.095 2.095h-.57c-1.143 0-2.095-.952-2.095-2.095s.952-2.095 2.095-2.095h.57c1.143 0 2.095.952 2.095 2.095z" fill="#a3d4ff"/><path d="M23.62 48.38h-.57a2.73 2.73 0 0 1-2.667-2.667 2.73 2.73 0 0 1 2.667-2.667h.57a2.73 2.73 0 0 1 2.667 2.667 2.73 2.73 0 0 1-2.667 2.667zm-.57-4.095c-.857 0-1.524.667-1.524 1.524s.667 1.524 1.524 1.524h.57c.857 0 1.524-.667 1.524-1.524s-.667-1.524-1.524-1.524h-.57z" fill="#4c739e"/></svg>