<svg xmlns:xlink="http://www.w3.org/1999/xlink" xmlns:v="https://vecta.io/nano" xmlns="http://www.w3.org/2000/svg" width="60" height="60" fill="none"><path d="M21.55 54.214c11.902 0 21.55-9.53 21.55-21.284s-9.648-21.284-21.55-21.284S0 21.175 0 32.93s9.648 21.284 21.55 21.284z" fill="#f4f8ff"/><g fill="#fff"><path d="M39.975 14.943c-3.403 0-6.23 1.19-6.23 2.605v21.806c0 1.416 2.77 2.605 6.23 2.605s6.23-1.19 6.23-2.605V17.548c0-1.416-2.827-2.605-6.23-2.605z"/><path d="M52.376 24.57c-3.403 0-6.23 1.19-6.23 2.605v8.722c0 1.416 2.77 2.605 6.23 2.605s6.23-1.19 6.23-2.605v-8.722c0-1.473-2.77-2.605-6.23-2.605z"/></g><g fill="#4c739e"><path d="M39.975 25.42c3.52 0 7.095-1.2 7.095-3.512v-4.36h-1.788v4.36c0 .623-2.02 1.756-5.307 1.756s-5.307-1.133-5.307-1.756v-4.36H32.88v4.36c0 2.322 3.576 3.512 7.095 3.512z"/><use xlink:href="#B"/><use xlink:href="#B" y="4.363"/><use xlink:href="#B" y="8.724"/><path d="M39.975 42.865c3.52 0 7.095-1.2 7.095-3.512v-4.36h-1.788v4.36c0 .623-2.02 1.756-5.307 1.756s-5.307-1.133-5.307-1.756v-4.36H32.88v4.36c0 2.266 3.576 3.512 7.095 3.512zm0-21.805c3.52 0 7.095-1.2 7.095-3.512s-3.576-3.512-7.095-3.512-7.095 1.2-7.095 3.512 3.576 3.512 7.095 3.512zm0-5.2c3.288 0 5.307 1.133 5.307 1.756s-2.02 1.756-5.307 1.756-5.307-1.133-5.307-1.756 2.02-1.756 5.307-1.756z"/><use xlink:href="#C"/><use xlink:href="#C" y="4.362"/><path d="M52.905 35.447c3.52 0 7.095-1.19 7.095-3.512s-3.52-3.455-7.095-3.455-7.095 1.19-7.095 3.512 3.576 3.455 7.095 3.455zm0-5.21c3.288 0 5.307 1.133 5.307 1.756s-2.02 1.756-5.307 1.756-5.307-1.133-5.307-1.756 2.02-1.756 5.307-1.756z"/></g><path d="M39.27 6.892H6.928v38.396H39.27V6.892z" fill="#fff"/><path d="M39.27 46.18H6.928a.92.92 0 0 1-.902-.892V6.892A.92.92 0 0 1 6.928 6H39.27a.92.92 0 0 1 .902.892v38.395c.06.476-.36.892-.902.892zM7.83 44.336h30.54V7.783H7.83v36.553z" fill="#4c739e"/><path d="M35.544 10.517H10.596v31.085h24.948V10.517z" fill="#fff"/><g fill="#4c739e"><path d="M35.544 26.1H10.596v1.842h24.948V26.1zm-8.296 7.3H10.596v1.843h16.652V33.4z"/><path d="M19.854 19.67H18v21.932h1.864V19.67zm8.346 0h-1.864v21.932H28.2V19.67z"/></g><path d="M35.544 10.517H10.596v9.153h24.948v-9.153z" fill="#a3d4ff"/><path d="M36.506 20.562H9.694V9.626h26.812v10.936zM11.558 18.78h23.145v-7.31H11.558v7.31z" fill="#2a5082"/><g fill="#4c739e"><path d="M36.506 42.553H9.694V9.626h26.812v32.927zM11.558 40.71h23.145V11.468H11.558V40.71z"/><path d="M35.544 18.78H10.596v1.842h24.948V18.78z"/></g><path d="M5.082 41.23l1.5-5.924h2.81s.937-.926 3.75-2.777 7.497-2.777 7.497-2.777H30s.937 0 4.686 1.85 4.686 3.702 4.686 3.702 5.623 0 9.37.925 6.56 3.702 6.56 3.702v6.48H9.205c-2.81 0-4.78-2.5-4.123-5.183z" fill="#a3d4ff"/><path d="M20.546 28.827H30v.926l.002-.925h.03l.035.002.085.007.238.038a7.26 7.26 0 0 1 .845.232c.758.25 1.972.732 3.87 1.67 1.96.968 3.214 1.95 3.992 2.72a9.11 9.11 0 0 1 .785.89l.45.01 2.378.103c1.9.117 4.3.352 6.26.836 2.025.5 3.77 1.5 4.996 2.338l1.452 1.113.397.352.108.1.044.044s.001.001-.662.655l.663-.654.275.27v7.788H9.205c-3.423 0-5.83-3.065-5.034-6.326l.002-.007 1.677-6.63h3.18l.598-.5 2.994-2.13c1.52-1 3.5-1.727 5.047-2.197l1.973-.536.6-.135.162-.034.044-.01.012-.002.005-.001a148.14 148.14 0 0 1 .184.907l-.184-.907.092-.018zm.2 1.85l-.103.022-.55.126-1.863.506c-1.5.455-3.268 1.118-4.56 1.968l-2.863 2.035-.592.5-.125.112-.024.023-.003.003-.273.27H7.313l-1.32 5.22C5.48 43.567 7.008 45.5 9.206 45.5h45.17v-5.15l-.173-.15c-.302-.258-.746-.614-1.3-.998-1.118-.773-2.652-1.633-4.376-2.06-1.8-.442-4.063-.67-5.923-.784l-2.308-.1-.675-.012-.18-.002h-.638l-.255-.503-.017-.03-.116-.173c-.117-.16-.318-.412-.632-.722-.628-.62-1.716-1.488-3.505-2.372-1.85-.913-2.978-1.356-3.626-1.57l-.62-.173h-.062-9.234zM15.3 35.035l1.325-1.3 1.6 1.58h16.092l.663-.654 1.325 1.3-1.212 1.197H17.44l-2.15-2.122z" fill="#4c739e" fill-rule="evenodd"/><use xlink:href="#D" fill="#fff"/><path fill-rule="evenodd" d="M15.016 41.785c-2.07 0-3.75 1.658-3.75 3.702s1.678 3.702 3.75 3.702 3.748-1.658 3.748-3.702-1.678-3.702-3.748-3.702zm-5.623 3.702c0-3.067 2.517-5.553 5.623-5.553s5.623 2.486 5.623 5.553-2.517 5.553-5.623 5.553-5.623-2.486-5.623-5.553z" fill="#4c739e"/><use xlink:href="#D" x="29.988" fill="#fff"/><path fill-rule="evenodd" d="M45.004 41.785c-2.07 0-3.748 1.658-3.748 3.702s1.678 3.702 3.75 3.702 3.75-1.658 3.75-3.702-1.678-3.702-3.75-3.702zm-5.623 3.702c0-3.067 2.517-5.553 5.623-5.553s5.623 2.486 5.623 5.553-2.517 5.553-5.623 5.553-5.623-2.486-5.623-5.553z" fill="#4c739e"/><defs ><path id="B" d="M39.975 29.78c3.52 0 7.095-1.19 7.095-3.512v-4.36h-1.788v4.36c0 .623-2.02 1.756-5.307 1.756s-5.307-1.133-5.307-1.756v-4.36H32.88v4.36c0 2.322 3.576 3.512 7.095 3.512z"/><path id="C" d="M52.905 39.808c3.52 0 7.095-1.19 7.095-3.512v-4.36h-1.788v4.36c0 .623-2.02 1.756-5.307 1.756s-5.307-1.133-5.307-1.756v-4.36H45.8v4.36c0 2.322 3.576 3.512 7.095 3.512z"/><path id="D" d="M15.016 50.115c2.588 0 4.686-2.072 4.686-4.628s-2.098-4.628-4.686-4.628-4.686 2.072-4.686 4.628 2.098 4.628 4.686 4.628z"/></defs></svg>