<svg xmlns:v="https://vecta.io/nano" xmlns="http://www.w3.org/2000/svg" width="61" height="61" fill="none"><path d="M29.89 60c15.965 0 28.907-12.918 28.907-28.852S45.855 2.295 29.89 2.295.984 15.213.984 31.148 13.926 60 29.89 60z" fill="#f4f8ff"/><path d="M59.016 17.377H.984v30.6h58.033v-30.6z" fill="#fff"/><path d="M0 16.393h60V48.96H0V16.393zm1.967 1.967v28.634h56.066V18.36H1.967zm49.385 5.465H23.978v-1.967h27.374v1.967zm0 4.372H23.978V26.23h27.374v1.967zm0 4.37H23.978V30.6h27.374v1.967zM39.307 36.94h-15.33v-1.967h15.33v1.967zm16.425-24.044H4.268V10.93H55.73v1.967zm-4.38-5.464H8.648V5.464H51.35V7.43zm-4.38-5.465H13.028V0h33.944v1.967z" fill-rule="evenodd" fill="#4c739e"/><path d="M14.452 32.678H8.43a1.96 1.96 0 0 1-1.971-1.967V24.7a1.96 1.96 0 0 1 1.971-1.967h6.022a1.96 1.96 0 0 1 1.971 1.967v6.01c-.1 1.093-.985 1.967-1.97 1.967z" fill="#a3d4ff"/><path fill-rule="evenodd" d="M8.43 23.716c-.553 0-.987.436-.987.983v6.01c0 .548.434.984.987.984h6.022c.388 0 .902-.386.987-1.04V24.7c0-.548-.434-.983-.987-.983H8.43zm-2.955.983c0-1.638 1.318-2.95 2.955-2.95h6.022c1.636 0 2.954 1.313 2.954 2.95v6.06l-.005.05c-.15 1.507-1.375 2.853-2.95 2.853H8.43c-1.636 0-2.955-1.313-2.955-2.95V24.7z" fill="#4c739e"/></svg>