<svg xmlns="http://www.w3.org/2000/svg" width="50" height="50" fill="none">
    <path d="M25.685 48.478c13.157 0 23.823-10.666 23.823-23.823S38.841.833 25.685.833 1.862 11.499 1.862 24.656s10.666 23.823 23.823 23.823z"
          fill="#f4f8ff"/>
    <g fill="#dfeeff">
        <path d="M11.376 9.619a3.91 3.91 0 0 1-3.928-3.928 3.91 3.91 0 0 1 3.928-3.928 3.91 3.91 0 0 1 3.928 3.928 3.91 3.91 0 0 1-3.928 3.928zm0-6.11a2.16 2.16 0 0 0-2.182 2.182 2.16 2.16 0 0 0 2.182 2.182 2.16 2.16 0 0 0 2.182-2.182 2.16 2.16 0 0 0-2.182-2.182zm14.459 1.979H24.09v5.237h1.746V5.488z"/>
        <path d="M27.581 7.234h-5.237V8.98h5.237V7.234zm-24.09 9.135H1.746v5.237h1.746v-5.237z"/>
        <path d="M5.237 18.115H0v1.746h5.237v-1.746z"/>
    </g>
    <path d="M17.141 13.758c-1.807 0-3.286 1.479-3.286 3.286v17.251c0 1.807 1.479 3.286 3.286 3.286h28.751c1.807 0 3.286-1.479 3.286-3.286V17.044c0-1.807-1.479-3.286-3.286-3.286H17.141z"
          fill="#a3d4ff"/>
    <path d="M45.893 38.402H17.141c-2.3 0-4.107-1.807-4.107-4.107V17.044c0-2.3 1.807-4.107 4.107-4.107h28.751c2.3 0 4.107 1.807 4.107 4.107v17.251c0 2.3-1.807 4.107-4.107 4.107zM17.141 14.579c-1.397 0-2.464 1.068-2.464 2.464v17.251c0 1.396 1.068 2.464 2.464 2.464h28.751c1.397 0 2.464-1.068 2.464-2.464v-17.25c0-1.397-1.068-2.464-2.464-2.464H17.141zm6.572 16.43h-4.929v1.643h4.929v-1.643zm6.572 0h-4.107v1.643h4.107v-1.643zm7.393 0h-4.929v1.643h4.929v-1.643zm7.393 0h-4.929v1.643h4.929v-1.643z"
          fill="#4c739e"/>
    <path d="M45.071 21.562c0 1.561-1.314 2.875-2.875 2.875h-.821c-1.561 0-2.875-1.314-2.875-2.875s1.314-2.875 2.875-2.875h.821c1.561 0 2.875 1.314 2.875 2.875z"
          fill="#fff"/>
    <path d="M42.196 25.258h-.822a3.68 3.68 0 0 1-3.697-3.697 3.68 3.68 0 0 1 3.697-3.697h.822a3.68 3.68 0 0 1 3.697 3.697 3.68 3.68 0 0 1-3.697 3.697zm-.822-5.75c-1.15 0-2.054.904-2.054 2.054s.904 2.054 2.054 2.054h.822c1.15 0 2.054-.904 2.054-2.054s-.904-2.054-2.054-2.054h-.822z"
          fill="#4c739e"/>
    <path d="M17.401 34.476a1.94 1.94 0 0 1-.826-.08c-.275-.12-.629 0-.787.281-.708 1.123-2.36 1.123-3.108 0-.157-.281-.511-.361-.787-.281-.157.08-.354.08-.511.12 0 0-.748 4.01-3.934 7.94 1.455-.08 2.321-.481 3.304-1.043.354.481.747 1.323 1.062 2.246.826-.802 2.242-3.609 2.714-4.812.59 1.765 1.455 3.81 2.518 4.812.315-.922.708-1.765 1.062-2.246.983.521 1.849.922 3.304 1.043-3.186-3.93-4.012-7.98-4.012-7.98z"
          fill="#a3d4ff"/>
    <g fill="#4c739e" fill-rule="evenodd">
        <path d="M7.912 41.591a19.98 19.98 0 0 0 2.798-4.609 16.82 16.82 0 0 0 .662-1.79l.142-.509.033-.137.008-.037.002-.01v-.003-.001c0 0 0-.001-.413-.073l-.413-.073v.001l-.001.007-.007.029-.029.122-.133.475c-.125.412-.326 1.002-.633 1.711-.614 1.418-1.645 3.302-3.315 5.165-.108.12-.127.288-.049.427a.43.43 0 0 0 .407.207c1.465-.11 2.407-.453 3.359-.894.292.441.61 1.084.879 1.799a.41.41 0 0 0 .298.25c.139.031.285-.005.389-.096.257-.226.537-.572.811-.96l.845-1.318 1.342-2.506-.772-.309c-.268.571-.767 1.53-1.308 2.442l-.811 1.266-.257.346c-.291-.663-.621-1.256-.94-1.648-.123-.152-.348-.199-.531-.111-.771.37-1.451.666-2.366.838z"/>
        <path d="M18.267 36.695a20.42 20.42 0 0 0 3.058 5.166c.098.12.116.288.044.426s-.217.22-.371.207c-1.334-.11-2.191-.453-3.058-.893-.266.44-.555 1.084-.8 1.797-.043.124-.145.218-.271.249a.38.38 0 0 1-.354-.095c-.575-.55-1.072-1.349-1.495-2.208-.425-.865-.787-1.819-1.08-2.701l-.673-2.3-.174-.713-.045-.197-.011-.052-.003-.014-.001-.005c0 0 0 0 .374-.082l.374-.081.001.004.003.012.011.049.043.189.17.695.657 2.247c.286.863.635 1.78 1.04 2.602.291.592.604 1.12.934 1.541.267-.673.573-1.277.866-1.674a.38.38 0 0 1 .483-.111c.701.369 1.321.665 2.153.837-1.243-1.679-2.062-3.323-2.583-4.601l-.629-1.787-.138-.507-.033-.137-.008-.037-.002-.01-.001-.004c0 0 0-.001.375-.08l.375-.08v.001l.008.036.029.122.129.475c.121.412.314 1.003.603 1.711z"/>
    </g>
    <path d="M20.089 28.328c.768-1.079.269-2.78-.922-3.195-.269-.083-.499-.373-.461-.705.038-1.369-1.267-2.448-2.457-1.95-.269.125-.614 0-.768-.291-.691-1.162-2.304-1.162-3.033 0-.154.291-.499.373-.768.291-1.19-.456-2.496.581-2.457 1.95 0 .332-.192.622-.461.705-1.229.373-1.728 2.075-.922 3.195a.73.73 0 0 1 0 .871c-.768 1.079-.269 2.78.922 3.195.269.083.499.373.461.705-.038 1.369 1.267 2.448 2.457 1.95.269-.124.614 0 .768.29.691 1.162 2.304 1.162 3.034 0 .154-.29.499-.373.768-.29 1.19.456 2.496-.581 2.457-1.95 0-.332.192-.622.461-.705 1.229-.373 1.728-2.075.922-3.195-.192-.29-.192-.622 0-.871z"
          fill="#fff"/>
    <path fill-rule="evenodd"
          d="M11.985 22.313c.947-1.324 3.052-1.339 3.966.008l.006.009.005.009a.27.27 0 0 0 .306.109l.007-.003.007-.003c1.584-.581 3.266.671 3.216 2.226l-.001.018-.003.018c-.005.042.007.09.045.138a.31.31 0 0 0 .155.104l.007.002.007.002c1.556.476 2.201 2.401 1.196 3.64l-.005.006-.005.006c-.069.079-.094.192.015.34 1.034 1.271.404 3.206-1.215 3.638-.092.025-.194.129-.196.285.045 1.561-1.634 2.74-3.19 2.227a.43.43 0 0 0-.215.005c-.068.02-.109.053-.131.09l-.008.013-.009.013c-.947 1.324-3.052 1.339-3.966-.008l-.006-.009-.005-.009a.27.27 0 0 0-.306-.109l-.007.003-.007.002c-1.584.581-3.266-.671-3.216-2.226l.001-.018.002-.018c.006-.042-.006-.09-.045-.138a.31.31 0 0 0-.155-.104l-.007-.002-.007-.002c-1.556-.476-2.201-2.401-1.196-3.64l.005-.006.005-.006c.079-.09.079-.232 0-.322l-.004-.005-.004-.005c-1.042-1.271-.413-3.212 1.209-3.646.092-.025.194-.129.196-.286-.045-1.561 1.634-2.74 3.19-2.227a.43.43 0 0 0 .215-.005c.068-.02.109-.053.131-.09l.008-.013.009-.012zm.693.431c-.292.466-.885.553-1.293.443l-.012-.003-.012-.004c-1.007-.339-2.132.441-2.1 1.465v.006.006c0 .47-.31.914-.798 1.046h-.002c-1.028.274-1.476 1.551-.783 2.402.328.379.328.936.001 1.316-.646.804-.216 2.093.792 2.406.435.122.847.539.789 1.071-.022 1.03 1.104 1.811 2.084 1.456.484-.192 1.069.001 1.337.434.579.843 1.941.859 2.57-.005.292-.466.885-.553 1.293-.443l.013.003.012.004c1.007.339 2.132-.441 2.1-1.465v-.006-.006c0-.47.31-.914.798-1.046h.002c1.03-.275 1.478-1.555.78-2.407l-.005-.006-.005-.006c-.3-.398-.325-.908.013-1.299.646-.804.216-2.093-.792-2.406-.435-.122-.847-.538-.789-1.071.022-1.03-1.104-1.811-2.083-1.456-.484.192-1.069-.001-1.337-.434-.579-.843-1.941-.859-2.57.005z"
          fill="#4c739e"/>
    <path d="M13.965 32.487c2.057 0 3.724-1.667 3.724-3.724s-1.667-3.724-3.724-3.724-3.724 1.667-3.724 3.724 1.667 3.724 3.724 3.724z"
          fill="#a3d4ff"/>
    <path fill-rule="evenodd"
          d="M13.965 25.784a2.98 2.98 0 0 0-2.979 2.979 2.98 2.98 0 0 0 2.979 2.979 2.98 2.98 0 0 0 2.979-2.979 2.98 2.98 0 0 0-2.979-2.979zm-3.724 2.979c0-2.057 1.667-3.724 3.724-3.724s3.724 1.667 3.724 3.724-1.667 3.724-3.724 3.724-3.724-1.667-3.724-3.724z"
          fill="#4c739e"/>
</svg>