<svg xmlns:v="https://vecta.io/nano" xmlns="http://www.w3.org/2000/svg" width="60" height="60" fill="none"><path d="M20.58 45.076c11.367 0 20.58-9.195 20.58-20.538S31.948 4 20.58 4 0 13.195 0 24.538s9.215 20.538 20.58 20.538z" fill="#f4f8ff"/><path d="M7.674 48.122v-25.76c0-2.698 2.18-4.786 4.797-4.786h37.674c2.703 0 4.796 2.176 4.796 4.786v25.76H7.674z" fill="#fff"/><g fill-rule="evenodd" fill="#4c739e"><path d="M12.47 18.446c-2.145 0-3.924 1.7-3.924 3.916v24.9H54.07v-24.9c0-2.14-1.713-3.916-3.924-3.916H12.47zM6.8 22.362c0-3.2 2.58-5.657 5.67-5.657h37.674a5.65 5.65 0 0 1 5.669 5.657v26.63H6.802v-26.63zm3.578-1.74h41.948V45.86H50.58V22.362H12.12V45.86h-1.744V20.622z"/><path d="M35.93 53.43h-9.157V51.7h9.157v1.74zM2.703 47.252H60v.87C60 53.04 56.034 57 51.105 57h-39.4c-5.035.092-9-3.97-9-8.877v-.87zm1.796 1.74c.426 3.56 3.438 6.338 7.17 6.266h39.435c3.67 0 6.672-2.723 7.1-6.266H4.5zm18.468-21.79c-.54.733-.903 1.788-.903 3s.36 2.258.903 3 1.22 1.1 1.888 1.1 1.346-.365 1.888-1.1.903-1.788.903-3-.36-2.258-.903-3-1.22-1.1-1.888-1.1-1.346.365-1.888 1.1zm-1.404-1.032c.784-1.062 1.938-1.807 3.292-1.807s2.508.745 3.292 1.807S29.4 28.66 29.4 30.195s-.46 2.962-1.243 4.024-1.938 1.807-3.292 1.807-2.508-.745-3.292-1.807-1.243-2.487-1.243-4.024.46-2.962 1.243-4.024z"/></g><path d="M17.093 45.86v-4.177s-.35-3.916 2.965-3.916H39.68s.087 4.177-3.314 4.177h-6.192v3.916h-13.08z" fill="#a3d4ff"/><path d="M21.977 42.465v3.394h-1.744v-3.394h1.744zm-5.757-.75v-.023l-.007-.152.007-.514c.022-.415.1-.988.286-1.576s.535-1.233 1.127-1.734c.606-.513 1.4-.82 2.426-.82h19.62s.001 0 .001.87l.872-.017v.07l-.004.16-.042.54a6.79 6.79 0 0 1-.395 1.65c-.236.6-.616 1.276-1.235 1.8-.634.528-1.466.855-2.512.855h-5.32v3.046H29.3v-4.786h7.064c.655 0 1.087-.195 1.394-.45.322-.268.558-.648.725-1.08a4.73 4.73 0 0 0 .244-.905H20.06c-.642 0-1.037.184-1.298.405-.275.233-.47.566-.6.958a4.3 4.3 0 0 0-.199 1.116l-.005.374.004.096.001.02.003.038v4.216H16.22v-4.145zm23.46-3.948l.872-.017-.018-.853h-.854v.87z" fill-rule="evenodd" fill="#4c739e"/><path d="M32.616 26.104c-1.395 0-2.616-1.13-2.616-2.61V9.57c0-1.392 1.134-2.61 2.616-2.61h22.85c1.395 0 2.616 1.13 2.616 2.61v13.924c0 1.392-1.134 2.61-2.616 2.61H43.692l-8.198 6.875c-.436.522-1.308.174-1.308-.522v-6.353h-1.57z" fill="#fff"/><g fill="#4c739e"><path fill-rule="evenodd" d="M32.616 7.83a1.75 1.75 0 0 0-1.744 1.741v13.924a1.75 1.75 0 0 0 1.744 1.741h2.442v6.974l8.316-6.974h12.09a1.75 1.75 0 0 0 1.744-1.741V9.57a1.75 1.75 0 0 0-1.744-1.741h-22.85zm-3.488 1.74c0-1.854 1.505-3.48 3.488-3.48h22.85c1.858 0 3.488 1.502 3.488 3.48v13.924c0 1.854-1.505 3.48-3.488 3.48H44l-7.906 6.63c-.495.532-1.207.596-1.75.38-.563-.225-1.04-.78-1.04-1.526v-5.483h-.698c-1.858 0-3.488-1.502-3.488-3.48V9.57z"/><path d="M41.773 15.487h-2.267v2.263h2.267v-2.263zm3.49 0h-2.267v2.263h2.267v-2.263zm3.4 0h-2.267v2.263h2.267v-2.263z"/></g></svg>