<svg xmlns:v="https://vecta.io/nano" xmlns="http://www.w3.org/2000/svg" width="60" height="60" fill="none"><path d="M27.31 55c11.825 0 21.41-9.717 21.41-21.703s-9.586-21.703-21.41-21.703S5.9 21.31 5.9 33.297 15.486 55 27.31 55z" fill="#f4f8ff"/><g fill-rule="evenodd"><path d="M10.468 23.327h4.758v2h-4.758v-2zM0 27.185h12.37v2H0v-2z" fill="#4c739e"/><path d="M37.113 9.823h12.37v2h-12.37v-2zM26.645 49.37h17.13v2h-17.13v-2zM3.806 5h17.13v2H3.806V5z" fill="#dfeeff"/><path d="M8.564 25.327H6.66v-2h1.903v2z" fill="#4c739e"/><path d="M33.307 9.823H35.2v2h-1.903v-2zm-3.807 0h1.903v2H29.5v-2zm-3.806 0h1.903v2h-1.903v-2z" fill="#dfeeff"/></g><path d="M59 18.54H16.177v25.08H59V18.54z" fill="#fff"/><path fill-rule="evenodd" d="M15.177 17.54H60v27.08H15.177V37.83h2v4.787H58V19.54H17.177v15.398h-2V17.54z" fill="#4c739e"/><path d="M51.387 38.795H23.8c0-1.64-1.237-2.894-2.855-2.894v-9.646c1.618 0 2.855-1.254 2.855-2.894h27.597c0 1.64 1.237 2.894 2.855 2.894v9.646c-1.618 0-2.855 1.35-2.855 2.894z" fill="#a3d4ff"/><path d="M22.8 22.362h29.597v1c0 1.1.802 1.894 1.855 1.894h1v11.646h-1c-1.03 0-1.855.868-1.855 1.894v1H22.8v-1c0-1.1-.802-1.894-1.855-1.894h-1V25.256h1c1.053 0 1.855-.793 1.855-1.894v-1zm1.878 2a3.79 3.79 0 0 1-2.732 2.768v7.897a3.77 3.77 0 0 1 2.732 2.768h25.85c.35-1.312 1.37-2.398 2.723-2.762V27.13a3.77 3.77 0 0 1-2.733-2.768h-25.84zm3.87 7.718h-1.903v-2h1.903v2zm19.984 0H46.63v-2h1.903v2z" fill-rule="evenodd" fill="#4c739e"/><path d="M37.59 35.902c2.365 0 4.282-2.16 4.282-4.823s-1.917-4.823-4.282-4.823-4.282 2.16-4.282 4.823 1.917 4.823 4.282 4.823z" fill="#fff"/><path d="M37.6 27.256c-1.704 0-3.282 1.596-3.282 3.823s1.578 3.823 3.282 3.823 3.282-1.596 3.282-3.823-1.578-3.823-3.282-3.823zm-5.282 3.823c0-3.1 2.257-5.823 5.282-5.823s5.282 2.722 5.282 5.823-2.257 5.823-5.282 5.823-5.282-2.722-5.282-5.823zM6.66 33.937h12.37v2H6.66v-2z" fill-rule="evenodd" fill="#4c739e"/></svg>