<svg xmlns:v="https://vecta.io/nano" xmlns="http://www.w3.org/2000/svg" width="61" height="60" fill="none"><style><![CDATA[.B{fill-rule:evenodd}.C{fill:#4c739e}.D{fill:#a3d4ff}]]></style><path d="M24.983 54.497A20 20 0 0 0 44.98 34.5a20 20 0 0 0-19.997-19.997A20 20 0 0 0 4.986 34.5a20 20 0 0 0 19.997 19.997z" fill="#f4f8ff"/><path d="M23.317 21.168l.833-2.5 1.666 1.666 8.332-1.666s-3.333-5-10.832-3.333-9.165 8.332-9.165 8.332l9.165-2.5z" class="D"/><path d="M34.84 18.206c0 0 .001.001-.693.463l.693-.462.7 1.035-9.99 1.998-1.03-1.028-.548 1.644-10.968 2.99.345-1.38.808.202-.808-.203v-.001l.001-.002.002-.007.005-.02.02-.07.074-.243.316-.843c.293-.697.765-1.64 1.486-2.64 1.448-2.005 3.902-4.23 7.9-5.117 3.97-.882 6.893-.003 8.83 1.137.96.565 1.67 1.188 2.14 1.674l.535.606.14.184.04.055.012.017.004.006v.003zm-19.323 4.226l7.15-1.95 1.12-3.356L26.1 19.43l6.455-1.29a8.68 8.68 0 0 0-1.423-1.044c-1.603-.943-4.096-1.73-7.625-.946-3.51.78-5.64 2.72-6.9 4.465-.475.658-.826 1.288-1.08 1.817z" class="B C"/><path d="M23.15 11.003L25.4 9.67l.167 2.333 9 5.083s.833-5.916-5.916-9.665c-6.75-3.666-12.415.167-12.415.167l6.916 3.416z" class="D"/><path d="M19.73 5.315c2.414-.534 5.73-.575 9.316 1.373l.007.004c3.57 1.984 5.18 4.575 5.876 6.71a10.09 10.09 0 0 1 .492 2.665l-.003.806-.018.23-.007.067-.003.028v.003h0c0 .001 0 .001-.825-.115l.825.116-.17 1.2-10.453-5.904-.102-1.434-1.48.876L14.58 7.7l1.187-.803.467.7-.466-.69h.001v-.001l.024-.016.06-.04.217-.13.795-.416a13.56 13.56 0 0 1 2.863-.977zm-1.643 2.258c.54-.224 1.216-.457 2.003-.63 2.105-.466 4.995-.508 8.157 1.208 3.176 1.766 4.524 4.006 5.098 5.767a8.56 8.56 0 0 1 .374 1.734l-7.354-4.154-.23-3.232-3.02 1.8-5.026-2.483z" class="B C"/><path d="M46.813 15.253l-1.916-1.833-.75 2.25-10 2.666s.666-6 8.166-7.915c7.416-1.916 11.915 3.25 11.915 3.25l-7.416 1.583z" class="D"/><path d="M50.672 12.068c-1.91-.98-4.678-1.738-8.15-.84h-.002c-3.53.902-5.4 2.743-6.398 4.316a8.6 8.6 0 0 0-.804 1.618l8.18-2.18 1.024-3.07 2.548 2.437 5.387-1.15c-.465-.356-1.064-.758-1.786-1.128zm3.557 1.602l.628-.548-.002-.003-.005-.005-.014-.016-.05-.053-.176-.182-.662-.606a13.39 13.39 0 0 0-2.515-1.671c-2.194-1.125-5.382-1.99-9.326-.972-3.97 1.014-6.18 3.13-7.39 5.037a10.15 10.15 0 0 0-1.143 2.476l-.198.787-.04.23-.01.067-.003.028v.003.001a66.91 66.91 0 0 0 .828.093l-.828-.092-.135 1.21 11.6-3.096.476-1.428 1.285 1.23 9.23-1.97-.93-1.067-.628.547z" class="B C"/><path d="M33.565 20.585l3.166-.25s5 7.5 6.666 19.164 1.666 14.998 1.666 14.998H32.565S36.732 52.83 36.732 42c-.083-11.665-3.166-21.414-3.166-21.414z" fill="#fff"/><g class="B C"><path d="M37.425 19.873l-.693.462.693-.462.002.003.004.006.013.02.046.072.17.27.607 1.04a45.46 45.46 0 0 1 1.937 3.926 55.02 55.02 0 0 1 4.019 14.173c.835 5.843 1.253 9.607 1.463 11.916.105 1.155.158 1.946.184 2.453l.024.557.003.137.001.036v.015c0 0 0 .001-.833.001h.833v.833H28.24l4.005-1.602c.015-.007.04-.02.08-.043a2.72 2.72 0 0 0 .36-.258c.316-.264.775-.736 1.247-1.54.946-1.608 1.968-4.574 1.968-9.886-.04-5.763-.824-11.06-1.598-14.92-.387-1.93-.77-3.495-1.057-4.577l-.345-1.244-.095-.32-.024-.08-.006-.02-.001-.004-.316-1 4.7-.37.27.407zm-2.773 1.462l.202.742c.294 1.1.686 2.7 1.08 4.676.788 3.93 1.588 9.34 1.63 15.24V42c0 5.518-1.06 8.8-2.198 10.734-.21.355-.42.664-.626.93h9.456c-.028-.487-.08-1.207-.17-2.216-.207-2.274-.62-6.01-1.453-11.83a53.35 53.35 0 0 0-3.896-13.74 43.76 43.76 0 0 0-1.865-3.781c-.21-.377-.387-.675-.517-.9l-1.642.13z"/><path d="M38.315 25.334h-3.333v-1.666h3.333v1.666zm3.332 7.333H35.98V31h5.666v1.667zm1.583 7.665h-6.582v-1.666h6.582v1.666zm1 7.416h-7.916v-1.666h7.916v1.666z"/></g><path d="M31.65 25.334c1.84 0 3.333-1.492 3.333-3.333S33.5 18.67 31.65 18.67s-3.333 1.492-3.333 3.333 1.492 3.333 3.333 3.333z" fill="#fff"/><path d="M31.65 19.502a2.5 2.5 0 0 0-2.5 2.5 2.5 2.5 0 0 0 2.5 2.5 2.5 2.5 0 0 0 2.5-2.5 2.5 2.5 0 0 0-2.5-2.5zm-4.166 2.5c0-2.3 1.865-4.166 4.166-4.166s4.166 1.865 4.166 4.166-1.865 4.166-4.166 4.166-4.166-1.865-4.166-4.166z" class="B C"/><path d="M36.648 22.002c2.3 0 4.166-1.865 4.166-4.166s-1.865-4.166-4.166-4.166-4.166 1.865-4.166 4.166 1.865 4.166 4.166 4.166z" fill="#fff"/><path d="M36.648 14.503c-1.84 0-3.333 1.492-3.333 3.333s1.492 3.333 3.333 3.333 3.333-1.492 3.333-3.333-1.492-3.333-3.333-3.333zm-5 3.333a5 5 0 0 1 4.999-4.999 5 5 0 0 1 4.999 4.999 5 5 0 0 1-4.999 4.999 5 5 0 0 1-4.999-4.999z" class="B C"/><path d="M13.318 54.497S25.816 43.665 39.98 43.665s19.164 10.832 19.164 10.832H13.318z" fill="#fff"/><path d="M13.318 54.497l-.546-.63-1.688 1.463h49.363l-.546-1.182-.756.35.756-.35v-.004l-.004-.01-.014-.03L59.83 54l-.198-.372-.8-1.3c-.72-1.06-1.83-2.468-3.4-3.876-3.15-2.824-8.132-5.63-15.45-5.63-7.282 0-14.093 2.78-19.047 5.52a57.11 57.11 0 0 0-5.933 3.779 45.39 45.39 0 0 0-1.64 1.25l-.434.354-.114.096-.04.035-.001.001.546.63zm2.412-.833H57.7l-.258-.4a19.75 19.75 0 0 0-3.135-3.571c-2.9-2.592-7.5-5.203-14.337-5.203-6.882 0-13.404 2.636-18.24 5.312a55.48 55.48 0 0 0-5.758 3.668l-.253.186zm7.497-13.742c-.58-.58-1.46-.645-2.004-.25l-.017.012-1.924 1.255c-1.165.807-2.626.655-3.693-.092l-.017-.012-.785-.6-.018-.016c-.38-.332-1.008-.417-1.578-.132L9.525 41.9l-.745-1.5 3.666-1.833c1.088-.544 2.45-.467 3.4.35l.715.556c.593.407 1.283.42 1.778.072l.01-.008L20.26 38.3c1.287-.92 3.062-.65 4.144.43l1.916 1.916-1.178 1.178-1.916-1.916zm-8.332 5.832c-.58-.58-1.46-.645-2.004-.25l-.017.013-1.924 1.255c-1.165.807-2.627.655-3.693-.092l-.017-.012-.785-.6-.018-.016c-.38-.332-1.008-.417-1.578-.132l-3.666 1.833-.745-1.5L4.114 44.4c1.088-.544 2.45-.467 3.4.35l.715.556c.593.407 1.283.42 1.778.072l.01-.008 1.912-1.247c1.287-.92 3.062-.65 4.144.43L18 46.492l-1.178 1.178-1.916-1.916z" class="B C"/></svg>