<svg width="111" height="68" viewBox="0 0 111 68" fill="none" xmlns="http://www.w3.org/2000/svg">
    <path d="M16 26.5C7.19997 32.1 3.3333 50.1667 2.49997 58.5C0.999967 60.1667 1.59997 62.7 16 59.5C14.8 50.3 22.1666 39.3333 26 35C22.5 30.5 21.5 29.5 16 26.5Z"
          fill="#F71E1E"/>
    <path d="M50.8967 10.9692C40.8835 8.0478 24.7529 17.0568 17.9393 21.9264C15.6972 21.8981 14.1887 24.0199 26.0913 32.7336C32.2153 25.764 45.3172 24.0685 51.1027 24.092C52.1769 18.4933 52.2691 17.0821 50.8967 10.9692Z"
          fill="#FCA600"/>
    <path d="M86.8061 24.0578C81.034 15.3697 62.8947 11.8595 54.5465 11.1904C52.8507 9.72353 50.3296 10.3733 53.8125 24.7075C62.9871 23.3266 74.0967 30.4759 78.5046 34.2232C82.9349 30.6353 83.915 29.6158 86.8061 24.0578Z"
          fill="#AAE978"/>
    <path d="M100.45 60.6273C103.311 50.5966 94.2053 34.5206 89.2947 27.7365C89.3096 25.4942 87.1787 23.9985 78.5368 35.9533C85.5432 42.0353 87.3175 55.1268 87.3288 60.9123C92.9339 61.9528 94.3457 62.0364 100.45 60.6273Z"
          fill="#CCCCCC"/>
    <path d="M88.3257 23.9032C88.3195 23.8949 88.3133 23.8887 88.3071 23.8804C88.3008 23.8721 88.2926 23.868 88.2843 23.8618C78.6575 14.2453 65.607 8.84373 52 8.84373C38.393 8.84373 25.3425 14.2453 15.7157 23.8618C15.7074 23.868 15.7012 23.8742 15.6929 23.8804C15.6847 23.8866 15.6805 23.8949 15.6743 23.9032C10.8976 28.6588 7.11097 34.3141 4.53322 40.542C1.95547 46.77 0.637754 53.4472 0.656259 60.1875C0.656259 60.6268 0.830756 61.048 1.14136 61.3586C1.45197 61.6693 1.87324 61.8438 2.31251 61.8438H15.5625C16.0018 61.8438 16.423 61.6693 16.7337 61.3586C17.0443 61.048 17.2188 60.6268 17.2188 60.1875C17.2188 41.0081 32.8206 25.4062 52 25.4062C71.1794 25.4062 86.7812 41.0081 86.7812 60.1875C86.7812 60.6268 86.9557 61.048 87.2663 61.3586C87.577 61.6693 87.9982 61.8438 88.4375 61.8438H101.687C102.127 61.8438 102.548 61.6693 102.859 61.3586C103.169 61.048 103.344 60.6268 103.344 60.1875C103.362 53.4472 102.045 46.77 99.4668 40.542C96.889 34.3141 93.1024 28.6588 88.3257 23.9032ZM13.9415 58.5312H3.99567C4.36339 46.9364 8.94703 35.8737 16.8875 27.4165L23.9328 34.4618C17.8655 41.054 14.3262 49.5802 13.9415 58.5312ZM50.3438 22.131C41.3928 22.5152 32.8661 26.0529 26.2722 32.1182L19.229 25.075C27.6866 17.1357 38.7494 12.5535 50.3438 12.1873V22.131ZM53.6562 22.131V12.1873C65.2506 12.5535 76.3134 17.1357 84.771 25.075L77.7278 32.1182C71.1339 26.0529 62.6072 22.5152 53.6562 22.131ZM90.0585 58.5312C89.6738 49.5802 86.1345 41.054 80.0672 34.4618L87.1125 27.4165C95.053 35.8737 99.6366 46.9364 100.004 58.5312H90.0585Z"
          fill="black"/>
    <path d="M51.7918 48.6515L45.5861 36.7078C45.3835 36.318 45.0345 36.0246 44.6156 35.8922C44.1968 35.7598 43.7425 35.7992 43.3527 36.0017C42.9629 36.2042 42.6696 36.5533 42.5371 36.9721C42.4047 37.391 42.4441 37.8453 42.6467 38.235L48.8524 50.1788C47.6529 51.2563 46.8875 52.7344 46.6998 54.3359C46.512 55.9374 46.9148 57.5524 47.8326 58.8782C48.7505 60.204 50.1203 61.1495 51.6854 61.5376C53.2505 61.9256 54.9034 61.7295 56.3342 60.9861C57.7651 60.2426 58.8757 59.0028 59.4579 57.4991C60.04 55.9954 60.0538 54.331 59.4965 52.8178C58.9393 51.3047 57.8493 50.0467 56.4309 49.2797C55.0126 48.5127 53.3631 48.2894 51.7918 48.6515V48.6515ZM54.8073 58.0472C54.2259 58.3493 53.568 58.4722 52.9168 58.4004C52.2656 58.3285 51.6504 58.0652 51.1488 57.6437C50.6473 57.2222 50.282 56.6614 50.0991 56.0323C49.9163 55.4032 49.9241 54.734 50.1216 54.1093C50.3191 53.4846 50.6974 52.9325 51.2086 52.5229C51.7199 52.1132 52.3411 51.8643 52.9938 51.8077C53.6465 51.7511 54.3014 51.8893 54.8755 52.2049C55.4497 52.5205 55.9173 52.9992 56.2194 53.5806C56.6234 54.3603 56.7016 55.2685 56.4369 56.1059C56.1721 56.9432 55.5861 57.6414 54.8073 58.0472V58.0472Z"
          fill="black"/>
</svg>
