<svg width="111" height="68" viewBox="0 0 111 68" fill="none" xmlns="http://www.w3.org/2000/svg">
    <path d="M16 26.5C7.19997 32.1 3.3333 50.1667 2.49997 58.5C0.999967 60.1667 1.59997 62.7 16 59.5C14.8 50.3 22.1666 39.3333 26 35C22.5 30.5 21.5 29.5 16 26.5Z"
          fill="#CCCCCC"/>
    <path d="M50.8967 10.9692C40.8835 8.0478 24.7529 17.0568 17.9393 21.9264C15.6972 21.8981 14.1887 24.0199 26.0913 32.7336C32.2153 25.764 45.3172 24.0685 51.1027 24.092C52.1769 18.4933 52.2691 17.0821 50.8967 10.9692Z"
          fill="#FCA600"/>
    <path d="M86.8061 24.0578C81.034 15.3697 62.8947 11.8595 54.5465 11.1904C52.8507 9.72353 50.3296 10.3733 53.8125 24.7075C62.9871 23.3266 74.0967 30.4759 78.5046 34.2232C82.9349 30.6353 83.915 29.6158 86.8061 24.0578Z"
          fill="#AAE978"/>
    <path d="M100.45 60.6273C103.311 50.5966 94.2053 34.5206 89.2947 27.7365C89.3096 25.4942 87.1787 23.9985 78.5368 35.9533C85.5432 42.0353 87.3175 55.1268 87.3288 60.9123C92.9339 61.9528 94.3457 62.0364 100.45 60.6273Z"
          fill="#55AA12"/>
    <path d="M88.3257 23.9032C88.3195 23.8949 88.3133 23.8887 88.3071 23.8804C88.3008 23.8721 88.2926 23.868 88.2843 23.8618C78.6575 14.2453 65.607 8.84373 52 8.84373C38.393 8.84373 25.3425 14.2453 15.7157 23.8618C15.7074 23.868 15.7012 23.8742 15.6929 23.8804C15.6847 23.8866 15.6805 23.8949 15.6743 23.9032C10.8976 28.6588 7.11097 34.3141 4.53322 40.542C1.95547 46.77 0.637754 53.4472 0.656259 60.1875C0.656259 60.6268 0.830756 61.048 1.14136 61.3586C1.45197 61.6693 1.87324 61.8438 2.31251 61.8438H15.5625C16.0018 61.8438 16.423 61.6693 16.7337 61.3586C17.0443 61.048 17.2188 60.6268 17.2188 60.1875C17.2188 41.0081 32.8206 25.4062 52 25.4062C71.1794 25.4062 86.7812 41.0081 86.7812 60.1875C86.7812 60.6268 86.9557 61.048 87.2663 61.3586C87.577 61.6693 87.9982 61.8438 88.4375 61.8438H101.687C102.127 61.8438 102.548 61.6693 102.859 61.3586C103.169 61.048 103.344 60.6268 103.344 60.1875C103.362 53.4472 102.045 46.77 99.4668 40.542C96.889 34.3141 93.1024 28.6588 88.3257 23.9032ZM13.9415 58.5312H3.99567C4.36339 46.9364 8.94703 35.8737 16.8875 27.4165L23.9328 34.4618C17.8655 41.054 14.3262 49.5802 13.9415 58.5312ZM50.3438 22.131C41.3928 22.5152 32.8661 26.0529 26.2722 32.1182L19.229 25.075C27.6866 17.1357 38.7494 12.5535 50.3438 12.1873V22.131ZM53.6562 22.131V12.1873C65.2506 12.5535 76.3134 17.1357 84.771 25.075L77.7278 32.1182C71.1339 26.0529 62.6072 22.5152 53.6562 22.131ZM90.0585 58.5312C89.6738 49.5802 86.1345 41.054 80.0672 34.4618L87.1125 27.4165C95.053 35.8737 99.6366 46.9364 100.004 58.5312H90.0585Z"
          fill="black"/>
    <path d="M56.7037 50.3806L62.6458 38.3035C62.8397 37.9094 62.8692 37.4544 62.7276 37.0385C62.586 36.6227 62.285 36.2802 61.8909 36.0862C61.4968 35.8923 61.0417 35.8629 60.6259 36.0045C60.2101 36.1461 59.8675 36.447 59.6736 36.8412L53.7314 48.9182C52.1526 48.5906 50.5085 48.8501 49.1073 49.6481C47.706 50.446 46.644 51.7276 46.1201 53.2526C45.5962 54.7776 45.6464 56.4413 46.2615 57.9319C46.8765 59.4225 48.014 60.6376 49.4609 61.3495C50.9077 62.0614 52.5645 62.2211 54.1207 61.7988C55.6769 61.3765 57.0257 60.4012 57.9142 59.0556C58.8027 57.7099 59.1699 56.0865 58.9471 54.4895C58.7242 52.8925 57.9266 51.4316 56.7037 50.3806V50.3806ZM50.923 58.3779C50.3351 58.0886 49.8462 57.6316 49.5181 57.0645C49.1901 56.4974 49.0375 55.8458 49.0798 55.192C49.122 54.5382 49.3572 53.9116 49.7556 53.3915C50.1539 52.8714 50.6976 52.4811 51.3178 52.2699C51.9379 52.0587 52.6068 52.0362 53.2398 52.2052C53.8728 52.3742 54.4414 52.7271 54.8738 53.2193C55.3063 53.7115 55.583 54.3208 55.6691 54.9703C55.7552 55.6198 55.6468 56.2802 55.3576 56.868C54.9689 57.6556 54.2838 58.2568 53.4524 58.5398C52.6211 58.8229 51.7114 58.7646 50.923 58.3779V58.3779Z"
          fill="black"/>
</svg>
