<svg width="111" height="68" viewBox="0 0 111 68" fill="none" xmlns="http://www.w3.org/2000/svg">
    <path d="M16 26.5C7.19997 32.1 3.3333 50.1667 2.49997 58.5C0.999967 60.1667 1.59997 62.7 16 59.5C14.8 50.3 22.1666 39.3333 26 35C22.5 30.5 21.5 29.5 16 26.5Z"
          fill="#CCCCCC"/>
    <path d="M50.8967 10.9692C40.8835 8.0478 24.7529 17.0568 17.9393 21.9264C15.6972 21.8981 14.1887 24.0199 26.0913 32.7336C32.2153 25.764 45.3172 24.0685 51.1027 24.092C52.1769 18.4933 52.2691 17.0821 50.8967 10.9692Z"
          fill="#CCCCCC"/>
    <path d="M86.8061 24.0578C81.034 15.3697 62.8947 11.8595 54.5465 11.1904C52.8507 9.72353 50.3296 10.3733 53.8125 24.7075C62.9871 23.3266 74.0967 30.4759 78.5046 34.2232C82.9349 30.6353 83.915 29.6158 86.8061 24.0578Z"
          fill="#CCCCCC"/>
    <path d="M100.45 60.6273C103.311 50.5966 94.2053 34.5206 89.2947 27.7364C89.3096 25.4942 87.1787 23.9985 78.5368 35.9533C85.5432 42.0353 87.3175 55.1268 87.3288 60.9123C92.9339 61.9528 94.3457 62.0364 100.45 60.6273Z"
          fill="#CCCCCC"/>
    <path d="M88.3257 23.9032C88.3195 23.8949 88.3133 23.8887 88.3071 23.8804C88.3008 23.8721 88.2926 23.868 88.2843 23.8618C78.6575 14.2453 65.607 8.84373 52 8.84373C38.393 8.84373 25.3425 14.2453 15.7157 23.8618C15.7074 23.868 15.7012 23.8742 15.6929 23.8804C15.6847 23.8866 15.6805 23.8949 15.6743 23.9032C10.8976 28.6588 7.11097 34.3141 4.53322 40.542C1.95547 46.77 0.637754 53.4472 0.656259 60.1875C0.656259 60.6268 0.830756 61.048 1.14136 61.3586C1.45197 61.6693 1.87324 61.8438 2.31251 61.8438H15.5625C16.0018 61.8438 16.423 61.6693 16.7337 61.3586C17.0443 61.048 17.2188 60.6268 17.2188 60.1875C17.2188 41.0081 32.8206 25.4062 52 25.4062C71.1794 25.4062 86.7812 41.0081 86.7812 60.1875C86.7812 60.6268 86.9557 61.048 87.2663 61.3586C87.577 61.6693 87.9982 61.8438 88.4375 61.8438H101.687C102.127 61.8438 102.548 61.6693 102.859 61.3586C103.169 61.048 103.344 60.6268 103.344 60.1875C103.362 53.4472 102.045 46.77 99.4668 40.542C96.889 34.3141 93.1024 28.6588 88.3257 23.9032ZM13.9415 58.5312H3.99567C4.36339 46.9364 8.94703 35.8737 16.8875 27.4165L23.9328 34.4618C17.8655 41.054 14.3262 49.5802 13.9415 58.5312ZM50.3438 22.131C41.3928 22.5152 32.8661 26.0529 26.2722 32.1182L19.229 25.075C27.6866 17.1357 38.7494 12.5535 50.3438 12.1873V22.131ZM53.6562 22.131V12.1873C65.2506 12.5535 76.3134 17.1357 84.771 25.075L77.7278 32.1182C71.1339 26.0529 62.6072 22.5152 53.6562 22.131ZM90.0585 58.5312C89.6738 49.5802 86.1345 41.054 80.0672 34.4618L87.1125 27.4165C95.053 35.8737 99.6366 46.9364 100.004 58.5312H90.0585Z"
          fill="black"/>
    <path d="M53.2813 48.916V35.4563C53.2813 35.017 53.1068 34.5957 52.7962 34.2851C52.4855 33.9745 52.0643 33.8 51.625 33.8C51.1857 33.8 50.7645 33.9745 50.4539 34.2851C50.1433 34.5957 49.9688 35.017 49.9688 35.4563V48.916C48.4075 49.3191 47.0468 50.2778 46.1418 51.6124C45.2368 52.9469 44.8496 54.5658 45.0528 56.1654C45.256 57.765 46.0356 59.2356 47.2455 60.3016C48.4554 61.3675 50.0125 61.9556 51.625 61.9556C53.2375 61.9556 54.7946 61.3675 56.0045 60.3016C57.2144 59.2356 57.994 57.765 58.1972 56.1654C58.4004 54.5658 58.0132 52.9469 57.1082 51.6124C56.2032 50.2778 54.8425 49.3191 53.2813 48.916V48.916ZM51.625 58.6438C50.9699 58.6438 50.3294 58.4495 49.7847 58.0855C49.2399 57.7215 48.8154 57.2042 48.5647 56.5989C48.3139 55.9936 48.2483 55.3276 48.3762 54.685C48.504 54.0425 48.8195 53.4522 49.2827 52.989C49.746 52.5257 50.3362 52.2102 50.9788 52.0824C51.6213 51.9546 52.2874 52.0202 52.8926 52.2709C53.4979 52.5216 54.0153 52.9462 54.3793 53.4909C54.7432 54.0357 54.9375 54.6761 54.9375 55.3313C54.9365 56.2095 54.5871 57.0514 53.9661 57.6724C53.3452 58.2934 52.5032 58.6427 51.625 58.6438V58.6438Z"
          fill="black"/>
</svg>
