<svg width="111" height="68" viewBox="0 0 111 68" fill="none" xmlns="http://www.w3.org/2000/svg">
    <path d="M16 26.5C7.19997 32.1 3.3333 50.1667 2.49997 58.5C0.999967 60.1667 1.59997 62.7 16 59.5C14.8 50.3 22.1666 39.3333 26 35C22.5 30.5 21.5 29.5 16 26.5Z"
          fill="#CCCCCC"/>
    <path d="M50.8967 10.9692C40.8835 8.0478 24.7529 17.0568 17.9393 21.9264C15.6972 21.8981 14.1887 24.0199 26.0913 32.7336C32.2153 25.764 45.3172 24.0685 51.1027 24.092C52.1769 18.4933 52.2691 17.0821 50.8967 10.9692Z"
          fill="#CCCCCC"/>
    <path d="M86.8061 24.0578C81.034 15.3697 62.8947 11.8595 54.5465 11.1904C52.8507 9.72353 50.3296 10.3733 53.8125 24.7075C62.9871 23.3266 74.0967 30.4759 78.5046 34.2232C82.9349 30.6353 83.915 29.6158 86.8061 24.0578Z"
          fill="#AAE978"/>
    <path d="M100.45 60.6273C103.311 50.5966 94.2053 34.5206 89.2947 27.7364C89.3096 25.4942 87.1787 23.9985 78.5368 35.9533C85.5432 42.0353 87.3175 55.1268 87.3288 60.9123C92.9339 61.9528 94.3457 62.0364 100.45 60.6273Z"
          fill="#CCCCCC"/>
    <path d="M88.3257 23.9032C88.3195 23.8949 88.3133 23.8887 88.3071 23.8804C88.3008 23.8721 88.2926 23.868 88.2843 23.8618C78.6575 14.2453 65.607 8.84373 52 8.84373C38.393 8.84373 25.3425 14.2453 15.7157 23.8618C15.7074 23.868 15.7012 23.8742 15.6929 23.8804C15.6847 23.8866 15.6805 23.8949 15.6743 23.9032C10.8976 28.6588 7.11097 34.3141 4.53322 40.542C1.95547 46.77 0.637754 53.4472 0.656259 60.1875C0.656259 60.6268 0.830756 61.048 1.14136 61.3586C1.45197 61.6693 1.87324 61.8438 2.31251 61.8438H15.5625C16.0018 61.8438 16.423 61.6693 16.7337 61.3586C17.0443 61.048 17.2188 60.6268 17.2188 60.1875C17.2188 41.0081 32.8206 25.4062 52 25.4062C71.1794 25.4062 86.7812 41.0081 86.7812 60.1875C86.7812 60.6268 86.9557 61.048 87.2663 61.3586C87.577 61.6693 87.9982 61.8438 88.4375 61.8438H101.687C102.127 61.8438 102.548 61.6693 102.859 61.3586C103.169 61.048 103.344 60.6268 103.344 60.1875C103.362 53.4472 102.045 46.77 99.4668 40.542C96.889 34.3141 93.1024 28.6588 88.3257 23.9032ZM13.9415 58.5312H3.99567C4.36339 46.9364 8.94703 35.8737 16.8875 27.4165L23.9328 34.4618C17.8655 41.054 14.3262 49.5802 13.9415 58.5312ZM50.3438 22.131C41.3928 22.5152 32.8661 26.0529 26.2722 32.1182L19.229 25.075C27.6866 17.1357 38.7494 12.5535 50.3438 12.1873V22.131ZM53.6562 22.131V12.1873C65.2506 12.5535 76.3134 17.1357 84.771 25.075L77.7278 32.1182C71.1339 26.0529 62.6072 22.5152 53.6562 22.131ZM90.0585 58.5312C89.6738 49.5802 86.1345 41.054 80.0672 34.4618L87.1125 27.4165C95.053 35.8737 99.6366 46.9364 100.004 58.5312H90.0585Z"
          fill="black"/>
    <path d="M54.8001 50.2209L60.7713 38.1582C60.9661 37.7645 60.9966 37.3095 60.8561 36.8934C60.7155 36.4772 60.4154 36.1339 60.0217 35.9391C59.628 35.7442 59.173 35.7137 58.7569 35.8543C58.3407 35.9948 57.9974 36.295 57.8026 36.6886L51.8314 48.7514C50.2533 48.42 48.6086 48.6756 47.2055 49.4701C45.8024 50.2647 44.7372 51.5437 44.2096 53.0675C43.6821 54.5912 43.7283 56.2551 44.3398 57.7471C44.9512 59.2392 46.0858 60.457 47.531 61.1724C48.9761 61.8877 50.6325 62.0515 52.1897 61.6329C53.7469 61.2143 55.098 60.2422 55.9897 58.8988C56.8815 57.5553 57.2526 55.9327 57.0336 54.3352C56.8146 52.7376 56.0205 51.2748 54.8001 50.2209V50.2209ZM49.0002 58.2043C48.413 57.9136 47.9253 57.4554 47.5985 56.8875C47.2718 56.3197 47.1208 55.6676 47.1647 55.014C47.2085 54.3603 47.4452 53.7343 47.8448 53.2151C48.2444 52.6959 48.789 52.3069 49.4097 52.0973C50.0304 51.8876 50.6993 51.8667 51.3319 52.0372C51.9644 52.2077 52.5322 52.562 52.9635 53.0552C53.3947 53.5484 53.67 54.1584 53.7545 54.8081C53.8391 55.4578 53.7291 56.1179 53.4384 56.7051C53.0479 57.4917 52.3613 58.0913 51.5293 58.3723C50.6972 58.6534 49.7877 58.5929 49.0002 58.2043V58.2043Z"
          fill="black"/>
</svg>
