<svg width="111" height="68" viewBox="0 0 111 68" fill="none" xmlns="http://www.w3.org/2000/svg">
    <path d="M16 26.5C7.19997 32.1 3.3333 50.1667 2.49997 58.5C0.999967 60.1667 1.59997 62.7 16 59.5C14.8 50.3 22.1666 39.3333 26 35C22.5 30.5 21.5 29.5 16 26.5Z"
          fill="#CCCCCC"/>
    <path d="M50.8967 10.9692C40.8835 8.0478 24.7529 17.0568 17.9393 21.9264C15.6972 21.8981 14.1887 24.0199 26.0913 32.7336C32.2153 25.764 45.3172 24.0685 51.1027 24.092C52.1769 18.4933 52.2691 17.0821 50.8967 10.9692Z"
          fill="#FCA600"/>
    <path d="M86.8061 24.0578C81.034 15.3697 62.8947 11.8595 54.5465 11.1904C52.8507 9.72353 50.3296 10.3733 53.8125 24.7075C62.9871 23.3266 74.0967 30.4759 78.5046 34.2232C82.9349 30.6353 83.915 29.6158 86.8061 24.0578Z"
          fill="#CCCCCC"/>
    <path d="M100.45 60.6273C103.311 50.5966 94.2053 34.5206 89.2947 27.7364C89.3096 25.4942 87.1787 23.9985 78.5368 35.9533C85.5432 42.0353 87.3175 55.1268 87.3288 60.9123C92.9339 61.9528 94.3457 62.0364 100.45 60.6273Z"
          fill="#CCCCCC"/>
    <path d="M88.3257 23.9032C88.3195 23.8949 88.3133 23.8887 88.3071 23.8804C88.3008 23.8721 88.2926 23.868 88.2843 23.8618C78.6575 14.2453 65.607 8.84373 52 8.84373C38.393 8.84373 25.3425 14.2453 15.7157 23.8618C15.7074 23.868 15.7012 23.8742 15.6929 23.8804C15.6847 23.8866 15.6805 23.8949 15.6743 23.9032C10.8976 28.6588 7.11097 34.3141 4.53322 40.542C1.95547 46.77 0.637754 53.4472 0.656259 60.1875C0.656259 60.6268 0.830756 61.048 1.14136 61.3586C1.45197 61.6693 1.87324 61.8438 2.31251 61.8438H15.5625C16.0018 61.8438 16.423 61.6693 16.7337 61.3586C17.0443 61.048 17.2188 60.6268 17.2188 60.1875C17.2188 41.0081 32.8206 25.4062 52 25.4062C71.1794 25.4062 86.7812 41.0081 86.7812 60.1875C86.7812 60.6268 86.9557 61.048 87.2663 61.3586C87.577 61.6693 87.9982 61.8438 88.4375 61.8438H101.687C102.127 61.8438 102.548 61.6693 102.859 61.3586C103.169 61.048 103.344 60.6268 103.344 60.1875C103.362 53.4472 102.045 46.77 99.4668 40.542C96.889 34.3141 93.1024 28.6588 88.3257 23.9032ZM13.9415 58.5312H3.99567C4.36339 46.9364 8.94703 35.8737 16.8875 27.4165L23.9328 34.4618C17.8655 41.054 14.3262 49.5802 13.9415 58.5312ZM50.3438 22.131C41.3928 22.5152 32.8661 26.0529 26.2722 32.1182L19.229 25.075C27.6866 17.1357 38.7494 12.5535 50.3438 12.1873V22.131ZM53.6562 22.131V12.1873C65.2506 12.5535 76.3134 17.1357 84.771 25.075L77.7278 32.1182C71.1339 26.0529 62.6072 22.5152 53.6562 22.131ZM90.0585 58.5312C89.6738 49.5802 86.1345 41.054 80.0672 34.4618L87.1125 27.4165C95.053 35.8737 99.6366 46.9364 100.004 58.5312H90.0585Z"
          fill="black"/>
    <path d="M48.9568 48.71L44.2745 36.0909C44.1217 35.6791 43.8116 35.3448 43.4123 35.1617C43.013 34.9785 42.5574 34.9615 42.1455 35.1143C41.7337 35.2671 41.3995 35.5772 41.2163 35.9765C41.0331 36.3758 41.0161 36.8314 41.1689 37.2432L45.8512 49.8623C44.5277 50.7834 43.5855 52.1555 43.2013 53.7216C42.8171 55.2876 43.0172 56.94 43.7642 58.369C44.5111 59.7981 45.7536 60.9056 47.2588 61.4841C48.7639 62.0626 50.4284 62.0723 51.9402 61.5113C53.4519 60.9504 54.7072 59.8573 55.4707 58.4371C56.2342 57.0168 56.4536 55.3668 56.0876 53.7964C55.7216 52.226 54.7954 50.843 53.4827 49.9066C52.17 48.9702 50.5608 48.5448 48.9568 48.71V48.71ZM50.788 58.4063C50.1738 58.6342 49.5058 58.6749 48.8685 58.5231C48.2311 58.3714 47.6531 58.034 47.2075 57.5538C46.7619 57.0735 46.4687 56.4719 46.365 55.825C46.2613 55.1781 46.3517 54.515 46.6249 53.9195C46.8981 53.3241 47.3417 52.8229 47.8996 52.4796C48.4576 52.1362 49.1049 51.966 49.7596 51.9905C50.4142 52.015 51.047 52.2331 51.5777 52.6172C52.1085 53.0013 52.5134 53.5341 52.7413 54.1484C53.0458 54.9721 53.0112 55.883 52.6451 56.6812C52.2789 57.4794 51.611 58.0998 50.788 58.4063V58.4063Z"
          fill="black"/>
</svg>
