<svg width="111" height="68" viewBox="0 0 111 68" fill="none" xmlns="http://www.w3.org/2000/svg">
    <path d="M16 26.5C7.19997 32.1 3.3333 50.1667 2.49997 58.5C0.999967 60.1667 1.59997 62.7 16 59.5C14.8 50.3 22.1666 39.3333 26 35C22.5 30.5 21.5 29.5 16 26.5Z"
          fill="#F71E1E"/>
    <path d="M50.8967 10.9692C40.8835 8.0478 24.7529 17.0568 17.9393 21.9264C15.6972 21.8981 14.1887 24.0199 26.0913 32.7336C32.2153 25.764 45.3172 24.0685 51.1027 24.092C52.1769 18.4933 52.2691 17.0821 50.8967 10.9692Z"
          fill="#FCA600"/>
    <path d="M86.8061 24.0578C81.034 15.3697 62.8947 11.8595 54.5465 11.1904C52.8507 9.72353 50.3296 10.3733 53.8125 24.7075C62.9871 23.3266 74.0967 30.4759 78.5046 34.2232C82.9349 30.6353 83.915 29.6158 86.8061 24.0578Z"
          fill="#AAE978"/>
    <path d="M100.45 60.6273C103.311 50.5966 94.2053 34.5206 89.2947 27.7365C89.3096 25.4942 87.1787 23.9985 78.5368 35.9533C85.5432 42.0353 87.3175 55.1268 87.3288 60.9123C92.9339 61.9528 94.3457 62.0364 100.45 60.6273Z"
          fill="#55AA12"/>
    <path d="M88.3257 23.9032C88.3195 23.8949 88.3133 23.8887 88.3071 23.8804C88.3008 23.8721 88.2926 23.868 88.2843 23.8618C78.6575 14.2453 65.607 8.84373 52 8.84373C38.393 8.84373 25.3425 14.2453 15.7157 23.8618C15.7074 23.868 15.7012 23.8742 15.6929 23.8804C15.6847 23.8866 15.6805 23.8949 15.6743 23.9032C10.8976 28.6588 7.11097 34.3141 4.53322 40.542C1.95547 46.77 0.637754 53.4472 0.656259 60.1875C0.656259 60.6268 0.830756 61.048 1.14136 61.3586C1.45197 61.6693 1.87324 61.8438 2.31251 61.8438H15.5625C16.0018 61.8438 16.423 61.6693 16.7337 61.3586C17.0443 61.048 17.2188 60.6268 17.2188 60.1875C17.2188 41.0081 32.8206 25.4062 52 25.4062C71.1794 25.4062 86.7812 41.0081 86.7812 60.1875C86.7812 60.6268 86.9557 61.048 87.2663 61.3586C87.577 61.6693 87.9982 61.8438 88.4375 61.8438H101.687C102.127 61.8438 102.548 61.6693 102.859 61.3586C103.169 61.048 103.344 60.6268 103.344 60.1875C103.362 53.4472 102.045 46.77 99.4668 40.542C96.889 34.3141 93.1024 28.6588 88.3257 23.9032ZM13.9415 58.5312H3.99567C4.36339 46.9364 8.94703 35.8737 16.8875 27.4165L23.9328 34.4618C17.8655 41.054 14.3262 49.5802 13.9415 58.5312ZM50.3438 22.131C41.3928 22.5152 32.8661 26.0529 26.2722 32.1182L19.229 25.075C27.6866 17.1357 38.7494 12.5535 50.3438 12.1873V22.131ZM53.6562 22.131V12.1873C65.2506 12.5535 76.3134 17.1357 84.771 25.075L77.7278 32.1182C71.1339 26.0529 62.6072 22.5152 53.6562 22.131ZM90.0585 58.5312C89.6738 49.5802 86.1345 41.054 80.0672 34.4618L87.1125 27.4165C95.053 35.8737 99.6366 46.9364 100.004 58.5312H90.0585Z"
          fill="black"/>
    <path d="M53.7223 48.6703L53.6486 35.2108C53.6462 34.7716 53.4694 34.3513 53.157 34.0424C52.8447 33.7335 52.4225 33.5613 51.9833 33.5637C51.544 33.5661 51.1237 33.7429 50.8148 34.0552C50.5059 34.3675 50.3337 34.7897 50.3361 35.229L50.4099 48.6885C48.8509 49.1002 47.4955 50.0663 46.5978 51.4058C45.7001 52.7453 45.3218 54.3663 45.5338 55.9648C45.7457 57.5632 46.5334 59.0296 47.7491 60.0889C48.9648 61.1482 50.5251 61.7277 52.1376 61.7189C53.7501 61.71 55.3039 61.1134 56.508 60.0408C57.712 58.9683 58.4835 57.4934 58.678 55.8927C58.8724 54.292 58.4763 52.6753 57.564 51.3457C56.6517 50.0161 55.2858 49.0649 53.7223 48.6703V48.6703ZM52.1194 58.4071C51.4643 58.4107 50.8228 58.2199 50.2761 57.8589C49.7294 57.4979 49.302 56.9829 49.0479 56.379C48.7939 55.7751 48.7247 55.1094 48.8489 54.4662C48.9732 53.8229 49.2855 53.231 49.7462 52.7652C50.2069 52.2994 50.7954 51.9807 51.4373 51.8493C52.0791 51.718 52.7455 51.78 53.3521 52.0274C53.9588 52.2747 54.4784 52.6965 54.8454 53.2392C55.2124 53.7819 55.4101 54.4213 55.4137 55.0764C55.4175 55.9547 55.0728 56.7985 54.4552 57.4229C53.8377 58.0473 52.9976 58.4012 52.1194 58.4071V58.4071Z"
          fill="black"/>
</svg>
