<svg width="111" height="68" viewBox="0 0 111 68" fill="none" xmlns="http://www.w3.org/2000/svg">
<path d="M16 26.5C7.19997 32.1 3.3333 50.1667 2.49997 58.5C0.999967 60.1667 1.59997 62.7 16 59.5C14.8 50.3 22.1666 39.3333 26 35C22.5 30.5 21.5 29.5 16 26.5Z" fill="#F71E1E"/>
<path d="M50.8967 10.9692C40.8835 8.0478 24.7529 17.0568 17.9393 21.9264C15.6972 21.8981 14.1887 24.0199 26.0913 32.7336C32.2153 25.764 45.3172 24.0685 51.1027 24.092C52.1769 18.4933 52.2691 17.0821 50.8967 10.9692Z" fill="#CCCCCC"/>
<path d="M86.8061 24.0578C81.034 15.3697 62.8947 11.8595 54.5465 11.1904C52.8507 9.72353 50.3296 10.3733 53.8125 24.7075C62.9871 23.3266 74.0967 30.4759 78.5046 34.2232C82.9349 30.6353 83.915 29.6158 86.8061 24.0578Z" fill="#CCCCCC"/>
<path d="M100.45 60.6273C103.311 50.5966 94.2053 34.5206 89.2947 27.7364C89.3096 25.4942 87.1787 23.9985 78.5368 35.9533C85.5432 42.0353 87.3175 55.1268 87.3288 60.9123C92.9339 61.9528 94.3457 62.0364 100.45 60.6273Z" fill="#CCCCCC"/>
<path d="M88.3257 23.9032C88.3195 23.8949 88.3133 23.8887 88.3071 23.8804C88.3008 23.8721 88.2926 23.868 88.2843 23.8618C78.6575 14.2453 65.607 8.84373 52 8.84373C38.393 8.84373 25.3425 14.2453 15.7157 23.8618C15.7074 23.868 15.7012 23.8742 15.6929 23.8804C15.6847 23.8866 15.6805 23.8949 15.6743 23.9032C10.8976 28.6588 7.11097 34.3141 4.53322 40.542C1.95547 46.77 0.637754 53.4472 0.656259 60.1875C0.656259 60.6268 0.830756 61.048 1.14136 61.3586C1.45197 61.6693 1.87324 61.8438 2.31251 61.8438H15.5625C16.0018 61.8438 16.423 61.6693 16.7337 61.3586C17.0443 61.048 17.2188 60.6268 17.2188 60.1875C17.2188 41.0081 32.8206 25.4062 52 25.4062C71.1794 25.4062 86.7812 41.0081 86.7812 60.1875C86.7812 60.6268 86.9557 61.048 87.2663 61.3586C87.577 61.6693 87.9982 61.8438 88.4375 61.8438H101.687C102.127 61.8438 102.548 61.6693 102.859 61.3586C103.169 61.048 103.344 60.6268 103.344 60.1875C103.362 53.4472 102.045 46.77 99.4668 40.542C96.889 34.3141 93.1024 28.6588 88.3257 23.9032ZM13.9415 58.5312H3.99567C4.36339 46.9364 8.94703 35.8737 16.8875 27.4165L23.9328 34.4618C17.8655 41.054 14.3262 49.5802 13.9415 58.5312ZM50.3438 22.131C41.3928 22.5152 32.8661 26.0529 26.2722 32.1182L19.229 25.075C27.6866 17.1357 38.7494 12.5535 50.3438 12.1873V22.131ZM53.6562 22.131V12.1873C65.2506 12.5535 76.3134 17.1357 84.771 25.075L77.7278 32.1182C71.1339 26.0529 62.6072 22.5152 53.6562 22.131ZM90.0585 58.5312C89.6738 49.5802 86.1345 41.054 80.0672 34.4618L87.1125 27.4165C95.053 35.8737 99.6366 46.9364 100.004 58.5312H90.0585Z" fill="black"/>
<path d="M46.6974 52.2262L33.6582 48.8882C33.2327 48.7792 32.7813 48.8438 32.4033 49.0677C32.0254 49.2916 31.7519 49.6564 31.6429 50.0819C31.534 50.5075 31.5986 50.9589 31.8224 51.3368C32.0463 51.7147 32.4112 51.9883 32.8367 52.0972L45.8759 55.4352C45.8793 57.0477 46.4706 58.6036 47.539 59.8113C48.6075 61.019 50.0797 61.7955 51.6797 61.9954C53.2798 62.1953 54.8978 61.8048 56.2305 60.897C57.5632 59.9893 58.5191 58.6266 58.919 57.0645C59.3189 55.5024 59.1353 53.8481 58.4027 52.4116C57.6701 50.9752 56.4388 49.8552 54.9395 49.2617C53.4403 48.6681 51.776 48.6418 50.2587 49.1875C48.7413 49.7333 47.4752 50.8137 46.6974 52.2262V52.2262ZM55.7106 56.2432C55.5481 56.8779 55.2011 57.4501 54.7134 57.8876C54.2257 58.325 53.6192 58.608 52.9706 58.7008C52.3221 58.7936 51.6606 58.6919 51.0698 58.4088C50.479 58.1256 49.9855 57.6736 49.6515 57.1099C49.3176 56.5462 49.1584 55.8962 49.1939 55.242C49.2295 54.5878 49.4582 53.9589 49.8512 53.4347C50.2442 52.9105 50.7838 52.5146 51.4018 52.2971C52.0198 52.0796 52.6884 52.0502 53.3231 52.2127C54.1736 52.4315 54.9026 52.9787 55.3502 53.7343C55.7977 54.4899 55.9274 55.3921 55.7106 56.2432V56.2432Z" fill="black"/>
</svg>
