<svg width="111" height="68" viewBox="0 0 111 68" fill="none" xmlns="http://www.w3.org/2000/svg">
    <path d="M16 26.5C7.19997 32.1 3.3333 50.1667 2.49997 58.5C0.999967 60.1667 1.59997 62.7 16 59.5C14.8 50.3 22.1666 39.3333 26 35C22.5 30.5 21.5 29.5 16 26.5Z"
          fill="#F71E1E"/>
    <path d="M50.8967 10.9692C40.8835 8.0478 24.7529 17.0568 17.9393 21.9264C15.6972 21.8981 14.1887 24.0199 26.0913 32.7336C32.2153 25.764 45.3172 24.0685 51.1027 24.092C52.1769 18.4933 52.2691 17.0821 50.8967 10.9692Z"
          fill="#FCA600"/>
    <path d="M86.8061 24.0578C81.034 15.3697 62.8947 11.8595 54.5465 11.1904C52.8507 9.72353 50.3296 10.3733 53.8125 24.7075C62.9871 23.3266 74.0967 30.4759 78.5046 34.2232C82.9349 30.6353 83.915 29.6158 86.8061 24.0578Z"
          fill="#CCCCCC"/>
    <path d="M100.45 60.6273C103.311 50.5966 94.2053 34.5206 89.2947 27.7365C89.3096 25.4942 87.1787 23.9985 78.5368 35.9533C85.5432 42.0353 87.3175 55.1268 87.3288 60.9123C92.9339 61.9528 94.3457 62.0364 100.45 60.6273Z"
          fill="#CCCCCC"/>
    <path d="M88.3257 23.9032C88.3195 23.8949 88.3133 23.8887 88.3071 23.8804C88.3008 23.8721 88.2926 23.868 88.2843 23.8618C78.6575 14.2453 65.607 8.84373 52 8.84373C38.393 8.84373 25.3425 14.2453 15.7157 23.8618C15.7074 23.868 15.7012 23.8742 15.6929 23.8804C15.6847 23.8866 15.6805 23.8949 15.6743 23.9032C10.8976 28.6588 7.11097 34.3141 4.53322 40.542C1.95547 46.77 0.637754 53.4472 0.656259 60.1875C0.656259 60.6268 0.830756 61.048 1.14136 61.3586C1.45197 61.6693 1.87324 61.8438 2.31251 61.8438H15.5625C16.0018 61.8438 16.423 61.6693 16.7337 61.3586C17.0443 61.048 17.2188 60.6268 17.2188 60.1875C17.2188 41.0081 32.8206 25.4062 52 25.4062C71.1794 25.4062 86.7812 41.0081 86.7812 60.1875C86.7812 60.6268 86.9557 61.048 87.2663 61.3586C87.577 61.6693 87.9982 61.8438 88.4375 61.8438H101.687C102.127 61.8438 102.548 61.6693 102.859 61.3586C103.169 61.048 103.344 60.6268 103.344 60.1875C103.362 53.4472 102.045 46.77 99.4668 40.542C96.889 34.3141 93.1024 28.6588 88.3257 23.9032ZM13.9415 58.5312H3.99567C4.36339 46.9364 8.94703 35.8737 16.8875 27.4165L23.9328 34.4618C17.8655 41.054 14.3262 49.5802 13.9415 58.5312ZM50.3438 22.131C41.3928 22.5152 32.8661 26.0529 26.2722 32.1182L19.229 25.075C27.6866 17.1357 38.7494 12.5535 50.3438 12.1873V22.131ZM53.6562 22.131V12.1873C65.2506 12.5535 76.3134 17.1357 84.771 25.075L77.7278 32.1182C71.1339 26.0529 62.6072 22.5152 53.6562 22.131ZM90.0585 58.5312C89.6738 49.5802 86.1345 41.054 80.0672 34.4618L87.1125 27.4165C95.053 35.8737 99.6366 46.9364 100.004 58.5312H90.0585Z"
          fill="black"/>
    <path d="M50.0184 49.9573L39.7999 41.1968C39.4665 40.9109 39.0331 40.7691 38.5951 40.8028C38.1571 40.8364 37.7504 41.0427 37.4645 41.3762C37.1786 41.7096 37.0369 42.143 37.0706 42.581C37.1042 43.019 37.3104 43.4257 37.6439 43.7116L47.8624 52.4721C47.1522 53.9198 46.9944 55.5768 47.4186 57.1325C47.8427 58.6882 48.8197 60.0358 50.1664 60.9227C51.513 61.8096 53.1369 62.1749 54.7337 61.9502C56.3304 61.7254 57.7904 60.9261 58.8399 59.7019C59.8894 58.4777 60.4564 56.9128 60.4347 55.3005C60.4129 53.6881 59.8039 52.1391 58.7217 50.9437C57.6395 49.7483 56.1585 48.9886 54.5563 48.807C52.9541 48.6254 51.3406 49.0344 50.0184 49.9573V49.9573ZM56.3256 57.5463C55.8992 58.0437 55.3348 58.4034 54.7039 58.5801C54.0731 58.7567 53.4039 58.7423 52.7812 58.5387C52.1585 58.3351 51.6102 57.9514 51.2056 57.4361C50.8009 56.9209 50.5582 56.2972 50.508 55.644C50.4578 54.9907 50.6025 54.3373 50.9237 53.7663C51.2449 53.1953 51.7282 52.7323 52.3125 52.436C52.8968 52.1397 53.5558 52.0232 54.2063 52.1015C54.8567 52.1797 55.4694 52.4491 55.9668 52.8755C56.6328 53.4479 57.0447 54.2611 57.1119 55.1367C57.1792 56.0123 56.8964 56.8789 56.3256 57.5463V57.5463Z"
          fill="black"/>
</svg>
