<svg width="111" height="68" viewBox="0 0 111 68" fill="none" xmlns="http://www.w3.org/2000/svg">
    <path d="M16 26.5C7.19997 32.1 3.3333 50.1667 2.49997 58.5C0.999967 60.1667 1.59997 62.7 16 59.5C14.8 50.3 22.1666 39.3333 26 35C22.5 30.5 21.5 29.5 16 26.5Z"
          fill="#CCCCCC"/>
    <path d="M50.8967 10.9692C40.8835 8.0478 24.7529 17.0568 17.9393 21.9264C15.6972 21.8981 14.1887 24.0199 26.0913 32.7336C32.2153 25.764 45.3172 24.0685 51.1027 24.092C52.1769 18.4933 52.2691 17.0821 50.8967 10.9692Z"
          fill="#CCCCCC"/>
    <path d="M86.8061 24.0578C81.034 15.3697 62.8947 11.8595 54.5465 11.1904C52.8507 9.72353 50.3296 10.3733 53.8125 24.7075C62.9871 23.3266 74.0967 30.4759 78.5046 34.2232C82.9349 30.6353 83.915 29.6158 86.8061 24.0578Z"
          fill="#AAE978"/>
    <path d="M100.45 60.6273C103.311 50.5966 94.2053 34.5206 89.2947 27.7365C89.3096 25.4942 87.1787 23.9985 78.5368 35.9533C85.5432 42.0353 87.3175 55.1268 87.3288 60.9123C92.9339 61.9528 94.3457 62.0364 100.45 60.6273Z"
          fill="#55AA12"/>
    <path d="M88.3257 23.9032C88.3195 23.8949 88.3133 23.8887 88.3071 23.8804C88.3008 23.8721 88.2926 23.868 88.2843 23.8618C78.6575 14.2453 65.607 8.84373 52 8.84373C38.393 8.84373 25.3425 14.2453 15.7157 23.8618C15.7074 23.868 15.7012 23.8742 15.6929 23.8804C15.6847 23.8866 15.6805 23.8949 15.6743 23.9032C10.8976 28.6588 7.11097 34.3141 4.53322 40.542C1.95547 46.77 0.637754 53.4472 0.656259 60.1875C0.656259 60.6268 0.830756 61.048 1.14136 61.3586C1.45197 61.6693 1.87324 61.8438 2.31251 61.8438H15.5625C16.0018 61.8438 16.423 61.6693 16.7337 61.3586C17.0443 61.048 17.2188 60.6268 17.2188 60.1875C17.2188 41.0081 32.8206 25.4062 52 25.4062C71.1794 25.4062 86.7812 41.0081 86.7812 60.1875C86.7812 60.6268 86.9557 61.048 87.2663 61.3586C87.577 61.6693 87.9982 61.8438 88.4375 61.8438H101.687C102.127 61.8438 102.548 61.6693 102.859 61.3586C103.169 61.048 103.344 60.6268 103.344 60.1875C103.362 53.4472 102.045 46.77 99.4668 40.542C96.889 34.3141 93.1024 28.6588 88.3257 23.9032ZM13.9415 58.5312H3.99567C4.36339 46.9364 8.94703 35.8737 16.8875 27.4165L23.9328 34.4618C17.8655 41.054 14.3262 49.5802 13.9415 58.5312ZM50.3438 22.131C41.3928 22.5152 32.8661 26.0529 26.2722 32.1182L19.229 25.075C27.6866 17.1357 38.7494 12.5535 50.3438 12.1873V22.131ZM53.6562 22.131V12.1873C65.2506 12.5535 76.3134 17.1357 84.771 25.075L77.7278 32.1182C71.1339 26.0529 62.6072 22.5152 53.6562 22.131ZM90.0585 58.5312C89.6738 49.5802 86.1345 41.054 80.0672 34.4618L87.1125 27.4165C95.053 35.8737 99.6366 46.9364 100.004 58.5312H90.0585Z"
          fill="black"/>
    <path d="M58.4563 52.4699L68.6099 43.6344C68.9413 43.3461 69.1446 42.9379 69.175 42.4997C69.2054 42.0615 69.0605 41.6291 68.7722 41.2978C68.4838 40.9664 68.0756 40.7631 67.6374 40.7327C67.1992 40.7023 66.7669 40.8472 66.4355 41.1356L56.2818 49.9711C54.9528 49.0579 53.3364 48.6608 51.7355 48.8542C50.1347 49.0475 48.6593 49.8181 47.586 51.0214C46.5126 52.2248 45.915 53.7783 45.9051 55.3907C45.8952 57.0032 46.4737 58.5639 47.5322 59.7803C48.5907 60.9967 50.0565 61.7853 51.6549 61.9983C53.2532 62.2113 54.8744 61.834 56.2145 60.9372C57.5546 60.0404 58.5216 58.6857 58.9343 57.1269C59.347 55.5681 59.177 53.9124 58.4563 52.4699V52.4699ZM50.0306 57.6062C49.6005 57.112 49.3267 56.5013 49.2437 55.8515C49.1607 55.2016 49.2722 54.5417 49.5643 53.9553C49.8563 53.3688 50.3157 52.8821 50.8843 52.5567C51.453 52.2313 52.1053 52.0819 52.7589 52.1272C53.4125 52.1726 54.0379 52.4108 54.5561 52.8116C55.0744 53.2124 55.4621 53.7579 55.6703 54.3791C55.8785 55.0003 55.8978 55.6693 55.7258 56.3014C55.5538 56.9336 55.1982 57.5006 54.7039 57.9306C54.0408 58.5064 53.1763 58.7955 52.3002 58.7347C51.4241 58.6739 50.6079 58.2681 50.0306 57.6062V57.6062Z"
          fill="black"/>
</svg>
