<svg width="111" height="68" viewBox="0 0 111 68" fill="none" xmlns="http://www.w3.org/2000/svg">
    <path d="M16 26.5C7.19997 32.1 3.3333 50.1667 2.49997 58.5C0.999967 60.1667 1.59997 62.7 16 59.5C14.8 50.3 22.1666 39.3333 26 35C22.5 30.5 21.5 29.5 16 26.5Z"
          fill="#CCCCCC"/>
    <path d="M50.8967 10.9692C40.8835 8.0478 24.7529 17.0568 17.9393 21.9264C15.6972 21.8981 14.1887 24.0199 26.0913 32.7336C32.2153 25.764 45.3172 24.0685 51.1027 24.092C52.1769 18.4933 52.2691 17.0821 50.8967 10.9692Z"
          fill="#CCCCCC"/>
    <path d="M86.8061 24.0578C81.034 15.3697 62.8947 11.8595 54.5465 11.1904C52.8507 9.72353 50.3296 10.3733 53.8125 24.7075C62.9871 23.3266 74.0967 30.4759 78.5046 34.2232C82.9349 30.6353 83.915 29.6158 86.8061 24.0578Z"
          fill="#CCCCCC"/>
    <path d="M100.45 60.6273C103.311 50.5966 94.2053 34.5206 89.2947 27.7364C89.3096 25.4942 87.1787 23.9985 78.5368 35.9533C85.5432 42.0353 87.3175 55.1268 87.3288 60.9123C92.9339 61.9528 94.3457 62.0364 100.45 60.6273Z"
          fill="#55AA12"/>
    <path d="M88.3257 23.9032C88.3195 23.8949 88.3133 23.8887 88.3071 23.8804C88.3008 23.8721 88.2926 23.868 88.2843 23.8618C78.6575 14.2453 65.607 8.84373 52 8.84373C38.393 8.84373 25.3425 14.2453 15.7157 23.8618C15.7074 23.868 15.7012 23.8742 15.6929 23.8804C15.6847 23.8866 15.6805 23.8949 15.6743 23.9032C10.8976 28.6588 7.11097 34.3141 4.53322 40.542C1.95547 46.77 0.637754 53.4472 0.656259 60.1875C0.656259 60.6268 0.830756 61.048 1.14136 61.3586C1.45197 61.6693 1.87324 61.8438 2.31251 61.8438H15.5625C16.0018 61.8438 16.423 61.6693 16.7337 61.3586C17.0443 61.048 17.2188 60.6268 17.2188 60.1875C17.2188 41.0081 32.8206 25.4062 52 25.4062C71.1794 25.4062 86.7812 41.0081 86.7812 60.1875C86.7812 60.6268 86.9557 61.048 87.2663 61.3586C87.577 61.6693 87.9982 61.8438 88.4375 61.8438H101.687C102.127 61.8438 102.548 61.6693 102.859 61.3586C103.169 61.048 103.344 60.6268 103.344 60.1875C103.362 53.4472 102.045 46.77 99.4668 40.542C96.889 34.3141 93.1024 28.6588 88.3257 23.9032ZM13.9415 58.5312H3.99567C4.36339 46.9364 8.94703 35.8737 16.8875 27.4165L23.9328 34.4618C17.8655 41.054 14.3262 49.5802 13.9415 58.5312ZM50.3438 22.131C41.3928 22.5152 32.8661 26.0529 26.2722 32.1182L19.229 25.075C27.6866 17.1357 38.7494 12.5535 50.3438 12.1873V22.131ZM53.6562 22.131V12.1873C65.2506 12.5535 76.3134 17.1357 84.771 25.075L77.7278 32.1182C71.1339 26.0529 62.6072 22.5152 53.6562 22.131ZM90.0585 58.5312C89.6738 49.5802 86.1345 41.054 80.0672 34.4618L87.1125 27.4165C95.053 35.8737 99.6366 46.9364 100.004 58.5312H90.0585Z"
          fill="black"/>
    <path d="M59.5473 55.2164L72.547 51.7275C72.9712 51.6137 73.3329 51.3359 73.5523 50.9554C73.7718 50.5749 73.8311 50.1228 73.7173 49.6986C73.6034 49.2743 73.3257 48.9127 72.9452 48.6932C72.5647 48.4737 72.1126 48.4144 71.6883 48.5283L58.6886 52.0172C57.8946 50.6137 56.616 49.5481 55.0924 49.02C53.5689 48.4918 51.905 48.5375 50.4127 49.1484C48.9205 49.7593 47.7022 50.8934 46.9863 52.3383C46.2704 53.7831 46.106 55.4395 46.524 56.9968C46.942 58.5542 47.9136 59.9057 49.2567 60.7979C50.5999 61.6901 52.2223 62.0619 53.8199 61.8435C55.4175 61.6251 56.8807 60.8315 57.935 59.6115C58.9894 58.3915 59.5626 56.8288 59.5473 55.2164V55.2164ZM49.7227 56.1384C49.5528 55.5056 49.5745 54.8367 49.7848 54.2162C49.9951 53.5958 50.3848 53.0516 50.9044 52.6526C51.424 52.2535 52.0502 52.0175 52.704 51.9744C53.3577 51.9313 54.0095 52.083 54.577 52.4103C55.1445 52.7377 55.6022 53.226 55.8922 53.8134C56.1823 54.4009 56.2915 55.0612 56.2063 55.7107C56.121 56.3603 55.8451 56.97 55.4133 57.4628C54.9815 57.9555 54.4133 58.3092 53.7806 58.479C52.9321 58.7056 52.0284 58.5865 51.2677 58.1477C50.5069 57.7089 49.9513 56.9863 49.7227 56.1384V56.1384Z"
          fill="black"/>
</svg>
