<svg xmlns="http://www.w3.org/2000/svg" width="1024.417" height="614.815"><path clip-rule="evenodd" fill="none" stroke="#000" stroke-width=".921" d="M248.495 151.051h527.211v316.271H248.495z"/><path fill="#002D62" stroke="#002D62" stroke-width=".485" d="M.243 1.188h1023.275v612.519H.243z"/><path fill="#FFF" stroke="#0063AD" stroke-width=".024" d="M.243 205.303h216.123L.243 75.578V1.188h123.655L410.7 191.713V1.188h203.227v182.537L889.385 1.188h134.133v75.037L808.264 205.303h215.254v204.265H806.324l217.194 129.345v74.794H898.793L613.927 424.209v189.498H410.7V423.404L123.898 613.707H.243v-75.278l216.123-128.861H.243z"/><path fill="#E31937" d="M.242 247.674h453.47V1.187h120.451v246.487h449.357v119.622H574.163l.467 246.413H453.712V367.296H.242z"/><path fill="#002D62" stroke="#002D62" stroke-width=".485" d="M612.578 192.301V.243h318.479zM411.783 192.301V.243H93.305zM612.898 422.514v192.059h318.479zM411.783 422.353v192.059H93.305z"/><path fill="#E31937" d="M340.92 205.396h-75.895L.183 46.781V.242zM682.736 409.74h75.895l264.843 158.239v46.431zM.431 602.789l317.95-190.427h67.538L50.41 613.711l-49.907-.028zM1024.183 13.841L704.23 205.583l-72.206.947L976.77.893h46.759z"/></svg>