<svg width="52" height="31" viewBox="0 0 52 31" fill="none" xmlns="http://www.w3.org/2000/svg">
<path d="M14.2394 24.6421L14.1535 24.726C12.8064 26.0932 11.2455 26.8179 9.63811 26.8179C6.28138 26.8179 3.84666 24.3086 3.84666 20.8476C3.84666 17.391 6.28138 14.8809 9.63811 14.8809C11.2455 14.8809 12.8064 15.6064 14.1535 16.9807L14.2394 17.0627L16.3989 14.4618L16.3411 14.3919C14.547 12.279 12.391 11.2505 9.74328 11.2505C7.0877 11.2505 4.6556 12.1419 2.908 13.7467C1.00176 15.4877 0 17.9411 0 20.8459C0 23.7533 1.00176 26.212 2.90712 27.9503C4.65473 29.5673 7.08682 30.4518 9.74241 30.4518C12.3901 30.4518 14.5461 29.4215 16.3402 27.3069L16.398 27.244L14.2394 24.6421Z" fill="#0B2272"/>
<path d="M22.3908 11.5525H18.5765V30.0981H22.3908V11.5525Z" fill="#0B2272"/>
<path d="M37.3292 26.067C36.3125 26.6835 35.366 26.9952 34.5132 26.9952C33.281 26.9952 32.7227 26.3464 32.7227 24.9023V15.0607H36.6097V11.5683H32.7227V5.79883L28.9873 7.79387V11.5692H25.7629V15.0616H28.9873V25.531C28.9873 28.379 30.6841 30.3313 33.2161 30.3837C34.9348 30.4168 35.9716 29.9069 36.5974 29.5315L36.6386 29.5044L37.5544 25.9317L37.3292 26.067Z" fill="#0B2272"/>
<path d="M44.3032 11.5525H40.4846V30.0981H44.3032V11.5525Z" fill="#0B2272"/>
<path d="M46.5282 8.30023C43.0444 3.38378 37.2599 0.451904 31.3721 0.451904C25.4886 0.451904 19.7015 3.38378 16.223 8.30023L16.045 8.55342H20.4316L20.4815 8.50104C23.4649 5.43034 27.365 3.80811 31.3729 3.80811C35.38 3.80811 39.2784 5.43034 42.2696 8.50104L42.3204 8.55342H46.7044L46.5282 8.30023Z" fill="#EB2227"/>
<path d="M51.5994 7.49427C51.5994 8.44333 50.8737 9.16626 49.9201 9.16626C48.9701 9.16626 48.2409 8.44421 48.2409 7.49427C48.2409 6.54434 48.9701 5.82141 49.9201 5.82141C50.8737 5.82141 51.5994 6.54434 51.5994 7.49427ZM51.9228 7.49427C51.9228 6.36273 51.0586 5.50098 49.9219 5.50098C48.7852 5.50098 47.9219 6.36273 47.9219 7.49427C47.9219 8.62581 48.7852 9.48669 49.9219 9.48669C51.0577 9.48669 51.9228 8.62581 51.9228 7.49427ZM50.836 7.02454C50.836 6.57315 50.5091 6.36709 50.1217 6.36709H49.1638V8.54199H49.5336V7.70382H49.9543L50.3803 8.54199H50.8176L50.3706 7.6654C50.6528 7.58245 50.836 7.36593 50.836 7.02454ZM50.4591 7.03589C50.4591 7.25155 50.3093 7.34584 50.1103 7.34584H49.5345V6.72681H50.1103C50.3093 6.72681 50.4591 6.83333 50.4591 7.03589Z" fill="#0B2272"/>
</svg>
