<svg width="70" height="21" viewBox="0 0 70 21" fill="none" xmlns="http://www.w3.org/2000/svg">
<path d="M10.13 0.884277C4.81009 0.884277 0.437561 5.18568 0.437561 10.4191C0.437561 15.6524 4.73721 19.9538 10.13 19.9538C15.4499 19.9538 19.8224 15.7241 19.8224 10.4191C19.8224 5.18568 15.4499 0.884277 10.13 0.884277Z" fill="white"/>
<path d="M18.6567 18.5879H18.8025C18.9482 18.5879 19.0211 18.6596 19.0211 18.803C19.0211 18.8747 18.9482 19.0181 18.8025 19.0181H18.6567V18.5879ZM18.6567 19.2332H18.7296C19.0211 19.2332 18.9482 19.3765 18.9482 19.5916C18.9482 19.6633 18.9482 19.8067 19.0211 19.8784H19.3855C19.3855 19.8067 19.3126 19.5199 19.3126 19.4482C19.3126 19.1615 19.094 19.1615 19.0211 19.1615C19.2398 19.1615 19.3126 18.9464 19.3126 18.803C19.3126 18.5163 19.1669 18.3729 18.8754 18.3729H18.2195V19.9501H18.5838V19.2332H18.6567ZM18.8025 17.7277C18.0737 17.7277 17.4178 18.3012 17.4178 19.0898C17.4178 19.8067 18.0008 20.4519 18.8025 20.4519C19.5313 20.4519 20.1872 19.8784 20.1872 19.0898C20.1872 18.3012 19.5313 17.7277 18.8025 17.7277ZM18.8025 20.1651C18.2195 20.1651 17.7093 19.6633 17.7093 19.0898C17.7093 18.5163 18.2195 18.0144 18.8025 18.0144C19.3855 18.0144 19.8957 18.5163 19.8957 19.0898C19.8957 19.6633 19.3855 20.1651 18.8025 20.1651Z" fill="#F58025"/>
<path d="M15.1581 11.8506H13.0447C13.1176 11.5639 13.1176 11.2771 12.899 10.9187L9.47381 5.04007C8.96368 4.17979 8.45355 3.53458 8.0163 3.03275C9.40093 3.74965 12.0973 5.25514 17.3444 8.26612L17.6359 8.4095C18.5832 8.98302 19.1662 9.8433 19.0205 10.4168C18.8019 11.3488 17.4172 11.8506 15.1581 11.8506ZM8.3078 17.5858L8.0163 17.8009C7.06892 18.3744 5.97579 18.3744 5.53853 17.9443C4.95553 17.3708 5.24703 15.937 6.34016 14.0013L7.36042 12.2091C7.57905 12.4241 7.87055 12.5675 8.23493 12.5675H15.0852C16.1055 12.5675 16.9071 12.4958 17.6359 12.2808C16.3241 13.141 13.6277 14.6465 8.3078 17.5858ZM4.66403 5.25514V4.89669C4.66403 3.82134 5.10128 2.88937 5.75716 2.74599C6.55879 2.53092 7.7248 3.53458 8.81793 5.39852L9.83819 7.19077C9.54668 7.26246 9.25518 7.47753 9.10943 7.76429L5.68429 13.5712C5.17416 14.4315 4.80978 15.1484 4.66403 15.8653C4.66403 14.3598 4.66403 11.2771 4.66403 5.25514ZM10.1297 0.451904C4.51828 0.451904 0 4.89669 0 10.4168C0 15.937 4.51828 20.3817 10.1297 20.3817C15.7411 20.3817 20.2594 15.937 20.2594 10.4168C20.2594 4.89669 15.7411 0.451904 10.1297 0.451904Z" fill="#F58025"/>
<path d="M30.7531 3.17041H24.1215H23.9758V3.81562H24.1215C26.4535 4.10238 26.745 4.38914 26.745 5.60787V17.9386H29.4413V11.4865H30.5344C33.085 11.4865 38.4048 11.4865 38.4048 7.32843C38.4048 3.17041 33.4494 3.17041 30.7531 3.17041ZM30.4616 10.4111H29.4413V5.60787C29.4413 4.46083 29.4413 4.31745 31.6276 4.31745C34.1053 4.31745 35.417 5.3928 35.417 7.40012C35.417 10.0527 32.8664 10.4111 30.4616 10.4111Z" fill="#B4C6D2"/>
<path d="M53.563 3.17041H51.9597V14.7125C51.5954 14.139 43.5791 3.17041 43.5791 3.17041H37.8948V3.81562H38.0405C40.3725 4.10238 40.664 4.24576 40.664 5.82294V17.9386H42.4131V5.53618C42.8503 6.1097 51.5225 17.9386 51.5225 17.9386H53.8545V3.17041H53.563Z" fill="#B4C6D2"/>
<path d="M55.8219 10.0568C55.8219 14.0715 58.2997 18.1578 63.9111 18.1578C66.5346 18.1578 67.8464 17.871 69.0852 17.5843H69.231V16.3656L69.0124 16.4372C67.7006 16.7957 66.4617 16.9391 65.4415 16.9391C60.9961 16.9391 58.8098 14.5016 58.8098 9.55499C58.8098 6.25725 60.4131 4.24993 63.1094 4.24993C64.9313 4.24993 65.9516 4.96683 66.2431 6.32894V6.47232H69.231V6.18556C69.1581 5.39697 68.4294 2.88782 63.2552 2.88782C58.2997 2.88782 55.8219 5.32528 55.8219 10.0568Z" fill="#B4C6D2"/>
</svg>
