<svg width="79" height="21" viewBox="0 0 79 21" fill="none" xmlns="http://www.w3.org/2000/svg">
<path d="M0 0.451904V15.9995L12.8797 20.4519L25.7243 15.9995V0.451904H0Z" fill="#D62A43"/>
<path d="M12.8444 15.4967H8.91386V14.0964H8.87876C8.10668 15.2095 7.01875 15.7481 5.40441 15.7481C3.47421 15.7481 1.75458 14.5631 1.75458 12.0497V4.54519H5.82554V10.2903C5.82554 11.547 5.96592 12.4447 7.15913 12.4447C7.86102 12.4447 8.77348 12.0856 8.77348 10.3262V4.54519H12.8444V15.4967ZM20.4599 7.74088C20.4249 7.38181 20.2494 7.09456 19.9686 6.91503C19.723 6.69959 19.4071 6.59187 19.0562 6.59187C18.4947 6.59187 17.8279 6.73549 17.8279 7.41772C17.8279 7.74088 18.0735 7.88451 18.3192 7.99223C18.986 8.27948 20.5301 8.3872 21.8988 8.81808C23.2675 9.24896 24.4607 10.0748 24.4607 11.8701C24.4607 14.9222 21.6181 15.7122 19.0211 15.7122C16.4943 15.7122 13.7569 14.6709 13.6867 11.8701H17.5822C17.6173 12.2651 17.7577 12.5524 18.0735 12.8396C18.2841 13.0192 18.6701 13.1628 19.1614 13.1628C19.6879 13.1628 20.5301 12.9473 20.5301 12.3369C20.5301 11.6906 20.1792 11.5111 18.2841 11.1879C15.1607 10.6493 13.9324 9.64393 13.9324 7.74088C13.9324 4.97607 16.8452 4.25793 18.986 4.25793C21.3022 4.25793 24.0747 4.90425 24.18 7.70497H20.4599V7.74088Z" fill="white"/>
<path d="M27.1986 0.451904H31.2696V5.76609H31.3047C31.9364 4.83252 33.0243 4.29392 34.2175 4.29392C37.7971 4.29392 38.7798 7.41779 38.7798 9.96717C38.7798 12.6961 37.3058 15.7481 34.2877 15.7481C32.2873 15.7481 31.6556 14.9582 31.1643 14.276H31.1292V15.4609H27.1986V0.451904ZM32.919 7.31007C31.445 7.31007 31.1292 8.71043 31.1292 10.0031C31.1292 11.2957 31.445 12.732 32.919 12.732C34.393 12.732 34.7088 11.3316 34.7088 10.0031C34.7088 8.74634 34.3579 7.31007 32.919 7.31007ZM50.1504 13.0551C50.1504 13.881 50.1855 14.8146 50.6417 15.4968H46.4655C46.3602 15.2095 46.29 14.7428 46.3251 14.4555H46.29C45.4127 15.4609 44.1843 15.7481 42.8508 15.7481C40.7802 15.7481 39.0956 14.7428 39.0956 12.4447C39.0956 8.99769 43.0613 9.10541 45.1319 8.71043C45.6934 8.60271 46.2549 8.42318 46.2549 7.74095C46.2549 6.98691 45.5881 6.73557 44.9213 6.73557C43.6579 6.73557 43.4123 7.38189 43.4123 7.84867H39.6221C39.7624 4.7607 42.6051 4.25801 45.1319 4.25801C50.2557 4.25801 50.1855 6.41241 50.1855 8.5309V13.0551H50.1504ZM46.2549 10.5776C45.7636 10.8289 45.2021 10.9726 44.6406 11.1162C43.7281 11.3316 43.2719 11.5471 43.2719 12.3011C43.2719 12.8038 43.7983 13.3065 44.5353 13.3065C45.4478 13.3065 46.1847 12.732 46.2549 11.583V10.5776ZM51.6244 4.54526H55.555V5.94562H55.5901C56.3621 4.83252 57.4501 4.29392 59.0644 4.29392C60.9946 4.29392 62.7493 5.47884 62.7493 7.9923V15.4968H58.6433V9.75173C58.6433 8.49499 58.5029 7.59733 57.3097 7.59733C56.6078 7.59733 55.6953 7.95639 55.6953 9.71582V15.4968H51.6244V4.54526ZM64.1882 0.451904H68.2592V7.70505L70.8562 4.54526H75.4536L71.6283 8.67453L76.0502 15.4968H71.1369L68.9611 11.5471L68.2241 12.337V15.4968H64.1531V0.451904H64.1882ZM77.8751 13.9887C78.0154 14.1323 78.1207 14.3478 78.1207 14.5632C78.1207 14.7787 78.0505 14.9941 77.8751 15.1377C77.7347 15.2814 77.5241 15.3891 77.3136 15.3891C77.103 15.3891 76.8924 15.3173 76.7521 15.1377C76.6117 14.9941 76.5064 14.7787 76.5064 14.5632C76.5064 14.3478 76.5766 14.1323 76.7521 13.9887C76.8924 13.8451 77.103 13.7374 77.3136 13.7374C77.5241 13.7733 77.7347 13.8451 77.8751 13.9887ZM77.9804 13.9169C77.8049 13.7374 77.5943 13.6296 77.3136 13.6296C77.0679 13.6296 76.8573 13.7374 76.6468 13.9169C76.4713 14.0964 76.366 14.3119 76.366 14.5991C76.366 14.8505 76.4713 15.1018 76.6468 15.2814C76.8222 15.4609 77.0328 15.5686 77.3136 15.5686C77.5592 15.5686 77.7698 15.4609 77.9804 15.2814C78.1558 15.1018 78.2611 14.8864 78.2611 14.5991C78.226 14.3119 78.1558 14.0964 77.9804 13.9169ZM77.4539 14.5273C77.4188 14.5273 77.3487 14.5632 77.2785 14.5632H77.103V14.2042H77.2434C77.3487 14.2042 77.4188 14.2042 77.4539 14.2401C77.489 14.276 77.5241 14.3119 77.5241 14.3837C77.5592 14.4555 77.5241 14.4914 77.4539 14.5273ZM76.9275 15.1018H77.103V14.7068H77.2434C77.3487 14.7068 77.4188 14.7068 77.4539 14.7428C77.5241 14.7787 77.5592 14.8505 77.5592 14.9941V15.1018H77.7347V14.8864C77.7347 14.8505 77.6996 14.7787 77.6645 14.7428C77.6294 14.6709 77.5592 14.6709 77.489 14.635C77.5592 14.635 77.5943 14.5991 77.6294 14.5991C77.6996 14.5632 77.7347 14.4914 77.7347 14.3837C77.7347 14.2401 77.6996 14.1682 77.5943 14.1323C77.5241 14.0964 77.4539 14.0964 77.3136 14.0964H76.9626V15.1018H76.9275Z" fill="#1B3281"/>
</svg>
